<svg width="122" height="85" viewBox="0 0 122 85" fill="none" xmlns="http://www.w3.org/2000/svg">
<rect x="101" y="31" width="20" height="20" rx="10" stroke="#07D9CA" stroke-width="2"/>
<path fill-rule="evenodd" clip-rule="evenodd" d="M112.172 40.9977L109.493 43.6822C109.103 44.0732 109.102 44.7087 109.49 45.1017C109.878 45.4946 110.509 45.4963 110.899 45.1053L113.854 42.1434C114.163 41.8336 114.228 41.3702 114.049 40.9956C114.226 40.6215 114.161 40.1597 113.852 39.8506L110.902 36.8932C110.512 36.5022 109.881 36.5038 109.493 36.8968C109.105 37.2898 109.106 37.9253 109.496 38.3162L112.172 40.9977Z" fill="#07DBC9"/>
<g opacity="0.8" filter="url(#filter0_dd_114_72)">
<path fill-rule="evenodd" clip-rule="evenodd" d="M45.3805 45.3482L44.9288 51.6156H12.0985L11.9292 41.9785L26.6343 27.5777C27.7894 26.5066 28.7731 25.5382 29.3094 24.7144C29.5321 24.3967 29.8468 24.0503 30.1588 23.7068C30.6561 23.1594 31.1467 22.6193 31.2481 22.2143C31.3404 21.901 31.4796 21.6835 31.6052 21.4871C31.7604 21.2444 31.895 21.034 31.895 20.7153C31.895 19.3147 31.4689 18.3262 30.52 17.5435C29.6124 16.7609 28.9394 16.758 27.0829 16.758C25.5152 16.758 23.9575 17.3754 22.5961 18.0756C21.7351 18.5185 21.0016 19.3031 20.2446 20.1127C19.8046 20.5834 19.3566 21.0625 18.8711 21.4879L11.2231 12.2154C11.2231 12.2154 9.8466 13.2022 8.89843 16.2362C8.89843 16.2362 8 18.0756 8 22.7394V60.26C8 68.4008 14.6147 75.0002 22.7743 75.0002H60.3818C68.4392 75.0002 74.99 68.5652 75.153 60.5655L58.8455 46.3582L45.3805 45.3482Z" fill="url(#paint0_linear_114_72)"/>
</g>
<path d="M45.6003 51.2745H46.1003V50.7745V40.7218V40.2218H45.6003H29.4407L32.1199 37.8058C32.12 37.8058 32.12 37.8058 32.1201 37.8057C34.2793 35.8626 36.1658 34.0864 37.7786 32.4773C39.4408 30.8189 40.8124 29.2169 41.8889 27.6709C43.0129 26.1175 43.8403 24.513 44.3647 22.8576C44.9321 21.158 45.2131 19.3138 45.2131 17.3288C45.2131 14.8745 44.5527 12.6688 43.227 10.7275C41.9464 8.79041 40.1414 7.2806 37.8319 6.19307C35.5108 5.05782 32.7718 4.5 29.6308 4.5C26.5968 4.5 24.0045 4.86174 21.8671 5.60082C19.7582 6.28826 17.8972 7.19363 16.2894 8.32084L16.2894 8.32081L16.2841 8.32459C15.2346 9.08084 14.3225 9.96713 13.44 10.8246C13.0214 11.2314 12.6094 11.6317 12.1926 12.0085L11.8537 12.3149L12.1285 12.68L18.4552 21.0875L18.7764 21.5143L19.181 21.1656C19.6501 20.7614 20.0744 20.3813 20.4671 20.0279C20.5076 19.9915 20.5478 19.9553 20.5876 19.9195C20.935 19.6069 21.2564 19.3176 21.567 19.0484C22.2591 18.4488 22.8774 17.9673 23.5511 17.5916C24.4675 17.0807 25.7317 16.6274 26.9963 16.47C28.2699 16.3115 29.4649 16.4617 30.3189 17.0581L30.3188 17.0582L30.3283 17.0645C31.8687 18.0891 32.2562 20.2681 31.4018 21.973C30.925 22.9244 30.0522 24.1071 28.7548 25.5268L28.7547 25.5267L28.7493 25.5328C27.4896 26.9572 25.7235 28.8663 23.449 31.2618L12.2499 41.6541L12.0854 41.8068L12.0901 42.0312L12.2743 50.7851L12.2846 51.2745H12.7742H45.6003Z" stroke="#07DAC9"/>
<path d="M48.9335 71.2185L48.9335 71.2185L48.9382 71.2215C51.8471 73.1103 55.4704 74.0379 59.7772 74.0379C63.4981 74.0379 66.768 73.3133 69.5715 71.8463C72.4123 70.3831 74.6227 68.3417 76.1886 65.7236C77.8015 63.1018 78.6019 60.0964 78.6019 56.7234C78.6019 53.5408 77.9409 50.7818 76.5958 48.4672C75.2587 46.1218 73.4318 44.3202 71.1195 43.0737C68.8081 41.7831 66.1821 41.1438 63.2549 41.1438C61.4711 41.1438 59.7936 41.3946 58.2256 41.8999C57.1969 42.2022 56.2693 42.5865 55.4463 43.0554C56.2417 41.5191 57.2518 40.2969 58.4709 39.3758C60.0962 38.1817 62.0518 37.3634 64.3506 36.9307L64.3506 36.9308L64.3576 36.9293C66.7176 36.4497 69.3732 36.2731 72.328 36.4051L72.8503 36.4284V35.9056V25.7635V25.2865L72.3738 25.2641C67.6009 25.0395 63.2411 25.5105 59.3 26.6856L59.2984 26.686C55.4033 27.8609 52.0189 29.6719 49.153 32.1226L49.153 32.1226L49.15 32.1252C46.3277 34.5776 44.144 37.5747 42.5995 41.11L42.5994 41.11L42.5982 41.1129C41.0962 44.6094 40.3506 48.5481 40.3506 52.9202C40.3506 56.8069 41.0531 60.3469 42.4669 63.532C43.8872 66.7316 46.0447 69.2971 48.9335 71.2185ZM63.6693 60.653L63.6692 60.653L63.6649 60.663C63.2977 61.5178 62.7784 62.1467 62.1143 62.5754C61.4442 63.008 60.6706 63.2294 59.7772 63.2294C58.2077 63.2294 57.0454 62.7221 56.2207 61.7474C55.388 60.6644 54.8415 59.3904 54.5867 57.9143C54.3782 56.4117 54.3942 55.0447 54.6258 53.8089C54.9799 53.3918 55.3683 53.0308 55.7906 52.7243L55.7907 52.7244L55.7966 52.72C56.2842 52.3551 56.8091 52.0938 57.3729 51.9331L57.3833 51.9301L57.3936 51.9267C58.0109 51.7214 58.6487 51.6186 59.3091 51.6186C60.4802 51.6186 61.3958 51.8892 62.0932 52.3917C62.8146 52.9115 63.3602 53.6127 63.7286 54.5111L63.7285 54.5111L63.7318 54.5187C64.1028 55.3825 64.2931 56.3594 64.2931 57.4574C64.2931 58.6899 64.0802 59.7511 63.6693 60.653Z" fill="#1F586C" stroke="#07DAC9"/>
<defs>
<filter id="filter0_dd_114_72" x="0" y="0.578369" width="83.153" height="84.4219" filterUnits="userSpaceOnUse" color-interpolation-filters="sRGB">
<feFlood flood-opacity="0" result="BackgroundImageFix"/>
<feColorMatrix in="SourceAlpha" type="matrix" values="0 0 0 0 0 0 0 0 0 0 0 0 0 0 0 0 0 0 127 0" result="hardAlpha"/>
<feMorphology radius="2" operator="dilate" in="SourceAlpha" result="effect1_dropShadow_114_72"/>
<feOffset dy="2"/>
<feGaussianBlur stdDeviation="3"/>
<feColorMatrix type="matrix" values="0 0 0 0 0 0 0 0 0 0 0 0 0 0 0 0 0 0 0.15 0"/>
<feBlend mode="normal" in2="BackgroundImageFix" result="effect1_dropShadow_114_72"/>
<feColorMatrix in="SourceAlpha" type="matrix" values="0 0 0 0 0 0 0 0 0 0 0 0 0 0 0 0 0 0 127 0" result="hardAlpha"/>
<feOffset dy="1"/>
<feGaussianBlur stdDeviation="1"/>
<feColorMatrix type="matrix" values="0 0 0 0 0 0 0 0 0 0 0 0 0 0 0 0 0 0 0.3 0"/>
<feBlend mode="normal" in2="effect1_dropShadow_114_72" result="effect2_dropShadow_114_72"/>
<feBlend mode="normal" in="SourceGraphic" in2="effect2_dropShadow_114_72" result="shape"/>
</filter>
<linearGradient id="paint0_linear_114_72" x1="32.8466" y1="6.59589" x2="66.6819" y2="74.5886" gradientUnits="userSpaceOnUse">
<stop offset="0.04" stop-color="#00FFDD"/>
<stop offset="1" stop-color="#00B5FD"/>
</linearGradient>
</defs>
</svg>
