<svg width="365" height="68" viewBox="0 0 365 68" fill="none" xmlns="http://www.w3.org/2000/svg">
<g opacity="0.9">
<path d="M107.092 16.1968L107.977 10.885L102.934 12.7747L107.092 16.1968Z" fill="black"/>
<path d="M221.828 41.2542L220.382 44.1865L222.724 46.4679L219.489 45.9988L218.043 48.9311L217.489 45.7089L214.253 45.2399L217.147 43.7175L216.593 40.4953L218.935 42.7766L221.828 41.2542Z" fill="#333333"/>
<circle cx="1.5" cy="1.5" r="1.5" transform="matrix(-1 0 0 1 72.0015 45.252)" fill="#333333"/>
<circle cx="1.5" cy="1.5" r="1.5" transform="matrix(-1 0 0 1 164.652 16.5645)" fill="#333333"/>
<path fill-rule="evenodd" clip-rule="evenodd" d="M270.694 3.4327L275.869 8.1461C277.094 9.26173 277.183 11.1592 276.067 12.3841L271.354 17.5594C270.238 18.7844 268.341 18.873 267.116 17.7574L261.941 13.044C260.716 11.9284 260.627 10.0309 261.743 8.80598L266.456 3.63067C267.572 2.4057 269.469 2.31707 270.694 3.4327ZM265.717 2.95732C267.204 1.32404 269.734 1.20586 271.367 2.69337L276.543 7.40676C278.176 8.89427 278.294 11.4242 276.807 13.0575L272.093 18.2328C270.606 19.8661 268.076 19.9842 266.443 18.4967L261.267 13.7833C259.634 12.2958 259.516 9.76593 261.003 8.13264L265.717 2.95732Z" fill="#333333"/>
<path fill-rule="evenodd" clip-rule="evenodd" d="M3.00024 18.5645H7.00024C8.10481 18.5645 9.00024 19.4599 9.00024 20.5645V24.5645C9.00024 25.669 8.10481 26.5645 7.00024 26.5645H3.00024C1.89567 26.5645 1.00024 25.669 1.00024 24.5645V20.5645C1.00024 19.4599 1.89567 18.5645 3.00024 18.5645ZM0.000244141 20.5645C0.000244141 18.9076 1.34339 17.5645 3.00024 17.5645H7.00024C8.6571 17.5645 10.0002 18.9076 10.0002 20.5645V24.5645C10.0002 26.2213 8.6571 27.5645 7.00024 27.5645H3.00024C1.34339 27.5645 0.000244141 26.2213 0.000244141 24.5645V20.5645Z" fill="#333333"/>
<path fill-rule="evenodd" clip-rule="evenodd" d="M150.508 44.5851C150.836 45.1384 150.648 45.837 150.088 46.1456L141.314 50.9799C141.024 51.1399 140.674 51.1692 140.354 51.0603C140.034 50.9514 139.774 50.7148 139.641 50.4104L137.501 45.5367C137.244 44.9499 137.518 44.2806 138.114 44.0418C138.71 43.8031 139.402 44.0852 139.659 44.6719L141.271 48.3447L148.899 44.142C149.459 43.8335 150.179 44.0318 150.508 44.5851Z" fill="#333333"/>
<rect x="133.118" y="26.7851" width="31" height="31" rx="8.5" transform="rotate(20.6282 133.118 26.7851)" stroke="#333333"/>
<circle cx="1.5" cy="1.5" r="1.5" transform="matrix(-1 0 0 1 291.241 41.8291)" fill="#333333"/>
</g>
<path d="M358.501 28.5861V21.5C358.501 19.8431 357.158 18.5 355.501 18.5H348.751M337.25 18.5H330.5C328.843 18.5 327.5 19.8431 327.5 21.5V28.2502M327.5 39.7507L327.5 46.5009C327.5 48.1578 328.843 49.5009 330.5 49.5009L337.25 49.5009M348.751 49.5009L355.501 49.5009C357.158 49.5009 358.501 48.1578 358.501 46.5009V39.8725" stroke="black"/>
<path d="M361.501 23.5861V18.5C361.501 16.8431 360.158 15.5 358.501 15.5H353.751M332.25 15.5H327.5C325.843 15.5 324.5 16.8431 324.5 18.5V23.2502M324.5 44.7507V49.5009C324.5 51.1578 325.843 52.5009 327.5 52.5009H332.25M353.751 52.5009H358.501C360.158 52.5009 361.501 51.1578 361.501 49.5009V44.8725" stroke="black"/>
<mask id="path-13-outside-1_69_10050" maskUnits="userSpaceOnUse" x="335" y="24" width="17" height="19" fill="black">
<rect fill="white" x="335" y="24" width="17" height="19"/>
<path fill-rule="evenodd" clip-rule="evenodd" d="M351 41C351 41.5523 350.552 42 350 42H337C336.448 42 336 41.5523 336 41V26C336 25.4477 336.448 25 337 25H345.087C345.352 25 345.605 25.1047 345.793 25.2912L350.705 30.1809C350.894 30.3685 351 30.6236 351 30.8896V41ZM345 27.499C345 27.2229 344.776 26.999 344.5 26.999C344.224 26.999 344 27.2229 344 27.499V31.499C344 31.7752 344.224 31.999 344.5 31.999H348.5C348.776 31.999 349 31.7752 349 31.499C349 31.2229 348.776 30.999 348.5 30.999H345V27.499Z"/>
</mask>
<path fill-rule="evenodd" clip-rule="evenodd" d="M351 41C351 41.5523 350.552 42 350 42H337C336.448 42 336 41.5523 336 41V26C336 25.4477 336.448 25 337 25H345.087C345.352 25 345.605 25.1047 345.793 25.2912L350.705 30.1809C350.894 30.3685 351 30.6236 351 30.8896V41ZM345 27.499C345 27.2229 344.776 26.999 344.5 26.999C344.224 26.999 344 27.2229 344 27.499V31.499C344 31.7752 344.224 31.999 344.5 31.999H348.5C348.776 31.999 349 31.7752 349 31.499C349 31.2229 348.776 30.999 348.5 30.999H345V27.499Z" fill="url(#paint0_linear_69_10050)"/>
<path d="M345.793 25.2912L346.498 24.5824L346.498 24.5824L345.793 25.2912ZM350.705 30.1809L350 30.8896L350 30.8896L350.705 30.1809ZM345 30.999H344V31.999H345V30.999ZM350 43C351.105 43 352 42.1046 352 41H350V43ZM337 43H350V41H337V43ZM335 41C335 42.1046 335.895 43 337 43V41H337H335ZM335 26V41H337V26H335ZM337 24C335.895 24 335 24.8954 335 26H337V26V24ZM345.087 24H337V26H345.087V24ZM346.498 24.5824C346.123 24.2094 345.616 24 345.087 24V26L345.087 26L346.498 24.5824ZM351.411 29.4721L346.498 24.5824L345.087 26L350 30.8896L351.411 29.4721ZM352 30.8896C352 30.3576 351.788 29.8474 351.411 29.4721L350 30.8896L350 30.8896H352ZM352 41V30.8896H350V41H352ZM344.5 27.999C344.224 27.999 344 27.7752 344 27.499H346C346 26.6706 345.328 25.999 344.5 25.999V27.999ZM345 27.499C345 27.7752 344.776 27.999 344.5 27.999V25.999C343.672 25.999 343 26.6706 343 27.499H345ZM345 31.499V27.499H343V31.499H345ZM344.5 30.999C344.776 30.999 345 31.2229 345 31.499H343C343 32.3275 343.672 32.999 344.5 32.999V30.999ZM348.5 30.999H344.5V32.999H348.5V30.999ZM348 31.499C348 31.2229 348.224 30.999 348.5 30.999V32.999C349.328 32.999 350 32.3275 350 31.499H348ZM348.5 31.999C348.224 31.999 348 31.7752 348 31.499H350C350 30.6706 349.328 29.999 348.5 29.999V31.999ZM345 31.999H348.5V29.999H345V31.999ZM344 27.499V30.999H346V27.499H344Z" fill="#333333" mask="url(#path-13-outside-1_69_10050)"/>
<defs>
<linearGradient id="paint0_linear_69_10050" x1="336" y1="24.3359" x2="352.949" y2="39.8747" gradientUnits="userSpaceOnUse">
<stop stop-color="#FFC671"/>
<stop offset="0.59375" stop-color="#FF7541"/>
<stop offset="1" stop-color="#FF6F3D"/>
</linearGradient>
</defs>
</svg>
