<svg width="474" height="62" viewBox="0 0 474 62" fill="none" xmlns="http://www.w3.org/2000/svg">
<g opacity="0.9">
<path d="M147.546 39.0796L150.367 41.401L150.967 37.7977L147.546 39.0796Z" fill="white" stroke="#333333"/>
<path fill-rule="evenodd" clip-rule="evenodd" d="M322.762 11.555L330.346 15.8842C331.305 16.4318 331.639 17.6533 331.092 18.6126L326.762 26.1964C326.215 27.1556 324.993 27.4893 324.034 26.9417L316.45 22.6125C315.491 22.0649 315.157 20.8434 315.705 19.8841L320.034 12.3004C320.582 11.3411 321.803 11.0074 322.762 11.555ZM319.166 11.8046C319.987 10.3657 321.819 9.8651 323.258 10.6865L330.842 15.0157C332.281 15.8371 332.781 17.6695 331.96 19.1084L327.631 26.6921C326.809 28.131 324.977 28.6316 323.538 27.8102L315.954 23.481C314.516 22.6596 314.015 20.8273 314.836 19.3883L319.166 11.8046Z" fill="#333333"/>
<path fill-rule="evenodd" clip-rule="evenodd" d="M424.942 14.5648L427.77 17.3932C428.552 18.1742 428.552 19.4406 427.77 20.2216L424.942 23.05C424.161 23.8311 422.895 23.8311 422.114 23.05L419.285 20.2216C418.504 19.4406 418.504 18.1742 419.285 17.3932L422.114 14.5648C422.895 13.7837 424.161 13.7837 424.942 14.5648ZM421.407 13.8576C422.578 12.6861 424.478 12.6861 425.649 13.8576L428.478 16.6861C429.649 17.8576 429.649 19.7571 428.478 20.9287L425.649 23.7571C424.478 24.9287 422.578 24.9287 421.407 23.7571L418.578 20.9287C417.407 19.7571 417.407 17.8576 418.578 16.6861L421.407 13.8576Z" fill="#333333"/>
<circle cx="2" cy="2" r="1.5" transform="matrix(-1 0 0 1 474 34.2329)" fill="white" stroke="#333333"/>
<circle cx="1.5" cy="1.5" r="1" transform="matrix(-1 0 0 1 376.734 34.8818)" fill="white" stroke="#333333"/>
<circle cx="1.5" cy="1.5" r="1" transform="matrix(-1 0 0 1 72.3418 30.0156)" fill="white" stroke="#333333"/>
<circle cx="1.5" cy="1.5" r="1" transform="matrix(-1 0 0 1 251.946 12.4277)" fill="white" stroke="#333333"/>
<mask id="path-8-outside-1_70_10054" maskUnits="userSpaceOnUse" x="204.504" y="18.2029" width="44.0908" height="44.0908" fill="black">
<rect fill="white" x="204.504" y="18.2029" width="44.0908" height="44.0908"/>
<path d="M207.799 35.9549C206.656 31.6872 209.188 27.3005 213.456 26.157L230.843 21.4982C235.11 20.3547 239.497 22.8874 240.641 27.1551L245.299 44.5418C246.443 48.8095 243.91 53.1962 239.642 54.3397L222.256 58.9985C217.988 60.142 213.601 57.6093 212.458 53.3416L207.799 35.9549Z"/>
</mask>
<path d="M207.799 35.9549C206.656 31.6872 209.188 27.3005 213.456 26.157L230.843 21.4982C235.11 20.3547 239.497 22.8874 240.641 27.1551L245.299 44.5418C246.443 48.8095 243.91 53.1962 239.642 54.3397L222.256 58.9985C217.988 60.142 213.601 57.6093 212.458 53.3416L207.799 35.9549Z" fill="white" fill-opacity="0.1"/>
<path d="M212.458 53.3416L211.492 53.6004L212.458 53.3416ZM245.299 44.5418L244.333 44.8006L245.299 44.5418ZM240.641 27.1551L241.606 26.8963L240.641 27.1551ZM207.799 35.9549L208.765 35.6961L207.799 35.9549ZM213.715 27.1229L231.101 22.4642L230.584 20.5323L213.197 25.1911L213.715 27.1229ZM239.675 27.4139L244.333 44.8006L246.265 44.2829L241.606 26.8963L239.675 27.4139ZM239.384 53.3738L221.997 58.0325L222.515 59.9644L239.901 55.3056L239.384 53.3738ZM213.424 53.0828L208.765 35.6961L206.833 36.2138L211.492 53.6004L213.424 53.0828ZM221.997 58.0325C218.263 59.0331 214.424 56.8171 213.424 53.0828L211.492 53.6004C212.778 58.4016 217.713 61.2509 222.515 59.9644L221.997 58.0325ZM244.333 44.8006C245.334 48.5348 243.118 52.3732 239.384 53.3738L239.901 55.3056C244.702 54.0192 247.552 49.0841 246.265 44.2829L244.333 44.8006ZM231.101 22.4642C234.836 21.4636 238.674 23.6797 239.675 27.4139L241.606 26.8963C240.32 22.0951 235.385 19.2458 230.584 20.5323L231.101 22.4642ZM213.197 25.1911C208.396 26.4775 205.547 31.4126 206.833 36.2138L208.765 35.6961C207.764 31.9619 209.98 28.1235 213.715 27.1229L213.197 25.1911Z" fill="#333333" mask="url(#path-8-outside-1_70_10054)"/>
<mask id="path-10-outside-2_70_10054" maskUnits="userSpaceOnUse" x="215.88" y="29.4864" width="21.3383" height="22.7525" fill="black">
<rect fill="white" x="215.88" y="29.4864" width="21.3383" height="22.7525"/>
<path fill-rule="evenodd" clip-rule="evenodd" d="M235.735 46.1659C235.878 46.6994 235.561 47.2477 235.028 47.3907L222.471 50.7553C221.937 50.8982 221.389 50.5817 221.246 50.0482L217.364 35.5593C217.221 35.0258 217.537 34.4775 218.071 34.3346L225.883 32.2415C226.138 32.173 226.41 32.2085 226.639 32.3402L232.65 35.7917C232.881 35.9241 233.049 36.1431 233.118 36.4001L235.735 46.1659ZM226.445 34.6788C226.374 34.4121 226.1 34.2538 225.833 34.3253C225.566 34.3967 225.408 34.6709 225.479 34.9376L226.515 38.8013C226.586 39.0681 226.86 39.2264 227.127 39.1549L230.991 38.1196C231.258 38.0482 231.416 37.774 231.344 37.5073C231.273 37.2405 230.999 37.0822 230.732 37.1537L227.351 38.0596L226.445 34.6788Z"/>
</mask>
<path d="M235.735 46.1659L236.701 45.9071L235.735 46.1659ZM221.246 50.0482L220.28 50.307L221.246 50.0482ZM217.364 35.5593L218.33 35.3005L217.364 35.5593ZM226.639 32.3402L227.137 31.473L227.137 31.473L226.639 32.3402ZM232.65 35.7917L232.152 36.6589L232.152 36.6589L232.65 35.7917ZM233.118 36.4001L232.152 36.6589L233.118 36.4001ZM226.445 34.6788L227.411 34.42L226.445 34.6788ZM227.127 39.1549L226.868 38.189L227.127 39.1549ZM230.991 38.1196L231.25 39.0856L230.991 38.1196ZM230.732 37.1537L230.991 38.1196L230.732 37.1537ZM227.351 38.0596L226.385 38.3184L226.644 39.2843L227.61 39.0255L227.351 38.0596ZM235.287 48.3566C236.354 48.0707 236.987 46.974 236.701 45.9071L234.769 46.4247L234.769 46.4247L235.287 48.3566ZM222.73 51.7212L235.287 48.3566L234.769 46.4247L222.212 49.7894L222.73 51.7212ZM220.28 50.307C220.566 51.3739 221.663 52.0071 222.73 51.7212L222.212 49.7894L222.212 49.7894L220.28 50.307ZM216.398 35.8181L220.28 50.307L222.212 49.7894L218.33 35.3005L216.398 35.8181ZM217.812 33.3686C216.745 33.6545 216.112 34.7512 216.398 35.8181L218.33 35.3005L218.33 35.3005L217.812 33.3686ZM225.624 31.2755L217.812 33.3686L218.33 35.3005L226.141 33.2074L225.624 31.2755ZM227.137 31.473C226.679 31.2097 226.134 31.1387 225.624 31.2755L226.141 33.2074L226.141 33.2074L227.137 31.473ZM233.148 34.9245L227.137 31.473L226.141 33.2074L232.152 36.6589L233.148 34.9245ZM234.084 36.1412C233.946 35.6273 233.61 35.1894 233.148 34.9245L232.152 36.6589L232.152 36.6589L234.084 36.1412ZM236.701 45.9071L234.084 36.1412L232.152 36.6589L234.769 46.4247L236.701 45.9071ZM226.092 35.2912C225.825 35.3627 225.551 35.2044 225.479 34.9376L227.411 34.42C227.197 33.6198 226.374 33.1449 225.574 33.3593L226.092 35.2912ZM226.445 34.6788C226.517 34.9456 226.359 35.2197 226.092 35.2912L225.574 33.3593C224.774 33.5738 224.299 34.3963 224.514 35.1965L226.445 34.6788ZM227.481 38.5425L226.445 34.6788L224.514 35.1965L225.549 39.0602L227.481 38.5425ZM226.868 38.189C227.135 38.1175 227.409 38.2758 227.481 38.5425L225.549 39.0602C225.763 39.8604 226.586 40.3352 227.386 40.1208L226.868 38.189ZM230.732 37.1537L226.868 38.189L227.386 40.1208L231.25 39.0856L230.732 37.1537ZM230.378 37.7661C230.307 37.4993 230.465 37.2252 230.732 37.1537L231.25 39.0856C232.05 38.8711 232.525 38.0486 232.31 37.2484L230.378 37.7661ZM230.991 38.1196C230.724 38.1911 230.45 38.0328 230.378 37.7661L232.31 37.2484C232.096 36.4482 231.273 35.9734 230.473 36.1878L230.991 38.1196ZM227.61 39.0255L230.991 38.1196L230.473 36.1878L227.092 37.0936L227.61 39.0255ZM225.479 34.9376L226.385 38.3184L228.317 37.8007L227.411 34.42L225.479 34.9376Z" fill="#333333" mask="url(#path-10-outside-2_70_10054)"/>
<path d="M190.904 3.13998L189.458 6.07229L191.8 8.35362L188.564 7.88455L187.118 10.8169L186.565 7.59466L183.329 7.12559L186.222 5.60322L185.669 2.38102L188.01 4.66235L190.904 3.13998Z" fill="#333333"/>
<path d="M308.167 42.0825L309.052 36.7708L304.009 38.6604L308.167 42.0825Z" fill="black"/>
</g>
<path fill-rule="evenodd" clip-rule="evenodd" d="M12.1565 27.2157L9.49358 29.8847C9.1035 30.2757 9.10187 30.9112 9.48993 31.3042C9.878 31.6972 10.5088 31.6988 10.8989 31.3078L13.8539 28.3459C14.1589 28.0403 14.2264 27.5852 14.056 27.2134C14.2246 26.8421 14.1565 26.3888 13.8525 26.084L10.9018 23.1266C10.5117 22.7356 9.88094 22.7372 9.49287 23.1302C9.10481 23.5231 9.10644 24.1587 9.49651 24.5496L12.1565 27.2157Z" fill="#333333"/>
<rect x="1" y="17.2334" width="20" height="20" rx="10" stroke="#333333" stroke-width="2"/>
</svg>
