<svg width="63" height="48" viewBox="0 0 63 48" fill="none" xmlns="http://www.w3.org/2000/svg">
<path d="M10.66 11.15C12.7 11.15 14.48 11.5167 16 12.25C17.5333 12.97 18.7267 14.13 19.58 15.73C20.4333 17.3167 20.86 19.43 20.86 22.07C20.86 25.1633 20.2933 27.75 19.16 29.83C18.0267 31.8967 16.3867 33.45 14.24 34.49C12.0933 35.5167 9.49333 36.03 6.44 36.03C5.21333 36.03 4.27333 35.8033 3.62 35.35C2.96667 34.8833 2.64 34.29 2.64 33.57C2.64 32.8367 2.95333 32.2633 3.58 31.85C4.20667 31.4233 5.12 31.21 6.32 31.21C7.78667 31.21 9.02667 31.0233 10.04 30.65C11.0533 30.2767 11.8667 29.7167 12.48 28.97C13.1067 28.2233 13.5533 27.3033 13.82 26.21C13.14 26.7833 12.36 27.25 11.48 27.61C10.6 27.97 9.64667 28.15 8.62 28.15C7.1 28.15 5.76667 27.83 4.62 27.19C3.47333 26.5367 2.58 25.5967 1.94 24.37C1.31333 23.13 1 21.61 1 19.81C1 18.0233 1.38 16.4833 2.14 15.19C2.91333 13.8967 4.02 12.9033 5.46 12.21C6.9 11.5033 8.63333 11.15 10.66 11.15ZM7.26 19.83C7.26 20.7767 7.4 21.5567 7.68 22.17C7.97333 22.77 8.36667 23.2167 8.86 23.51C9.36667 23.79 9.94 23.93 10.58 23.93C11.2733 23.93 11.88 23.7833 12.4 23.49C12.92 23.1967 13.3467 22.75 13.68 22.15C14.0267 21.55 14.24 20.81 14.32 19.93C14.2267 18.7967 14.0133 17.9233 13.68 17.31C13.3467 16.6833 12.92 16.25 12.4 16.01C11.8933 15.77 11.3133 15.65 10.66 15.65C9.51333 15.65 8.66 15.99 8.1 16.67C7.54 17.35 7.26 18.4033 7.26 19.83Z" fill="#CCDBFB"/>
<path d="M10.66 11.15C12.7 11.15 14.48 11.5167 16 12.25C17.5333 12.97 18.7267 14.13 19.58 15.73C20.4333 17.3167 20.86 19.43 20.86 22.07C20.86 25.1633 20.2933 27.75 19.16 29.83C18.0267 31.8967 16.3867 33.45 14.24 34.49C12.0933 35.5167 9.49333 36.03 6.44 36.03C5.21333 36.03 4.27333 35.8033 3.62 35.35C2.96667 34.8833 2.64 34.29 2.64 33.57C2.64 32.8367 2.95333 32.2633 3.58 31.85C4.20667 31.4233 5.12 31.21 6.32 31.21C7.78667 31.21 9.02667 31.0233 10.04 30.65C11.0533 30.2767 11.8667 29.7167 12.48 28.97C13.1067 28.2233 13.5533 27.3033 13.82 26.21C13.14 26.7833 12.36 27.25 11.48 27.61C10.6 27.97 9.64667 28.15 8.62 28.15C7.1 28.15 5.76667 27.83 4.62 27.19C3.47333 26.5367 2.58 25.5967 1.94 24.37C1.31333 23.13 1 21.61 1 19.81C1 18.0233 1.38 16.4833 2.14 15.19C2.91333 13.8967 4.02 12.9033 5.46 12.21C6.9 11.5033 8.63333 11.15 10.66 11.15ZM7.26 19.83C7.26 20.7767 7.4 21.5567 7.68 22.17C7.97333 22.77 8.36667 23.2167 8.86 23.51C9.36667 23.79 9.94 23.93 10.58 23.93C11.2733 23.93 11.88 23.7833 12.4 23.49C12.92 23.1967 13.3467 22.75 13.68 22.15C14.0267 21.55 14.24 20.81 14.32 19.93C14.2267 18.7967 14.0133 17.9233 13.68 17.31C13.3467 16.6833 12.92 16.25 12.4 16.01C11.8933 15.77 11.3133 15.65 10.66 15.65C9.51333 15.65 8.66 15.99 8.1 16.67C7.54 17.35 7.26 18.4033 7.26 19.83Z" fill="url(#paint0_linear_7885_37035)"/>
<path d="M27.2256 37.05C26.3323 37.05 25.519 36.83 24.7856 36.39C24.0523 35.9633 23.4656 35.3833 23.0256 34.65C22.599 33.9033 22.3856 33.09 22.3856 32.21C22.3856 31.3033 22.599 30.4833 23.0256 29.75C23.4656 29.0167 24.0523 28.4367 24.7856 28.01C25.519 27.5833 26.3323 27.37 27.2256 27.37C28.119 27.37 28.9256 27.5833 29.6456 28.01C30.379 28.4367 30.959 29.0167 31.3856 29.75C31.8256 30.4833 32.0456 31.3033 32.0456 32.21C32.0456 33.09 31.8256 33.9033 31.3856 34.65C30.959 35.3833 30.379 35.9633 29.6456 36.39C28.9256 36.83 28.119 37.05 27.2256 37.05Z" fill="#CCDBFB"/>
<path d="M27.2256 37.05C26.3323 37.05 25.519 36.83 24.7856 36.39C24.0523 35.9633 23.4656 35.3833 23.0256 34.65C22.599 33.9033 22.3856 33.09 22.3856 32.21C22.3856 31.3033 22.599 30.4833 23.0256 29.75C23.4656 29.0167 24.0523 28.4367 24.7856 28.01C25.519 27.5833 26.3323 27.37 27.2256 27.37C28.119 27.37 28.9256 27.5833 29.6456 28.01C30.379 28.4367 30.959 29.0167 31.3856 29.75C31.8256 30.4833 32.0456 31.3033 32.0456 32.21C32.0456 33.09 31.8256 33.9033 31.3856 34.65C30.959 35.3833 30.379 35.9633 29.6456 36.39C28.9256 36.83 28.119 37.05 27.2256 37.05Z" fill="url(#paint1_linear_7885_37035)"/>
<path d="M49.3713 36.55C48.3846 36.55 47.6046 36.29 47.0312 35.77C46.4579 35.25 46.1713 34.35 46.1713 33.07V30.23H38.6912C37.5312 30.23 36.6179 29.9833 35.9513 29.49C35.2979 28.9967 34.9713 28.27 34.9713 27.31C34.9713 26.87 35.0446 26.35 35.1912 25.75C35.3512 25.15 35.5046 24.5833 35.6513 24.05L39.0913 13.35C39.3312 12.59 39.7179 12.0367 40.2513 11.69C40.7979 11.33 41.3979 11.15 42.0513 11.15C42.6912 11.15 43.2713 11.3633 43.7913 11.79C44.3246 12.2167 44.5913 12.8433 44.5913 13.67C44.5913 13.83 44.5846 13.9967 44.5713 14.17C44.5579 14.3433 44.5179 14.53 44.4513 14.73L41.0112 25.75H46.2113V17.29C46.2113 16.4767 46.3579 15.85 46.6513 15.41C46.9579 14.9567 47.3379 14.6367 47.7913 14.45C48.2579 14.25 48.7179 14.15 49.1713 14.15C49.6513 14.15 50.1179 14.25 50.5713 14.45C51.0246 14.6367 51.3979 14.9567 51.6912 15.41C51.9979 15.85 52.1513 16.4767 52.1513 17.29V25.75H53.3113C54.1646 25.75 54.8313 25.9433 55.3113 26.33C55.8046 26.7167 56.0513 27.27 56.0513 27.99C56.0513 28.7233 55.8046 29.2833 55.3113 29.67C54.8313 30.0433 54.1646 30.23 53.3113 30.23H52.1513V33.07C52.1513 34.35 51.8779 35.25 51.3313 35.77C50.7846 36.29 50.1313 36.55 49.3713 36.55Z" fill="#CCDBFB"/>
<path d="M49.3713 36.55C48.3846 36.55 47.6046 36.29 47.0312 35.77C46.4579 35.25 46.1713 34.35 46.1713 33.07V30.23H38.6912C37.5312 30.23 36.6179 29.9833 35.9513 29.49C35.2979 28.9967 34.9713 28.27 34.9713 27.31C34.9713 26.87 35.0446 26.35 35.1912 25.75C35.3512 25.15 35.5046 24.5833 35.6513 24.05L39.0913 13.35C39.3312 12.59 39.7179 12.0367 40.2513 11.69C40.7979 11.33 41.3979 11.15 42.0513 11.15C42.6912 11.15 43.2713 11.3633 43.7913 11.79C44.3246 12.2167 44.5913 12.8433 44.5913 13.67C44.5913 13.83 44.5846 13.9967 44.5713 14.17C44.5579 14.3433 44.5179 14.53 44.4513 14.73L41.0112 25.75H46.2113V17.29C46.2113 16.4767 46.3579 15.85 46.6513 15.41C46.9579 14.9567 47.3379 14.6367 47.7913 14.45C48.2579 14.25 48.7179 14.15 49.1713 14.15C49.6513 14.15 50.1179 14.25 50.5713 14.45C51.0246 14.6367 51.3979 14.9567 51.6912 15.41C51.9979 15.85 52.1513 16.4767 52.1513 17.29V25.75H53.3113C54.1646 25.75 54.8313 25.9433 55.3113 26.33C55.8046 26.7167 56.0513 27.27 56.0513 27.99C56.0513 28.7233 55.8046 29.2833 55.3113 29.67C54.8313 30.0433 54.1646 30.23 53.3113 30.23H52.1513V33.07C52.1513 34.35 51.8779 35.25 51.3313 35.77C50.7846 36.29 50.1313 36.55 49.3713 36.55Z" fill="url(#paint2_linear_7885_37035)"/>
<path d="M16.66 11.05C18.7 11.05 20.48 11.4167 22 12.15C23.5333 12.87 24.7267 14.03 25.58 15.63C26.4333 17.2167 26.86 19.33 26.86 21.97C26.86 25.0633 26.2933 27.65 25.16 29.73C24.0267 31.7967 22.3867 33.35 20.24 34.39C18.0933 35.4167 15.4933 35.93 12.44 35.93C11.2133 35.93 10.2733 35.7033 9.62 35.25C8.96667 34.7833 8.64 34.19 8.64 33.47C8.64 32.7367 8.95333 32.1633 9.58 31.75C10.2067 31.3233 11.12 31.11 12.32 31.11C13.7867 31.11 15.0267 30.9233 16.04 30.55C17.0533 30.1767 17.8667 29.6167 18.48 28.87C19.1067 28.1233 19.5533 27.2033 19.82 26.11C19.14 26.6833 18.36 27.15 17.48 27.51C16.6 27.87 15.6467 28.05 14.62 28.05C13.1 28.05 11.7667 27.73 10.62 27.09C9.47333 26.4367 8.58 25.4967 7.94 24.27C7.31333 23.03 7 21.51 7 19.71C7 17.9233 7.38 16.3833 8.14 15.09C8.91333 13.7967 10.02 12.8033 11.46 12.11C12.9 11.4033 14.6333 11.05 16.66 11.05ZM13.26 19.73C13.26 20.6767 13.4 21.4567 13.68 22.07C13.9733 22.67 14.3667 23.1167 14.86 23.41C15.3667 23.69 15.94 23.83 16.58 23.83C17.2733 23.83 17.88 23.6833 18.4 23.39C18.92 23.0967 19.3467 22.65 19.68 22.05C20.0267 21.45 20.24 20.71 20.32 19.83C20.2267 18.6967 20.0133 17.8233 19.68 17.21C19.3467 16.5833 18.92 16.15 18.4 15.91C17.8933 15.67 17.3133 15.55 16.66 15.55C15.5133 15.55 14.66 15.89 14.1 16.57C13.54 17.25 13.26 18.3033 13.26 19.73Z" fill="url(#paint3_linear_7885_37035)" fill-opacity="0.2"/>
<path d="M33.2256 36.95C32.3323 36.95 31.519 36.73 30.7856 36.29C30.0523 35.8633 29.4656 35.2833 29.0256 34.55C28.599 33.8033 28.3856 32.99 28.3856 32.11C28.3856 31.2033 28.599 30.3833 29.0256 29.65C29.4656 28.9167 30.0523 28.3367 30.7856 27.91C31.519 27.4833 32.3323 27.27 33.2256 27.27C34.119 27.27 34.9256 27.4833 35.6456 27.91C36.379 28.3367 36.959 28.9167 37.3856 29.65C37.8256 30.3833 38.0456 31.2033 38.0456 32.11C38.0456 32.99 37.8256 33.8033 37.3856 34.55C36.959 35.2833 36.379 35.8633 35.6456 36.29C34.9256 36.73 34.119 36.95 33.2256 36.95Z" fill="url(#paint4_linear_7885_37035)" fill-opacity="0.2"/>
<path d="M55.3713 36.45C54.3846 36.45 53.6046 36.19 53.0312 35.67C52.4579 35.15 52.1713 34.25 52.1713 32.97V30.13H44.6912C43.5312 30.13 42.6179 29.8833 41.9513 29.39C41.2979 28.8967 40.9713 28.17 40.9713 27.21C40.9713 26.77 41.0446 26.25 41.1912 25.65C41.3512 25.05 41.5046 24.4833 41.6513 23.95L45.0913 13.25C45.3312 12.49 45.7179 11.9367 46.2513 11.59C46.7979 11.23 47.3979 11.05 48.0513 11.05C48.6912 11.05 49.2713 11.2633 49.7913 11.69C50.3246 12.1167 50.5913 12.7433 50.5913 13.57C50.5913 13.73 50.5846 13.8967 50.5713 14.07C50.5579 14.2433 50.5179 14.43 50.4513 14.63L47.0112 25.65H52.2113V17.19C52.2113 16.3767 52.3579 15.75 52.6513 15.31C52.9579 14.8567 53.3379 14.5367 53.7913 14.35C54.2579 14.15 54.7179 14.05 55.1713 14.05C55.6513 14.05 56.1179 14.15 56.5713 14.35C57.0246 14.5367 57.3979 14.8567 57.6912 15.31C57.9979 15.75 58.1513 16.3767 58.1513 17.19V25.65H59.3113C60.1646 25.65 60.8313 25.8433 61.3113 26.23C61.8046 26.6167 62.0513 27.17 62.0513 27.89C62.0513 28.6233 61.8046 29.1833 61.3113 29.57C60.8313 29.9433 60.1646 30.13 59.3113 30.13H58.1513V32.97C58.1513 34.25 57.8779 35.15 57.3313 35.67C56.7846 36.19 56.1313 36.45 55.3713 36.45Z" fill="url(#paint5_linear_7885_37035)" fill-opacity="0.2"/>
<path d="M13.66 10.95C15.7 10.95 17.48 11.3167 19 12.05C20.5333 12.77 21.7267 13.93 22.58 15.53C23.4333 17.1167 23.86 19.23 23.86 21.87C23.86 24.9633 23.2933 27.55 22.16 29.63C21.0267 31.6967 19.3867 33.25 17.24 34.29C15.0933 35.3167 12.4933 35.83 9.44 35.83C8.21333 35.83 7.27333 35.6033 6.62 35.15C5.96667 34.6833 5.64 34.09 5.64 33.37C5.64 32.6367 5.95333 32.0633 6.58 31.65C7.20667 31.2233 8.12 31.01 9.32 31.01C10.7867 31.01 12.0267 30.8233 13.04 30.45C14.0533 30.0767 14.8667 29.5167 15.48 28.77C16.1067 28.0233 16.5533 27.1033 16.82 26.01C16.14 26.5833 15.36 27.05 14.48 27.41C13.6 27.77 12.6467 27.95 11.62 27.95C10.1 27.95 8.76667 27.63 7.62 26.99C6.47333 26.3367 5.58 25.3967 4.94 24.17C4.31333 22.93 4 21.41 4 19.61C4 17.8233 4.38 16.2833 5.14 14.99C5.91333 13.6967 7.02 12.7033 8.46 12.01C9.9 11.3033 11.6333 10.95 13.66 10.95ZM10.26 19.63C10.26 20.5767 10.4 21.3567 10.68 21.97C10.9733 22.57 11.3667 23.0167 11.86 23.31C12.3667 23.59 12.94 23.73 13.58 23.73C14.2733 23.73 14.88 23.5833 15.4 23.29C15.92 22.9967 16.3467 22.55 16.68 21.95C17.0267 21.35 17.24 20.61 17.32 19.73C17.2267 18.5967 17.0133 17.7233 16.68 17.11C16.3467 16.4833 15.92 16.05 15.4 15.81C14.8933 15.57 14.3133 15.45 13.66 15.45C12.5133 15.45 11.66 15.79 11.1 16.47C10.54 17.15 10.26 18.2033 10.26 19.63Z" fill="url(#paint6_linear_7885_37035)" fill-opacity="0.5"/>
<path d="M30.2256 36.85C29.3323 36.85 28.519 36.63 27.7856 36.19C27.0523 35.7633 26.4656 35.1833 26.0256 34.45C25.599 33.7033 25.3856 32.89 25.3856 32.01C25.3856 31.1033 25.599 30.2833 26.0256 29.55C26.4656 28.8167 27.0523 28.2367 27.7856 27.81C28.519 27.3833 29.3323 27.17 30.2256 27.17C31.119 27.17 31.9256 27.3833 32.6456 27.81C33.379 28.2367 33.959 28.8167 34.3856 29.55C34.8256 30.2833 35.0456 31.1033 35.0456 32.01C35.0456 32.89 34.8256 33.7033 34.3856 34.45C33.959 35.1833 33.379 35.7633 32.6456 36.19C31.9256 36.63 31.119 36.85 30.2256 36.85Z" fill="url(#paint7_linear_7885_37035)" fill-opacity="0.5"/>
<path d="M52.3713 36.35C51.3846 36.35 50.6046 36.09 50.0312 35.57C49.4579 35.05 49.1713 34.15 49.1713 32.87V30.03H41.6912C40.5312 30.03 39.6179 29.7833 38.9513 29.29C38.2979 28.7967 37.9713 28.07 37.9713 27.11C37.9713 26.67 38.0446 26.15 38.1912 25.55C38.3512 24.95 38.5046 24.3833 38.6513 23.85L42.0913 13.15C42.3312 12.39 42.7179 11.8367 43.2513 11.49C43.7979 11.13 44.3979 10.95 45.0513 10.95C45.6912 10.95 46.2713 11.1633 46.7913 11.59C47.3246 12.0167 47.5913 12.6433 47.5913 13.47C47.5913 13.63 47.5846 13.7967 47.5713 13.97C47.5579 14.1433 47.5179 14.33 47.4513 14.53L44.0112 25.55H49.2113V17.09C49.2113 16.2767 49.3579 15.65 49.6513 15.21C49.9579 14.7567 50.3379 14.4367 50.7913 14.25C51.2579 14.05 51.7179 13.95 52.1713 13.95C52.6513 13.95 53.1179 14.05 53.5713 14.25C54.0246 14.4367 54.3979 14.7567 54.6912 15.21C54.9979 15.65 55.1513 16.2767 55.1513 17.09V25.55H56.3113C57.1646 25.55 57.8313 25.7433 58.3113 26.13C58.8046 26.5167 59.0513 27.07 59.0513 27.79C59.0513 28.5233 58.8046 29.0833 58.3113 29.47C57.8313 29.8433 57.1646 30.03 56.3113 30.03H55.1513V32.87C55.1513 34.15 54.8779 35.05 54.3313 35.57C53.7846 36.09 53.1313 36.35 52.3713 36.35Z" fill="url(#paint8_linear_7885_37035)" fill-opacity="0.5"/>
<defs>
<linearGradient id="paint0_linear_7885_37035" x1="53.1903" y1="42.7911" x2="20.2456" y2="17.7528" gradientUnits="userSpaceOnUse">
<stop stop-color="#FF7C4F"/>
<stop offset="1" stop-color="#7B97FF"/>
</linearGradient>
<linearGradient id="paint1_linear_7885_37035" x1="53.1903" y1="42.7911" x2="20.2456" y2="17.7528" gradientUnits="userSpaceOnUse">
<stop stop-color="#FF7C4F"/>
<stop offset="1" stop-color="#7B97FF"/>
</linearGradient>
<linearGradient id="paint2_linear_7885_37035" x1="53.1903" y1="42.7911" x2="20.2456" y2="17.7528" gradientUnits="userSpaceOnUse">
<stop stop-color="#FF7C4F"/>
<stop offset="1" stop-color="#7B97FF"/>
</linearGradient>
<linearGradient id="paint3_linear_7885_37035" x1="59.1903" y1="42.691" x2="26.2456" y2="17.6528" gradientUnits="userSpaceOnUse">
<stop stop-color="#FF7C4F"/>
<stop offset="1" stop-color="#7B97FF"/>
</linearGradient>
<linearGradient id="paint4_linear_7885_37035" x1="59.1903" y1="42.691" x2="26.2456" y2="17.6528" gradientUnits="userSpaceOnUse">
<stop stop-color="#FF7C4F"/>
<stop offset="1" stop-color="#7B97FF"/>
</linearGradient>
<linearGradient id="paint5_linear_7885_37035" x1="59.1903" y1="42.691" x2="26.2456" y2="17.6528" gradientUnits="userSpaceOnUse">
<stop stop-color="#FF7C4F"/>
<stop offset="1" stop-color="#7B97FF"/>
</linearGradient>
<linearGradient id="paint6_linear_7885_37035" x1="56.1903" y1="42.5911" x2="23.2456" y2="17.5528" gradientUnits="userSpaceOnUse">
<stop stop-color="#FF7C4F"/>
<stop offset="1" stop-color="#7B97FF"/>
</linearGradient>
<linearGradient id="paint7_linear_7885_37035" x1="56.1903" y1="42.5911" x2="23.2456" y2="17.5528" gradientUnits="userSpaceOnUse">
<stop stop-color="#FF7C4F"/>
<stop offset="1" stop-color="#7B97FF"/>
</linearGradient>
<linearGradient id="paint8_linear_7885_37035" x1="56.1903" y1="42.5911" x2="23.2456" y2="17.5528" gradientUnits="userSpaceOnUse">
<stop stop-color="#FF7C4F"/>
<stop offset="1" stop-color="#7B97FF"/>
</linearGradient>
</defs>
</svg>
