<svg width="316" height="55" viewBox="0 0 316 55" fill="none" xmlns="http://www.w3.org/2000/svg">
<g clip-path="url(#clip0_16480_132124)">
<circle r="1.5" transform="matrix(1 0 0 -1 252.5 11.5)" fill="white"/>
<circle r="1.5" transform="matrix(1 0 0 -1 310.5 23.5)" fill="white"/>
<circle r="2.5" transform="matrix(-1 0 0 1 177.5 35.5)" fill="white"/>
<path d="M247.688 52.0571L244.882 49.251L247.417 46.716C248.54 45.5951 249.137 44.1822 248.973 43.0287C248.871 42.3016 248.466 41.715 247.835 41.3766C246.324 40.545 243.984 39.6761 241.822 39.4104C241.803 39.3863 241.782 39.363 241.759 39.3406L237.659 35.2406C237.637 35.2182 237.614 35.1974 237.59 35.1779C237.324 33.0155 236.455 30.6756 235.623 29.165C235.285 28.5337 234.698 28.1296 233.971 28.0266C232.818 27.8634 231.405 28.4599 230.285 29.5826L227.749 32.1183L224.943 29.3122C224.594 28.9633 224.025 28.9665 223.672 29.3193L218.562 34.43C218.209 34.7827 218.206 35.3517 218.555 35.7006L220.766 37.912L209.267 49.4111C208.914 49.7639 208.911 50.3328 209.26 50.6818L226.318 67.7404C226.667 68.0893 227.236 68.0861 227.589 67.7333L239.088 56.2342L241.299 58.4455C241.648 58.7944 242.217 58.7912 242.57 58.4384L247.681 53.3277C248.033 52.9749 248.037 52.406 247.688 52.0571ZM215.908 54.7744L211.169 50.0359L222.029 39.1756L226.768 43.9141L215.908 54.7744ZM228.046 42.6365L220.464 35.0548L224.297 31.2218L226.51 33.4351C225.753 34.4247 225.376 35.5433 225.51 36.4881C225.581 36.9887 225.794 37.4226 226.127 37.755C226.277 37.9052 226.452 38.0348 226.648 38.1402C227.755 38.7493 229.306 39.3781 230.907 39.7755L228.046 42.6365ZM233.274 38.3619C231.262 38.1962 228.972 37.3593 227.524 36.5612C227.52 36.5592 227.516 36.557 227.513 36.5551C227.414 36.5027 227.319 36.4254 227.289 36.2169C227.221 35.7318 227.555 34.8371 228.329 34.0651L231.549 30.8454C232.32 30.0723 233.215 29.7373 233.7 29.8059C233.829 29.8241 233.908 29.8675 233.962 29.9212C233.995 29.9544 234.018 29.9916 234.038 30.0292C234.04 30.0329 234.042 30.0365 234.044 30.0403C234.843 31.4886 235.679 33.7782 235.845 35.791L233.274 38.3619ZM237.014 37.1501L239.85 39.9865L237.47 42.3666L234.633 39.5303L237.014 37.1501ZM220.962 59.8288L217.171 56.038L232.878 40.3308L236.669 44.1215L220.962 59.8288ZM241.209 41.1547C243.222 41.3204 245.511 42.1573 246.96 42.9554C246.963 42.9574 246.967 42.9596 246.971 42.9615C247.069 43.0142 247.165 43.0913 247.194 43.2997C247.263 43.7848 246.928 44.6795 246.154 45.4515L242.934 48.6712C242.163 49.4443 241.268 49.7793 240.783 49.7107C240.575 49.6811 240.497 49.5858 240.445 49.4872C240.443 49.4835 240.441 49.4799 240.439 49.4761C239.641 48.0278 238.804 45.7382 238.638 43.7254L241.209 41.1547ZM226.964 65.8309L222.226 61.0924L233.086 50.2321L237.824 54.9706L226.964 65.8309ZM241.945 56.5361L234.364 48.9544L237.225 46.0934C237.622 47.694 238.251 49.2453 238.86 50.3518C238.965 50.5484 239.095 50.7229 239.245 50.8733C239.577 51.2056 240.011 51.4192 240.512 51.4901C241.457 51.6237 242.576 51.2471 243.565 50.4897L245.778 52.703L241.945 56.5361Z" fill="white"/>
<circle r="1.5" transform="matrix(1 0 0 -1 104.5 42.5)" fill="white"/>
<circle r="1.5" transform="matrix(1 0 0 -1 5.5 39.5)" fill="white"/>
<circle r="2.5" transform="matrix(-1 0 0 1 37.5 12.5)" fill="white"/>
<circle r="2.5" transform="matrix(-1 0 0 1 285.5 39.5)" fill="white"/>
<path d="M122.073 15.4801C123.517 15.7298 124.351 14.4643 125.706 14.2344C125.68 14.6545 125.708 14.9959 125.631 15.324C125.411 16.2471 125.137 17.1538 124.907 18.0624C124.743 18.7358 124.815 19.3012 125.835 19.4149C127.13 18.1336 126.852 16.1283 127.766 14.5225C128.866 15.4187 128.85 17.1154 130.204 17.6592C131.017 17.3094 130.922 16.759 130.673 16.2179C130.154 15.1066 129.641 14.0026 129.037 12.9389C128.537 12.0593 128.466 11.2279 128.761 10.2428C129.37 8.25033 129.851 6.22784 130.406 4.21903C130.525 3.77811 130.685 3.3513 130.913 2.67707C131.211 3.10037 131.391 3.286 131.499 3.50916C132.511 5.63188 133.481 7.77222 134.534 9.87732C135.055 10.9129 135.18 11.8876 134.691 12.9826C134.285 13.8838 133.994 14.8444 133.676 15.781C133.467 16.3891 133.373 16.9932 134.198 17.356C135.563 16.7158 135.261 15.0232 136.371 13.9421C136.955 15.1355 137.481 16.21 138.019 17.2868C138.411 18.0702 138.425 18.0602 139.411 18.0914C139.99 17.5395 139.686 16.982 139.442 16.4164C138.948 15.3098 138.455 14.2031 137.897 12.9703C139.44 12.877 140.563 14.31 142.009 13.7102C142.249 12.7844 141.674 12.5063 141.107 12.2549C139.944 11.7403 138.747 11.3019 137.608 10.7284C137.1 10.4689 136.54 10.0539 136.298 9.57127C135.156 7.30378 134.119 4.98611 133.048 2.68109C132.964 2.49422 132.958 2.26484 132.871 1.80463C133.875 2.25782 134.675 2.61602 135.475 2.97422C137.237 3.77151 138.99 4.58601 140.764 5.35385C141.461 5.6548 141.906 6.13722 142.156 6.83698C142.537 7.90362 142.94 8.95533 143.362 10.0043C143.57 10.5313 143.765 11.0878 144.718 11.0242C145.55 9.70744 144.159 8.54162 144.255 7.18319C145.498 7.32571 146.493 7.95478 147.545 8.4171C148.353 8.77032 148.353 8.77032 149.217 8.32217C149.457 7.61849 149.007 7.28747 148.475 7.02344C147.628 6.61215 146.764 6.22304 145.917 5.81175C145.598 5.65723 145.286 5.466 144.874 5.23702C145.936 4.16628 147.859 4.60022 148.628 2.73265C147.904 2.69322 147.402 2.56794 146.961 2.67619C145.67 3.00051 144.422 3.46585 143.134 3.77794C142.612 3.9092 141.965 3.96642 141.502 3.77228C138.78 2.58713 136.095 1.31363 133.397 0.0695841C133.275 0.015035 133.184 -0.10339 132.95 -0.305401C133.337 -0.556957 133.642 -0.817227 133.992 -0.980434C136.366 -2.06088 138.764 -3.10502 141.138 -4.18546C141.786 -4.47704 142.399 -4.48988 143.064 -4.2837C144.146 -3.93649 145.23 -3.63324 146.324 -3.31547C146.866 -3.16384 147.423 -2.95871 148.041 -3.61115C147.445 -5.13636 145.585 -4.59471 144.572 -5.58235C146.103 -6.61036 148.084 -6.8631 149.423 -8.36459C148.273 -9.33337 147.466 -8.5003 146.659 -8.23838C145.775 -7.9462 144.938 -7.50572 144.001 -7.10299C143.861 -8.58774 145.345 -9.76403 144.62 -11.1801C143.789 -11.2841 143.626 -10.7181 143.442 -10.2641C142.994 -9.21845 142.664 -8.1255 142.17 -7.10119C141.922 -6.58292 141.519 -5.99186 141.035 -5.75856C138.505 -4.56136 135.93 -3.46122 133.363 -2.33433C133.064 -2.20596 132.736 -2.15288 132.278 -2.02245C132.333 -2.49427 132.329 -2.86281 132.416 -3.20812C133.053 -5.63295 133.732 -8.04368 134.368 -10.4685C134.572 -11.2425 134.964 -11.8164 135.659 -12.2452C136.623 -12.846 137.554 -13.5098 138.476 -14.1882C139.183 -14.71 139.18 -14.7612 139.071 -15.7582C137.671 -16.1647 136.955 -14.725 135.699 -14.4451C135.497 -16.1951 136.945 -17.8029 136.322 -19.5109C135.429 -19.8483 135.126 -19.3464 134.935 -18.7923C134.665 -18.037 134.459 -17.2507 134.226 -16.4886C134.095 -16.0499 133.969 -15.604 133.807 -15.0698C132.499 -15.6557 132.576 -17.6583 130.948 -17.6885C130.34 -16.958 130.766 -16.4095 131.035 -15.9028C131.54 -14.9525 132.171 -14.0551 132.627 -13.0822C132.847 -12.6164 132.976 -11.9834 132.86 -11.4912C132.251 -9.01061 131.558 -6.55819 130.887 -4.08898C130.809 -3.82434 130.739 -3.56469 130.586 -3.01593C130.229 -3.52634 130.05 -3.71196 129.949 -3.9401C128.954 -6.02155 127.987 -8.11067 126.978 -10.1822C126.63 -10.9002 126.549 -11.5875 126.792 -12.3669C127.149 -13.4992 127.456 -14.6407 127.744 -15.7795C127.894 -16.3795 128.022 -17.028 127.107 -17.2871C125.805 -16.6795 126.244 -15.101 125.328 -14.0663C124.826 -14.775 124.512 -15.5374 124.133 -16.255C123.869 -16.7544 123.686 -17.3086 123.346 -17.746C123.1 -18.0455 122.651 -18.1861 122.111 -18.5086C121.554 -16.3289 123.217 -15.0617 123.446 -13.3193C122.148 -12.99 120.935 -14.5731 119.644 -13.5702C119.515 -12.7191 120.113 -12.5316 120.621 -12.3356C121.679 -11.9294 122.782 -11.6289 123.811 -11.1711C124.324 -10.9361 124.891 -10.5261 125.14 -10.0485C126.282 -7.78097 127.326 -5.46828 128.397 -3.16325C128.503 -2.92786 128.531 -2.64995 128.616 -2.33616C128.39 -2.32102 128.234 -2.26773 128.128 -2.31274C125.804 -3.35415 123.467 -4.36611 121.182 -5.47637C120.684 -5.72133 120.241 -6.24771 119.965 -6.74941C119.398 -7.77458 118.98 -8.8798 118.472 -9.94479C118.208 -10.5077 117.888 -11.043 117.033 -10.8341C116.317 -9.52136 117.677 -8.58949 117.655 -7.28083C117.343 -7.34514 117.044 -7.37543 116.779 -7.48183C115.95 -7.82012 115.145 -8.21731 114.31 -8.53113C113.854 -8.69851 113.354 -8.74084 112.949 -8.81613C112.312 -8.03407 112.652 -7.59666 113.189 -7.29364C113.926 -6.87115 114.704 -6.52975 115.462 -6.15393C115.88 -5.94942 116.292 -5.75217 116.756 -5.52631C115.968 -4.30291 113.935 -4.78912 113.651 -3.15486C114.207 -2.49325 114.778 -2.71058 115.304 -2.89804C116.334 -3.25804 117.333 -3.71283 118.373 -4.02658C118.88 -4.17962 119.539 -4.26628 119.991 -4.07443C122.592 -2.95606 125.15 -1.74437 127.712 -0.557156C127.835 -0.502607 127.926 -0.384182 128.118 -0.228007C127.9 -0.0274636 127.746 0.203983 127.524 0.302073C125.055 1.41549 122.573 2.49489 120.116 3.61059C119.37 3.94737 118.686 3.96601 117.933 3.66091C116.887 3.22534 115.817 2.84867 114.755 2.46703C114.225 2.28595 113.661 2.05407 113.176 2.9025C113.922 4.17676 115.669 3.95636 116.802 5.04253C115.537 5.62526 114.402 6.16238 113.259 6.67273C112.681 6.92677 112.082 7.13228 112.283 8.14022C114.247 8.36615 115.718 6.87026 117.711 6.46114C117.218 7.86622 116.764 9.13899 116.315 10.419C117.201 10.9201 117.565 10.5248 117.833 9.97213C118.427 8.73172 118.945 7.45813 119.59 6.24635C119.861 5.74488 120.3 5.19239 120.792 4.95411C123.19 3.81477 125.635 2.76026 128.07 1.69122C128.368 1.56286 128.694 1.49028 129.194 1.34222C129.168 1.79413 129.206 2.15002 129.116 2.47583C128.409 5.12859 127.673 7.76953 126.978 10.4246C126.755 11.2647 126.299 11.8394 125.538 12.2496C124.579 12.7624 123.635 13.3288 122.708 13.9047C121.957 14.3612 121.955 14.4369 122.073 15.4801Z" fill="white"/>
<path d="M67.83 30.69C64.98 32.04 62.03 33.16 59 34.03C61.66 34.71 64.4 35.04 67.14 35C66.58 37.68 66.44 40.46 66.75 43.18C68.65 40.83 69.95 38.01 70.52 35.04C72.89 37.65 75.71 39.87 78.81 41.55C77.78 38.39 75.42 35.69 72.44 34.22C75.68 33.2 79.01 32.46 82.38 31.99C82 32.05 75.06 29.85 73.5 29.65C73.09 29.6 72.66 29.53 72.36 29.25C72.13 29.03 72.02 28.72 71.92 28.42C71.2 26.28 70.49 24.14 69.77 22C69.9 22.33 68.78 24.08 68.61 24.44C68.22 25.26 67.88 26.12 67.4 26.88" stroke="white" stroke-miterlimit="10" stroke-linecap="round" stroke-linejoin="round"/>
</g>
<defs>
<clipPath id="clip0_16480_132124">
<rect width="316" height="55" fill="white"/>
</clipPath>
</defs>
</svg>
