<svg width="350" height="55" viewBox="0 0 350 55" fill="none" xmlns="http://www.w3.org/2000/svg">
<path fill-rule="evenodd" clip-rule="evenodd" d="M11.1741 28.0001L8.27931 30.9015C8.00766 31.1738 8.00653 31.6164 8.27678 31.89C8.54703 32.1637 8.98632 32.1648 9.25797 31.8926L12.6419 28.5009C12.8048 28.3375 12.8704 28.1129 12.8385 27.9003C12.819 27.7529 12.7529 27.6106 12.6402 27.4976L9.26066 24.1103C8.98901 23.8381 8.54971 23.8392 8.27946 24.1128C8.00921 24.3865 8.01035 24.8291 8.282 25.1014L11.1741 28.0001Z" fill="white"/>
<rect x="0.5" y="18.5" width="19" height="19" rx="9.5" stroke="white"/>
<g clip-path="url(#clip0_2_64)">
<circle r="3" transform="matrix(-1 0 0 1 314 44.0002)" fill="white"/>
<path d="M155.376 25.9875C153.194 26.6549 150.053 28.4179 147.483 32.9681C144.268 38.6643 137.281 51.6866 136.464 53.1994C135.547 54.9153 136.19 57.0827 137.904 58.0314L137.928 58.0456C138.773 58.4923 139.742 58.5948 140.652 58.32C141.572 58.0425 142.318 57.4284 142.796 56.5447C143.584 55.0808 150.581 42.056 153.719 36.4944C155.629 33.1148 158.071 31.9119 160.414 33.1993C163.536 34.92 162.681 38.0271 161.414 40.3334C160.956 41.1707 160.843 42.1429 161.118 43.0528C161.386 43.9749 161.993 44.7336 162.83 45.1925C164.566 46.1457 166.746 45.5099 167.689 43.7767C168.97 41.4459 169.653 39.0887 169.717 36.856C169.738 36.043 169.681 35.2508 169.534 34.4722C168.936 31.2367 166.974 28.6257 163.867 26.9217C161.196 25.453 158.177 25.123 155.376 25.9875ZM142.895 43.9706C143.657 42.5654 144.441 41.1235 145.196 39.7306L150.455 39.7294C149.723 41.0541 148.946 42.4837 148.156 43.9379L142.895 43.9706ZM147.111 45.8742C146.314 47.3406 145.54 48.7799 144.827 50.0994L139.552 50.1566C140.215 48.9229 141.006 47.4687 141.841 45.9095L147.111 45.8742ZM140.295 57.101C139.701 57.2808 139.084 57.2184 138.516 56.915C137.412 56.3102 136.998 54.92 137.619 53.7597C137.748 53.5077 138.065 52.9153 138.517 52.0903L143.78 52.026C142.693 54.0358 141.903 55.5312 141.661 55.9792C141.362 56.5251 140.879 56.9238 140.295 57.101ZM151.524 37.8073L146.262 37.7988C147.14 36.2073 147.94 34.7505 148.595 33.6019C148.602 33.5896 148.619 33.5748 148.624 33.5529C148.738 33.5534 148.861 33.5513 149.004 33.544C149.652 33.5259 150.484 33.541 151.3 33.6122C152.138 33.6878 152.932 33.8273 153.504 33.9535C153.625 33.983 153.738 34.0151 153.847 34.0375C153.422 34.5759 153.003 35.1748 152.609 35.8703C152.287 36.4433 151.922 37.0899 151.524 37.8073ZM155.06 32.7703C154.965 32.7233 154.867 32.6668 154.75 32.6154C154.217 32.3648 153.47 32.0887 152.656 31.872C151.869 31.679 151.025 31.5428 150.377 31.4785C150.238 31.4639 150.121 31.4537 150.005 31.4435C151.534 29.4603 153.135 28.3272 154.514 27.6782C154.622 27.7322 154.732 27.7958 154.854 27.8665C155.139 28.0388 155.458 28.2639 155.772 28.5109C155.93 28.6344 156.087 28.7579 156.237 28.8936C156.387 29.0293 156.543 29.1844 156.686 29.3324C156.975 29.638 157.23 29.9321 157.449 30.2462C157.667 30.5602 157.84 30.8557 157.98 31.1081C158.04 31.2162 158.082 31.298 158.118 31.392C157.047 31.4924 156.022 31.9536 155.06 32.7703ZM163.452 44.0735C162.916 43.7721 162.517 43.2888 162.347 42.6925C162.275 42.4633 162.252 42.2211 162.25 41.9834C162.256 41.6194 162.357 41.2612 162.531 40.9453C162.766 40.5096 163.015 40.0081 163.231 39.4636C163.343 39.4544 163.454 39.4453 163.578 39.4432C163.871 39.4164 164.224 39.3838 164.592 39.3267C164.781 39.2968 164.979 39.2644 165.178 39.2319C165.373 39.1898 165.569 39.1477 165.775 39.103C166.173 39.0066 166.576 38.8882 166.955 38.7557C167.334 38.6232 167.668 38.4817 167.964 38.3506C168.095 38.295 168.205 38.2447 168.313 38.1846C168.076 39.8114 167.503 41.4972 166.576 43.1744C165.971 44.2786 164.559 44.688 163.452 44.0735ZM168.284 34.7139C168.322 34.9316 168.352 35.1616 168.371 35.3844C168.28 35.4708 168.187 35.5476 168.086 35.6366C167.842 35.8469 167.521 36.0779 167.197 36.2992C166.864 36.5232 166.516 36.7303 166.131 36.9163C165.755 37.0997 165.385 37.2612 165.035 37.3859C164.685 37.5107 164.34 37.6135 164.05 37.6912C163.935 37.7222 163.838 37.7481 163.739 37.7643C163.941 36.6645 163.9 35.5057 163.399 34.4492C163.473 34.3777 163.545 34.2964 163.626 34.2126C163.816 33.9959 164.044 33.7277 164.25 33.4137C164.449 33.112 164.654 32.7568 164.832 32.3779C164.926 32.1871 165 32.0015 165.072 31.8062C165.144 31.6109 165.206 31.4183 165.269 31.2256C165.383 30.8428 165.476 30.4556 165.536 30.1392C165.561 29.9981 165.581 29.8789 165.6 29.7597C166.999 31.114 167.922 32.7819 168.284 34.7139ZM163.245 28.0407C163.282 28.0619 163.319 28.0831 163.355 28.1044C163.367 28.2254 163.369 28.3491 163.386 28.4895C163.401 28.8167 163.41 29.1974 163.4 29.5833C163.401 29.7798 163.382 29.9814 163.366 30.1927C163.351 30.404 163.322 30.6082 163.294 30.8125C163.189 31.6171 162.933 32.4001 162.714 32.935C162.672 33.0497 162.618 33.1574 162.571 33.2528C162.169 32.8326 161.679 32.4357 161.038 32.09C160.563 31.8238 160.082 31.6524 159.607 31.5416C159.591 31.4424 159.572 31.3335 159.551 31.215C159.495 30.9297 159.417 30.5987 159.306 30.2246C159.191 29.8724 159.039 29.499 158.866 29.1211C158.689 28.7335 158.475 28.3975 158.249 28.0544C158.025 27.721 157.787 27.4121 157.567 27.1708C157.475 27.0608 157.389 26.9701 157.305 26.889C159.304 26.6225 161.375 27.0097 163.245 28.0407Z" fill="white"/>
<circle r="1.5" transform="matrix(1 0 0 -1 276.5 18.5002)" fill="white"/>
<circle r="1.5" transform="matrix(1 0 0 -1 120.5 35.5002)" fill="white"/>
<circle r="1.5" transform="matrix(1 0 0 -1 97.5 15.5002)" fill="white"/>
<circle r="2.5" transform="matrix(-1 0 0 1 193.5 24.5002)" fill="white"/>
<path d="M236.829 32.3102C236.952 35.2955 236.346 38.3151 235.093 41.0002C234.627 38.2465 234.152 35.4928 233.685 32.7391C230.788 33.2281 227.89 33.7171 225 34.1975C226.629 31.6411 229.363 29.8911 232.277 29.5308C231.131 28.0381 228.07 23.9291 227.562 22.0933C229.019 23.0283 232.679 26.3482 234.136 27.2832C235.798 24.8555 237.459 22.4278 239.121 20.0002C238.777 22.3764 238.122 24.6926 237.181 26.8801C239.457 27.4634 241.724 28.0381 244 28.6215C240.799 30.1484 238.573 30.7318 235.061 30.5002" stroke="white" stroke-miterlimit="10" stroke-linecap="round" stroke-linejoin="round"/>
<path d="M320.073 15.4802C321.517 15.73 322.351 14.4645 323.706 14.2345C323.68 14.6547 323.708 14.9961 323.631 15.3242C323.411 16.2473 323.137 17.154 322.907 18.0626C322.743 18.736 322.815 19.3013 323.835 19.415C325.13 18.1338 324.852 16.1285 325.766 14.5227C326.866 15.4189 326.85 17.1156 328.204 17.6594C329.017 17.3095 328.922 16.7591 328.673 16.218C328.154 15.1068 327.641 14.0028 327.037 12.939C326.537 12.0595 326.466 11.228 326.761 10.2429C327.37 8.25048 327.851 6.22799 328.406 4.21918C328.525 3.77827 328.685 3.35145 328.913 2.67722C329.211 3.10053 329.391 3.28615 329.499 3.50931C330.511 5.63203 331.481 7.77238 332.534 9.87747C333.055 10.913 333.18 11.8878 332.691 12.9828C332.285 13.8839 331.994 14.8446 331.676 15.7811C331.467 16.3892 331.373 16.9933 332.198 17.3561C333.563 16.7159 333.261 15.0234 334.371 13.9423C334.955 15.1356 335.481 16.2102 336.019 17.287C336.411 18.0703 336.425 18.0604 337.411 18.0915C337.99 17.5397 337.686 16.9822 337.442 16.4166C336.948 15.3099 336.455 14.2032 335.897 12.9705C337.44 12.8772 338.563 14.3101 340.009 13.7104C340.249 12.7846 339.674 12.5065 339.107 12.2551C337.944 11.7405 336.747 11.302 335.608 10.7285C335.1 10.4691 334.54 10.054 334.298 9.57142C333.156 7.30393 332.119 4.98626 331.048 2.68124C330.964 2.49437 330.958 2.26499 330.871 1.80478C331.875 2.25797 332.675 2.61617 333.475 2.97437C335.237 3.77166 336.99 4.58616 338.764 5.354C339.461 5.65495 339.906 6.13737 340.156 6.83713C340.537 7.90377 340.94 8.95548 341.362 10.0045C341.57 10.5315 341.765 11.0879 342.718 11.0243C343.55 9.70759 342.159 8.54178 342.255 7.18334C343.498 7.32587 344.493 7.95493 345.545 8.41725C346.353 8.77047 346.353 8.77047 347.217 8.32232C347.457 7.61864 347.007 7.28762 346.475 7.02359C345.628 6.6123 344.764 6.2232 343.917 5.8119C343.598 5.65738 343.286 5.46615 342.874 5.23718C343.936 4.16643 345.859 4.60037 346.628 2.73281C345.904 2.69338 345.402 2.56809 344.961 2.67634C343.67 3.00066 342.422 3.46601 341.134 3.77809C340.612 3.90935 339.965 3.96657 339.502 3.77243C336.78 2.58728 334.095 1.31379 331.397 0.0697367C331.275 0.0151876 331.184 -0.103237 330.95 -0.305248C331.337 -0.556804 331.642 -0.817074 331.992 -0.980282C334.366 -2.06072 336.764 -3.10487 339.138 -4.18531C339.786 -4.47689 340.399 -4.48972 341.064 -4.28355C342.146 -3.93633 343.23 -3.63308 344.324 -3.31532C344.866 -3.16369 345.423 -2.95856 346.041 -3.611C345.445 -5.1362 343.585 -4.59455 342.572 -5.5822C344.103 -6.6102 346.084 -6.86295 347.423 -8.36444C346.273 -9.33322 345.466 -8.50014 344.659 -8.23823C343.775 -7.94604 342.938 -7.50557 342.001 -7.10284C341.861 -8.58758 343.345 -9.76387 342.62 -11.18C341.789 -11.2839 341.626 -10.7179 341.442 -10.264C340.994 -9.2183 340.664 -8.12534 340.17 -7.10104C339.922 -6.58277 339.519 -5.99171 339.035 -5.75841C336.505 -4.56121 333.93 -3.46107 331.363 -2.33418C331.064 -2.20581 330.736 -2.15273 330.278 -2.02229C330.333 -2.49411 330.329 -2.86265 330.416 -3.20796C331.053 -5.6328 331.732 -8.04353 332.368 -10.4684C332.572 -11.2424 332.964 -11.8162 333.659 -12.2451C334.623 -12.8459 335.554 -13.5097 336.476 -14.1881C337.183 -14.7098 337.18 -14.7611 337.071 -15.758C335.671 -16.1646 334.955 -14.7248 333.699 -14.4449C333.497 -16.1949 334.945 -17.8028 334.322 -19.5107C333.429 -19.8482 333.126 -19.3463 332.935 -18.7921C332.665 -18.0368 332.459 -17.2506 332.226 -16.4884C332.095 -16.0498 331.969 -15.6039 331.807 -15.0696C330.499 -15.6556 330.576 -17.6582 328.948 -17.6883C328.34 -16.9579 328.766 -16.4093 329.035 -15.9026C329.54 -14.9523 330.171 -14.0549 330.627 -13.082C330.847 -12.6162 330.976 -11.9832 330.86 -11.4911C330.251 -9.01046 329.558 -6.55804 328.887 -4.08882C328.809 -3.82419 328.739 -3.56453 328.586 -3.01577C328.229 -3.52618 328.05 -3.71181 327.949 -3.93995C326.954 -6.02139 325.987 -8.11052 324.978 -10.182C324.63 -10.9 324.549 -11.5873 324.792 -12.3667C325.149 -13.4991 325.456 -14.6406 325.744 -15.7794C325.894 -16.3793 326.022 -17.0279 325.107 -17.2869C323.805 -16.6793 324.244 -15.1008 323.328 -14.0662C322.826 -14.7748 322.512 -15.5372 322.133 -16.2548C321.869 -16.7542 321.686 -17.3084 321.346 -17.7458C321.1 -18.0453 320.651 -18.1859 320.111 -18.5085C319.554 -16.3288 321.217 -15.0615 321.446 -13.3192C320.148 -12.9899 318.935 -14.573 317.644 -13.5701C317.515 -12.7189 318.113 -12.5314 318.621 -12.3354C319.679 -11.9293 320.782 -11.6287 321.811 -11.171C322.324 -10.936 322.891 -10.5259 323.14 -10.0483C324.282 -7.78082 325.326 -5.46812 326.397 -3.1631C326.503 -2.9277 326.531 -2.64979 326.616 -2.336C326.39 -2.32087 326.234 -2.26758 326.128 -2.31259C323.804 -3.354 321.467 -4.36596 319.182 -5.47622C318.684 -5.72117 318.241 -6.24756 317.965 -6.74925C317.398 -7.77443 316.98 -8.87965 316.472 -9.94464C316.208 -10.5075 315.888 -11.0428 315.033 -10.834C314.317 -9.52121 315.677 -8.58934 315.655 -7.28068C315.343 -7.34498 315.044 -7.37527 314.779 -7.48168C313.95 -7.81997 313.145 -8.21716 312.31 -8.53097C311.854 -8.69836 311.354 -8.74068 310.949 -8.81598C310.312 -8.03392 310.652 -7.59651 311.189 -7.29349C311.926 -6.871 312.704 -6.5296 313.462 -6.15377C313.88 -5.94927 314.292 -5.75202 314.756 -5.52615C313.968 -4.30276 311.935 -4.78896 311.651 -3.1547C312.207 -2.4931 312.778 -2.71043 313.304 -2.89789C314.334 -3.25789 315.333 -3.71267 316.373 -4.02642C316.88 -4.17946 317.539 -4.26613 317.991 -4.07428C320.592 -2.95591 323.15 -1.74422 325.712 -0.557003C325.835 -0.502454 325.926 -0.384029 326.118 -0.227854C325.9 -0.027311 325.746 0.204136 325.524 0.302226C323.055 1.41564 320.573 2.49504 318.116 3.61074C317.37 3.94752 316.686 3.96616 315.933 3.66106C314.887 3.22549 313.817 2.84883 312.755 2.46718C312.225 2.28611 311.661 2.05422 311.176 2.90265C311.922 4.17691 313.669 3.95652 314.802 5.04268C313.537 5.62542 312.402 6.16253 311.259 6.67289C310.681 6.92692 310.082 7.13243 310.283 8.14038C312.247 8.3663 313.718 6.87041 315.711 6.46129C315.218 7.86637 314.764 9.13914 314.315 10.4192C315.201 10.9203 315.565 10.525 315.833 9.97228C316.427 8.73187 316.945 7.45828 317.59 6.2465C317.861 5.74503 318.3 5.19254 318.792 4.95427C321.19 3.81492 323.635 2.76041 326.07 1.69138C326.368 1.56301 326.694 1.49043 327.194 1.34237C327.168 1.79428 327.206 2.15017 327.116 2.47599C326.409 5.12875 325.673 7.76968 324.978 10.4247C324.755 11.2649 324.299 11.8395 323.538 12.2497C322.579 12.7626 321.635 13.329 320.708 13.9049C319.957 14.3613 319.955 14.437 320.073 15.4802Z" fill="white"/>
</g>
<defs>
<clipPath id="clip0_2_64">
<rect width="258" height="55" fill="white" transform="translate(92)"/>
</clipPath>
</defs>
</svg>
