<svg width="38" height="48" viewBox="0 0 38 48" fill="none" xmlns="http://www.w3.org/2000/svg">
<circle r="1.5" transform="matrix(-1 0 0 1 5.5 9.5)" fill="white"/>
<path d="M27.829 28.31C27.9517 31.2953 27.346 34.315 26.0935 37C25.6269 34.2463 25.1521 31.4926 24.6855 28.739C21.7876 29.2279 18.8897 29.7169 16 30.1973C17.629 27.6409 20.3632 25.8909 23.2775 25.5306C22.1314 24.038 19.0698 19.9289 18.5623 18.0931C20.0194 19.0282 23.6786 22.348 25.1357 23.2831C26.7975 20.8554 28.4593 18.4277 30.1211 16C29.7773 18.3762 29.1224 20.6924 28.181 22.8799C30.4567 23.4632 32.7243 24.038 35 24.6213C31.7992 26.1483 29.5726 26.7316 26.0607 26.5" stroke="white" stroke-miterlimit="10" stroke-linecap="round" stroke-linejoin="round"/>
</svg>
