<svg width="46" height="48" viewBox="0 0 46 48" fill="none" xmlns="http://www.w3.org/2000/svg">
<g clip-path="url(#clip0_16480_132151)">
<path d="M16.4599 13.9786C17.6741 14.1886 18.3753 13.1247 19.5141 12.9314C19.4925 13.2846 19.5161 13.5716 19.4511 13.8474C19.2661 14.6235 19.0357 15.3857 18.8424 16.1496C18.7042 16.7157 18.7654 17.191 19.6228 17.2866C20.7113 16.2095 20.4772 14.5236 21.2455 13.1736C22.1709 13.927 22.157 15.3534 23.2958 15.8106C23.9788 15.5165 23.8991 15.0538 23.6895 14.5989C23.2538 13.6647 22.8223 12.7365 22.3146 11.8423C21.894 11.1028 21.8341 10.4038 22.0828 9.57564C22.5945 7.90062 22.9991 6.20032 23.4655 4.51154C23.5652 4.14086 23.7 3.78204 23.8919 3.21522C24.1423 3.57109 24.2932 3.72714 24.3845 3.91475C25.235 5.69931 26.0505 7.49868 26.9359 9.26842C27.3734 10.139 27.4791 10.9585 27.0679 11.879C26.7263 12.6366 26.4816 13.4442 26.2143 14.2316C26.0387 14.7428 25.96 15.2507 26.6533 15.5557C27.8012 15.0175 27.5473 13.5945 28.4798 12.6857C28.9713 13.6889 29.4131 14.5923 29.8651 15.4975C30.1948 16.1561 30.2072 16.1477 31.0355 16.1739C31.5223 15.71 31.2674 15.2413 31.0619 14.7658C30.6468 13.8354 30.2318 12.9051 29.7628 11.8687C31.0605 11.7903 32.0039 12.9949 33.2199 12.4907C33.4214 11.7124 32.9385 11.4786 32.4619 11.2673C31.484 10.8346 30.4773 10.466 29.5198 9.98389C29.0926 9.76576 28.6217 9.41686 28.4185 9.01112C27.4585 7.10486 26.5869 5.15641 25.6864 3.2186C25.6159 3.0615 25.6111 2.86866 25.5378 2.48176C26.3817 2.86276 27.0543 3.16389 27.727 3.46503C29.2084 4.13531 30.6817 4.82005 32.1734 5.46557C32.7593 5.71858 33.1335 6.12414 33.3435 6.71242C33.6637 7.60915 34.0024 8.49331 34.3575 9.37521C34.532 9.81826 34.6963 10.2861 35.4976 10.2326C36.1966 9.1256 35.0273 8.14551 35.1081 7.00348C36.1531 7.1233 36.9892 7.65215 37.8743 8.04082C38.5531 8.33777 38.5531 8.33777 39.2792 7.96102C39.4813 7.36944 39.1033 7.09115 38.6555 6.86918C37.9436 6.52341 37.2173 6.1963 36.5054 5.85052C36.2371 5.72062 35.975 5.55986 35.6282 5.36735C36.5216 4.46719 38.138 4.832 38.784 3.26195C38.1761 3.2288 37.7534 3.12348 37.3829 3.21448C36.298 3.48713 35.2484 3.87834 34.1656 4.14071C33.7271 4.25106 33.1833 4.29917 32.7934 4.13596C30.5053 3.13961 28.2478 2.06899 25.9802 1.02312C25.877 0.977265 25.8005 0.877705 25.6042 0.707876C25.9291 0.496395 26.1859 0.277587 26.4801 0.14038C28.4757 -0.767941 30.4919 -1.64575 32.4875 -2.55407C33.0327 -2.79919 33.5478 -2.80999 34.1067 -2.63666C35.0162 -2.34475 35.9277 -2.08981 36.8475 -1.82267C37.3032 -1.6952 37.7715 -1.52275 38.291 -2.07125C37.7903 -3.35347 36.2259 -2.89811 35.3744 -3.72843C36.6614 -4.59266 38.3275 -4.80514 39.4525 -6.06743C38.4856 -6.88188 37.808 -6.18152 37.1288 -5.96133C36.3858 -5.71569 35.6824 -5.34538 34.8943 -5.00681C34.777 -6.25503 36.0245 -7.24393 35.4149 -8.43445C34.7162 -8.52182 34.5796 -8.04601 34.4243 -7.66435C34.048 -6.78527 33.7708 -5.86643 33.3553 -5.0053C33.1465 -4.56959 32.8082 -4.07269 32.4009 -3.87656C30.2737 -2.87008 28.1093 -1.9452 25.951 -0.99783C25.7 -0.889914 25.4241 -0.84529 25.0391 -0.735633C25.0853 -1.13229 25.0822 -1.44212 25.1554 -1.73242C25.6908 -3.77096 26.2611 -5.79765 26.7964 -7.83619C26.9674 -8.48688 27.2976 -8.96931 27.8815 -9.32985C28.6917 -9.83493 29.4749 -10.393 30.2498 -10.9633C30.8438 -11.402 30.8416 -11.445 30.7503 -12.2832C29.5728 -12.6249 28.9709 -11.4146 27.9147 -11.1792C27.7452 -12.6505 28.9626 -14.0022 28.4388 -15.438C27.6879 -15.7217 27.4338 -15.2998 27.2725 -14.8339C27.0459 -14.1989 26.8729 -13.538 26.6771 -12.8972C26.5671 -12.5284 26.4611 -12.1536 26.3245 -11.7045C25.2248 -12.197 25.2894 -13.8806 23.9213 -13.906C23.4103 -13.2919 23.7682 -12.8307 23.9941 -12.4047C24.4191 -11.6058 24.9489 -10.8514 25.3327 -10.0335C25.5173 -9.64186 25.6262 -9.10972 25.5286 -8.69598C25.0161 -6.61054 24.4335 -4.5488 23.8695 -2.47295C23.8043 -2.25047 23.7452 -2.03218 23.6169 -1.57084C23.3168 -1.99994 23.1659 -2.156 23.0808 -2.34779C22.2448 -4.09765 21.4316 -5.85396 20.5833 -7.59545C20.2908 -8.19908 20.223 -8.7769 20.427 -9.43212C20.7268 -10.3841 20.9854 -11.3437 21.2275 -12.3011C21.3536 -12.8055 21.461 -13.3507 20.6918 -13.5685C19.5974 -13.0577 19.9663 -11.7307 19.1965 -10.8608C18.7743 -11.4566 18.5105 -12.0976 18.1913 -12.7008C17.9695 -13.1207 17.8155 -13.5866 17.53 -13.9543C17.3232 -14.2061 16.9458 -14.3243 16.4916 -14.5954C16.0237 -12.763 17.4219 -11.6976 17.6141 -10.2329C16.523 -9.95602 15.503 -11.2869 14.4179 -10.4438C14.3089 -9.72821 14.8122 -9.57058 15.2392 -9.4058C16.1283 -9.06438 17.0562 -8.8117 17.9207 -8.42687C18.352 -8.22931 18.829 -7.8846 19.0384 -7.48305C19.9985 -5.57679 20.8762 -3.63252 21.7766 -1.6947C21.8659 -1.49681 21.8893 -1.26317 21.9602 -0.999366C21.7707 -0.986646 21.639 -0.941841 21.5502 -0.979679C19.5963 -1.85519 17.6321 -2.70594 15.711 -3.63933C15.2921 -3.84526 14.9198 -4.28778 14.6877 -4.70956C14.211 -5.57141 13.8599 -6.50056 13.4326 -7.39589C13.2106 -7.8691 12.9413 -8.31912 12.2228 -8.14357C11.6206 -7.03992 12.7646 -6.2565 12.7454 -5.15632C12.4836 -5.21038 12.2322 -5.23585 12.0094 -5.3253C11.312 -5.6097 10.6352 -5.94361 9.93383 -6.20744C9.55016 -6.34815 9.12974 -6.38374 8.78958 -6.44704C8.25395 -5.78957 8.53946 -5.42184 8.99149 -5.16709C9.61073 -4.81191 10.2648 -4.5249 10.9024 -4.20894C11.2532 -4.03701 11.5999 -3.87119 11.9899 -3.6813C11.3277 -2.65281 9.61842 -3.06155 9.37972 -1.68764C9.84714 -1.13143 10.3266 -1.31414 10.7691 -1.47174C11.6355 -1.77439 12.4749 -2.15672 13.3497 -2.42049C13.7757 -2.54915 14.3297 -2.62201 14.7093 -2.46072C16.8963 -1.52052 19.0464 -0.50186 21.2006 0.496227C21.3038 0.542086 21.3803 0.641646 21.5415 0.77294C21.3586 0.941536 21.2295 1.13611 21.0422 1.21857C18.9664 2.15462 16.8801 3.06206 14.8146 4.00002C14.1871 4.28315 13.6123 4.29882 12.979 4.04232C12.1001 3.67615 11.2008 3.35948 10.3076 3.03864C9.86212 2.88641 9.38762 2.69146 8.97991 3.40474C9.60763 4.476 11.076 4.29071 12.0288 5.20384C10.9652 5.69375 10.0106 6.14529 9.04985 6.57435C8.5643 6.78792 8.06008 6.96068 8.22969 7.80806C9.88062 7.99799 11.1169 6.74041 12.7929 6.39646C12.3784 7.5777 11.9966 8.64771 11.6189 9.72382C12.364 10.1451 12.6699 9.81278 12.8951 9.34813C13.3945 8.30533 13.8299 7.23462 14.3726 6.21589C14.5999 5.7943 14.9693 5.32983 15.3827 5.12951C17.3988 4.17168 19.4542 3.28515 21.5013 2.38642C21.7523 2.27851 22.0262 2.21749 22.4461 2.09302C22.4246 2.47294 22.4565 2.77213 22.3811 3.04604C21.7867 5.2762 21.1675 7.49642 20.5834 9.72849C20.3961 10.4348 20.0124 10.9179 19.3727 11.2628C18.5664 11.6939 17.7727 12.1701 16.9934 12.6542C16.3621 13.038 16.3603 13.1016 16.4599 13.9786Z" fill="white"/>
<circle r="1.5" transform="matrix(1 0 0 -1 29.5 38.5)" fill="white"/>
<circle r="2.5" transform="matrix(-1 0 0 1 8.5 30.5)" fill="white"/>
</g>
<defs>
<clipPath id="clip0_16480_132151">
<rect width="46" height="48" fill="white"/>
</clipPath>
</defs>
</svg>
