<svg width="72" height="36" viewBox="0 0 72 36" fill="none" xmlns="http://www.w3.org/2000/svg">
<circle cx="18" cy="18" r="17" stroke="#FF7D16" stroke-width="2"/>
<path d="M11.9023 13.3623C12.5632 13.3623 13.1419 13.4512 13.6387 13.6289C14.14 13.8066 14.5319 14.0778 14.8145 14.4424C15.097 14.8024 15.2383 15.2559 15.2383 15.8027C15.2383 16.2038 15.1631 16.557 15.0127 16.8623C14.8669 17.1631 14.6641 17.4274 14.4043 17.6553C14.1491 17.8786 13.8529 18.0723 13.5156 18.2363C13.8301 18.4141 14.1423 18.6214 14.4521 18.8584C14.762 19.0954 15.0195 19.3757 15.2246 19.6992C15.4297 20.0182 15.5322 20.3988 15.5322 20.8408C15.5322 21.374 15.4023 21.8525 15.1426 22.2764C14.8828 22.6956 14.484 23.0283 13.9463 23.2744C13.4085 23.516 12.7181 23.6367 11.875 23.6367C11.0319 23.6367 10.3415 23.5205 9.80371 23.2881C9.26595 23.0557 8.86947 22.7321 8.61426 22.3174C8.36361 21.8981 8.23828 21.415 8.23828 20.8682C8.23828 20.4033 8.31576 20.0114 8.4707 19.6924C8.63021 19.3734 8.84668 19.1022 9.12012 18.8789C9.39355 18.6556 9.70573 18.4551 10.0566 18.2773C9.77865 18.0905 9.52344 17.8786 9.29102 17.6416C9.05859 17.4046 8.87402 17.1335 8.7373 16.8281C8.60059 16.5228 8.53223 16.1764 8.53223 15.7891C8.53223 15.2513 8.67578 14.8024 8.96289 14.4424C9.25 14.0824 9.64648 13.8135 10.1523 13.6357C10.6628 13.4535 11.2461 13.3623 11.9023 13.3623ZM10.7129 20.7588C10.7129 21.0368 10.8132 21.2624 11.0137 21.4355C11.2142 21.6087 11.4922 21.6953 11.8477 21.6953C12.2624 21.6953 12.5654 21.6178 12.7568 21.4629C12.9528 21.3034 13.0508 21.0869 13.0508 20.8135C13.0508 20.6084 12.9893 20.4238 12.8662 20.2598C12.7477 20.0911 12.6087 19.9453 12.4492 19.8223C12.2897 19.6992 12.1507 19.6035 12.0322 19.5352L11.8477 19.4258C11.6426 19.5306 11.4535 19.6491 11.2803 19.7812C11.1117 19.9089 10.9749 20.0547 10.8701 20.2188C10.7653 20.3783 10.7129 20.5583 10.7129 20.7588ZM11.8887 15.3105C11.6654 15.3105 11.4717 15.3766 11.3076 15.5088C11.1436 15.6364 11.0615 15.8118 11.0615 16.0352C11.0615 16.181 11.0957 16.3177 11.1641 16.4453C11.237 16.5684 11.3327 16.6823 11.4512 16.7871C11.5742 16.8919 11.7109 16.9876 11.8613 17.0742C11.9935 16.9967 12.1234 16.9124 12.251 16.8213C12.3786 16.7301 12.4857 16.6208 12.5723 16.4932C12.6589 16.3656 12.7021 16.2129 12.7021 16.0352C12.7021 15.8118 12.6201 15.6364 12.4561 15.5088C12.2965 15.3766 12.1074 15.3105 11.8887 15.3105ZM16.5645 22.3652C16.5645 21.8822 16.7057 21.5426 16.9883 21.3467C17.2754 21.1507 17.6195 21.0527 18.0205 21.0527C18.3988 21.0527 18.7269 21.1507 19.0049 21.3467C19.2829 21.5426 19.4219 21.8822 19.4219 22.3652C19.4219 22.8255 19.2829 23.1582 19.0049 23.3633C18.7269 23.5684 18.3988 23.6709 18.0205 23.6709C17.6195 23.6709 17.2754 23.5684 16.9883 23.3633C16.7057 23.1582 16.5645 22.8255 16.5645 22.3652ZM26.4629 23.5H23.7217V18.5576C23.7217 18.4665 23.7217 18.3001 23.7217 18.0586C23.7217 17.8125 23.724 17.5413 23.7285 17.2451C23.7376 16.9489 23.749 16.6823 23.7627 16.4453C23.6442 16.5866 23.5326 16.7074 23.4277 16.8076C23.3275 16.9079 23.2295 17.0013 23.1338 17.0879L21.999 18.0244L20.5977 16.3018L24.0293 13.5059H26.4629V23.5Z" fill="#385362"/>
<path fill-rule="evenodd" clip-rule="evenodd" d="M61.5436 17.9975L57.2936 22.2574C56.9036 22.6483 56.9019 23.2838 57.29 23.6768L57.317 23.7042C57.7051 24.0972 58.3359 24.0988 58.726 23.7078L63.7058 18.7165C63.9258 18.496 64.0223 18.1977 63.9949 17.909C63.9768 17.6784 63.8799 17.4531 63.7044 17.2772L58.731 12.2923C58.3409 11.9013 57.7101 11.9029 57.3221 12.2959L57.295 12.3233C56.907 12.7163 56.9086 13.3518 57.2987 13.7428L61.5436 17.9975Z" fill="#FF7D16"/>
</svg>
