<svg width="352" height="56" viewBox="0 0 352 56" fill="none" xmlns="http://www.w3.org/2000/svg">
<g clip-path="url(#clip0_2929_39523)">
<path d="M346.868 -8.13695C326.387 50.4279 183.715 42.8462 141.715 33.8462C74.5343 19.4503 -11.2852 -15.1538 -157.922 25.2459C-325.653 71.4571 -466.535 1.42648 -466.535 -135.802C-466.535 -273.031 -198.797 -231.725 -61.568 -231.725C75.6606 -231.725 393.714 -142.087 346.868 -8.13695Z" fill="#FFE8CC"/>
<path d="M219.979 18.1638C221.84 18.6649 222.64 20.0875 222.274 22.3693M91.2817 20.2668C89.4216 19.7656 88.6214 18.3431 88.9873 16.0612M44.5977 45.2463C43.1772 42.7757 41.4179 41.7948 38.9343 41.131M323.51 13.6677C321.065 12.2047 320.114 10.4288 319.493 7.93408M149.249 37.6794C148.366 37.6792 146.968 37.6797 147.189 39.1829M12.5679 12.2297C13.4509 12.2295 14.849 12.23 14.628 13.7331M281.641 43.1013C281.641 41.2194 282.094 40.5685 283.774 39.5102" stroke="#3C5460" stroke-width="2" stroke-linecap="round"/>
</g>
<defs>
<clipPath id="clip0_2929_39523">
<rect width="352" height="56" fill="white"/>
</clipPath>
</defs>
</svg>
