<svg width="513" height="56" viewBox="0 0 513 56" fill="none" xmlns="http://www.w3.org/2000/svg">
<g clip-path="url(#clip0_2929_40069)">
<path d="M781.498 -225.141C735.794 -277.032 653.003 -291.672 532.08 -273.242C402.394 -253.477 395.732 -195.056 218.059 -199.328C-67.0771 -206.184 -52.2805 40.299 84.9997 44.9999C287 -61.0001 374.636 80.7785 549.043 6.93447C704.679 -58.962 875.938 -117.917 781.498 -225.141Z" fill="#DCEEF8"/>
<path d="M261.479 10.8928C259.619 10.3916 258.819 8.96908 259.185 6.68722M464.987 28.0002C466.847 28.5014 467.648 29.9239 467.282 32.2058M415.38 50.2761C415.034 49.0644 413.529 48.3188 413.529 48.3188M502.996 9.55392C505.442 8.09094 506.392 6.31501 507.013 3.82031M172.016 4.75314C174.461 6.21611 175.412 7.99205 176.032 10.4867M372.7 12.9196C373.583 12.9198 374.981 12.9193 374.76 11.4162M230.872 46.1721C230.763 47.0484 230.59 48.4357 229.125 48.0308M318.442 23.763L315.244 28.0002" stroke="#3C5460" stroke-width="2" stroke-linecap="round"/>
</g>
<defs>
<clipPath id="clip0_2929_40069">
<rect width="513" height="56" fill="white"/>
</clipPath>
</defs>
</svg>
