<svg width="134" height="50" viewBox="0 0 134 50" fill="none" xmlns="http://www.w3.org/2000/svg">
<g clip-path="url(#clip0_8113_12606)">
<path d="M11.8629 20.2042H14.1943L21.3257 30.8833H21.3714V20.2042H23.1086V33.175H20.8686L13.6914 22.5417H13.6457V33.175H11.8629V20.2042ZM26.9029 20.2042V27.95C26.9029 29.5083 27.68 31.5708 30.0571 31.5708C32.4343 31.5708 33.2114 29.5542 33.2114 27.95V20.2042H34.9029V28.225C34.9029 31.1583 32.8 33.175 30.0114 33.175C27.2229 33.175 25.12 31.1583 25.12 28.225V20.2042H26.9029ZM37.0057 20.2042H39.6114L43.7257 30.0125H43.8171L47.8857 20.2042H50.4914V33.175H48.7086V22.5417L44.32 33.175H43.1771L38.7886 22.5417H38.7429V33.175H37.0057V20.2042ZM52.5486 20.2042H60.9143V21.8542H54.2857V25.75H60.4571V27.4H54.2857V31.525H61.2343V33.175H52.5486V20.2042ZM63.2914 20.2042H67.8171C71.1086 20.2042 71.9771 22.2208 71.9771 23.825C71.9771 25.475 70.7429 27.0333 68.7771 27.2625L72.4343 33.175H70.2857L66.9943 27.4458H65.0286V33.175H63.2914V20.2042ZM65.0286 25.9333H67.3143C68.6857 25.9333 70.1029 25.6125 70.1029 23.825C70.1029 22.0375 68.7314 21.7167 67.3143 21.7167H65.0286V25.9333ZM74.5371 20.2042H76.2743V33.175H74.5371V20.2042ZM84.8686 20.2042C81.1657 20.2042 78.3314 23 78.3314 26.7125C78.3314 30.4708 81.3028 33.175 84.8686 33.175C86.24 33.175 87.6114 32.6708 88.7086 31.8C90.1257 30.7 91.3143 28.6833 91.3143 26.5292C91.3143 22.9542 88.4343 20.2042 84.8686 20.2042ZM84.8229 31.5708C82.08 31.5708 80.16 29.325 80.16 26.575C80.16 23.9625 82.1714 21.8083 84.8229 21.8083C87.52 21.8083 89.4857 23.9167 89.4857 26.6208C89.4857 27.7667 89.1657 28.8208 88.5257 29.6917L85.1429 26.2542L84 27.4L87.3829 30.7917C86.6971 31.2958 85.8286 31.5708 84.8229 31.5708ZM95.1086 20.2042V27.95C95.1086 29.5083 95.8857 31.5708 98.2628 31.5708C100.64 31.5708 101.417 29.5542 101.417 27.95V20.2042H103.109V28.225C103.109 31.1583 101.006 33.175 98.2171 33.175C95.4286 33.175 93.3257 31.1583 93.3257 28.225V20.2042H95.1086ZM105.211 20.2042H113.577V21.8542H106.949V25.75H113.12V27.4H106.949V31.525H113.897V33.175H105.211V20.2042ZM117.326 30.2875C117.92 31.2042 118.926 31.6167 119.931 31.6167C121.029 31.6167 122.4 30.9292 122.4 29.5542C122.4 26.7125 116.32 28.4542 116.32 23.6417C116.32 22.175 117.554 20.2042 120.48 20.2042C121.806 20.2042 123.086 20.4792 124.046 21.625L122.674 22.8625C122.263 22.2208 121.44 21.7625 120.48 21.7625C118.651 21.7625 118.103 22.8625 118.103 23.6417C118.103 26.7583 124.183 24.8792 124.183 29.325C124.183 31.7083 122.263 33.1292 119.886 33.1292C118.286 33.1292 116.777 32.5792 115.954 31.4333L117.326 30.2875ZM4.13714 33.175V32.1667H8.8V29.7833H9.66857V33.1292L4.13714 33.175ZM4.13714 28.8208V25.1542H5.05143V27.8583H6.42286V25.2917H7.29143V27.8583H8.8V25.0167H9.66857V28.8208H4.13714ZM5.32571 20.9833C5.05143 21.2125 4.86857 21.5792 4.86857 21.9458C4.86857 22.4042 5.05143 22.8625 5.6 22.8625C6.69714 22.8625 6.05714 20.2042 8.06857 20.2042C9.25714 20.2042 9.85143 21.1667 9.85143 22.2208C9.85143 22.9083 9.62286 23.5958 9.12 24.0542L8.38857 23.3208C8.75429 23.0917 8.98286 22.6792 8.98286 22.2208C8.98286 21.7625 8.70857 21.2583 8.20571 21.2583C6.97143 21.2583 7.70286 23.9167 5.69143 23.9167C4.54857 23.9167 4 22.9083 4 21.8542C4 21.2583 4.18286 20.7083 4.54857 20.25L5.32571 20.9833Z" fill="white"/>
<path d="M132 18.0042H126.789L125.189 12.825L123.589 18.0042H118.423L121.531 19.0583H124.366L125.189 16.4L126.011 19.0583H128.846L126.56 20.8458L127.52 23.55L125.189 21.9V23.2292L129.623 26.4375L127.794 21.2125L132 18.0042Z" fill="#4FC649"/>
</g>
<defs>
<clipPath id="clip0_8113_12606">
<rect width="128" height="22" fill="white" transform="translate(4 12)"/>
</clipPath>
</defs>
</svg>
