<svg width="235" height="99" viewBox="0 0 235 99" fill="none" xmlns="http://www.w3.org/2000/svg">
<path fill-rule="evenodd" clip-rule="evenodd" d="M36.5279 79.7801C36.49 79.8558 36.4143 79.9316 36.3764 80.0074C36.3385 80.0831 36.3007 80.1589 36.2249 80.2347C36.1492 80.3862 36.0734 80.5378 35.9976 80.6893C35.9598 80.7651 35.9219 80.8409 35.884 80.9167C35.884 80.9924 35.8461 81.0682 35.8083 81.144C35.7704 81.2198 35.7704 81.2955 35.7325 81.3713C35.7325 81.4471 35.6946 81.5229 35.6568 81.5986C35.6568 81.6744 35.6568 81.7502 35.6189 81.826C35.6189 81.8638 35.581 81.9396 35.581 82.0154C35.581 82.0912 35.581 82.1669 35.5431 82.2427C35.5431 82.3185 35.5431 82.3943 35.5431 82.47C35.5431 82.5079 35.5431 82.5837 35.5431 82.6595C35.5431 82.7352 35.581 82.811 35.581 82.8868C35.581 82.9247 35.581 83.0004 35.581 83.0762C35.6189 83.152 35.6189 83.2278 35.6568 83.2657C35.6568 83.3414 35.6946 83.4172 35.6946 83.4551C35.6946 83.493 35.6946 83.493 35.7325 83.5309C35.7325 83.5687 35.7325 83.6066 35.7704 83.6445C35.7704 83.6824 35.7704 83.6824 35.7704 83.7203C35.8083 83.7582 35.8083 83.7961 35.8461 83.834C35.8461 83.834 35.8461 83.8718 35.884 83.8718C35.884 83.9097 35.884 83.9476 35.9219 83.9855C35.9219 84.0234 35.9598 84.0234 35.9598 84.0613C35.9598 84.0992 35.9976 84.1371 36.0355 84.1749C36.0355 84.2128 36.0355 84.2128 36.0734 84.2128C36.0734 84.2886 36.1113 84.3265 36.1492 84.4023C36.187 84.4402 36.2628 84.5159 36.3006 84.5538C36.3006 84.5538 36.3007 84.5917 36.3385 84.5917C36.3385 84.6296 36.3764 84.6675 36.4143 84.7054C36.4522 84.7432 36.4522 84.7432 36.4522 84.7811C36.49 84.7811 36.5279 84.819 36.5658 84.8569L36.6415 84.9327C36.6415 84.9706 36.6794 84.9706 36.7173 85.0085C36.7552 85.0463 36.7552 85.0463 36.793 85.0842C36.8309 85.1221 36.8688 85.1221 36.9067 85.16C36.9067 85.1979 36.9445 85.1979 36.9445 85.1979C36.9824 85.2737 37.0582 85.3116 37.1339 85.3494C37.1718 85.3873 37.2475 85.4631 37.3233 85.501L37.3612 85.5389C37.3991 85.5768 37.4748 85.5768 37.5127 85.6146L37.5884 85.6525C37.6263 85.6904 37.6642 85.7283 37.7021 85.7662L37.8157 85.8041C37.8536 85.842 37.8914 85.842 37.9293 85.8799L38.0051 85.9177C38.0808 85.9556 38.1187 85.9935 38.1944 85.9935C38.1944 86.0314 38.2323 86.0314 38.2323 86.0314C38.3081 86.0693 38.3838 86.1072 38.4596 86.1451L38.4974 86.1829C38.5732 86.2208 38.649 86.2587 38.7247 86.2966H38.8005C38.8762 86.3345 38.952 86.3724 38.9898 86.3724L39.1035 86.4103C39.1413 86.4482 39.2171 86.486 39.255 86.486L39.3686 86.5239C39.4443 86.5618 39.4822 86.5618 39.558 86.5997C39.5958 86.5997 39.5958 86.6376 39.6337 86.6376C39.7095 86.6376 39.7852 86.6755 39.861 86.7134H39.9367C40.0125 86.7512 40.0882 86.7891 40.2019 86.7891L40.2397 86.827C40.3533 86.8649 40.4291 86.8649 40.5427 86.9028L40.6185 86.9407C40.6942 86.9407 40.77 86.9786 40.8457 86.9786L40.9594 87.0165C41.0351 87.0543 41.1109 87.0543 41.1866 87.0922H41.3003C41.376 87.1301 41.4517 87.1301 41.5275 87.168H41.6411C41.7169 87.2059 41.7926 87.2059 41.8684 87.2438H41.982C42.0956 87.2817 42.1714 87.2817 42.285 87.3196H42.3229C42.4365 87.3574 42.5501 87.3574 42.7016 87.3953H42.7774C42.8532 87.4332 42.9668 87.4332 43.0425 87.4332L43.1562 87.4711C43.2698 87.4711 43.3455 87.4711 43.4213 87.509H43.5728C43.6485 87.5469 43.7243 87.5469 43.8 87.5469L43.9515 87.5848C44.0652 87.5848 44.1409 87.5848 44.2167 87.6226H44.3303C44.4439 87.6226 44.5954 87.6605 44.7091 87.6605H44.7469C44.8606 87.6605 45.0121 87.6984 45.1636 87.6984H45.2393C45.3529 87.7363 45.4666 87.7363 45.5802 87.7363H45.6938C45.8075 87.7742 45.8832 87.7742 45.9968 87.7742H46.1483C46.2241 87.7742 46.3377 87.8121 46.4135 87.8121H46.565C46.6786 87.8121 46.7543 87.8121 46.868 87.8121L47.0195 87.85C47.1331 87.85 47.2467 87.85 47.3982 87.85H47.4361C47.6255 87.85 47.777 87.85 47.9285 87.85H47.9664C48.1179 87.8879 48.2315 87.8879 48.383 87.8879H48.4966C48.6103 87.8879 48.7239 87.8879 48.8375 87.8879H48.989C49.1026 87.8879 49.2163 87.8879 49.292 87.8879H49.4814C49.595 87.8879 49.7086 87.8879 49.7844 87.8879H49.4814C49.595 87.8879 49.7086 87.8879 49.8602 87.8879C50.0874 87.8879 50.201 87.8879 50.3525 87.8879H50.4283C50.5798 87.8879 50.7692 87.8879 50.9964 87.85C51.1479 87.85 51.2994 87.85 51.4888 87.85C51.6782 87.85 51.7918 87.85 51.9433 87.85L52.0948 87.8121C52.2084 87.8121 52.3221 87.8121 52.4736 87.8121H52.5872C52.7387 87.8121 52.8523 87.7742 53.0417 87.7742C53.269 87.7742 53.4584 87.7742 53.6099 87.7363C53.7992 87.7363 53.9886 87.7363 54.1401 87.6984C53.9886 87.7363 53.7992 87.7363 53.6477 87.7363C54.3674 87.6984 55.1249 87.6226 55.8445 87.5848C55.2764 87.6226 54.7082 87.6605 54.1401 87.6984L64.2529 93.6088L65.2377 91.9418L65.9195 90.7673L59.7078 87.1301C61.1092 86.9407 62.5485 86.6755 64.0257 86.3345L66.1467 85.8041C68.0784 85.3115 69.6691 84.5917 71.0327 83.7582C71.8659 84.478 72.8128 85.0842 73.8355 85.6146L76.4868 87.0165C78.4563 88.0015 80.4637 88.7593 82.509 89.2518C89.4024 91.0704 96.0685 91.6766 101.939 91.1082C101.977 91.3735 102.053 91.6387 102.166 91.866L102.469 92.5858C102.697 93.1163 102.962 93.6088 103.303 94.0255C106.03 97.8521 109.666 99.8601 112.431 98.6477C115.271 97.4354 116.294 93.2678 115.309 88.5319C115.196 88.1152 115.082 87.6984 114.893 87.2438L114.817 87.0922C117.658 85.3494 119.892 83.0004 121.369 80.1589C121.559 79.8179 121.71 79.5148 121.862 79.1739C121.597 82.0533 122.468 84.7054 124.93 85.4252L125.801 85.6904C126.293 85.842 126.786 85.9177 127.316 85.9556V85.9935C132.808 86.486 137.429 84.7054 138.414 81.3334C139.398 78.0373 136.633 74.1728 131.937 71.5586C131.407 71.2555 130.801 70.9903 130.195 70.8387L129.323 70.5735C126.748 69.8158 124.475 71.7859 123.15 74.5517C123.983 68.3003 121.672 61.2155 116.862 54.3579C118.605 54.4337 120.498 54.1306 122.619 53.2971L124.513 52.5772C125.422 52.2363 126.293 51.8574 127.164 51.4406C127.43 51.7437 127.733 52.0468 128.036 52.312C129.664 53.8654 131.71 55.1535 134.323 56.0249C136.974 56.9342 140.194 57.3889 143.375 57.5404C146.519 57.6541 149.625 57.4268 152.125 57.0858C154.586 56.7448 156.442 56.328 158.336 55.7976C160.23 55.2672 162.124 54.6231 164.245 53.6381C166.404 52.6909 168.752 51.4027 170.911 50.0388C173.07 48.6749 175.001 47.1973 176.668 45.4924C178.297 43.8254 179.698 41.8931 180.607 39.8472C181.516 37.8392 181.971 35.6797 182.046 33.7095C182.16 31.7394 181.895 29.9587 181.213 28.178C180.986 27.534 180.645 26.8899 180.266 26.2458C179.584 24.844 178.562 23.4422 177.009 22.1161C175.077 20.4112 172.312 18.82 169.206 17.797C166.101 16.7362 162.616 16.2815 158.753 16.2058C154.927 16.13 150.685 16.3952 146.822 17.3424C142.921 18.2517 139.398 19.805 136.406 21.3963C133.452 23.0254 131.066 24.7303 129.664 26.3974C128.263 28.0644 127.884 29.6935 128.073 31.0953C128.187 31.7394 128.414 32.3456 128.679 32.876C126.596 33.2549 124.4 33.7095 122.089 34.3157C120.726 34.6567 119.362 35.1114 117.961 35.6418L116.067 36.3616C114.817 36.8542 113.719 37.4225 112.772 38.0665C112.696 38.0665 112.582 38.0287 112.507 38.0287C108.151 17.0772 65.6922 7.83276 53.0038 25.0334C48.8754 24.1241 44.7848 26.7383 43.8758 30.868C42.9668 35.0356 45.5802 39.1274 49.7465 39.9988C49.7465 40.0367 49.7844 40.0367 49.7844 40.0367C51.2616 48.0687 57.4353 54.8883 65.8816 56.7448L70.5782 57.7677L68.7601 61.2912L67.1315 64.398C66.8285 65.0042 66.5633 65.6103 66.3361 66.2544C64.821 66.1786 63.1924 66.3302 61.3744 66.7848L59.2533 67.3153C58.0034 67.6184 56.7914 67.9972 55.6551 68.3761C49.3299 70.6872 44.0273 73.3014 40.5049 75.9156L18.7642 63.2235L12.6283 59.6242C12.6662 59.359 12.6283 58.9422 12.4768 58.3739C12.3632 57.8435 12.1738 57.0858 11.8329 56.5175C11.4921 55.9492 11.0376 55.5324 10.4694 55.2672C9.90129 55.002 9.25741 54.9262 8.68927 54.9641C8.15901 55.002 7.74237 55.1914 7.28786 55.3051C6.83335 55.4566 6.37886 55.5703 5.8486 55.5703C5.28046 55.6082 4.67444 55.4945 3.99268 55.1535C3.31092 54.8126 2.51553 54.2064 2.0989 53.8275C1.64439 53.4107 1.56864 53.2592 1.53076 53.335C1.53076 53.4486 1.60651 53.7517 1.83377 54.3579C2.02315 54.9641 2.36402 55.8734 2.62915 56.669C2.93216 57.5025 3.19729 58.2224 3.46242 58.9044C3.76543 59.6242 4.06844 60.2304 4.56082 60.8745C5.05321 61.5186 5.69709 62.1247 6.45461 62.5794C7.17424 63.0719 8.04539 63.375 8.76503 63.375C9.48466 63.375 10.0907 63.0719 10.5831 62.693C10.7724 62.5415 10.9997 62.3521 11.1512 62.1626L10.9618 62.5036L17.0977 66.065L37.8536 78.1888L37.9293 78.113C37.4369 78.6056 37.0203 79.0602 36.6794 79.5527C36.6415 79.6285 36.6037 79.7043 36.5279 79.7801ZM36.6794 79.5527C36.6415 79.6285 36.6037 79.7043 36.5279 79.7801ZM40.164 76.1808C39.9367 76.3323 39.7473 76.4839 39.558 76.6733H39.5201C39.4822 76.7112 39.4065 76.7491 39.3686 76.787L39.255 76.9006M40.2397 86.827C40.3155 86.8649 40.4291 86.8649 40.5427 86.9028C40.4291 86.8649 40.3533 86.8649 40.2397 86.827ZM43.194 87.4711C43.2698 87.4711 43.3455 87.509 43.4213 87.509C43.3455 87.4711 43.2698 87.4711 43.194 87.4711ZM46.6028 87.8121H46.868C46.7543 87.8121 46.6786 87.8121 46.6028 87.8121ZM49.0269 87.8879H49.292C49.1784 87.8879 49.1026 87.8879 49.0269 87.8879ZM57.0565 87.4711C57.6247 87.3953 58.2307 87.3196 58.8367 87.2438C59.0261 87.2059 59.2533 87.2059 59.4427 87.168H59.4806H59.5185H59.5563H59.5942V87.1301H59.6321H59.67H59.7078M52.4736 87.8121H52.5872ZM51.9433 87.85L52.0948 87.8121ZM50.3525 87.8879H50.4283ZM57.0565 87.4711C57.208 87.4332 57.3595 87.4332 57.511 87.3953C57.9656 87.3574 58.3822 87.3196 58.8367 87.2438M40.164 76.1808C39.9367 76.3323 39.7473 76.4839 39.558 76.6733Z" fill="#385362" fill-opacity="0.2"/>
<path fill-rule="evenodd" clip-rule="evenodd" d="M126.672 42.4993L128.566 41.59C129.703 41.0596 130.763 40.4534 131.786 39.8473C138.262 35.907 143.3 31.7773 145.951 28.2538C142.618 28.2538 139.815 26.2458 139.474 23.4801C139.323 21.9646 139.891 20.5249 140.989 19.3883C136.785 19.4262 131.028 20.6007 124.589 22.836C123.226 23.2907 121.824 23.859 120.423 24.503L118.529 25.4123C104.25 32.232 112.355 49.319 126.672 42.4993Z" fill="#E5D7F2" stroke="#385362" stroke-width="0.5" stroke-miterlimit="22.9256" stroke-linecap="round" stroke-linejoin="round"/>
<path fill-rule="evenodd" clip-rule="evenodd" d="M121.028 77.6214L121.369 78.3413C121.596 78.758 121.785 79.2127 121.899 79.6294H121.937C123.338 84.4789 122.581 88.8738 119.74 90.3893C116.975 91.829 113.036 90.0483 109.892 86.2975C109.513 85.8808 109.173 85.3882 108.907 84.8957L108.529 84.1758C105.726 78.7959 118.187 72.2415 121.028 77.6214Z" fill="#E5D7F2" stroke="#385362" stroke-width="0.5" stroke-miterlimit="22.9256" stroke-linecap="round" stroke-linejoin="round"/>
<path fill-rule="evenodd" clip-rule="evenodd" d="M69.9725 58.4888L78.9112 37.4237C82.4336 29.1264 92.0919 25.2241 100.387 28.7476L103.265 29.96C104.97 30.6798 106.56 31.5512 108 32.5363L108.038 32.4984C124.059 43.5993 132.467 58.8298 127.544 70.4611C122.696 81.8272 106.523 86.4115 87.9256 83.0017C85.7667 82.6607 83.6078 82.0545 81.5246 81.1831L78.6461 79.9328C70.3513 76.4094 66.4501 66.7482 69.9725 58.4888Z" fill="#E5D7F2" stroke="#385362" stroke-width="0.5" stroke-miterlimit="22.9256" stroke-linecap="round" stroke-linejoin="round"/>
<path d="M117.922 66.4951C121.148 61.4984 119.714 54.8318 114.719 51.6047C109.724 48.3777 103.059 49.8123 99.833 54.8089C96.6069 59.8056 98.0411 66.4722 103.036 69.6993C108.031 72.9263 114.696 71.4917 117.922 66.4951Z" fill="white" stroke="#385362" stroke-width="0.5" stroke-miterlimit="22.9256"/>
<path d="M116.888 65.8267C119.745 61.4016 118.475 55.4975 114.051 52.6396C109.627 49.7816 103.725 51.0521 100.868 55.4773C98.0109 59.9024 99.2811 65.8065 103.705 68.6645C108.129 71.5224 114.031 70.2519 116.888 65.8267Z" fill="white" stroke="#385362" stroke-width="0.5" stroke-miterlimit="22.9256"/>
<path d="M111.674 65.5721C112.924 63.602 112.735 61.6698 111.144 60.6468C109.932 59.8891 108.682 60.1543 107.47 61.3288L106.637 62.0486C105.955 62.7306 105.425 63.0337 104.97 62.5791C104.591 62.2002 104.478 61.7834 104.894 61.1393C106.182 59.1692 107.356 58.904 107.356 58.904L105.652 57.8053C105.652 57.8053 104.553 58.1084 103.266 60.1164C102.054 61.9729 102.357 63.6399 103.872 64.5871C105.084 65.3827 106.22 65.1175 107.508 63.9051C107.584 63.8293 107.621 63.7914 107.621 63.7914C107.849 63.602 108.114 63.3747 108.455 63.0716C109.136 62.4654 109.439 62.3896 109.97 62.7306C110.5 63.0716 110.462 63.7914 110.008 64.4734C108.682 66.5193 107.129 66.7087 107.129 66.7087L108.985 67.9211C108.985 67.9211 110.159 67.9211 111.674 65.5721Z" fill="url(#paint0_linear_280_422)"/>
<path d="M115.462 59.4342C115.916 58.7144 115.727 57.8809 115.045 57.4642C114.363 57.0096 113.568 57.199 113.076 57.9188C112.659 58.6007 112.811 59.3963 113.492 59.8509C114.212 60.3055 115.007 60.1161 115.462 59.4342Z" fill="#E80000"/>
<path fill-rule="evenodd" clip-rule="evenodd" d="M71.4126 55.1169L78.912 37.4237C82.4344 29.1264 92.0927 25.2241 100.388 28.7476L103.266 29.96C104.97 30.6798 106.561 31.5512 108.001 32.5363L108.038 32.4984C110.5 34.2033 112.811 36.0219 114.894 37.9162C114.856 38.333 114.818 38.7497 114.78 39.2044C113.152 51.0251 102.13 59.3602 90.2747 57.7311L71.4126 55.1169Z" fill="#6A2EA6" fill-opacity="0.14902"/>
<path fill-rule="evenodd" clip-rule="evenodd" d="M108.303 32.6865C124.173 43.7874 132.43 58.9043 127.544 70.4598C122.695 81.8259 106.523 86.4102 87.9256 83.0004C85.7667 82.6594 83.6078 82.0532 81.5246 81.1818L78.646 79.9315C76.1084 78.8707 73.9495 77.2037 72.3208 75.1578C72.4723 75.2336 72.6617 75.3093 72.8132 75.3851L75.6539 76.5975C77.7749 77.5068 79.8959 78.113 82.0549 78.4539C100.652 81.8638 116.863 77.2795 121.673 65.9134C125.953 55.8733 120.271 43.1433 108.303 32.6865Z" fill="#6A2EA6" fill-opacity="0.2"/>
<path fill-rule="evenodd" clip-rule="evenodd" d="M52.1303 18.7075C56.5239 19.3137 59.554 23.3676 58.948 27.7246C58.3419 32.0816 54.3271 35.1504 49.9714 34.5442C45.5778 33.938 42.5478 29.922 43.1538 25.5271C43.7219 21.1701 47.7746 18.1013 52.1303 18.7075Z" fill="white" stroke="#385362" stroke-width="0.5" stroke-miterlimit="22.9256" stroke-linecap="round" stroke-linejoin="round"/>
<path fill-rule="evenodd" clip-rule="evenodd" d="M114.968 27.4212C119.324 28.0274 122.392 32.0813 121.786 36.4383C121.18 40.7953 117.127 43.8642 112.771 43.258C108.415 42.6518 105.348 38.6358 105.954 34.2409C106.56 29.8839 110.574 26.815 114.968 27.4212Z" fill="white" stroke="#385362" stroke-width="0.5" stroke-miterlimit="22.9256" stroke-linecap="round" stroke-linejoin="round"/>
<path fill-rule="evenodd" clip-rule="evenodd" d="M115.499 35.2265C113.832 47.0472 102.848 55.4202 90.9932 53.7532L68.0405 50.6086C56.2233 48.9794 47.8907 37.9543 49.5193 26.0957C53.6856 -4.13807 119.665 4.99269 115.499 35.2265Z" fill="#E5D7F2" stroke="#385362" stroke-width="0.5" stroke-miterlimit="22.9256" stroke-linecap="round" stroke-linejoin="round"/>
<path fill-rule="evenodd" clip-rule="evenodd" d="M70.5777 8.09968C75.35 7.30405 80.4633 7.26617 85.5007 7.94813L85.7659 7.98602C90.9927 8.74376 96.1059 10.2213 100.575 12.4188C98.4163 13.2144 97.0149 16.3211 96.371 18.367C96.068 19.2384 95.4242 19.8825 94.5151 19.7689L84.516 18.367L74.4789 17.0031C73.6078 16.8516 73.1154 16.0559 73.0775 15.1466C73.0017 13.025 72.5094 9.65304 70.6156 8.28911C70.5777 8.21334 70.5398 8.17545 70.5777 8.09968Z" fill="white" stroke="#385362" stroke-width="0.5" stroke-miterlimit="22.9256" stroke-linecap="round" stroke-linejoin="round"/>
<path fill-rule="evenodd" clip-rule="evenodd" d="M72.5459 7.79498C76.7501 7.30245 81.1437 7.37822 85.4994 7.94653L85.7645 7.98441C90.2717 8.62849 94.6653 9.84087 98.6801 11.5458C96.9378 12.4551 95.8016 14.9935 95.2713 16.6984C95.0441 17.4183 94.4381 18.0245 93.6427 17.9108L84.7419 16.6605L75.8032 15.4481C75.0457 15.3345 74.6291 14.6146 74.5912 13.819C74.5154 11.9625 74.0988 9.08313 72.5459 7.79498Z" fill="white" stroke="#385362" stroke-width="0.5" stroke-miterlimit="22.9256" stroke-linecap="round" stroke-linejoin="round"/>
<path fill-rule="evenodd" clip-rule="evenodd" d="M80.8053 45.1136L78.9494 44.8863C58.2693 42.4994 55.2771 35.3767 56.1861 28.9738C57.3224 20.5629 69.5941 19.4641 83.04 21.2448C83.3808 21.2827 83.7217 21.3206 84.0626 21.3585C84.4035 21.4343 84.7444 21.4722 85.0853 21.51C98.5311 23.4423 110.045 27.8372 108.871 36.2481C108 42.6509 103.152 48.7129 82.6233 45.4167L80.8053 45.1136Z" fill="white" stroke="#385362" stroke-width="0.5" stroke-miterlimit="22.9256" stroke-linecap="round" stroke-linejoin="round"/>
<path fill-rule="evenodd" clip-rule="evenodd" d="M70.123 29.1254C73.1531 29.5422 75.312 32.3458 75.1226 35.4904C73.4182 34.5811 71.5244 33.9749 69.4791 33.6718C67.4338 33.4066 65.4643 33.4824 63.6084 33.8613C64.2902 30.7924 67.1308 28.7086 70.123 29.1254Z" fill="#9D3AFF" stroke="#385362" stroke-width="0.5" stroke-miterlimit="22.9256" stroke-linecap="round" stroke-linejoin="round"/>
<path fill-rule="evenodd" clip-rule="evenodd" d="M95.1201 32.574C98.1501 32.9907 100.309 35.7944 100.12 38.939C98.4153 38.0676 96.5215 37.4235 94.4762 37.1204C92.4688 36.8552 90.4614 36.931 88.6055 37.3477C89.3251 34.2789 92.1279 32.1572 95.1201 32.574Z" fill="#9D3AFF" stroke="#385362" stroke-width="0.5" stroke-miterlimit="22.9256" stroke-linecap="round" stroke-linejoin="round"/>
<path fill-rule="evenodd" clip-rule="evenodd" d="M56.0347 30.2998C56.0725 29.8831 56.1104 29.4284 56.1862 28.9738C57.3224 20.5629 69.5942 19.4641 83.04 21.2448C83.3809 21.2827 83.7218 21.3206 84.0627 21.3585C84.4036 21.4343 84.7444 21.4722 85.0853 21.51C98.5312 23.4423 110.045 27.8372 108.871 36.2481C108.796 36.7027 108.72 37.1573 108.644 37.5741C108.758 29.8452 97.6601 25.7155 84.7823 23.859C84.4414 23.8211 84.1006 23.7833 83.7597 23.7075C83.4188 23.6696 83.0779 23.6317 82.737 23.5938C69.8214 21.8889 58.0421 22.8361 56.0347 30.2998Z" fill="#6A2EA6" stroke="#385362" stroke-width="0.5" stroke-miterlimit="22.9256" stroke-linecap="round" stroke-linejoin="round"/>
<path d="M72.1702 38.901C73.4958 39.6587 74.8215 40.3786 77.094 40.9848C79.3665 41.6289 82.5481 42.0835 84.9722 42.1593C87.4341 42.2351 89.1385 41.8941 90.805 41.5531" stroke="#385362" stroke-width="0.5" stroke-miterlimit="22.9256" stroke-linecap="round" stroke-linejoin="round"/>
<path fill-rule="evenodd" clip-rule="evenodd" d="M131.67 75.6511L132.579 75.8405C133.11 75.9542 133.64 75.9921 134.17 75.9921V76.03C139.927 76.1057 144.548 73.9083 145.306 70.309C146.063 66.8234 142.92 62.9968 137.806 60.6857C137.238 60.4205 136.594 60.1932 135.95 60.0417L135.041 59.8522C128.262 58.4125 124.891 74.1735 131.67 75.6511Z" fill="#E5D7F2" stroke="#385362" stroke-width="0.5" stroke-miterlimit="22.9256" stroke-linecap="round" stroke-linejoin="round"/>
<path fill-rule="evenodd" clip-rule="evenodd" d="M64.214 61.3678L62.0551 62.0876C60.7673 62.5423 59.5553 62.9969 58.3811 63.5273H58.3432C45.5791 69.2861 37.3222 76.1816 38.7994 80.5764C40.2387 84.8956 50.5408 85.5396 63.7973 82.6981C65.3502 82.395 66.9031 81.9783 68.4939 81.4478L70.6528 80.728C86.8636 75.348 80.4248 55.9878 64.214 61.3678Z" fill="#E5D7F2" stroke="#385362" stroke-width="0.5" stroke-miterlimit="22.9256" stroke-linecap="round" stroke-linejoin="round"/>
<path fill-rule="evenodd" clip-rule="evenodd" d="M13.0445 57.8821C13.0445 57.579 12.9687 57.2002 12.7793 56.6319C12.59 56.0257 12.3248 55.3058 11.9461 54.6996C11.5294 54.1313 11.0371 53.7525 10.431 53.5251C9.82504 53.3357 9.14327 53.2599 8.57513 53.3736C8.007 53.4494 7.59037 53.6767 7.13587 53.8282C6.68136 54.0177 6.18898 54.1692 5.65872 54.245C5.09058 54.2829 4.44669 54.245 3.68918 53.9419C2.93166 53.6388 2.09839 53.0705 1.606 52.6916C1.11362 52.3506 1 52.1612 1 52.2749C1 52.3506 1.11363 52.6916 1.37876 53.2978C1.64389 53.904 2.06052 54.8133 2.4014 55.6468C2.78016 56.4424 3.08316 57.2002 3.46192 57.8821C3.8028 58.602 4.18156 59.2082 4.74969 59.8144C5.27995 60.4584 5.99959 61.0267 6.83285 61.4814C7.62824 61.8981 8.57514 62.1634 9.33265 62.0876C10.0523 62.0497 10.6583 61.6708 11.1128 61.2541C11.6052 60.7994 11.984 60.269 12.287 59.8144C12.5521 59.3597 12.7415 58.943 12.8551 58.6399C12.9687 58.3747 13.0445 58.1852 13.0445 57.8821Z" fill="#385362" stroke="#385362" stroke-width="0.5" stroke-miterlimit="22.9256"/>
<path fill-rule="evenodd" clip-rule="evenodd" d="M18.1565 64.2093L19.6715 61.1025L70.8416 85.9185L69.3644 89.0252L18.1565 64.2093Z" fill="#BAADFF" stroke="#385362" stroke-width="0.5" stroke-miterlimit="22.9256" stroke-linecap="round" stroke-linejoin="round"/>
<path fill-rule="evenodd" clip-rule="evenodd" d="M18.16 64.2093L19.675 61.1026L13.0468 57.8822L11.5317 60.9889L18.16 64.2093Z" fill="#C3CBD0" stroke="#385362" stroke-width="0.5" stroke-miterlimit="22.9256" stroke-linecap="round" stroke-linejoin="round"/>
<path fill-rule="evenodd" clip-rule="evenodd" d="M19.0649 62.3528L19.671 61.1025L70.841 85.9185L70.235 87.1688L19.0649 62.3528Z" fill="white" stroke="#385362" stroke-width="0.5" stroke-miterlimit="22.9256" stroke-linecap="round" stroke-linejoin="round"/>
<path fill-rule="evenodd" clip-rule="evenodd" d="M19.0689 62.3529L19.675 61.1026L13.0467 57.8822L12.4028 59.1325L19.0689 62.3529Z" fill="white" stroke="#385362" stroke-width="0.5" stroke-miterlimit="22.9256" stroke-linecap="round" stroke-linejoin="round"/>
<path d="M11.0761 56.7833C10.9246 56.1771 10.7352 55.6088 10.4322 55.1541C10.1292 54.6995 9.71255 54.3964 9.18229 54.3206C8.65203 54.2448 8.04602 54.3964 7.51576 54.6237C7.02338 54.8131 6.64463 55.0784 6.26587 55.2299C5.92499 55.4193 5.5841 55.533 5.20534 55.533C4.86446 55.4951 4.48571 55.3814 4.22058 55.2299C3.91758 55.1162 3.7282 54.9268 3.53882 54.7753" stroke="white" stroke-width="0.5" stroke-miterlimit="22.9256" stroke-linecap="round" stroke-linejoin="round"/>
<path d="M144.889 43.5227C144.624 41.7041 144.586 41.5526 144.359 38.9763C144.17 36.3621 143.98 33.028 143.98 30.5275" stroke="#385362" stroke-width="0.5" stroke-miterlimit="22.9256" stroke-linecap="round" stroke-linejoin="round"/>
<path fill-rule="evenodd" clip-rule="evenodd" d="M163.94 42.1976C165.834 41.4778 167.766 40.6443 169.925 39.5077C172.046 38.3332 174.394 36.8177 176.553 35.1886C178.674 33.5973 180.568 31.9303 182.121 30.0359C183.712 28.1416 184.961 26.0578 185.757 23.8604C186.552 21.7008 186.855 19.4276 186.78 17.3438C186.742 15.2979 186.325 13.4793 185.492 11.6987C184.621 9.91797 183.295 8.17517 181.174 6.58391C179.015 4.99266 176.023 3.51507 172.728 2.68156C169.395 1.88593 165.759 1.6965 161.744 1.92382C157.767 2.15114 153.411 2.75733 149.434 4.04549C145.495 5.29576 141.935 7.19011 138.98 9.12234C136.026 11.0167 133.678 12.9868 132.352 14.8433C131.064 16.6618 130.761 18.4046 131.102 19.8443C131.443 21.2462 132.352 22.3828 133.148 23.2542C133.943 24.1256 134.587 24.6939 134.738 25.4516C134.89 26.1715 134.587 27.005 133.791 27.8006C132.996 28.5962 131.708 29.354 130.761 29.998C129.777 30.6421 129.133 31.2104 128.64 32.2334C128.11 33.2184 127.807 34.6581 128.375 36.2494C128.943 37.8406 130.383 39.5834 132.201 41.0231C134.057 42.4628 136.253 43.6752 139.056 44.3572C141.859 45.077 145.268 45.3044 148.563 45.1907C151.82 45.077 155.04 44.5845 157.577 44.0541C160.115 43.4858 162.047 42.9175 163.94 42.1976ZM144.397 16.7376C148.146 16.3209 151.517 18.4425 151.858 21.4735C152.199 24.5044 149.434 27.346 145.647 27.7627C141.859 28.1795 138.526 26.0957 138.185 23.0268C137.844 19.9959 140.609 17.1923 144.397 16.7376Z" fill="#9D3AFF" stroke="#385362" stroke-width="0.5" stroke-miterlimit="22.9256"/>
<path fill-rule="evenodd" clip-rule="evenodd" d="M163.411 41.3633C165.305 40.6434 167.236 39.8099 169.358 38.6354C171.516 37.4988 173.865 35.9833 175.986 34.3542C178.107 32.763 180.001 31.0959 181.591 29.2016C183.182 27.3072 184.432 25.2234 185.227 23.026C185.985 20.8665 186.288 18.5932 186.25 16.5095C186.174 14.4636 185.796 12.645 184.924 10.8643C184.091 9.08361 182.766 7.34082 180.607 5.74956C178.486 4.12043 175.493 2.68072 172.16 1.84721C168.865 1.05158 165.229 0.862149 161.214 1.08947C157.199 1.27891 152.844 1.92298 148.905 3.21114C144.928 4.46141 141.367 6.35576 138.451 8.2501C135.497 10.1823 133.148 12.1525 131.823 13.971C130.497 15.8275 130.232 17.5703 130.535 18.9721C130.876 20.4118 131.823 21.5484 132.618 22.4198C133.376 23.2912 134.019 23.8595 134.209 24.5794C134.36 25.3371 134.057 26.1706 133.262 26.9662C132.467 27.7619 131.179 28.4817 130.194 29.1637C129.247 29.8078 128.565 30.3761 128.073 31.399C127.581 32.3841 127.24 33.8238 127.808 35.415C128.376 37.0063 129.853 38.7112 131.671 40.1888C133.489 41.6285 135.724 42.803 138.527 43.5228C141.33 44.2427 144.7 44.47 147.996 44.3564C151.291 44.2427 154.472 43.7502 157.048 43.1819C159.586 42.6514 161.479 42.0453 163.411 41.3633ZM138.186 23.1776V23.1397C137.921 22.0788 138.186 21.018 138.868 20.0329C139.89 18.328 141.936 17.0399 144.397 16.7368C145.382 16.6231 146.329 16.6989 147.2 16.8883C148.639 17.1156 149.814 17.7597 150.495 18.669C151.253 19.4646 151.745 20.4118 151.859 21.4726C152.2 24.5036 149.435 27.3451 145.647 27.7619C141.936 28.1786 138.64 26.1327 138.186 23.1776Z" fill="#BAADFF" stroke="#385362" stroke-width="0.5" stroke-miterlimit="22.9256"/>
<path fill-rule="evenodd" clip-rule="evenodd" d="M179.546 20.5636C176.857 22.4201 173.145 22.117 171.176 19.9195C169.244 17.7221 169.85 14.4259 172.502 12.6074C175.153 10.7509 178.903 11.054 180.834 13.2514C182.804 15.4868 182.198 18.745 179.546 20.5636ZM156.707 14.0471C154.018 15.9035 150.306 15.6004 148.337 13.403C146.405 11.2055 147.011 7.90938 149.662 6.09081C152.352 4.23435 156.063 4.53744 158.033 6.73488C159.965 8.97021 159.359 12.2285 156.707 14.0471ZM170.759 13.8955C168.07 15.7141 164.358 15.411 162.389 13.2136C160.457 11.0161 161.063 7.71994 163.714 5.90137C166.366 4.0828 170.115 4.34801 172.047 6.58334C174.017 8.78078 173.411 12.0391 170.759 13.8955ZM176.554 31.1341C173.865 32.9905 170.153 32.6874 168.184 30.49C166.252 28.2926 166.858 24.9964 169.509 23.1778C172.199 21.3592 175.91 21.6245 177.842 23.8598C179.812 26.0572 179.206 29.3155 176.554 31.1341ZM152.655 41.2499C149.965 43.0685 146.254 42.7654 144.284 40.5679C142.352 38.3705 142.958 35.1122 145.61 33.2557C148.299 31.4372 152.011 31.7403 153.942 33.9377C155.912 36.1351 155.306 39.3934 152.655 41.2499ZM165.646 38.3705C162.995 40.2269 159.245 39.9238 157.313 37.7264C155.382 35.529 155.95 32.2328 158.639 30.4142C161.29 28.5578 165.04 28.8609 166.972 31.0583C168.903 33.2936 168.335 36.5519 165.646 38.3705Z" fill="#385362" fill-opacity="0.301961"/>
<path d="M169.994 23.7196C167.686 25.3061 167.175 28.1345 168.852 30.0369C170.529 31.9393 173.759 32.1953 176.066 30.6088C178.374 29.0222 178.885 26.1939 177.208 24.2915C175.531 22.3891 172.301 22.1331 169.994 23.7196Z" fill="#FFB51C" stroke="#385362" stroke-width="0.5" stroke-miterlimit="22.9256"/>
<path d="M172.981 13.1458C170.673 14.7323 170.162 17.5606 171.839 19.463C173.516 21.3654 176.746 21.6215 179.054 20.0349C181.361 18.4484 181.873 15.62 180.196 13.7176C178.519 11.8153 175.289 11.5592 172.981 13.1458Z" fill="#FF7F16" stroke="#385362" stroke-width="0.5" stroke-miterlimit="22.9256"/>
<path d="M164.193 6.44568C161.886 8.03222 161.374 10.8606 163.051 12.763C164.728 14.6654 167.958 14.9214 170.266 13.3349C172.573 11.7483 173.085 8.91996 171.408 7.01757C169.731 5.11518 166.501 4.85913 164.193 6.44568Z" fill="#B76EFF" stroke="#385362" stroke-width="0.5" stroke-miterlimit="22.9256"/>
<path d="M150.149 6.6283C147.842 8.21484 147.331 11.0432 149.007 12.9456C150.684 14.848 153.915 15.104 156.222 13.5175C158.53 11.9309 159.041 9.10258 157.364 7.20019C155.687 5.2978 152.457 5.04175 150.149 6.6283Z" fill="#9D3AFF" stroke="#385362" stroke-width="0.5" stroke-miterlimit="22.9256"/>
<path d="M159.111 30.9519C156.803 32.5384 156.292 35.3668 157.969 37.2692C159.646 39.1716 162.876 39.4276 165.184 37.8411C167.491 36.2545 168.003 33.4262 166.326 31.5238C164.649 29.6214 161.419 29.3654 159.111 30.9519Z" fill="#FFD58D" stroke="#385362" stroke-width="0.5" stroke-miterlimit="22.9256"/>
<path d="M146.093 33.8053C143.785 35.3918 143.274 38.2202 144.951 40.1226C146.628 42.025 149.858 42.281 152.165 40.6945C154.473 39.1079 154.984 36.2796 153.307 34.3772C151.63 32.4748 148.4 32.2188 146.093 33.8053Z" fill="#CCCCCC" stroke="#385362" stroke-width="0.5" stroke-miterlimit="22.9256"/>
<path d="M146.253 39.9997C146.064 39.886 145.913 39.7345 145.761 39.5451C144.435 38.0296 144.852 35.7564 146.708 34.4682C148.526 33.2179 151.139 33.4074 152.465 34.9607C152.541 35.0365 152.617 35.1123 152.692 35.226" stroke="white" stroke-width="0.5" stroke-miterlimit="22.9256" stroke-linecap="round" stroke-linejoin="round"/>
<path d="M159.282 37.158C159.093 37.0064 158.941 36.8549 158.79 36.7033C157.464 35.1879 157.843 32.9146 159.699 31.6265C161.555 30.3762 164.168 30.5657 165.494 32.0811C165.569 32.1948 165.645 32.2706 165.721 32.3842" stroke="white" stroke-width="0.5" stroke-miterlimit="22.9256" stroke-linecap="round" stroke-linejoin="round"/>
<path d="M150.306 12.8337C150.155 12.6821 149.965 12.5306 149.852 12.379C148.488 10.8636 148.905 8.59034 150.761 7.30219C152.617 6.01403 155.192 6.24135 156.556 7.75683C156.631 7.87049 156.707 7.94627 156.745 8.05993" stroke="white" stroke-width="0.5" stroke-miterlimit="22.9256" stroke-linecap="round" stroke-linejoin="round"/>
<path d="M164.358 12.6456C164.169 12.4941 164.017 12.3426 163.866 12.191C162.54 10.6755 162.956 8.40231 164.775 7.11416C166.63 5.86389 169.244 6.05332 170.57 7.5688C170.645 7.68246 170.721 7.75823 170.797 7.87189" stroke="white" stroke-width="0.5" stroke-miterlimit="22.9256" stroke-linecap="round" stroke-linejoin="round"/>
<path d="M173.145 19.3501C172.955 19.1986 172.804 19.047 172.652 18.8955C171.327 17.38 171.743 15.1068 173.561 13.8186C175.417 12.5684 178.031 12.7578 179.356 14.2733C179.432 14.3869 179.508 14.4627 179.584 14.5764" stroke="white" stroke-width="0.5" stroke-miterlimit="22.9256" stroke-linecap="round" stroke-linejoin="round"/>
<path d="M170.191 30.0358C170.002 29.8843 169.85 29.7327 169.699 29.5812C168.373 28.0278 168.79 25.7546 170.608 24.5043C172.464 23.2162 175.077 23.4435 176.403 24.959C176.479 25.0348 176.554 25.1484 176.63 25.2242" stroke="white" stroke-width="0.5" stroke-miterlimit="22.9256" stroke-linecap="round" stroke-linejoin="round"/>
<path d="M145.652 27.7544C149.421 27.3215 152.195 24.5077 151.846 21.4697C151.497 18.4317 148.159 16.3199 144.389 16.7528C140.62 17.1857 137.846 19.9994 138.195 23.0374C138.544 26.0754 141.882 28.1873 145.652 27.7544Z" stroke="#385362" stroke-width="0.5" stroke-miterlimit="22.9256"/>
<path fill-rule="evenodd" clip-rule="evenodd" d="M144.397 16.736C148.147 16.3192 151.518 18.4409 151.859 21.4718C151.859 21.6613 151.897 21.8886 151.897 22.078C151.215 19.3502 148.034 17.5316 144.511 17.9484C140.989 18.3272 138.337 20.8278 138.3 23.6314C138.262 23.442 138.224 23.2525 138.186 23.0252C137.845 19.9942 140.61 17.1906 144.397 16.736Z" fill="#9D3AFF" stroke="#385362" stroke-width="0.5" stroke-miterlimit="22.9256" stroke-linecap="round" stroke-linejoin="round"/>
<path fill-rule="evenodd" clip-rule="evenodd" d="M146.291 27.7234C141.292 29.8072 137.769 30.3755 136.633 28.86C135.497 27.3067 137.125 23.859 140.723 19.3883C142.314 19.9566 143.678 20.9038 144.662 22.2677C145.799 23.8211 146.329 25.6775 146.291 27.7234Z" fill="#385362" fill-opacity="0.2"/>
<path fill-rule="evenodd" clip-rule="evenodd" d="M146.293 27.6859C141.104 28.3679 137.468 27.9511 136.331 26.2083C135.157 24.3898 136.862 21.4725 140.573 18.1384C142.202 19.1235 143.603 20.4116 144.626 21.965C145.8 23.7836 146.33 25.7158 146.293 27.6859Z" fill="#E5D7F2" stroke="#385362" stroke-width="0.5" stroke-miterlimit="22.9256" stroke-linecap="round" stroke-linejoin="round"/>
<path fill-rule="evenodd" clip-rule="evenodd" d="M39.5954 76.6359C38.7242 78.0756 38.4212 79.4396 38.8 80.5762C40.0499 84.2891 47.8144 85.2741 58.3817 83.6829L53.117 81.1445C51.299 80.2731 50.5036 79.8942 49.8597 79.288C49.2537 78.6818 48.837 77.8862 48.3068 77.0906C47.8144 76.2949 47.2463 75.4993 46.6781 75.0068C46.11 74.5142 45.5419 74.3248 44.8601 74.2112C44.2162 74.0596 43.4966 73.9459 42.8148 74.0596C42.1709 74.1733 41.5649 74.5142 41.1483 74.7795C40.7695 75.0447 40.5423 75.272 40.2771 75.6509C40.0878 75.9539 39.8605 76.2949 39.5954 76.6359Z" fill="#E5D7F2" stroke="#385362" stroke-width="0.5" stroke-miterlimit="22.9256" stroke-linecap="round" stroke-linejoin="round"/>
<path d="M220.29 55.6769C219.902 55.284 219.904 54.649 220.294 54.258L224.543 49.9982L220.299 45.7433C219.909 45.3524 219.907 44.7164 220.295 44.3234L220.322 44.2961C220.71 43.9032 221.341 43.9012 221.731 44.2922L226.704 49.2775C226.878 49.4517 226.973 49.6743 226.993 49.9025C227.022 50.1933 226.928 50.4947 226.706 50.717L221.725 55.7082C221.335 56.0988 220.705 56.097 220.317 55.7043L220.29 55.6769Z" fill="#385362"/>
<defs>
<linearGradient id="paint0_linear_280_422" x1="298.364" y1="-242.297" x2="1140.22" y2="301.267" gradientUnits="userSpaceOnUse">
<stop stop-color="#9D39FF"/>
<stop offset="1" stop-color="#A380FF"/>
</linearGradient>
</defs>
</svg>
