<svg width="264" height="224" viewBox="0 0 264 224" fill="none" xmlns="http://www.w3.org/2000/svg">
<path fill-rule="evenodd" clip-rule="evenodd" d="M253.544 113.998L249.294 118.257C248.904 118.648 248.902 119.284 249.29 119.677L249.317 119.704C249.705 120.097 250.336 120.099 250.726 119.708L255.706 114.717C255.926 114.496 256.022 114.198 255.995 113.909C255.977 113.678 255.88 113.453 255.704 113.277L250.731 108.292C250.341 107.901 249.71 107.903 249.322 108.296L249.295 108.323C248.907 108.716 248.909 109.352 249.299 109.743L253.544 113.998Z" fill="#FF7D16"/>
<circle cx="112" cy="112" r="112" fill="#FDEED0"/>
<rect x="24.0456" y="89.0244" width="86.1736" height="54.1082" transform="rotate(7.76792 24.0456 89.0244)" fill="white" stroke="#385362"/>
<rect x="27.9854" y="93.5786" width="77.5371" height="46.1482" transform="rotate(7.76792 27.9854 93.5786)" fill="#F1A46D"/>
<circle cx="31.9636" cy="98.856" r="2.50613" fill="white" stroke="#385362"/>
<circle cx="99.5918" cy="108.065" r="2.50613" fill="white" stroke="#385362"/>
<path d="M100.317 109.942L77.2549 57.9844L30.5502 100.191" stroke="#385362"/>
<path d="M83.1876 134.205C83.0541 135.162 82.7584 135.937 82.3004 136.529C81.8469 137.118 81.2504 137.527 80.5111 137.756C79.7723 137.981 78.9144 138.025 77.9375 137.889L75.53 137.554L76.715 129.052L79.3841 129.424C80.2758 129.548 81.027 129.815 81.6379 130.224C82.2493 130.63 82.692 131.168 82.9661 131.838C83.2408 132.505 83.3146 133.294 83.1876 134.205ZM81.3086 133.99C81.3962 133.362 81.375 132.834 81.2451 132.404C81.1196 131.972 80.8901 131.634 80.5566 131.39C80.227 131.146 79.7985 130.988 79.2713 130.914L78.3118 130.78L77.5402 136.316L78.3136 136.424C79.1936 136.547 79.8796 136.403 80.3714 135.994C80.8671 135.584 81.1795 134.917 81.3086 133.99Z" fill="white"/>
<path d="M73.7506 137.306L68.8543 136.624L70.0392 128.122L74.9355 128.804L74.7297 130.281L71.636 129.85L71.3758 131.717L74.2543 132.118L74.0485 133.595L71.17 133.194L70.8644 135.386L73.9581 135.817L73.7506 137.306Z" fill="white"/>
<path d="M67.6422 134.048C67.572 134.552 67.3888 134.973 67.0927 135.311C66.7966 135.649 66.3999 135.886 65.9027 136.022C65.4094 136.159 64.8294 136.181 64.1626 136.088C63.8679 136.047 63.5818 135.987 63.3042 135.909C63.0305 135.832 62.7689 135.738 62.5194 135.628C62.2744 135.515 62.0434 135.386 61.8264 135.241L62.0598 133.566C62.4382 133.801 62.8344 134.02 63.2486 134.224C63.6629 134.428 64.0832 134.559 64.5096 134.619C64.8043 134.66 65.0461 134.654 65.2353 134.601C65.4283 134.549 65.575 134.461 65.6753 134.337C65.7756 134.212 65.8379 134.063 65.8622 133.889C65.892 133.675 65.8456 133.483 65.7233 133.312C65.6009 133.141 65.4229 132.972 65.1893 132.805C64.9595 132.638 64.6982 132.458 64.4053 132.263C64.2205 132.142 64.021 132 63.8068 131.836C63.5931 131.667 63.3951 131.472 63.2128 131.249C63.0304 131.026 62.8906 130.767 62.7933 130.473C62.7004 130.176 62.6809 129.833 62.735 129.445C62.8057 128.937 62.9826 128.519 63.2654 128.191C63.5483 127.863 63.9181 127.634 64.3749 127.504C64.8361 127.371 65.3613 127.345 65.9506 127.427C66.3926 127.489 66.8059 127.6 67.1906 127.76C67.5797 127.917 67.9798 128.123 68.3909 128.378L67.6141 129.699C67.2447 129.485 66.9108 129.314 66.6126 129.185C66.3149 129.053 66.0051 128.964 65.6834 128.92C65.4585 128.888 65.2615 128.898 65.0923 128.95C64.9236 128.997 64.7894 129.082 64.6896 129.202C64.5903 129.319 64.5288 129.462 64.5051 129.633C64.477 129.834 64.5113 130.013 64.6082 130.169C64.7095 130.321 64.8694 130.478 65.0881 130.639C65.3106 130.8 65.5883 130.991 65.9212 131.211C66.3267 131.477 66.667 131.744 66.9419 132.012C67.2213 132.276 67.4232 132.571 67.5478 132.896C67.6729 133.218 67.7043 133.602 67.6422 134.048Z" fill="white"/>
<path d="M61.127 131.201C61.0357 131.856 60.8711 132.442 60.6332 132.958C60.3958 133.47 60.0834 133.897 59.6959 134.238C59.3124 134.58 58.8521 134.82 58.315 134.959C57.7786 135.094 57.1633 135.113 56.4694 135.016C55.7755 134.919 55.1889 134.733 54.7097 134.456C54.231 134.176 53.852 133.819 53.5726 133.385C53.2971 132.951 53.1155 132.454 53.0278 131.892C52.9401 131.331 52.9421 130.72 53.034 130.061C53.1566 129.181 53.4068 128.436 53.7844 127.824C54.1665 127.21 54.6831 126.764 55.3343 126.487C55.9854 126.21 56.7743 126.137 57.7008 126.266C58.6235 126.394 59.3563 126.68 59.8991 127.123C60.4459 127.567 60.8171 128.137 61.0127 128.832C61.2121 129.527 61.2502 130.317 61.127 131.201ZM54.9223 130.336C54.8396 130.929 54.8419 131.451 54.9293 131.902C55.021 132.35 55.2097 132.712 55.4951 132.989C55.7811 133.262 56.1761 133.434 56.6801 133.504C57.1919 133.575 57.6226 133.519 57.9724 133.334C58.3227 133.146 58.5993 132.849 58.8022 132.442C59.0095 132.032 59.1544 131.531 59.2371 130.938C59.3614 130.046 59.2925 129.321 59.0304 128.763C58.7683 128.205 58.2554 127.872 57.4917 127.766C56.9838 127.695 56.5528 127.754 56.1986 127.941C55.8489 128.126 55.5684 128.423 55.3572 128.832C55.1505 129.238 55.0055 129.739 54.9223 130.336Z" fill="white"/>
<path d="M46.0823 133.449L47.2672 124.948L49.0699 125.199L48.0925 132.212L51.5408 132.693L51.3333 134.181L46.0823 133.449Z" fill="white"/>
<path d="M43.0916 125.771C42.7466 125.723 42.4308 125.748 42.1444 125.846C41.8625 125.941 41.6128 126.102 41.3955 126.329C41.182 126.556 41.0039 126.841 40.8612 127.185C40.7184 127.529 40.616 127.924 40.5538 128.369C40.4701 128.97 40.4721 129.494 40.56 129.941C40.6523 130.385 40.8398 130.741 41.1225 131.01C41.4057 131.274 41.7954 131.441 42.2916 131.51C42.6367 131.559 42.9871 131.568 43.343 131.538C43.7027 131.509 44.0961 131.452 44.5231 131.365L44.3124 132.877C43.9147 132.98 43.5291 133.038 43.1555 133.054C42.7813 133.073 42.3675 133.05 41.9139 132.987C41.0378 132.865 40.3418 132.584 39.8261 132.145C39.3147 131.702 38.9687 131.136 38.7881 130.447C38.6081 129.754 38.5788 128.971 38.7004 128.099C38.7901 127.456 38.9595 126.879 39.2085 126.368C39.4575 125.857 39.7779 125.43 40.1698 125.085C40.5616 124.741 41.0205 124.496 41.5465 124.352C42.0724 124.208 42.6572 124.181 43.3007 124.271C43.7233 124.329 44.1383 124.443 44.5457 124.61C44.9576 124.774 45.3444 124.976 45.7061 125.216L44.9203 126.601C44.6235 126.405 44.3221 126.229 44.016 126.072C43.7099 125.914 43.4017 125.814 43.0916 125.771Z" fill="white"/>
<path d="M84.2759 124.609L78.5635 123.812L79.9459 113.894L85.6583 114.69L85.4181 116.413L81.8089 115.91L81.5054 118.088L84.8636 118.556L84.6234 120.279L81.2652 119.811L80.9087 122.369L84.518 122.872L84.2759 124.609Z" fill="white"/>
<path d="M72.5521 112.863C73.4522 112.989 74.1788 113.201 74.732 113.499C75.2897 113.798 75.6805 114.187 75.9042 114.665C76.128 115.144 76.1933 115.718 76.1 116.387C76.037 116.839 75.8959 117.223 75.6767 117.538C75.4576 117.854 75.1914 118.109 74.8782 118.305C74.565 118.501 74.2352 118.651 73.8887 118.755L76.2037 123.484L73.8699 123.158L72.0326 119.022L70.9132 118.866L70.3827 122.672L68.2796 122.379L69.662 112.46L72.5521 112.863ZM72.1627 114.566L71.525 114.477L71.1515 117.157L71.8299 117.251C72.5264 117.348 73.04 117.302 73.3707 117.113C73.7065 116.92 73.9059 116.598 73.9689 116.145C74.0345 115.675 73.9183 115.318 73.6204 115.073C73.327 114.829 72.8411 114.66 72.1627 114.566Z" fill="white"/>
<path d="M67.0443 112.096L67.1185 112.258C66.991 112.577 66.8356 112.915 66.6521 113.272C66.4738 113.625 66.2816 113.979 66.0755 114.333C65.8739 114.687 65.6726 115.024 65.4715 115.341L63.9857 115.134C64.0869 114.872 64.1899 114.596 64.2948 114.306C64.4043 114.017 64.5092 113.727 64.6096 113.437C64.7145 113.147 64.8114 112.866 64.9003 112.592C64.9891 112.319 65.0683 112.065 65.1379 111.83L67.0443 112.096Z" fill="white"/>
<path d="M60.9682 121.36L55.2558 120.564L56.6382 110.645L62.3506 111.441L62.1104 113.165L58.5011 112.662L58.1976 114.839L61.5559 115.307L61.3157 117.031L57.9574 116.563L57.601 119.12L61.2102 119.623L60.9682 121.36Z" fill="white"/>
<path d="M54.2784 110.316L50.3722 119.883L47.9774 119.549L47.3603 114.152C47.347 114.049 47.3319 113.892 47.3151 113.682C47.2982 113.472 47.2816 113.244 47.2653 112.997C47.2496 112.746 47.2362 112.512 47.2251 112.293C47.2192 112.071 47.2182 111.896 47.2223 111.767C47.1911 111.892 47.1403 112.058 47.07 112.265C47.0042 112.472 46.9297 112.693 46.8465 112.925C46.7679 113.159 46.6915 113.376 46.6172 113.578C46.543 113.78 46.4848 113.933 46.4425 114.038L44.3817 119.048L41.9936 118.715L40.8455 108.444L42.9147 108.732L43.4288 114.323C43.4423 114.491 43.4559 114.691 43.4696 114.924C43.4878 115.157 43.5022 115.401 43.5128 115.656C43.5285 115.907 43.5384 116.15 43.5424 116.386C43.5516 116.618 43.5535 116.819 43.5483 116.989C43.5949 116.82 43.652 116.625 43.7197 116.404C43.7881 116.178 43.859 115.951 43.9325 115.721C44.0111 115.488 44.0872 115.273 44.1608 115.075C44.2344 114.878 44.2981 114.719 44.3519 114.597L46.5714 109.242L48.5592 109.519L49.2299 115.277C49.2445 115.403 49.2577 115.574 49.2694 115.787C49.2863 115.997 49.3006 116.225 49.3124 116.471C49.3242 116.717 49.3322 116.958 49.3362 117.194C49.3454 117.426 49.3474 117.626 49.3421 117.796C49.4053 117.575 49.4864 117.307 49.5854 116.993C49.6896 116.676 49.7958 116.361 49.9038 116.049C50.0164 115.737 50.1127 115.476 50.1928 115.266L52.2092 110.028L54.2784 110.316Z" fill="white"/>
</svg>
