<svg width="742" height="48" viewBox="0 0 742 48" fill="none" xmlns="http://www.w3.org/2000/svg">
<path d="M192.552 7C193.368 7.21995 193.719 7.84425 193.558 8.84568" stroke="#3C5460" stroke-linecap="round"/>
<path d="M78.5337 16.4841C77.5956 16.2314 77.192 15.514 77.3765 14.3631" stroke="#3C5460" stroke-linecap="round"/>
<path d="M31.2388 40.4326C30.6171 39.3514 29.7177 38.9966 28.4031 38.837" stroke="#3C5460" stroke-linecap="round"/>
<path d="M312.884 16.8122C312.64 16.7436 311.501 16.1056 311.58 15.0081" stroke="#3C5460" stroke-linecap="round"/>
<path d="M126.098 38.2979C125.215 38.2977 123.817 38.2981 124.038 39.8013" stroke="#3C5460" stroke-linecap="round"/>
<path d="M1 10.5315C1.88304 10.5313 3.28108 10.5318 3.06012 12.0349" stroke="#3C5460" stroke-linecap="round"/>
<path d="M271.374 39.2129C271.374 38.4788 271.551 38.2248 272.206 37.812" stroke="#3C5460" stroke-linecap="round"/>
<path d="M493.501 5.18994C492.758 4.94058 492.439 4.23278 492.585 3.09741" stroke="#3C5460" stroke-linecap="round"/>
<path d="M699.326 26.4028C700.493 26.6666 700.995 27.4152 700.766 28.616" stroke="#3C5460" stroke-linecap="round"/>
<path d="M648.832 46.6863C648.486 45.4746 646.981 44.729 646.981 44.729" stroke="#3C5460" stroke-linecap="round"/>
<path d="M739.952 3.86816C740.835 3.33994 741.005 2.40947 740.925 1.00006" stroke="#3C5460" stroke-linecap="round"/>
<path d="M404.71 2.4292C405.563 2.93951 405.823 3.67931 405.913 4.76109" stroke="#3C5460" stroke-linecap="round"/>
<path d="M606.152 9.32983C607.035 9.33004 608.433 9.32954 608.212 7.82638" stroke="#3C5460" stroke-linecap="round"/>
<path d="M464.323 42.5823C464.215 43.4586 464.041 44.8459 462.577 44.441" stroke="#3C5460" stroke-linecap="round"/>
<path d="M552.224 20.9869L551.546 23.2545" stroke="#3C5460" stroke-linecap="round"/>
</svg>
