<svg width="532" height="56" viewBox="0 0 532 56" fill="none" xmlns="http://www.w3.org/2000/svg">
<g opacity="0.1" clip-path="url(#clip0_224_6002)">
<path d="M431.215 42.9601L426.501 47.6756L421.785 42.9601L426.501 38.2446L431.215 42.9601Z" fill="white"/>
<path d="M431.091 53.2944L426.5 57.8862L421.909 53.2944L426.5 48.7026L431.091 53.2944Z" fill="white"/>
<path d="M436.32 48.1273L431.667 52.7809L427.014 48.1273L431.667 43.4736L436.32 48.1273Z" fill="white"/>
<path d="M441.548 42.9601L436.833 47.6756L432.118 42.9601L436.833 38.2446L441.548 42.9601Z" fill="white"/>
<path d="M435.931 37.7932L431.667 42.0577L427.402 37.7932L431.667 33.5283L435.931 37.7932Z" fill="white"/>
<path d="M429.997 32.6261L426.5 36.1238L423.003 32.6261L426.5 29.1289L429.997 32.6261Z" fill="white"/>
<path d="M425.592 37.7935L421.334 42.0519L417.076 37.7935L421.334 33.5347L425.592 37.7935Z" fill="white"/>
<path d="M420.882 42.9601L416.167 47.6756L411.452 42.9601L416.167 38.2446L420.882 42.9601Z" fill="white"/>
<path d="M425.987 48.1273L421.334 52.7809L416.681 48.1273L421.334 43.4736L425.987 48.1273Z" fill="white"/>
<path d="M436.133 58.4613L431.667 62.9289L427.2 58.4613L431.667 53.9941L436.133 58.4613Z" fill="white"/>
<path d="M441.403 53.294L436.833 57.8649L432.263 53.294L436.833 48.7231L441.403 53.294Z" fill="white"/>
<path d="M446.652 48.1273L441.999 52.7809L437.346 48.1273L441.999 43.4736L446.652 48.1273Z" fill="white"/>
<path d="M451.881 42.9601L447.166 47.6756L442.451 42.9601L447.166 38.2446L451.881 42.9601Z" fill="white"/>
<path d="M446.305 37.7931L441.999 42.0994L437.693 37.7931L441.999 33.4863L446.305 37.7931Z" fill="white"/>
<path d="M440.351 32.626L436.833 36.145L433.314 32.626L436.833 29.1069L440.351 32.626Z" fill="white"/>
<path d="M434.326 27.4591L431.667 30.1188L429.007 27.4591L431.667 24.7993L434.326 27.4591Z" fill="white"/>
<path d="M428.466 22.2917L426.5 24.2577L424.535 22.2917L426.5 20.3257L428.466 22.2917Z" fill="white"/>
<path d="M423.971 27.4587L421.333 30.0957L418.697 27.4587L421.333 24.8218L423.971 27.4587Z" fill="white"/>
<path d="M419.627 32.6255L416.167 36.086L412.707 32.6255L416.167 29.1655L419.627 32.6255Z" fill="white"/>
<path d="M415.202 37.7929L411.001 41.9946L406.8 37.7929L411.001 33.5908L415.202 37.7929Z" fill="white"/>
<path d="M410.529 42.9606L405.835 47.6557L401.14 42.9606L405.835 38.2656L410.529 42.9606Z" fill="white"/>
<path d="M415.654 48.1273L411.001 52.7809L406.348 48.1273L411.001 43.4736L415.654 48.1273Z" fill="white"/>
<path d="M420.758 53.2944L416.167 57.8862L411.576 53.2944L416.167 48.7026L420.758 53.2944Z" fill="white"/>
<path d="M425.801 58.4613L421.334 62.9289L416.867 58.4613L421.334 53.9941L425.801 58.4613Z" fill="white"/>
<path d="M446.446 58.4614L441.999 62.9081L437.554 58.4614L441.999 54.0151L446.446 58.4614Z" fill="white"/>
<path d="M451.722 53.2942L447.166 57.8507L442.61 53.2942L447.166 48.7378L451.722 53.2942Z" fill="white"/>
<path d="M456.985 48.1273L452.332 52.7809L447.679 48.1273L452.332 43.4736L456.985 48.1273Z" fill="white"/>
<path d="M462.172 42.9602L457.499 47.6343L452.825 42.9602L457.499 38.2856L462.172 42.9602Z" fill="white"/>
<path d="M456.736 37.7935L452.332 42.1979L447.928 37.7935L452.332 33.3887L456.736 37.7935Z" fill="white"/>
<path d="M450.771 32.6261L447.166 36.2316L443.561 32.6261L447.166 29.0205L450.771 32.6261Z" fill="white"/>
<path d="M444.704 27.4587L441.999 30.1641L439.294 27.4587L441.999 24.7534L444.704 27.4587Z" fill="white"/>
<path d="M438.823 22.2919L436.833 24.2816L434.843 22.2919L436.833 20.3018L438.823 22.2919Z" fill="white"/>
<path d="M433.114 17.1252L431.667 18.5732L430.218 17.1252L431.667 15.6768L433.114 17.1252Z" fill="white"/>
<path d="M427.458 11.9574L426.5 12.9153L425.542 11.9574L426.5 11L427.458 11.9574Z" fill="white"/>
<path d="M422.782 17.1252L421.334 18.5732L419.886 17.1252L421.334 15.6768L422.782 17.1252Z" fill="white"/>
<path d="M418.109 22.2919L416.167 24.2337L414.226 22.2919L416.167 20.3501L418.109 22.2919Z" fill="white"/>
<path d="M413.576 27.4589L411.001 30.0345L408.426 27.4589L411.001 24.8838L413.576 27.4589Z" fill="white"/>
<path d="M409.2 32.6258L405.834 35.9923L402.468 32.6258L405.834 29.2593L409.2 32.6258Z" fill="white"/>
<path d="M404.779 37.7936L400.668 41.9046L396.557 37.7936L400.668 33.6821L404.779 37.7936Z" fill="white"/>
<path d="M400.113 42.9604L395.501 47.5726L390.89 42.9604L395.501 38.3477L400.113 42.9604Z" fill="white"/>
<path d="M405.321 48.1273L400.668 52.7809L396.015 48.1273L400.668 43.4736L405.321 48.1273Z" fill="white"/>
<path d="M410.426 53.2944L405.834 57.8862L401.243 53.2944L405.834 48.7026L410.426 53.2944Z" fill="white"/>
<path d="M415.467 58.4613L411.001 62.9289L406.534 58.4613L411.001 53.9941L415.467 58.4613Z" fill="white"/>
<path d="M456.764 58.4611L452.333 62.893L447.901 58.4611L452.333 54.0293L456.764 58.4611Z" fill="white"/>
<path d="M462.028 53.2941L457.499 57.8236L452.97 53.2941L457.499 48.7646L462.028 53.2941Z" fill="white"/>
<path d="M467.297 48.1273L462.665 52.7605L458.032 48.1273L462.665 43.4941L467.297 48.1273Z" fill="white"/>
<path d="M472.484 42.9603L467.831 47.6139L463.178 42.9603L467.831 38.3066L472.484 42.9603Z" fill="white"/>
<path d="M467.194 37.7936L462.665 42.3231L458.136 37.7936L462.665 33.2637L467.194 37.7936Z" fill="white"/>
<path d="M461.255 32.6263L457.499 36.3825L453.743 32.6263L457.499 28.8701L461.255 32.6263Z" fill="white"/>
<path d="M455.151 27.4589L452.333 30.2777L449.514 27.4589L452.333 24.6406L455.151 27.4589Z" fill="white"/>
<path d="M449.203 22.292L447.165 24.3296L445.128 22.292L447.165 20.2539L449.203 22.292Z" fill="white"/>
<path d="M443.473 17.1254L441.999 18.599L440.526 17.1254L441.999 15.6519L443.473 17.1254Z" fill="white"/>
<path d="M437.818 11.9575L436.833 12.9428L435.848 11.9575L436.833 10.9727L437.818 11.9575Z" fill="white"/>
<path d="M432.226 6.79085L431.667 7.34977L431.108 6.79085L431.667 6.23193L432.226 6.79085Z" fill="white"/>
<path d="M426.715 1.62354L426.5 1.83837L426.286 1.62354L426.5 1.40918L426.715 1.62354Z" fill="white"/>
<path d="M421.892 6.79085L421.333 7.34977L420.774 6.79085L421.333 6.23193L421.892 6.79085Z" fill="white"/>
<path d="M417.117 11.9573L416.167 12.9069L415.218 11.9573L416.167 11.0083L417.117 11.9573Z" fill="white"/>
<path d="M412.406 17.1249L411.001 18.5297L409.596 17.1249L411.001 15.7197L412.406 17.1249Z" fill="white"/>
<path d="M407.721 22.2922L405.834 24.1787L403.948 22.2922L405.834 20.4058L407.721 22.2922Z" fill="white"/>
<path d="M403.121 27.4592L400.668 29.9124L398.215 27.4592L400.668 25.0059L403.121 27.4592Z" fill="white"/>
<path d="M398.692 32.6258L395.501 35.8171L392.311 32.6258L395.501 29.4351L398.692 32.6258Z" fill="white"/>
<path d="M394.261 37.7935L390.335 41.7204L386.409 37.7935L390.335 33.8662L394.261 37.7935Z" fill="white"/>
<path d="M389.635 42.9603L385.169 47.4275L380.702 42.9603L385.169 38.4932L389.635 42.9603Z" fill="white"/>
<path d="M395.009 48.1272L390.335 52.8013L385.662 48.1272L390.335 43.4526L395.009 48.1272Z" fill="white"/>
<path d="M400.113 53.2944L395.501 57.9066L390.89 53.2944L395.501 48.6821L400.113 53.2944Z" fill="white"/>
<path d="M405.155 58.4617L400.668 62.9498L396.181 58.4617L400.668 53.9741L405.155 58.4617Z" fill="white"/>
<path d="M467.075 58.4612L462.665 62.8726L458.254 58.4612L462.665 54.0503L467.075 58.4612Z" fill="white"/>
<path d="M472.34 53.2947L467.831 57.8037L463.323 53.2947L467.831 48.7861L472.34 53.2947Z" fill="white"/>
<path d="M477.61 48.1274L472.997 52.7396L468.386 48.1274L472.997 43.5151L477.61 48.1274Z" fill="white"/>
<path d="M482.818 42.9603L478.165 47.6139L473.512 42.9603L478.165 38.3066L482.818 42.9603Z" fill="white"/>
<path d="M477.692 37.7932L472.998 42.4877L468.304 37.7932L472.998 33.0981L477.692 37.7932Z" fill="white"/>
<path d="M471.801 32.6259L467.831 36.5955L463.863 32.6259L467.831 28.6567L471.801 32.6259Z" fill="white"/>
<path d="M465.662 27.4587L462.665 30.4565L459.667 27.4587L462.665 24.4609L465.662 27.4587Z" fill="white"/>
<path d="M459.624 22.292L457.499 24.4179L455.373 22.292L457.499 20.166L459.624 22.292Z" fill="white"/>
<path d="M453.873 17.1249L452.332 18.6664L450.791 17.1249L452.332 15.583L453.873 17.1249Z" fill="white"/>
<path d="M448.178 11.9576L447.166 12.9699L446.154 11.9576L447.166 10.9458L448.178 11.9576Z" fill="white"/>
<path d="M442.588 6.79034L441.999 7.37948L441.41 6.79034L441.999 6.20166L442.588 6.79034Z" fill="white"/>
<path d="M437.048 1.62354L436.833 1.83837L436.618 1.62354L436.833 1.40918L437.048 1.62354Z" fill="white"/>
<path d="M416.371 1.62357L416.167 1.8277L415.963 1.62357L416.167 1.41943L416.371 1.62357Z" fill="white"/>
<path d="M411.529 6.79041L411.001 7.31957L410.472 6.79041L411.001 6.26172L411.529 6.79041Z" fill="white"/>
<path d="M406.718 11.9572L405.835 12.8407L404.951 11.9572L405.835 11.0742L406.718 11.9572Z" fill="white"/>
<path d="M401.988 17.1248L400.668 18.4449L399.348 17.1248L400.668 15.8042L401.988 17.1248Z" fill="white"/>
<path d="M397.273 22.2921L395.501 24.0642L393.73 22.2921L395.501 20.52L397.273 22.2921Z" fill="white"/>
<path d="M392.609 27.4588L390.335 29.7331L388.061 27.4588L390.335 25.1846L392.609 27.4588Z" fill="white"/>
<path d="M388.099 32.6262L385.169 35.557L382.238 32.6262L385.169 29.6953L388.099 32.6262Z" fill="white"/>
<path d="M383.657 37.7935L380.002 41.4483L376.348 37.7935L380.002 34.1382L383.657 37.7935Z" fill="white"/>
<path d="M379.073 42.9606L374.836 47.1981L370.599 42.9606L374.836 38.7231L379.073 42.9606Z" fill="white"/>
<path d="M384.717 48.1276L380.002 52.8431L375.288 48.1276L380.002 43.4121L384.717 48.1276Z" fill="white"/>
<path d="M389.801 53.2943L385.169 57.9275L380.536 53.2943L385.169 48.6611L389.801 53.2943Z" fill="white"/>
<path d="M394.844 58.4612L390.335 62.9702L385.827 58.4612L390.335 53.9526L394.844 58.4612Z" fill="white"/>
<path d="M477.366 58.4613L472.997 62.8309L468.629 58.4613L472.997 54.0923L477.366 58.4613Z" fill="white"/>
<path d="M482.61 53.2944L478.164 57.7411L473.718 53.2944L478.164 48.8481L482.61 53.2944Z" fill="white"/>
<path d="M487.86 48.1271L483.331 52.6566L478.802 48.1271L483.331 43.5977L487.86 48.1271Z" fill="white"/>
<path d="M493.129 42.9603L488.497 47.593L483.864 42.9603L488.497 38.3271L493.129 42.9603Z" fill="white"/>
<path d="M488.025 37.7932L483.331 42.4877L478.636 37.7932L483.331 33.0981L488.025 37.7932Z" fill="white"/>
<path d="M482.402 32.6261L478.165 36.8636L473.928 32.6261L478.165 28.3887L482.402 32.6261Z" fill="white"/>
<path d="M476.298 27.4592L472.997 30.7601L469.697 27.4592L472.997 24.1582L476.298 27.4592Z" fill="white"/>
<path d="M470.105 22.2919L467.831 24.5661L465.557 22.2919L467.831 20.0176L470.105 22.2919Z" fill="white"/>
<path d="M464.289 17.1252L462.665 18.7489L461.041 17.1252L462.665 15.501L464.289 17.1252Z" fill="white"/>
<path d="M458.564 11.9574L457.499 13.0231L456.433 11.9574L457.499 10.8921L458.564 11.9574Z" fill="white"/>
<path d="M452.951 6.79032L452.332 7.40875L451.714 6.79032L452.332 6.17188L452.951 6.79032Z" fill="white"/>
<path d="M447.405 1.62377L447.166 1.86324L446.927 1.62377L447.166 1.38477L447.405 1.62377Z" fill="white"/>
<path d="M406.002 1.62346L405.834 1.79085L405.667 1.62346L405.834 1.45605L406.002 1.62346Z" fill="white"/>
<path d="M401.135 6.79056L400.668 7.25834L400.2 6.79056L400.668 6.32324L401.135 6.79056Z" fill="white"/>
<path d="M396.293 11.9575L395.501 12.7489L394.71 11.9575L395.501 11.1665L396.293 11.9575Z" fill="white"/>
<path d="M391.525 17.1249L390.335 18.3153L389.145 17.1249L390.335 15.9346L391.525 17.1249Z" fill="white"/>
<path d="M386.743 22.2923L385.169 23.8663L383.595 22.2923L385.169 20.7183L386.743 22.2923Z" fill="white"/>
<path d="M382.056 27.4591L380.002 29.5139L377.948 27.4591L380.002 25.4048L382.056 27.4591Z" fill="white"/>
<path d="M377.388 32.6261L374.836 35.1784L372.284 32.6261L374.836 30.0737L377.388 32.6261Z" fill="white"/>
<path d="M372.926 37.7934L369.669 41.0502L366.413 37.7934L369.669 34.5361L372.926 37.7934Z" fill="white"/>
<path d="M368.359 42.9606L364.503 46.8173L360.647 42.9606L364.503 39.104L368.359 42.9606Z" fill="white"/>
<path d="M374.343 48.1272L369.669 52.8013L364.996 48.1272L369.669 43.4526L374.343 48.1272Z" fill="white"/>
<path d="M379.489 53.2943L374.836 57.9479L370.183 53.2943L374.836 48.6406L379.489 53.2943Z" fill="white"/>
<path d="M384.537 58.4613L380.002 62.9973L375.467 58.4613L380.002 53.9258L384.537 58.4613Z" fill="white"/>
<path d="M487.609 58.4614L483.331 62.7412L479.052 58.4614L483.331 54.1821L487.609 58.4614Z" fill="white"/>
<path d="M492.901 53.2945L488.497 57.6994L484.093 53.2945L488.497 48.8896L492.901 53.2945Z" fill="white"/>
<path d="M498.13 48.1273L493.663 52.5945L489.197 48.1273L493.663 43.6602L498.13 48.1273Z" fill="white"/>
<path d="M503.38 42.9601L498.831 47.51L494.281 42.9601L498.831 38.4097L503.38 42.9601Z" fill="white"/>
<path d="M498.316 37.7932L493.663 42.4469L489.01 37.7932L493.663 33.1392L498.316 37.7932Z" fill="white"/>
<path d="M493.026 32.6257L488.497 37.1551L483.968 32.6257L488.497 28.0962L493.026 32.6257Z" fill="white"/>
<path d="M487.001 27.4592L483.331 31.1294L479.661 27.4592L483.331 23.7891L487.001 27.4592Z" fill="white"/>
<path d="M480.71 22.2919L478.165 24.8373L475.619 22.2919L478.165 19.7466L480.71 22.2919Z" fill="white"/>
<path d="M474.794 17.1249L472.998 18.9211L471.202 17.1249L472.998 15.3281L474.794 17.1249Z" fill="white"/>
<path d="M468.977 11.9573L467.831 13.103L466.686 11.9573L467.831 10.812L468.977 11.9573Z" fill="white"/>
<path d="M463.342 6.79082L462.665 7.46785L461.988 6.79082L462.665 6.11426L463.342 6.79082Z" fill="white"/>
<path d="M457.748 1.62372L457.499 1.87342L457.249 1.62372L457.499 1.37402L457.748 1.62372Z" fill="white"/>
<path d="M395.603 1.62332L395.501 1.72515L395.399 1.62332L395.501 1.52148L395.603 1.62332Z" fill="white"/>
<path d="M390.708 6.7904L390.335 7.16333L389.962 6.7904L390.335 6.41748L390.708 6.7904Z" fill="white"/>
<path d="M385.816 11.9573L385.169 12.6055L384.521 11.9573L385.169 11.3096L385.816 11.9573Z" fill="white"/>
<path d="M381.014 17.1251L380.002 18.1369L378.99 17.1251L380.002 16.1128L381.014 17.1251Z" fill="white"/>
<path d="M376.19 22.292L374.836 23.6456L373.482 22.292L374.836 20.938L376.19 22.292Z" fill="white"/>
<path d="M371.441 27.4591L369.669 29.2312L367.898 27.4591L369.669 25.687L371.441 27.4591Z" fill="white"/>
<path d="M366.676 32.626L364.503 34.7994L362.33 32.626L364.503 30.4531L366.676 32.626Z" fill="white"/>
<path d="M362.042 37.7937L359.337 40.499L356.632 37.7937L359.337 35.0879L362.042 37.7937Z" fill="white"/>
<path d="M357.449 42.9603L354.17 46.2389L350.892 42.9603L354.17 39.6812L357.449 42.9603Z" fill="white"/>
<path d="M363.685 48.1274L359.337 52.476L354.989 48.1274L359.337 43.7788L363.685 48.1274Z" fill="white"/>
<path d="M369.177 53.2942L364.503 57.9688L359.83 53.2942L364.503 48.6201L369.177 53.2942Z" fill="white"/>
<path d="M374.281 58.4614L369.669 63.0741L365.058 58.4614L369.669 53.8491L374.281 58.4614Z" fill="white"/>
<path d="M497.865 58.4614L493.664 62.6636L489.462 58.4614L493.664 54.2598L497.865 58.4614Z" fill="white"/>
<path d="M503.109 53.2945L498.83 57.5738L494.551 53.2945L498.83 49.0151L503.109 53.2945Z" fill="white"/>
<path d="M508.386 48.1273L503.997 52.5173L499.607 48.1273L503.997 43.7373L508.386 48.1273Z" fill="white"/>
<path d="M513.608 42.9604L509.162 47.4066L504.716 42.9604L509.162 38.5137L513.608 42.9604Z" fill="white"/>
<path d="M508.628 37.7933L503.996 42.426L499.364 37.7933L503.996 33.1602L508.628 37.7933Z" fill="white"/>
<path d="M503.545 32.6256L498.83 37.3411L494.115 32.6256L498.83 27.9102L503.545 32.6256Z" fill="white"/>
<path d="M497.774 27.4586L493.663 31.5701L489.553 27.4586L493.663 23.3477L497.774 27.4586Z" fill="white"/>
<path d="M491.472 22.2919L488.497 25.2674L485.522 22.2919L488.497 19.3164L491.472 22.2919Z" fill="white"/>
<path d="M485.338 17.1251L483.331 19.1315L481.324 17.1251L483.331 15.1182L485.338 17.1251Z" fill="white"/>
<path d="M479.466 11.9572L478.164 13.2597L476.862 11.9572L478.164 10.6553L479.466 11.9572Z" fill="white"/>
<path d="M473.761 6.7904L472.998 7.55344L472.235 6.7904L472.998 6.02734L473.761 6.7904Z" fill="white"/>
<path d="M468.139 1.62328L467.831 1.93063L467.524 1.62328L467.831 1.31592L468.139 1.62328Z" fill="white"/>
<path d="M380.217 6.79053L380.002 7.00536L379.788 6.79053L380.002 6.57617L380.217 6.79053Z" fill="white"/>
<path d="M375.313 11.9576L374.836 12.4347L374.359 11.9576L374.836 11.481L375.313 11.9576Z" fill="white"/>
<path d="M370.432 17.1249L369.669 17.8879L368.906 17.1249L369.669 16.3618L370.432 17.1249Z" fill="white"/>
<path d="M365.587 22.2919L364.503 23.3762L363.419 22.2919L364.503 21.2075L365.587 22.2919Z" fill="white"/>
<path d="M360.759 27.459L359.337 28.8819L357.914 27.459L359.337 26.0361L360.759 27.459Z" fill="white"/>
<path d="M355.918 32.6259L354.171 34.3733L352.423 32.6259L354.171 30.8784L355.918 32.6259Z" fill="white"/>
<path d="M351.105 37.7936L349.003 39.8954L346.902 37.7936L349.003 35.6914L351.105 37.7936Z" fill="white"/>
<path d="M346.337 42.9602L343.837 45.4596L341.338 42.9602L343.837 40.4604L346.337 42.9602Z" fill="white"/>
<path d="M352.817 48.1273L349.003 51.9412L345.19 48.1273L349.003 44.3135L352.817 48.1273Z" fill="white"/>
<path d="M358.864 53.2946L354.17 57.9896L349.476 53.2946L354.17 48.5996L358.864 53.2946Z" fill="white"/>
<path d="M363.99 58.4612L359.337 63.1153L354.684 58.4612L359.337 53.8076L363.99 58.4612Z" fill="white"/>
<path d="M508.071 58.4614L503.997 62.5371L499.921 58.4614L503.997 54.3862L508.071 58.4614Z" fill="white"/>
<path d="M513.322 53.2946L509.163 57.4544L505.003 53.2946L509.163 49.1348L513.322 53.2946Z" fill="white"/>
<path d="M518.551 48.1274L514.329 52.3499L510.107 48.1274L514.329 43.9048L518.551 48.1274Z" fill="white"/>
<path d="M523.781 42.9601L519.495 47.2455L515.21 42.9601L519.495 38.6743L523.781 42.9601Z" fill="white"/>
<path d="M518.816 37.7933L514.329 42.2809L509.841 37.7933L514.329 33.3052L518.816 37.7933Z" fill="white"/>
<path d="M513.816 32.6258L509.163 37.2794L504.51 32.6258L509.163 27.9722L513.816 32.6258Z" fill="white"/>
<path d="M508.567 27.459L503.997 32.0299L499.426 27.459L503.997 22.8882L508.567 27.459Z" fill="white"/>
<path d="M502.392 22.2918L498.83 25.8541L495.268 22.2918L498.83 18.7295L502.392 22.2918Z" fill="white"/>
<path d="M496.007 17.1252L493.663 19.4693L491.319 17.1252L493.663 14.7808L496.007 17.1252Z" fill="white"/>
<path d="M490.021 11.9579L488.497 13.4821L486.974 11.9579L488.497 10.4341L490.021 11.9579Z" fill="white"/>
<path d="M484.234 6.79073L483.331 7.69374L482.428 6.79073L483.331 5.88818L484.234 6.79073Z" fill="white"/>
<path d="M478.547 1.62341L478.164 2.0061L477.782 1.62341L478.164 1.24072L478.547 1.62341Z" fill="white"/>
<path d="M369.729 6.79048L369.669 6.84999L369.61 6.79048L369.669 6.73096L369.729 6.79048Z" fill="white"/>
<path d="M364.786 11.9575L364.503 12.2416L364.219 11.9575L364.503 11.6738L364.786 11.9575Z" fill="white"/>
<path d="M359.835 17.1249L359.336 17.6229L358.838 17.1249L359.336 16.6265L359.835 17.1249Z" fill="white"/>
<path d="M354.933 22.2919L354.17 23.0549L353.407 22.2919L354.17 21.5288L354.933 22.2919Z" fill="white"/>
<path d="M350.016 27.4591L349.003 28.4709L347.992 27.4591L349.003 26.4473L350.016 27.4591Z" fill="white"/>
<path d="M345.106 32.6259L343.837 33.8949L342.569 32.6259L343.837 31.3574L345.106 32.6259Z" fill="white"/>
<path d="M340.219 37.7935L338.671 39.3424L337.122 37.7935L338.671 36.2441L340.219 37.7935Z" fill="white"/>
<path d="M335.276 42.9606L333.504 44.7322L331.732 42.9606L333.504 41.1885L335.276 42.9606Z" fill="white"/>
<path d="M341.64 48.1272L338.671 51.0961L335.703 48.1272L338.671 45.1582L341.64 48.1272Z" fill="white"/>
<path d="M348.053 53.2942L343.837 57.5107L339.621 53.2942L343.837 49.0776L348.053 53.2942Z" fill="white"/>
<path d="M353.678 58.4612L349.004 63.1357L344.33 58.4612L349.004 53.7871L353.678 58.4612Z" fill="white"/>
<path d="M518.213 58.4612L514.329 62.3457L510.445 58.4612L514.329 54.5771L518.213 58.4612Z" fill="white"/>
<path d="M523.443 53.2944L519.496 57.2427L515.548 53.2944L519.496 49.3462L523.443 53.2944Z" fill="white"/>
<path d="M528.701 48.1273L524.662 52.1666L520.624 48.1273L524.662 44.0879L528.701 48.1273Z" fill="white"/>
<path d="M533.931 42.96L529.829 47.0626L525.726 42.96L529.829 38.8569L533.931 42.96Z" fill="white"/>
<path d="M529.025 37.7932L524.662 42.1562L520.299 37.7932L524.662 33.4297L529.025 37.7932Z" fill="white"/>
<path d="M524.045 32.6261L519.496 37.1765L514.946 32.6261L519.496 28.0762L524.045 32.6261Z" fill="white"/>
<path d="M519.003 27.4588L514.329 32.1333L509.656 27.4588L514.329 22.7847L519.003 27.4588Z" fill="white"/>
<path d="M513.379 22.2917L509.163 26.5083L504.947 22.2917L509.163 18.0752L513.379 22.2917Z" fill="white"/>
<path d="M506.994 17.1247L503.996 20.1225L500.999 17.1247L503.996 14.1265L506.994 17.1247Z" fill="white"/>
<path d="M500.692 11.9575L498.83 13.8198L496.968 11.9575L498.83 10.0957L500.692 11.9575Z" fill="white"/>
<path d="M494.782 6.79065L493.663 7.90988L492.544 6.79065L493.663 5.67188L494.782 6.79065Z" fill="white"/>
<path d="M489.022 1.62359L488.497 2.14902L487.972 1.62359L488.497 1.09814L489.022 1.62359Z" fill="white"/>
<path d="M354.23 11.9575L354.17 12.017L354.111 11.9575L354.17 11.8984L354.23 11.9575Z" fill="white"/>
<path d="M349.218 17.1245L349.003 17.3389L348.789 17.1245L349.003 16.9097L349.218 17.1245Z" fill="white"/>
<path d="M344.243 22.2917L343.838 22.6967L343.433 22.2917L343.838 21.8867L344.243 22.2917Z" fill="white"/>
<path d="M339.259 27.4588L338.671 28.0475L338.082 27.4588L338.671 26.8701L339.259 27.4588Z" fill="white"/>
<path d="M334.268 32.6258L333.505 33.3889L332.742 32.6258L333.505 31.8628L334.268 32.6258Z" fill="white"/>
<path d="M329.268 37.7932L328.338 38.7232L327.408 37.7932L328.338 36.8628L329.268 37.7932Z" fill="white"/>
<path d="M324.237 42.9603L323.172 44.026L322.106 42.9603L323.172 41.8945L324.237 42.9603Z" fill="white"/>
<path d="M330.328 48.1274L328.338 50.1171L326.348 48.1274L328.338 46.1372L330.328 48.1274Z" fill="white"/>
<path d="M336.877 53.2944L333.504 56.6675L330.132 53.2944L333.504 49.9214L336.877 53.2944Z" fill="white"/>
<path d="M343.2 58.4611L338.671 62.9911L334.142 58.4611L338.671 53.9316L343.2 58.4611Z" fill="white"/>
<path d="M528.338 58.4613L524.663 62.138L520.986 58.4613L524.663 54.7847L528.338 58.4613Z" fill="white"/>
<path d="M533.584 53.2943L529.828 57.0505L526.073 53.2943L529.828 49.5381L533.584 53.2943Z" fill="white"/>
<path d="M538.793 48.1271L534.995 51.9261L531.196 48.1271L534.995 44.3281L538.793 48.1271Z" fill="white"/>
<path d="M539.133 37.7937L534.995 41.9321L530.857 37.7937L534.995 33.6548L539.133 37.7937Z" fill="white"/>
<path d="M534.239 32.6262L529.829 37.0376L525.418 32.6262L529.829 28.2153L534.239 32.6262Z" fill="white"/>
<path d="M529.274 27.4589L524.662 32.0712L520.05 27.4589L524.662 22.8467L529.274 27.4589Z" fill="white"/>
<path d="M524.211 22.2921L519.496 27.0076L514.781 22.2921L519.496 17.5767L524.211 22.2921Z" fill="white"/>
<path d="M518.17 17.125L514.329 20.9667L510.488 17.125L514.329 13.2832L518.17 17.125Z" fill="white"/>
<path d="M511.576 11.9572L509.163 14.3715L506.749 11.9572L509.163 9.54346L511.576 11.9572Z" fill="white"/>
<path d="M505.444 6.79076L503.997 8.23921L502.548 6.79076L503.997 5.34277L505.444 6.79076Z" fill="white"/>
<path d="M499.564 1.62387L498.83 2.35855L498.096 1.62387L498.83 0.889648L499.564 1.62387Z" fill="white"/>
<path d="M333.564 22.2919L333.505 22.3515L333.445 22.2919L333.505 22.2324L333.564 22.2919Z" fill="white"/>
<path d="M328.517 27.4588L328.338 27.6374L328.16 27.4588L328.338 27.2803L328.517 27.4588Z" fill="white"/>
<path d="M323.445 32.626L323.171 32.8998L322.898 32.626L323.171 32.3525L323.445 32.626Z" fill="white"/>
<path d="M318.345 37.7935L318.005 38.1338L317.665 37.7935L318.005 37.4526L318.345 37.7935Z" fill="white"/>
<path d="M313.221 42.9603L312.839 43.3425L312.456 42.9603L312.839 42.5776L313.221 42.9603Z" fill="white"/>
<path d="M319.143 48.1276L318.005 49.2654L316.868 48.1276L318.005 46.9897L319.143 48.1276Z" fill="white"/>
<path d="M325.351 53.2946L323.171 55.4749L320.992 53.2946L323.171 51.1143L325.351 53.2946Z" fill="white"/>
<path d="M331.986 58.4613L328.338 62.1101L324.69 58.4613L328.338 54.813L331.986 58.4613Z" fill="white"/>
<path d="M538.427 58.4614L534.995 61.8935L531.563 58.4614L534.995 55.0293L538.427 58.4614Z" fill="white"/>
<path d="M539.42 27.459L534.995 31.8848L530.57 27.459L534.995 23.0332L539.42 27.459Z" fill="white"/>
<path d="M534.461 22.2919L529.828 26.925L525.196 22.2919L529.828 17.6587L534.461 22.2919Z" fill="white"/>
<path d="M529.294 17.1249L524.662 21.7576L520.03 17.1249L524.662 12.4917L529.294 17.1249Z" fill="white"/>
<path d="M522.927 11.9575L519.495 15.3896L516.063 11.9575L519.495 8.52588L522.927 11.9575Z" fill="white"/>
<path d="M516.312 6.79034L514.329 8.77306L512.347 6.79034L514.329 4.80762L516.312 6.79034Z" fill="white"/>
<path d="M510.228 1.62338L509.163 2.68914L508.097 1.62338L509.163 0.557617L510.228 1.62338Z" fill="white"/>
<path d="M308.054 48.1273L307.672 48.51L307.29 48.1273L307.672 47.7446L308.054 48.1273Z" fill="white"/>
<path d="M314.055 53.294L312.838 54.5105L311.622 53.294L312.838 52.0776L314.055 53.294Z" fill="white"/>
<path d="M539.648 17.1248L534.995 21.7785L530.342 17.1248L534.995 12.4712L539.648 17.1248Z" fill="white"/>
<path d="M534.295 11.9574L529.828 16.425L525.362 11.9574L529.828 7.49023L534.295 11.9574Z" fill="white"/>
<path d="M527.742 6.79055L524.662 9.87112L521.582 6.79055L524.662 3.71045L527.742 6.79055Z" fill="white"/>
<path d="M521.12 1.62326L519.496 3.24747L517.872 1.62326L519.496 -0.000488281L521.12 1.62326Z" fill="white"/>
<path d="M302.846 53.2945L302.506 53.6349L302.165 53.2945L302.506 52.9541L302.846 53.2945Z" fill="white"/>
<path d="M539.358 6.79075L534.995 11.1538L530.633 6.79075L534.995 2.42773L539.358 6.79075Z" fill="white"/>
<path d="M532.601 1.62379L529.828 4.397L527.055 1.62379L529.828 -1.14941L532.601 1.62379Z" fill="white"/>
</g>
<g opacity="0.1" clip-path="url(#clip1_224_6002)">
<path d="M100.785 13.9955L105.499 9.28L110.215 13.9955L105.499 18.7109L100.785 13.9955Z" fill="white"/>
<path d="M100.909 3.66114L105.5 -0.930647L110.091 3.66114L105.5 8.25293L100.909 3.66114Z" fill="white"/>
<path d="M95.6802 8.82782L100.333 4.17419L104.986 8.82782L100.333 13.4814L95.6802 8.82782Z" fill="white"/>
<path d="M90.4521 13.9955L95.167 9.28L99.8818 13.9955L95.167 18.7109L90.4521 13.9955Z" fill="white"/>
<path d="M96.0694 19.1623L100.333 14.8979L104.598 19.1623L100.333 23.4272L96.0694 19.1623Z" fill="white"/>
<path d="M102.003 24.3295L105.5 20.8318L108.997 24.3295L105.5 27.8267L102.003 24.3295Z" fill="white"/>
<path d="M106.408 19.1621L110.666 14.9037L114.924 19.1621L110.666 23.4209L106.408 19.1621Z" fill="white"/>
<path d="M111.118 13.9955L115.833 9.28L120.548 13.9955L115.833 18.7109L111.118 13.9955Z" fill="white"/>
<path d="M106.013 8.82782L110.666 4.17419L115.319 8.82782L110.666 13.4814L106.013 8.82782Z" fill="white"/>
<path d="M95.8666 -1.50574L100.333 -5.97338L104.8 -1.50574L100.333 2.96143L95.8666 -1.50574Z" fill="white"/>
<path d="M90.5967 3.66156L95.167 -0.909309L99.7373 3.66156L95.167 8.23242L90.5967 3.66156Z" fill="white"/>
<path d="M85.3477 8.82782L90.0008 4.17419L94.6538 8.82782L90.0008 13.4814L85.3477 8.82782Z" fill="white"/>
<path d="M80.1191 13.9955L84.8344 9.28L89.5493 13.9955L84.8344 18.7109L80.1191 13.9955Z" fill="white"/>
<path d="M85.6947 19.1625L90.0009 14.8562L94.3071 19.1625L90.0009 23.4692L85.6947 19.1625Z" fill="white"/>
<path d="M91.6488 24.3296L95.1674 20.8105L98.686 24.3296L95.1674 27.8486L91.6488 24.3296Z" fill="white"/>
<path d="M97.6739 29.4965L100.333 26.8367L102.993 29.4965L100.333 32.1562L97.6739 29.4965Z" fill="white"/>
<path d="M103.534 34.6639L105.5 32.6979L107.465 34.6639L105.5 36.6299L103.534 34.6639Z" fill="white"/>
<path d="M108.029 29.4968L110.667 26.8599L113.303 29.4968L110.667 32.1338L108.029 29.4968Z" fill="white"/>
<path d="M112.373 24.33L115.833 20.8696L119.293 24.33L115.833 27.79L112.373 24.33Z" fill="white"/>
<path d="M116.798 19.1626L120.999 14.961L125.2 19.1626L120.999 23.3647L116.798 19.1626Z" fill="white"/>
<path d="M121.471 13.9949L126.165 9.29991L130.86 13.9949L126.165 18.6899L121.471 13.9949Z" fill="white"/>
<path d="M116.346 8.82782L120.999 4.17419L125.652 8.82782L120.999 13.4814L116.346 8.82782Z" fill="white"/>
<path d="M111.242 3.66114L115.833 -0.930647L120.424 3.66114L115.833 8.25293L111.242 3.66114Z" fill="white"/>
<path d="M106.199 -1.50574L110.666 -5.97338L115.133 -1.50574L110.666 2.96143L106.199 -1.50574Z" fill="white"/>
<path d="M85.5545 -1.50581L90.0006 -5.95253L94.4463 -1.50581L90.0006 2.94043L85.5545 -1.50581Z" fill="white"/>
<path d="M80.2784 3.66132L84.8343 -0.895124L89.3901 3.66132L84.8343 8.21777L80.2784 3.66132Z" fill="white"/>
<path d="M75.0147 8.82782L79.6678 4.17419L84.3208 8.82782L79.6678 13.4814L75.0147 8.82782Z" fill="white"/>
<path d="M69.8278 13.9954L74.5013 9.32127L79.1753 13.9954L74.5013 18.6699L69.8278 13.9954Z" fill="white"/>
<path d="M75.2641 19.162L79.668 14.7576L84.0723 19.162L79.668 23.5669L75.2641 19.162Z" fill="white"/>
<path d="M81.2293 24.3295L84.8344 20.724L88.4395 24.3295L84.8344 27.9351L81.2293 24.3295Z" fill="white"/>
<path d="M87.2956 29.4968L90.0006 26.7915L92.7056 29.4968L90.0006 32.2021L87.2956 29.4968Z" fill="white"/>
<path d="M93.1774 34.6636L95.1673 32.674L97.1572 34.6636L95.1673 36.6538L93.1774 34.6636Z" fill="white"/>
<path d="M98.8857 39.8304L100.333 38.3824L101.782 39.8304L100.333 41.2788L98.8857 39.8304Z" fill="white"/>
<path d="M104.542 44.9981L105.5 44.0403L106.458 44.9981L105.5 45.9556L104.542 44.9981Z" fill="white"/>
<path d="M109.218 39.8304L110.666 38.3824L112.114 39.8304L110.666 41.2788L109.218 39.8304Z" fill="white"/>
<path d="M113.891 34.6637L115.833 32.7219L117.774 34.6637L115.833 36.6055L113.891 34.6637Z" fill="white"/>
<path d="M118.424 29.4967L120.999 26.9211L123.574 29.4967L120.999 32.0718L118.424 29.4967Z" fill="white"/>
<path d="M122.8 24.3298L126.166 20.9632L129.532 24.3298L126.166 27.6963L122.8 24.3298Z" fill="white"/>
<path d="M127.221 19.162L131.332 15.051L135.443 19.162L131.332 23.2734L127.221 19.162Z" fill="white"/>
<path d="M131.887 13.9952L136.499 9.38295L141.11 13.9952L136.499 18.6079L131.887 13.9952Z" fill="white"/>
<path d="M126.679 8.82782L131.332 4.17419L135.985 8.82782L131.332 13.4814L126.679 8.82782Z" fill="white"/>
<path d="M121.574 3.66114L126.166 -0.930647L130.757 3.66114L126.166 8.25293L121.574 3.66114Z" fill="white"/>
<path d="M116.533 -1.50574L120.999 -5.97338L125.466 -1.50574L120.999 2.96143L116.533 -1.50574Z" fill="white"/>
<path d="M75.2361 -1.50555L79.6674 -5.93739L84.0986 -1.50555L79.6674 2.92627L75.2361 -1.50555Z" fill="white"/>
<path d="M69.9725 3.66144L74.5014 -0.868034L79.0303 3.66144L74.5014 8.19092L69.9725 3.66144Z" fill="white"/>
<path d="M64.7026 8.82826L69.3352 4.19508L73.9678 8.82826L69.3352 13.4614L64.7026 8.82826Z" fill="white"/>
<path d="M59.5157 13.9953L64.1687 9.34166L68.8218 13.9953L64.1687 18.6489L59.5157 13.9953Z" fill="white"/>
<path d="M64.806 19.162L69.3349 14.6325L73.8638 19.162L69.3349 23.6919L64.806 19.162Z" fill="white"/>
<path d="M70.7454 24.3292L74.5011 20.573L78.2568 24.3292L74.5011 28.0854L70.7454 24.3292Z" fill="white"/>
<path d="M76.8495 29.4966L79.6674 26.6779L82.4858 29.4966L79.6674 32.3149L76.8495 29.4966Z" fill="white"/>
<path d="M82.7969 34.6636L84.8347 32.626L86.8721 34.6636L84.8347 36.7017L82.7969 34.6636Z" fill="white"/>
<path d="M88.5274 39.8302L90.0008 38.3566L91.4741 39.8302L90.0008 41.3037L88.5274 39.8302Z" fill="white"/>
<path d="M94.1824 44.9981L95.1671 44.0127L96.1519 44.9981L95.1671 45.9829L94.1824 44.9981Z" fill="white"/>
<path d="M99.7744 50.1647L100.333 49.6058L100.892 50.1647L100.333 50.7236L99.7744 50.1647Z" fill="white"/>
<path d="M105.285 55.332L105.5 55.1172L105.714 55.332L105.5 55.5464L105.285 55.332Z" fill="white"/>
<path d="M110.108 50.1647L110.667 49.6058L111.226 50.1647L110.667 50.7236L110.108 50.1647Z" fill="white"/>
<path d="M114.883 44.9982L115.833 44.0487L116.782 44.9982L115.833 45.9473L114.883 44.9982Z" fill="white"/>
<path d="M119.594 39.8306L120.999 38.4259L122.404 39.8306L120.999 41.2358L119.594 39.8306Z" fill="white"/>
<path d="M124.279 34.6633L126.166 32.7769L128.052 34.6633L126.166 36.5498L124.279 34.6633Z" fill="white"/>
<path d="M128.879 29.4964L131.332 27.0431L133.785 29.4964L131.332 31.9497L128.879 29.4964Z" fill="white"/>
<path d="M133.308 24.3297L136.499 21.1385L139.689 24.3297L136.499 27.5205L133.308 24.3297Z" fill="white"/>
<path d="M137.739 19.162L141.665 15.2352L145.591 19.162L141.665 23.0894L137.739 19.162Z" fill="white"/>
<path d="M142.365 13.9952L146.831 9.52806L151.298 13.9952L146.831 18.4624L142.365 13.9952Z" fill="white"/>
<path d="M136.991 8.82838L141.665 4.15429L146.338 8.82838L141.665 13.5029L136.991 8.82838Z" fill="white"/>
<path d="M131.887 3.66119L136.499 -0.951051L141.11 3.66119L136.499 8.27344L131.887 3.66119Z" fill="white"/>
<path d="M126.845 -1.50617L131.332 -5.99427L135.819 -1.50617L131.332 2.98145L126.845 -1.50617Z" fill="white"/>
<path d="M64.9249 -1.50563L69.3353 -5.917L73.7456 -1.50563L69.3353 2.90527L64.9249 -1.50563Z" fill="white"/>
<path d="M59.6603 3.66088L64.1688 -0.848139L68.6768 3.66088L64.1688 8.16943L59.6603 3.66088Z" fill="white"/>
<path d="M54.3905 8.82818L59.0026 4.21593L63.6143 8.82818L59.0026 13.4404L54.3905 8.82818Z" fill="white"/>
<path d="M49.1822 13.9953L53.8352 9.34166L58.4883 13.9953L53.8352 18.6489L49.1822 13.9953Z" fill="white"/>
<path d="M54.3079 19.1624L59.0023 14.4678L63.6963 19.1624L59.0023 23.8574L54.3079 19.1624Z" fill="white"/>
<path d="M60.1994 24.3297L64.1686 20.36L68.1372 24.3297L64.1686 28.2988L60.1994 24.3297Z" fill="white"/>
<path d="M66.3377 29.4968L69.3351 26.499L72.3325 29.4968L69.3351 32.4946L66.3377 29.4968Z" fill="white"/>
<path d="M72.3756 34.6636L74.5013 32.5377L76.627 34.6636L74.5013 36.7896L72.3756 34.6636Z" fill="white"/>
<path d="M78.1265 39.8306L79.6678 38.2892L81.2095 39.8306L79.6678 41.3726L78.1265 39.8306Z" fill="white"/>
<path d="M83.8223 44.9979L84.8345 43.9857L85.8462 44.9979L84.8345 46.0098L83.8223 44.9979Z" fill="white"/>
<path d="M89.4122 50.1652L90.0012 49.5761L90.5898 50.1652L90.0012 50.7539L89.4122 50.1652Z" fill="white"/>
<path d="M94.9522 55.332L95.167 55.1172L95.3818 55.332L95.167 55.5464L94.9522 55.332Z" fill="white"/>
<path d="M115.629 55.332L115.833 55.1279L116.037 55.332L115.833 55.5361L115.629 55.332Z" fill="white"/>
<path d="M120.471 50.1652L120.999 49.636L121.528 50.1652L120.999 50.6938L120.471 50.1652Z" fill="white"/>
<path d="M125.282 44.9983L126.165 44.1148L127.049 44.9983L126.165 45.8813L125.282 44.9983Z" fill="white"/>
<path d="M130.012 39.8308L131.332 38.5107L132.652 39.8308L131.332 41.1514L130.012 39.8308Z" fill="white"/>
<path d="M134.727 34.6635L136.499 32.8914L138.27 34.6635L136.499 36.4355L134.727 34.6635Z" fill="white"/>
<path d="M139.391 29.4967L141.665 27.2224L143.939 29.4967L141.665 31.771L139.391 29.4967Z" fill="white"/>
<path d="M143.901 24.3299L146.831 21.3991L149.762 24.3299L146.831 27.2607L143.901 24.3299Z" fill="white"/>
<path d="M148.343 19.1621L151.998 15.5073L155.652 19.1621L151.998 22.8174L148.343 19.1621Z" fill="white"/>
<path d="M152.927 13.995L157.164 9.75749L161.401 13.995L157.164 18.2324L152.927 13.995Z" fill="white"/>
<path d="M147.283 8.82799L151.998 4.1125L156.712 8.82799L151.998 13.5435L147.283 8.82799Z" fill="white"/>
<path d="M142.199 3.66127L146.831 -0.971901L151.464 3.66127L146.831 8.29443L142.199 3.66127Z" fill="white"/>
<path d="M137.156 -1.50562L141.665 -6.01465L146.173 -1.50562L141.665 3.00293L137.156 -1.50562Z" fill="white"/>
<path d="M54.6336 -1.50577L59.0026 -5.87531L63.3711 -1.50577L59.0026 2.86328L54.6336 -1.50577Z" fill="white"/>
<path d="M49.3899 3.66117L53.8356 -0.785535L58.2817 3.66117L53.8356 8.10742L49.3899 3.66117Z" fill="white"/>
<path d="M44.14 8.82844L48.6688 4.29895L53.1978 8.82844L48.6688 13.3579L44.14 8.82844Z" fill="white"/>
<path d="M38.8706 13.9952L43.5032 9.36254L48.1357 13.9952L43.5032 18.6284L38.8706 13.9952Z" fill="white"/>
<path d="M43.9749 19.1624L48.6693 14.4678L53.3638 19.1624L48.6693 23.8574L43.9749 19.1624Z" fill="white"/>
<path d="M49.5984 24.3294L53.8353 20.092L58.0723 24.3294L53.8353 28.5669L49.5984 24.3294Z" fill="white"/>
<path d="M55.7021 29.4964L59.0026 26.1954L62.3027 29.4964L59.0026 32.7974L55.7021 29.4964Z" fill="white"/>
<path d="M61.8949 34.6637L64.1689 32.3894L66.4429 34.6637L64.1689 36.938L61.8949 34.6637Z" fill="white"/>
<path d="M67.7114 39.8304L69.3354 38.2066L70.959 39.8304L69.3354 41.4546L67.7114 39.8304Z" fill="white"/>
<path d="M73.4356 44.9982L74.5013 43.9324L75.5669 44.9982L74.5013 46.0635L73.4356 44.9982Z" fill="white"/>
<path d="M79.0494 50.1653L79.6678 49.5468L80.2861 50.1653L79.6678 50.7837L79.0494 50.1653Z" fill="white"/>
<path d="M84.5948 55.3318L84.8343 55.0923L85.0732 55.3318L84.8343 55.5708L84.5948 55.3318Z" fill="white"/>
<path d="M125.998 55.3321L126.166 55.1647L126.333 55.3321L126.166 55.4995L125.998 55.3321Z" fill="white"/>
<path d="M130.865 50.165L131.332 49.6972L131.8 50.165L131.332 50.6323L130.865 50.165Z" fill="white"/>
<path d="M135.707 44.9981L136.499 44.2067L137.29 44.9981L136.499 45.7891L135.707 44.9981Z" fill="white"/>
<path d="M140.475 39.8306L141.665 38.6402L142.855 39.8306L141.665 41.021L140.475 39.8306Z" fill="white"/>
<path d="M145.257 34.6633L146.831 33.0893L148.405 34.6633L146.831 36.2373L145.257 34.6633Z" fill="white"/>
<path d="M149.944 29.4964L151.998 27.4417L154.052 29.4964L151.998 31.5508L149.944 29.4964Z" fill="white"/>
<path d="M154.612 24.3295L157.164 21.7772L159.716 24.3295L157.164 26.8818L154.612 24.3295Z" fill="white"/>
<path d="M159.074 19.1622L162.331 15.9054L165.587 19.1622L162.331 22.4194L159.074 19.1622Z" fill="white"/>
<path d="M163.641 13.9949L167.497 10.1383L171.353 13.9949L167.497 17.8516L163.641 13.9949Z" fill="white"/>
<path d="M157.657 8.82838L162.331 4.15429L167.004 8.82838L162.331 13.5029L157.657 8.82838Z" fill="white"/>
<path d="M152.511 3.66131L157.164 -0.992329L161.817 3.66131L157.164 8.31494L152.511 3.66131Z" fill="white"/>
<path d="M147.463 -1.50573L151.998 -6.04172L156.533 -1.50573L151.998 3.02979L147.463 -1.50573Z" fill="white"/>
<path d="M44.3907 -1.50587L48.6695 -5.78565L52.9482 -1.50587L48.6695 2.77344L44.3907 -1.50587Z" fill="white"/>
<path d="M39.0986 3.66106L43.5029 -0.743804L47.9072 3.66106L43.5029 8.06592L39.0986 3.66106Z" fill="white"/>
<path d="M33.87 8.82825L38.3366 4.36107L42.8032 8.82825L38.3366 13.2954L33.87 8.82825Z" fill="white"/>
<path d="M28.6201 13.9955L33.1694 9.44555L37.7192 13.9955L33.1694 18.5459L28.6201 13.9955Z" fill="white"/>
<path d="M33.6837 19.1623L38.3367 14.5087L42.9897 19.1623L38.3367 23.8164L33.6837 19.1623Z" fill="white"/>
<path d="M38.9739 24.3299L43.5028 19.8004L48.0317 24.3299L43.5028 28.8594L38.9739 24.3299Z" fill="white"/>
<path d="M44.9995 29.4963L48.6691 25.8261L52.3389 29.4963L48.6691 33.1665L44.9995 29.4963Z" fill="white"/>
<path d="M51.2903 34.6636L53.8354 32.1183L56.3809 34.6636L53.8354 37.209L51.2903 34.6636Z" fill="white"/>
<path d="M57.2058 39.8307L59.0023 38.0345L60.7983 39.8307L59.0023 41.6274L57.2058 39.8307Z" fill="white"/>
<path d="M63.0232 44.9983L64.1688 43.8525L65.314 44.9983L64.1688 46.1436L63.0232 44.9983Z" fill="white"/>
<path d="M68.6578 50.1647L69.3348 49.4877L70.0117 50.1647L69.3348 50.8413L68.6578 50.1647Z" fill="white"/>
<path d="M74.2516 55.3318L74.5013 55.0821L74.751 55.3318L74.5013 55.5815L74.2516 55.3318Z" fill="white"/>
<path d="M136.397 55.3322L136.499 55.2304L136.601 55.3322L136.499 55.4341L136.397 55.3322Z" fill="white"/>
<path d="M141.292 50.1652L141.665 49.7922L142.038 50.1652L141.665 50.5381L141.292 50.1652Z" fill="white"/>
<path d="M146.184 44.9983L146.831 44.3501L147.479 44.9983L146.831 45.646L146.184 44.9983Z" fill="white"/>
<path d="M150.986 39.8305L151.998 38.8187L153.01 39.8305L151.998 40.8428L150.986 39.8305Z" fill="white"/>
<path d="M155.81 34.6635L157.164 33.3099L158.518 34.6635L157.164 36.0176L155.81 34.6635Z" fill="white"/>
<path d="M160.559 29.4965L162.331 27.7244L164.102 29.4965L162.331 31.2686L160.559 29.4965Z" fill="white"/>
<path d="M165.324 24.3295L167.497 22.1562L169.67 24.3295L167.497 26.5024L165.324 24.3295Z" fill="white"/>
<path d="M169.958 19.1619L172.663 16.4566L175.368 19.1619L172.663 21.8677L169.958 19.1619Z" fill="white"/>
<path d="M174.551 13.9953L177.83 10.7166L181.108 13.9953L177.83 17.2744L174.551 13.9953Z" fill="white"/>
<path d="M168.315 8.82817L172.663 4.47957L177.011 8.82817L172.663 13.1768L168.315 8.82817Z" fill="white"/>
<path d="M162.823 3.66136L167.497 -1.0132L172.17 3.66136L167.497 8.33545L162.823 3.66136Z" fill="white"/>
<path d="M157.719 -1.5058L162.331 -6.11852L166.942 -1.5058L162.331 3.10645L157.719 -1.5058Z" fill="white"/>
<path d="M34.1349 -1.50585L38.3365 -5.70798L42.5376 -1.50585L38.3365 2.6958L34.1349 -1.50585Z" fill="white"/>
<path d="M28.8907 3.66111L33.1695 -0.618201L37.4487 3.66111L33.1695 7.94043L28.8907 3.66111Z" fill="white"/>
<path d="M23.6137 8.82828L28.0032 4.4383L32.3931 8.82828L28.0032 13.2183L23.6137 8.82828Z" fill="white"/>
<path d="M18.3919 13.9952L22.8375 9.54894L27.2837 13.9952L22.8375 18.4419L18.3919 13.9952Z" fill="white"/>
<path d="M23.3715 19.1622L28.0036 14.5295L32.6362 19.1622L28.0036 23.7954L23.3715 19.1622Z" fill="white"/>
<path d="M28.455 24.3299L33.1699 19.6145L37.8853 24.3299L33.1699 29.0454L28.455 24.3299Z" fill="white"/>
<path d="M34.2259 29.4969L38.3368 25.3855L42.4473 29.4969L38.3368 33.6079L34.2259 29.4969Z" fill="white"/>
<path d="M40.5278 34.6637L43.5029 31.6882L46.478 34.6637L43.5029 37.6392L40.5278 34.6637Z" fill="white"/>
<path d="M46.6625 39.8305L48.6691 37.8241L50.6758 39.8305L48.6691 41.8374L46.6625 39.8305Z" fill="white"/>
<path d="M52.5341 44.9983L53.8359 43.6959L55.1382 44.9983L53.8359 46.3003L52.5341 44.9983Z" fill="white"/>
<path d="M58.2392 50.1652L59.0021 49.4021L59.7646 50.1652L59.0021 50.9282L58.2392 50.1652Z" fill="white"/>
<path d="M63.8614 55.3323L64.1688 55.0249L64.4761 55.3323L64.1688 55.6396L63.8614 55.3323Z" fill="white"/>
<path d="M151.783 50.165L151.998 49.9502L152.212 50.165L151.998 50.3794L151.783 50.165Z" fill="white"/>
<path d="M156.687 44.998L157.164 44.5209L157.641 44.998L157.164 45.4746L156.687 44.998Z" fill="white"/>
<path d="M161.568 39.8307L162.331 39.0677L163.094 39.8307L162.331 40.5938L161.568 39.8307Z" fill="white"/>
<path d="M166.413 34.6637L167.497 33.5793L168.581 34.6637L167.497 35.748L166.413 34.6637Z" fill="white"/>
<path d="M171.241 29.4966L172.663 28.0737L174.086 29.4966L172.663 30.9194L171.241 29.4966Z" fill="white"/>
<path d="M176.082 24.3297L177.829 22.5823L179.577 24.3297L177.829 26.0771L176.082 24.3297Z" fill="white"/>
<path d="M180.895 19.1619L182.997 17.0602L185.098 19.1619L182.997 21.2642L180.895 19.1619Z" fill="white"/>
<path d="M185.663 13.9953L188.163 11.496L190.662 13.9953L188.163 16.4951L185.663 13.9953Z" fill="white"/>
<path d="M179.183 8.82824L182.997 5.01438L186.81 8.82824L182.997 12.6421L179.183 8.82824Z" fill="white"/>
<path d="M173.136 3.66094L177.83 -1.03407L182.524 3.66094L177.83 8.35596L173.136 3.66094Z" fill="white"/>
<path d="M168.01 -1.50567L172.663 -6.15978L177.316 -1.50567L172.663 3.14795L168.01 -1.50567Z" fill="white"/>
<path d="M23.9288 -1.50584L28.0035 -5.5815L32.0786 -1.50584L28.0035 2.56934L23.9288 -1.50584Z" fill="white"/>
<path d="M18.678 3.66099L22.8373 -0.498818L26.9966 3.66099L22.8373 7.8208L18.678 3.66099Z" fill="white"/>
<path d="M13.4485 8.8282L17.671 4.60562L21.8931 8.8282L17.671 13.0508L13.4485 8.8282Z" fill="white"/>
<path d="M8.21945 13.9954L12.5048 9.71008L16.7896 13.9954L12.5048 18.2812L8.21945 13.9954Z" fill="white"/>
<path d="M13.1836 19.1623L17.6712 14.6747L22.1587 19.1623L17.6712 23.6504L13.1836 19.1623Z" fill="white"/>
<path d="M18.1841 24.3298L22.8372 19.6761L27.4902 24.3298L22.8372 28.9834L18.1841 24.3298Z" fill="white"/>
<path d="M23.4332 29.4965L28.0035 24.9257L32.5742 29.4965L28.0035 34.0674L23.4332 29.4965Z" fill="white"/>
<path d="M29.6082 34.6633L33.1701 31.101L36.7319 34.6633L33.1701 38.2256L29.6082 34.6633Z" fill="white"/>
<path d="M35.9928 39.8303L38.337 37.4863L40.6807 39.8303L38.337 42.1748L35.9928 39.8303Z" fill="white"/>
<path d="M41.9787 44.9977L43.5028 43.4735L45.0264 44.9977L43.5028 46.5215L41.9787 44.9977Z" fill="white"/>
<path d="M47.7665 50.1648L48.6689 49.2618L49.5718 50.1648L48.6689 51.0674L47.7665 50.1648Z" fill="white"/>
<path d="M53.4535 55.3322L53.8356 54.9495L54.2183 55.3322L53.8356 55.7148L53.4535 55.3322Z" fill="white"/>
<path d="M162.271 50.1651L162.331 50.1056L162.39 50.1651L162.331 50.2246L162.271 50.1651Z" fill="white"/>
<path d="M167.214 44.9981L167.497 44.714L167.781 44.9981L167.497 45.2817L167.214 44.9981Z" fill="white"/>
<path d="M172.165 39.8306L172.664 39.3326L173.162 39.8306L172.664 40.3291L172.165 39.8306Z" fill="white"/>
<path d="M177.067 34.6637L177.83 33.9007L178.593 34.6637L177.83 35.4268L177.067 34.6637Z" fill="white"/>
<path d="M181.984 29.4965L182.997 28.4847L184.008 29.4965L182.997 30.5083L181.984 29.4965Z" fill="white"/>
<path d="M186.894 24.3296L188.163 23.0607L189.431 24.3296L188.163 25.5981L186.894 24.3296Z" fill="white"/>
<path d="M191.781 19.1621L193.329 17.6132L194.878 19.1621L193.329 20.7114L191.781 19.1621Z" fill="white"/>
<path d="M196.724 13.995L198.496 12.2234L200.268 13.995L198.496 15.7671L196.724 13.995Z" fill="white"/>
<path d="M190.36 8.8284L193.329 5.85943L196.297 8.8284L193.329 11.7974L190.36 8.8284Z" fill="white"/>
<path d="M183.947 3.66139L188.163 -0.555144L192.379 3.66139L188.163 7.87793L183.947 3.66139Z" fill="white"/>
<path d="M178.322 -1.50562L182.996 -6.18018L187.67 -1.50562L182.996 3.16846L178.322 -1.50562Z" fill="white"/>
<path d="M13.787 -1.50564L17.6711 -5.39018L21.5547 -1.50564L17.6711 2.37842L13.787 -1.50564Z" fill="white"/>
<path d="M8.55668 3.66114L12.5044 -0.287097L16.4521 3.66114L12.5044 7.60938L8.55668 3.66114Z" fill="white"/>
<path d="M3.29874 8.8283L7.33759 4.78892L11.3765 8.8283L7.33759 12.8677L3.29874 8.8283Z" fill="white"/>
<path d="M-1.93074 13.9956L2.17138 9.89293L6.27393 13.9956L2.17138 18.0986L-1.93074 13.9956Z" fill="white"/>
<path d="M2.97528 19.1624L7.33774 14.7994L11.7007 19.1624L7.33774 23.5259L2.97528 19.1624Z" fill="white"/>
<path d="M7.95452 24.3295L12.5044 19.7791L17.0537 24.3295L12.5044 28.8794L7.95452 24.3295Z" fill="white"/>
<path d="M12.9968 29.4968L17.6707 24.8223L22.3442 29.4968L17.6707 34.1709L12.9968 29.4968Z" fill="white"/>
<path d="M18.6212 34.6638L22.8372 30.4473L27.0532 34.6638L22.8372 38.8804L18.6212 34.6638Z" fill="white"/>
<path d="M25.0062 39.8308L28.0036 36.833L31.0015 39.8308L28.0036 42.8291L25.0062 39.8308Z" fill="white"/>
<path d="M31.3081 44.998L33.1697 43.1358L35.0317 44.998L33.1697 46.8599L31.3081 44.998Z" fill="white"/>
<path d="M37.2178 50.1649L38.3369 49.0457L39.4556 50.1649L38.3369 51.2837L37.2178 50.1649Z" fill="white"/>
<path d="M42.9776 55.332L43.503 54.8065L44.0283 55.332L43.503 55.8574L42.9776 55.332Z" fill="white"/>
<path d="M177.77 44.9981L177.83 44.9386L177.889 44.9981L177.83 45.0571L177.77 44.9981Z" fill="white"/>
<path d="M182.782 39.8311L182.997 39.6167L183.211 39.8311L182.997 40.0459L182.782 39.8311Z" fill="white"/>
<path d="M187.757 34.6638L188.162 34.2588L188.567 34.6638L188.162 35.0688L187.757 34.6638Z" fill="white"/>
<path d="M192.741 29.4968L193.329 28.9081L193.918 29.4968L193.329 30.0854L192.741 29.4968Z" fill="white"/>
<path d="M197.732 24.3297L198.495 23.5667L199.258 24.3297L198.495 25.0928L197.732 24.3297Z" fill="white"/>
<path d="M202.732 19.1623L203.662 18.2323L204.592 19.1623L203.662 20.0928L202.732 19.1623Z" fill="white"/>
<path d="M207.763 13.9953L208.828 12.9295L209.894 13.9953L208.828 15.061L207.763 13.9953Z" fill="white"/>
<path d="M201.672 8.82821L203.662 6.83851L205.652 8.82821L203.662 10.8184L201.672 8.82821Z" fill="white"/>
<path d="M195.123 3.66113L198.496 0.288084L201.868 3.66113L198.496 7.03418L195.123 3.66113Z" fill="white"/>
<path d="M188.8 -1.50555L193.329 -6.0355L197.858 -1.50555L193.329 3.02393L188.8 -1.50555Z" fill="white"/>
<path d="M3.66168 -1.50578L7.33744 -5.18247L11.0137 -1.50578L7.33744 2.1709L3.66168 -1.50578Z" fill="white"/>
<path d="M-1.5842 3.66128L2.17153 -0.0949198L5.92725 3.66128L2.17153 7.41748L-1.5842 3.66128Z" fill="white"/>
<path d="M-6.79328 8.82847L-2.99477 5.02948L0.803711 8.82847L-2.99477 12.6274L-6.79328 8.82847Z" fill="white"/>
<path d="M-7.13273 19.1619L-2.99483 15.0235L1.14307 19.1619L-2.99483 23.3008L-7.13273 19.1619Z" fill="white"/>
<path d="M-2.23916 24.3293L2.1712 19.918L6.58154 24.3293L2.1712 28.7402L-2.23916 24.3293Z" fill="white"/>
<path d="M2.72591 29.4966L7.33757 24.8844L11.9497 29.4966L7.33757 34.1089L2.72591 29.4966Z" fill="white"/>
<path d="M7.78949 34.6634L12.5044 29.948L17.2192 34.6634L12.5044 39.3789L7.78949 34.6634Z" fill="white"/>
<path d="M13.8297 39.8306L17.6709 35.9888L21.5122 39.8306L17.6709 43.6724L13.8297 39.8306Z" fill="white"/>
<path d="M20.4236 44.9983L22.8371 42.5841L25.251 44.9983L22.8371 47.4121L20.4236 44.9983Z" fill="white"/>
<path d="M26.5556 50.1648L28.0034 48.7164L29.4517 50.1648L28.0034 51.6128L26.5556 50.1648Z" fill="white"/>
<path d="M32.4356 55.3317L33.1697 54.597L33.9043 55.3317L33.1697 56.0659L32.4356 55.3317Z" fill="white"/>
<path d="M198.436 34.6636L198.495 34.6041L198.555 34.6636L198.495 34.7231L198.436 34.6636Z" fill="white"/>
<path d="M203.483 29.4967L203.662 29.3182L203.84 29.4967L203.662 29.6753L203.483 29.4967Z" fill="white"/>
<path d="M208.555 24.3296L208.829 24.0557L209.102 24.3296L208.829 24.603L208.555 24.3296Z" fill="white"/>
<path d="M213.655 19.1621L213.995 18.8217L214.335 19.1621L213.995 19.5029L213.655 19.1621Z" fill="white"/>
<path d="M218.779 13.9952L219.161 13.613L219.544 13.9952L219.161 14.3779L218.779 13.9952Z" fill="white"/>
<path d="M212.857 8.82799L213.995 7.69014L215.132 8.82799L213.995 9.96582L212.857 8.82799Z" fill="white"/>
<path d="M206.649 3.66097L208.829 1.48063L211.008 3.66097L208.829 5.84131L206.649 3.66097Z" fill="white"/>
<path d="M200.014 -1.50574L203.662 -5.15454L207.31 -1.50574L203.662 2.14258L200.014 -1.50574Z" fill="white"/>
<path d="M-6.42681 -1.50582L-2.99514 -4.93792L0.436523 -1.50582L-2.99514 1.92627L-6.42681 -1.50582Z" fill="white"/>
<path d="M-7.42027 29.4966L-2.99503 25.0708L1.43018 29.4966L-2.99503 33.9224L-7.42027 29.4966Z" fill="white"/>
<path d="M-2.46096 34.6637L2.17163 30.0305L6.8042 34.6637L2.17163 39.2969L-2.46096 34.6637Z" fill="white"/>
<path d="M2.70551 39.8307L7.33762 35.198L11.9702 39.8307L7.33762 44.4639L2.70551 39.8307Z" fill="white"/>
<path d="M9.07321 44.9981L12.5049 41.566L15.9365 44.9981L12.5049 48.4297L9.07321 44.9981Z" fill="white"/>
<path d="M15.6884 50.1652L17.6708 48.1825L19.6533 50.1652L17.6708 52.1479L15.6884 50.1652Z" fill="white"/>
<path d="M21.7716 55.3322L22.8372 54.2664L23.9028 55.3322L22.8372 56.3979L21.7716 55.3322Z" fill="white"/>
<path d="M223.946 8.82825L224.328 8.44555L224.71 8.82825L224.328 9.21094L223.946 8.82825Z" fill="white"/>
<path d="M217.945 3.66152L219.162 2.4451L220.378 3.66152L219.162 4.87793L217.945 3.66152Z" fill="white"/>
<path d="M211.634 -1.50579L213.995 -3.86655L216.355 -1.50579L213.995 0.854492L211.634 -1.50579Z" fill="white"/>
<path d="M-7.64838 39.8307L-2.99533 35.1771L1.65771 39.8307L-2.99533 44.4844L-7.64838 39.8307Z" fill="white"/>
<path d="M-2.29503 44.9982L2.17159 40.5305L6.63818 44.9982L2.17159 49.4653L-2.29503 44.9982Z" fill="white"/>
<path d="M4.25809 50.165L7.33779 47.0844L10.418 50.165L7.33779 53.2451L4.25809 50.165Z" fill="white"/>
<path d="M10.8804 55.3323L12.5044 53.7081L14.1279 55.3323L12.5044 56.9561L10.8804 55.3323Z" fill="white"/>
<path d="M229.154 3.66109L229.494 3.32071L229.835 3.66109L229.494 4.00146L229.154 3.66109Z" fill="white"/>
<path d="M-7.35774 50.1648L-2.99528 45.8018L1.36719 50.1648L-2.99528 54.5278L-7.35774 50.1648Z" fill="white"/>
<path d="M-0.601354 55.3318L2.17151 52.5586L4.94482 55.3318L2.17151 58.105L-0.601354 55.3318Z" fill="white"/>
</g>
<defs>
<clipPath id="clip0_224_6002">
<rect width="260" height="56" fill="white" transform="translate(272)"/>
</clipPath>
<clipPath id="clip1_224_6002">
<rect width="260" height="56" fill="white" transform="matrix(-1 0 0 -1 260 56)"/>
</clipPath>
</defs>
</svg>
