<svg width="532" height="60" viewBox="0 0 532 60" fill="none" xmlns="http://www.w3.org/2000/svg">
<g opacity="0.1" clip-path="url(#clip0_228_6013)">
<path d="M431.215 46.9601L426.501 51.6756L421.785 46.9601L426.501 42.2446L431.215 46.9601Z" fill="white"/>
<path d="M431.091 57.2944L426.5 61.8862L421.909 57.2944L426.5 52.7026L431.091 57.2944Z" fill="white"/>
<path d="M436.32 52.1273L431.667 56.7809L427.014 52.1273L431.667 47.4736L436.32 52.1273Z" fill="white"/>
<path d="M441.548 46.9601L436.833 51.6756L432.118 46.9601L436.833 42.2446L441.548 46.9601Z" fill="white"/>
<path d="M435.931 41.7932L431.667 46.0577L427.402 41.7932L431.667 37.5283L435.931 41.7932Z" fill="white"/>
<path d="M429.997 36.6261L426.5 40.1238L423.003 36.6261L426.5 33.1289L429.997 36.6261Z" fill="white"/>
<path d="M425.592 41.7935L421.334 46.0519L417.076 41.7935L421.334 37.5347L425.592 41.7935Z" fill="white"/>
<path d="M420.882 46.9601L416.167 51.6756L411.452 46.9601L416.167 42.2446L420.882 46.9601Z" fill="white"/>
<path d="M425.987 52.1273L421.334 56.7809L416.681 52.1273L421.334 47.4736L425.987 52.1273Z" fill="white"/>
<path d="M436.133 62.4613L431.667 66.9289L427.2 62.4613L431.667 57.9941L436.133 62.4613Z" fill="white"/>
<path d="M441.403 57.294L436.833 61.8649L432.263 57.294L436.833 52.7231L441.403 57.294Z" fill="white"/>
<path d="M446.652 52.1273L441.999 56.7809L437.346 52.1273L441.999 47.4736L446.652 52.1273Z" fill="white"/>
<path d="M451.881 46.9601L447.166 51.6756L442.451 46.9601L447.166 42.2446L451.881 46.9601Z" fill="white"/>
<path d="M446.305 41.7931L441.999 46.0994L437.693 41.7931L441.999 37.4863L446.305 41.7931Z" fill="white"/>
<path d="M440.351 36.626L436.833 40.145L433.314 36.626L436.833 33.1069L440.351 36.626Z" fill="white"/>
<path d="M434.326 31.4591L431.667 34.1188L429.007 31.4591L431.667 28.7993L434.326 31.4591Z" fill="white"/>
<path d="M428.466 26.2917L426.5 28.2577L424.535 26.2917L426.5 24.3257L428.466 26.2917Z" fill="white"/>
<path d="M423.971 31.4587L421.333 34.0957L418.697 31.4587L421.333 28.8218L423.971 31.4587Z" fill="white"/>
<path d="M419.627 36.6255L416.167 40.086L412.707 36.6255L416.167 33.1655L419.627 36.6255Z" fill="white"/>
<path d="M415.202 41.7929L411.001 45.9946L406.8 41.7929L411.001 37.5908L415.202 41.7929Z" fill="white"/>
<path d="M410.529 46.9606L405.835 51.6557L401.14 46.9606L405.835 42.2656L410.529 46.9606Z" fill="white"/>
<path d="M415.654 52.1273L411.001 56.7809L406.348 52.1273L411.001 47.4736L415.654 52.1273Z" fill="white"/>
<path d="M420.758 57.2944L416.167 61.8862L411.576 57.2944L416.167 52.7026L420.758 57.2944Z" fill="white"/>
<path d="M425.801 62.4613L421.334 66.9289L416.867 62.4613L421.334 57.9941L425.801 62.4613Z" fill="white"/>
<path d="M446.446 62.4614L441.999 66.9081L437.554 62.4614L441.999 58.0151L446.446 62.4614Z" fill="white"/>
<path d="M451.722 57.2942L447.166 61.8507L442.61 57.2942L447.166 52.7378L451.722 57.2942Z" fill="white"/>
<path d="M456.985 52.1273L452.332 56.7809L447.679 52.1273L452.332 47.4736L456.985 52.1273Z" fill="white"/>
<path d="M462.172 46.9602L457.499 51.6343L452.825 46.9602L457.499 42.2856L462.172 46.9602Z" fill="white"/>
<path d="M456.736 41.7935L452.332 46.1979L447.928 41.7935L452.332 37.3887L456.736 41.7935Z" fill="white"/>
<path d="M450.771 36.6261L447.166 40.2316L443.561 36.6261L447.166 33.0205L450.771 36.6261Z" fill="white"/>
<path d="M444.704 31.4587L441.999 34.1641L439.294 31.4587L441.999 28.7534L444.704 31.4587Z" fill="white"/>
<path d="M438.823 26.2919L436.833 28.2816L434.843 26.2919L436.833 24.3018L438.823 26.2919Z" fill="white"/>
<path d="M433.114 21.1252L431.667 22.5732L430.218 21.1252L431.667 19.6768L433.114 21.1252Z" fill="white"/>
<path d="M427.458 15.9574L426.5 16.9153L425.542 15.9574L426.5 15L427.458 15.9574Z" fill="white"/>
<path d="M422.782 21.1252L421.334 22.5732L419.886 21.1252L421.334 19.6768L422.782 21.1252Z" fill="white"/>
<path d="M418.109 26.2919L416.167 28.2337L414.226 26.2919L416.167 24.3501L418.109 26.2919Z" fill="white"/>
<path d="M413.576 31.4589L411.001 34.0345L408.426 31.4589L411.001 28.8838L413.576 31.4589Z" fill="white"/>
<path d="M409.2 36.6258L405.834 39.9923L402.468 36.6258L405.834 33.2593L409.2 36.6258Z" fill="white"/>
<path d="M404.779 41.7936L400.668 45.9046L396.557 41.7936L400.668 37.6821L404.779 41.7936Z" fill="white"/>
<path d="M400.113 46.9604L395.501 51.5726L390.89 46.9604L395.501 42.3477L400.113 46.9604Z" fill="white"/>
<path d="M405.321 52.1273L400.668 56.7809L396.015 52.1273L400.668 47.4736L405.321 52.1273Z" fill="white"/>
<path d="M410.426 57.2944L405.834 61.8862L401.243 57.2944L405.834 52.7026L410.426 57.2944Z" fill="white"/>
<path d="M415.467 62.4613L411.001 66.9289L406.534 62.4613L411.001 57.9941L415.467 62.4613Z" fill="white"/>
<path d="M456.764 62.4611L452.333 66.893L447.901 62.4611L452.333 58.0293L456.764 62.4611Z" fill="white"/>
<path d="M462.028 57.2941L457.499 61.8236L452.97 57.2941L457.499 52.7646L462.028 57.2941Z" fill="white"/>
<path d="M467.297 52.1273L462.665 56.7605L458.032 52.1273L462.665 47.4941L467.297 52.1273Z" fill="white"/>
<path d="M472.484 46.9603L467.831 51.6139L463.178 46.9603L467.831 42.3066L472.484 46.9603Z" fill="white"/>
<path d="M467.194 41.7936L462.665 46.3231L458.136 41.7936L462.665 37.2637L467.194 41.7936Z" fill="white"/>
<path d="M461.255 36.6263L457.499 40.3825L453.743 36.6263L457.499 32.8701L461.255 36.6263Z" fill="white"/>
<path d="M455.151 31.4589L452.333 34.2777L449.514 31.4589L452.333 28.6406L455.151 31.4589Z" fill="white"/>
<path d="M449.203 26.292L447.165 28.3296L445.128 26.292L447.165 24.2539L449.203 26.292Z" fill="white"/>
<path d="M443.473 21.1254L441.999 22.599L440.526 21.1254L441.999 19.6519L443.473 21.1254Z" fill="white"/>
<path d="M437.818 15.9575L436.833 16.9428L435.848 15.9575L436.833 14.9727L437.818 15.9575Z" fill="white"/>
<path d="M432.226 10.7909L431.667 11.3498L431.108 10.7909L431.667 10.2319L432.226 10.7909Z" fill="white"/>
<path d="M426.715 5.62354L426.5 5.83837L426.286 5.62354L426.5 5.40918L426.715 5.62354Z" fill="white"/>
<path d="M421.892 10.7909L421.333 11.3498L420.774 10.7909L421.333 10.2319L421.892 10.7909Z" fill="white"/>
<path d="M417.117 15.9573L416.167 16.9069L415.218 15.9573L416.167 15.0083L417.117 15.9573Z" fill="white"/>
<path d="M412.406 21.1249L411.001 22.5297L409.596 21.1249L411.001 19.7197L412.406 21.1249Z" fill="white"/>
<path d="M407.721 26.2922L405.834 28.1787L403.948 26.2922L405.834 24.4058L407.721 26.2922Z" fill="white"/>
<path d="M403.121 31.4592L400.668 33.9124L398.215 31.4592L400.668 29.0059L403.121 31.4592Z" fill="white"/>
<path d="M398.692 36.6258L395.501 39.8171L392.311 36.6258L395.501 33.4351L398.692 36.6258Z" fill="white"/>
<path d="M394.261 41.7935L390.335 45.7204L386.409 41.7935L390.335 37.8662L394.261 41.7935Z" fill="white"/>
<path d="M389.635 46.9603L385.169 51.4275L380.702 46.9603L385.169 42.4932L389.635 46.9603Z" fill="white"/>
<path d="M395.009 52.1272L390.335 56.8013L385.662 52.1272L390.335 47.4526L395.009 52.1272Z" fill="white"/>
<path d="M400.113 57.2944L395.501 61.9066L390.89 57.2944L395.501 52.6821L400.113 57.2944Z" fill="white"/>
<path d="M405.155 62.4617L400.668 66.9498L396.181 62.4617L400.668 57.9741L405.155 62.4617Z" fill="white"/>
<path d="M467.075 62.4612L462.665 66.8726L458.254 62.4612L462.665 58.0503L467.075 62.4612Z" fill="white"/>
<path d="M472.34 57.2947L467.831 61.8037L463.323 57.2947L467.831 52.7861L472.34 57.2947Z" fill="white"/>
<path d="M477.61 52.1274L472.997 56.7396L468.386 52.1274L472.997 47.5151L477.61 52.1274Z" fill="white"/>
<path d="M482.818 46.9603L478.165 51.6139L473.512 46.9603L478.165 42.3066L482.818 46.9603Z" fill="white"/>
<path d="M477.692 41.7932L472.998 46.4877L468.304 41.7932L472.998 37.0981L477.692 41.7932Z" fill="white"/>
<path d="M471.801 36.6259L467.831 40.5955L463.863 36.6259L467.831 32.6567L471.801 36.6259Z" fill="white"/>
<path d="M465.662 31.4587L462.665 34.4565L459.667 31.4587L462.665 28.4609L465.662 31.4587Z" fill="white"/>
<path d="M459.624 26.292L457.499 28.4179L455.373 26.292L457.499 24.166L459.624 26.292Z" fill="white"/>
<path d="M453.873 21.1249L452.332 22.6664L450.791 21.1249L452.332 19.583L453.873 21.1249Z" fill="white"/>
<path d="M448.178 15.9576L447.166 16.9699L446.154 15.9576L447.166 14.9458L448.178 15.9576Z" fill="white"/>
<path d="M442.588 10.7903L441.999 11.3795L441.41 10.7903L441.999 10.2017L442.588 10.7903Z" fill="white"/>
<path d="M437.048 5.62354L436.833 5.83837L436.618 5.62354L436.833 5.40918L437.048 5.62354Z" fill="white"/>
<path d="M416.371 5.62357L416.167 5.8277L415.963 5.62357L416.167 5.41943L416.371 5.62357Z" fill="white"/>
<path d="M411.529 10.7904L411.001 11.3196L410.472 10.7904L411.001 10.2617L411.529 10.7904Z" fill="white"/>
<path d="M406.718 15.9572L405.835 16.8407L404.951 15.9572L405.835 15.0742L406.718 15.9572Z" fill="white"/>
<path d="M401.988 21.1248L400.668 22.4449L399.348 21.1248L400.668 19.8042L401.988 21.1248Z" fill="white"/>
<path d="M397.273 26.2921L395.501 28.0642L393.73 26.2921L395.501 24.52L397.273 26.2921Z" fill="white"/>
<path d="M392.609 31.4588L390.335 33.7331L388.061 31.4588L390.335 29.1846L392.609 31.4588Z" fill="white"/>
<path d="M388.099 36.6262L385.169 39.557L382.238 36.6262L385.169 33.6953L388.099 36.6262Z" fill="white"/>
<path d="M383.657 41.7935L380.002 45.4483L376.348 41.7935L380.002 38.1382L383.657 41.7935Z" fill="white"/>
<path d="M379.073 46.9606L374.836 51.1981L370.599 46.9606L374.836 42.7231L379.073 46.9606Z" fill="white"/>
<path d="M384.717 52.1276L380.002 56.8431L375.288 52.1276L380.002 47.4121L384.717 52.1276Z" fill="white"/>
<path d="M389.801 57.2943L385.169 61.9275L380.536 57.2943L385.169 52.6611L389.801 57.2943Z" fill="white"/>
<path d="M394.844 62.4612L390.335 66.9702L385.827 62.4612L390.335 57.9526L394.844 62.4612Z" fill="white"/>
<path d="M477.366 62.4613L472.997 66.8309L468.629 62.4613L472.997 58.0923L477.366 62.4613Z" fill="white"/>
<path d="M482.61 57.2944L478.164 61.7411L473.718 57.2944L478.164 52.8481L482.61 57.2944Z" fill="white"/>
<path d="M487.86 52.1271L483.331 56.6566L478.802 52.1271L483.331 47.5977L487.86 52.1271Z" fill="white"/>
<path d="M493.129 46.9603L488.497 51.593L483.864 46.9603L488.497 42.3271L493.129 46.9603Z" fill="white"/>
<path d="M488.025 41.7932L483.331 46.4877L478.636 41.7932L483.331 37.0981L488.025 41.7932Z" fill="white"/>
<path d="M482.402 36.6261L478.165 40.8636L473.928 36.6261L478.165 32.3887L482.402 36.6261Z" fill="white"/>
<path d="M476.298 31.4592L472.997 34.7601L469.697 31.4592L472.997 28.1582L476.298 31.4592Z" fill="white"/>
<path d="M470.105 26.2919L467.831 28.5661L465.557 26.2919L467.831 24.0176L470.105 26.2919Z" fill="white"/>
<path d="M464.289 21.1252L462.665 22.7489L461.041 21.1252L462.665 19.501L464.289 21.1252Z" fill="white"/>
<path d="M458.564 15.9574L457.499 17.0231L456.433 15.9574L457.499 14.8921L458.564 15.9574Z" fill="white"/>
<path d="M452.951 10.7903L452.332 11.4088L451.714 10.7903L452.332 10.1719L452.951 10.7903Z" fill="white"/>
<path d="M447.405 5.62377L447.166 5.86324L446.927 5.62377L447.166 5.38477L447.405 5.62377Z" fill="white"/>
<path d="M406.002 5.62346L405.834 5.79085L405.667 5.62346L405.834 5.45605L406.002 5.62346Z" fill="white"/>
<path d="M401.135 10.7906L400.668 11.2583L400.2 10.7906L400.668 10.3232L401.135 10.7906Z" fill="white"/>
<path d="M396.293 15.9575L395.501 16.7489L394.71 15.9575L395.501 15.1665L396.293 15.9575Z" fill="white"/>
<path d="M391.525 21.1249L390.335 22.3153L389.145 21.1249L390.335 19.9346L391.525 21.1249Z" fill="white"/>
<path d="M386.743 26.2923L385.169 27.8663L383.595 26.2923L385.169 24.7183L386.743 26.2923Z" fill="white"/>
<path d="M382.056 31.4591L380.002 33.5139L377.948 31.4591L380.002 29.4048L382.056 31.4591Z" fill="white"/>
<path d="M377.388 36.6261L374.836 39.1784L372.284 36.6261L374.836 34.0737L377.388 36.6261Z" fill="white"/>
<path d="M372.926 41.7934L369.669 45.0502L366.413 41.7934L369.669 38.5361L372.926 41.7934Z" fill="white"/>
<path d="M368.359 46.9606L364.503 50.8173L360.647 46.9606L364.503 43.104L368.359 46.9606Z" fill="white"/>
<path d="M374.343 52.1272L369.669 56.8013L364.996 52.1272L369.669 47.4526L374.343 52.1272Z" fill="white"/>
<path d="M379.489 57.2943L374.836 61.9479L370.183 57.2943L374.836 52.6406L379.489 57.2943Z" fill="white"/>
<path d="M384.537 62.4613L380.002 66.9973L375.467 62.4613L380.002 57.9258L384.537 62.4613Z" fill="white"/>
<path d="M487.609 62.4614L483.331 66.7412L479.052 62.4614L483.331 58.1821L487.609 62.4614Z" fill="white"/>
<path d="M492.901 57.2945L488.497 61.6994L484.093 57.2945L488.497 52.8896L492.901 57.2945Z" fill="white"/>
<path d="M498.13 52.1273L493.663 56.5945L489.197 52.1273L493.663 47.6602L498.13 52.1273Z" fill="white"/>
<path d="M503.38 46.9601L498.831 51.51L494.281 46.9601L498.831 42.4097L503.38 46.9601Z" fill="white"/>
<path d="M498.316 41.7932L493.663 46.4469L489.01 41.7932L493.663 37.1392L498.316 41.7932Z" fill="white"/>
<path d="M493.026 36.6257L488.497 41.1551L483.968 36.6257L488.497 32.0962L493.026 36.6257Z" fill="white"/>
<path d="M487.001 31.4592L483.331 35.1294L479.661 31.4592L483.331 27.7891L487.001 31.4592Z" fill="white"/>
<path d="M480.71 26.2919L478.165 28.8373L475.619 26.2919L478.165 23.7466L480.71 26.2919Z" fill="white"/>
<path d="M474.794 21.1249L472.998 22.9211L471.202 21.1249L472.998 19.3281L474.794 21.1249Z" fill="white"/>
<path d="M468.977 15.9573L467.831 17.103L466.686 15.9573L467.831 14.812L468.977 15.9573Z" fill="white"/>
<path d="M463.342 10.7908L462.665 11.4678L461.988 10.7908L462.665 10.1143L463.342 10.7908Z" fill="white"/>
<path d="M457.748 5.62372L457.499 5.87342L457.249 5.62372L457.499 5.37402L457.748 5.62372Z" fill="white"/>
<path d="M395.603 5.62332L395.501 5.72515L395.399 5.62332L395.501 5.52148L395.603 5.62332Z" fill="white"/>
<path d="M390.708 10.7904L390.335 11.1633L389.962 10.7904L390.335 10.4175L390.708 10.7904Z" fill="white"/>
<path d="M385.816 15.9573L385.169 16.6055L384.521 15.9573L385.169 15.3096L385.816 15.9573Z" fill="white"/>
<path d="M381.014 21.1251L380.002 22.1369L378.99 21.1251L380.002 20.1128L381.014 21.1251Z" fill="white"/>
<path d="M376.19 26.292L374.836 27.6456L373.482 26.292L374.836 24.938L376.19 26.292Z" fill="white"/>
<path d="M371.441 31.4591L369.669 33.2312L367.898 31.4591L369.669 29.687L371.441 31.4591Z" fill="white"/>
<path d="M366.676 36.626L364.503 38.7994L362.33 36.626L364.503 34.4531L366.676 36.626Z" fill="white"/>
<path d="M362.042 41.7937L359.337 44.499L356.632 41.7937L359.337 39.0879L362.042 41.7937Z" fill="white"/>
<path d="M357.449 46.9603L354.17 50.2389L350.892 46.9603L354.17 43.6812L357.449 46.9603Z" fill="white"/>
<path d="M363.685 52.1274L359.337 56.476L354.989 52.1274L359.337 47.7788L363.685 52.1274Z" fill="white"/>
<path d="M369.177 57.2942L364.503 61.9688L359.83 57.2942L364.503 52.6201L369.177 57.2942Z" fill="white"/>
<path d="M374.281 62.4614L369.669 67.0741L365.058 62.4614L369.669 57.8491L374.281 62.4614Z" fill="white"/>
<path d="M497.865 62.4614L493.664 66.6636L489.462 62.4614L493.664 58.2598L497.865 62.4614Z" fill="white"/>
<path d="M503.109 57.2945L498.83 61.5738L494.551 57.2945L498.83 53.0151L503.109 57.2945Z" fill="white"/>
<path d="M508.386 52.1273L503.997 56.5173L499.607 52.1273L503.997 47.7373L508.386 52.1273Z" fill="white"/>
<path d="M513.608 46.9604L509.162 51.4066L504.716 46.9604L509.162 42.5137L513.608 46.9604Z" fill="white"/>
<path d="M508.628 41.7933L503.996 46.426L499.364 41.7933L503.996 37.1602L508.628 41.7933Z" fill="white"/>
<path d="M503.545 36.6256L498.83 41.3411L494.115 36.6256L498.83 31.9102L503.545 36.6256Z" fill="white"/>
<path d="M497.774 31.4586L493.663 35.5701L489.553 31.4586L493.663 27.3477L497.774 31.4586Z" fill="white"/>
<path d="M491.472 26.2919L488.497 29.2674L485.522 26.2919L488.497 23.3164L491.472 26.2919Z" fill="white"/>
<path d="M485.338 21.1251L483.331 23.1315L481.324 21.1251L483.331 19.1182L485.338 21.1251Z" fill="white"/>
<path d="M479.466 15.9572L478.164 17.2597L476.862 15.9572L478.164 14.6553L479.466 15.9572Z" fill="white"/>
<path d="M473.761 10.7904L472.998 11.5534L472.235 10.7904L472.998 10.0273L473.761 10.7904Z" fill="white"/>
<path d="M468.139 5.62328L467.831 5.93063L467.524 5.62328L467.831 5.31592L468.139 5.62328Z" fill="white"/>
<path d="M380.217 10.7905L380.002 11.0054L379.788 10.7905L380.002 10.5762L380.217 10.7905Z" fill="white"/>
<path d="M375.313 15.9576L374.836 16.4347L374.359 15.9576L374.836 15.481L375.313 15.9576Z" fill="white"/>
<path d="M370.432 21.1249L369.669 21.8879L368.906 21.1249L369.669 20.3618L370.432 21.1249Z" fill="white"/>
<path d="M365.587 26.2919L364.503 27.3762L363.419 26.2919L364.503 25.2075L365.587 26.2919Z" fill="white"/>
<path d="M360.759 31.459L359.337 32.8819L357.914 31.459L359.337 30.0361L360.759 31.459Z" fill="white"/>
<path d="M355.918 36.6259L354.171 38.3733L352.423 36.6259L354.171 34.8784L355.918 36.6259Z" fill="white"/>
<path d="M351.105 41.7936L349.003 43.8954L346.902 41.7936L349.003 39.6914L351.105 41.7936Z" fill="white"/>
<path d="M346.337 46.9602L343.837 49.4596L341.338 46.9602L343.837 44.4604L346.337 46.9602Z" fill="white"/>
<path d="M352.817 52.1273L349.003 55.9412L345.19 52.1273L349.003 48.3135L352.817 52.1273Z" fill="white"/>
<path d="M358.864 57.2946L354.17 61.9896L349.476 57.2946L354.17 52.5996L358.864 57.2946Z" fill="white"/>
<path d="M363.99 62.4612L359.337 67.1153L354.684 62.4612L359.337 57.8076L363.99 62.4612Z" fill="white"/>
<path d="M508.071 62.4614L503.997 66.5371L499.921 62.4614L503.997 58.3862L508.071 62.4614Z" fill="white"/>
<path d="M513.322 57.2946L509.163 61.4544L505.003 57.2946L509.163 53.1348L513.322 57.2946Z" fill="white"/>
<path d="M518.551 52.1274L514.329 56.3499L510.107 52.1274L514.329 47.9048L518.551 52.1274Z" fill="white"/>
<path d="M523.781 46.9601L519.495 51.2455L515.21 46.9601L519.495 42.6743L523.781 46.9601Z" fill="white"/>
<path d="M518.816 41.7933L514.329 46.2809L509.841 41.7933L514.329 37.3052L518.816 41.7933Z" fill="white"/>
<path d="M513.816 36.6258L509.163 41.2794L504.51 36.6258L509.163 31.9722L513.816 36.6258Z" fill="white"/>
<path d="M508.567 31.459L503.997 36.0299L499.426 31.459L503.997 26.8882L508.567 31.459Z" fill="white"/>
<path d="M502.392 26.2918L498.83 29.8541L495.268 26.2918L498.83 22.7295L502.392 26.2918Z" fill="white"/>
<path d="M496.007 21.1252L493.663 23.4693L491.319 21.1252L493.663 18.7808L496.007 21.1252Z" fill="white"/>
<path d="M490.021 15.9579L488.497 17.4821L486.974 15.9579L488.497 14.4341L490.021 15.9579Z" fill="white"/>
<path d="M484.234 10.7907L483.331 11.6937L482.428 10.7907L483.331 9.88818L484.234 10.7907Z" fill="white"/>
<path d="M478.547 5.62341L478.164 6.0061L477.782 5.62341L478.164 5.24072L478.547 5.62341Z" fill="white"/>
<path d="M473.008 0.456774L472.998 0.466765L472.988 0.456774L472.998 0.446777L473.008 0.456774Z" fill="white"/>
<path d="M369.729 10.7905L369.669 10.85L369.61 10.7905L369.669 10.731L369.729 10.7905Z" fill="white"/>
<path d="M364.786 15.9575L364.503 16.2416L364.219 15.9575L364.503 15.6738L364.786 15.9575Z" fill="white"/>
<path d="M359.835 21.1249L359.336 21.6229L358.838 21.1249L359.336 20.6265L359.835 21.1249Z" fill="white"/>
<path d="M354.933 26.2919L354.17 27.0549L353.407 26.2919L354.17 25.5288L354.933 26.2919Z" fill="white"/>
<path d="M350.016 31.4591L349.003 32.4709L347.992 31.4591L349.003 30.4473L350.016 31.4591Z" fill="white"/>
<path d="M345.106 36.6259L343.837 37.8949L342.569 36.6259L343.837 35.3574L345.106 36.6259Z" fill="white"/>
<path d="M340.219 41.7935L338.671 43.3424L337.122 41.7935L338.671 40.2441L340.219 41.7935Z" fill="white"/>
<path d="M335.276 46.9606L333.504 48.7322L331.732 46.9606L333.504 45.1885L335.276 46.9606Z" fill="white"/>
<path d="M341.64 52.1272L338.671 55.0961L335.703 52.1272L338.671 49.1582L341.64 52.1272Z" fill="white"/>
<path d="M348.053 57.2942L343.837 61.5107L339.621 57.2942L343.837 53.0776L348.053 57.2942Z" fill="white"/>
<path d="M353.678 62.4612L349.004 67.1357L344.33 62.4612L349.004 57.7871L353.678 62.4612Z" fill="white"/>
<path d="M518.213 62.4612L514.329 66.3457L510.445 62.4612L514.329 58.5771L518.213 62.4612Z" fill="white"/>
<path d="M523.443 57.2944L519.496 61.2427L515.548 57.2944L519.496 53.3462L523.443 57.2944Z" fill="white"/>
<path d="M528.701 52.1273L524.662 56.1666L520.624 52.1273L524.662 48.0879L528.701 52.1273Z" fill="white"/>
<path d="M533.931 46.96L529.829 51.0626L525.726 46.96L529.829 42.8569L533.931 46.96Z" fill="white"/>
<path d="M529.025 41.7932L524.662 46.1562L520.299 41.7932L524.662 37.4297L529.025 41.7932Z" fill="white"/>
<path d="M524.045 36.6261L519.496 41.1765L514.946 36.6261L519.496 32.0762L524.045 36.6261Z" fill="white"/>
<path d="M519.003 31.4588L514.329 36.1333L509.656 31.4588L514.329 26.7847L519.003 31.4588Z" fill="white"/>
<path d="M513.379 26.2917L509.163 30.5083L504.947 26.2917L509.163 22.0752L513.379 26.2917Z" fill="white"/>
<path d="M506.994 21.1247L503.996 24.1225L500.999 21.1247L503.996 18.1265L506.994 21.1247Z" fill="white"/>
<path d="M500.692 15.9575L498.83 17.8198L496.968 15.9575L498.83 14.0957L500.692 15.9575Z" fill="white"/>
<path d="M494.782 10.7906L493.663 11.9099L492.544 10.7906L493.663 9.67188L494.782 10.7906Z" fill="white"/>
<path d="M489.022 5.62359L488.497 6.14902L487.972 5.62359L488.497 5.09814L489.022 5.62359Z" fill="white"/>
<path d="M483.42 0.456445L483.331 0.54572L483.241 0.456445L483.331 0.366699L483.42 0.456445Z" fill="white"/>
<path d="M354.23 15.9575L354.17 16.017L354.111 15.9575L354.17 15.8984L354.23 15.9575Z" fill="white"/>
<path d="M349.218 21.1245L349.003 21.3389L348.789 21.1245L349.003 20.9097L349.218 21.1245Z" fill="white"/>
<path d="M344.243 26.2917L343.838 26.6967L343.433 26.2917L343.838 25.8867L344.243 26.2917Z" fill="white"/>
<path d="M339.259 31.4588L338.671 32.0475L338.082 31.4588L338.671 30.8701L339.259 31.4588Z" fill="white"/>
<path d="M334.268 36.6258L333.505 37.3889L332.742 36.6258L333.505 35.8628L334.268 36.6258Z" fill="white"/>
<path d="M329.268 41.7932L328.338 42.7232L327.408 41.7932L328.338 40.8628L329.268 41.7932Z" fill="white"/>
<path d="M324.237 46.9603L323.172 48.026L322.106 46.9603L323.172 45.8945L324.237 46.9603Z" fill="white"/>
<path d="M330.328 52.1274L328.338 54.1171L326.348 52.1274L328.338 50.1372L330.328 52.1274Z" fill="white"/>
<path d="M336.877 57.2944L333.504 60.6675L330.132 57.2944L333.504 53.9214L336.877 57.2944Z" fill="white"/>
<path d="M343.2 62.4611L338.671 66.9911L334.142 62.4611L338.671 57.9316L343.2 62.4611Z" fill="white"/>
<path d="M528.338 62.4613L524.663 66.138L520.986 62.4613L524.663 58.7847L528.338 62.4613Z" fill="white"/>
<path d="M533.584 57.2943L529.828 61.0505L526.073 57.2943L529.828 53.5381L533.584 57.2943Z" fill="white"/>
<path d="M538.793 52.1271L534.995 55.9261L531.196 52.1271L534.995 48.3281L538.793 52.1271Z" fill="white"/>
<path d="M539.133 41.7937L534.995 45.9321L530.857 41.7937L534.995 37.6548L539.133 41.7937Z" fill="white"/>
<path d="M534.239 36.6262L529.829 41.0376L525.418 36.6262L529.829 32.2153L534.239 36.6262Z" fill="white"/>
<path d="M529.274 31.4589L524.662 36.0712L520.05 31.4589L524.662 26.8467L529.274 31.4589Z" fill="white"/>
<path d="M524.211 26.2921L519.496 31.0076L514.781 26.2921L519.496 21.5767L524.211 26.2921Z" fill="white"/>
<path d="M518.17 21.125L514.329 24.9667L510.488 21.125L514.329 17.2832L518.17 21.125Z" fill="white"/>
<path d="M511.576 15.9572L509.163 18.3715L506.749 15.9572L509.163 13.5435L511.576 15.9572Z" fill="white"/>
<path d="M505.444 10.7908L503.997 12.2392L502.548 10.7908L503.997 9.34277L505.444 10.7908Z" fill="white"/>
<path d="M499.564 5.62387L498.83 6.35855L498.096 5.62387L498.83 4.88965L499.564 5.62387Z" fill="white"/>
<path d="M493.868 0.456573L493.664 0.66024L493.46 0.456573L493.664 0.252441L493.868 0.456573Z" fill="white"/>
<path d="M333.564 26.2919L333.505 26.3515L333.445 26.2919L333.505 26.2324L333.564 26.2919Z" fill="white"/>
<path d="M328.517 31.4588L328.338 31.6374L328.16 31.4588L328.338 31.2803L328.517 31.4588Z" fill="white"/>
<path d="M323.445 36.626L323.171 36.8998L322.898 36.626L323.171 36.3525L323.445 36.626Z" fill="white"/>
<path d="M318.345 41.7935L318.005 42.1338L317.665 41.7935L318.005 41.4526L318.345 41.7935Z" fill="white"/>
<path d="M313.221 46.9603L312.839 47.3425L312.456 46.9603L312.839 46.5776L313.221 46.9603Z" fill="white"/>
<path d="M319.143 52.1276L318.005 53.2654L316.868 52.1276L318.005 50.9897L319.143 52.1276Z" fill="white"/>
<path d="M325.351 57.2946L323.171 59.4749L320.992 57.2946L323.171 55.1143L325.351 57.2946Z" fill="white"/>
<path d="M331.986 62.4613L328.338 66.1101L324.69 62.4613L328.338 58.813L331.986 62.4613Z" fill="white"/>
<path d="M538.427 62.4614L534.995 65.8935L531.563 62.4614L534.995 59.0293L538.427 62.4614Z" fill="white"/>
<path d="M539.42 31.459L534.995 35.8848L530.57 31.459L534.995 27.0332L539.42 31.459Z" fill="white"/>
<path d="M534.461 26.2919L529.828 30.925L525.196 26.2919L529.828 21.6587L534.461 26.2919Z" fill="white"/>
<path d="M529.294 21.1249L524.662 25.7576L520.03 21.1249L524.662 16.4917L529.294 21.1249Z" fill="white"/>
<path d="M522.927 15.9575L519.495 19.3896L516.063 15.9575L519.495 12.5259L522.927 15.9575Z" fill="white"/>
<path d="M516.312 10.7903L514.329 12.7731L512.347 10.7903L514.329 8.80762L516.312 10.7903Z" fill="white"/>
<path d="M510.228 5.62338L509.163 6.68914L508.097 5.62338L509.163 4.55762L510.228 5.62338Z" fill="white"/>
<path d="M504.401 0.456769L503.996 0.861774L503.591 0.456769L503.996 0.0517578L504.401 0.456769Z" fill="white"/>
<path d="M308.054 52.1273L307.672 52.51L307.29 52.1273L307.672 51.7446L308.054 52.1273Z" fill="white"/>
<path d="M314.055 57.294L312.838 58.5105L311.622 57.294L312.838 56.0776L314.055 57.294Z" fill="white"/>
<path d="M539.648 21.1248L534.995 25.7785L530.342 21.1248L534.995 16.4712L539.648 21.1248Z" fill="white"/>
<path d="M534.295 15.9574L529.828 20.425L525.362 15.9574L529.828 11.4902L534.295 15.9574Z" fill="white"/>
<path d="M527.742 10.7906L524.662 13.8711L521.582 10.7906L524.662 7.71045L527.742 10.7906Z" fill="white"/>
<path d="M521.12 5.62326L519.496 7.24747L517.872 5.62326L519.496 3.99951L521.12 5.62326Z" fill="white"/>
<path d="M515.064 0.456368L514.329 1.19059L513.595 0.456368L514.329 -0.27832L515.064 0.456368Z" fill="white"/>
<path d="M302.846 57.2945L302.506 57.6349L302.165 57.2945L302.506 56.9541L302.846 57.2945Z" fill="white"/>
<path d="M539.358 10.7908L534.995 15.1538L530.633 10.7908L534.995 6.42773L539.358 10.7908Z" fill="white"/>
<path d="M532.601 5.62379L529.828 8.397L527.055 5.62379L529.828 2.85059L532.601 5.62379Z" fill="white"/>
<path d="M525.99 0.456436L524.662 1.78445L523.334 0.456436L524.662 -0.871582L525.99 0.456436Z" fill="white"/>
</g>
<g opacity="0.1" clip-path="url(#clip1_228_6013)">
<path d="M100.785 13.9955L105.499 9.28L110.215 13.9955L105.499 18.7109L100.785 13.9955Z" fill="white"/>
<path d="M100.909 3.66114L105.5 -0.930647L110.091 3.66114L105.5 8.25293L100.909 3.66114Z" fill="white"/>
<path d="M95.6802 8.82782L100.333 4.17419L104.986 8.82782L100.333 13.4814L95.6802 8.82782Z" fill="white"/>
<path d="M90.4521 13.9955L95.167 9.28L99.8818 13.9955L95.167 18.7109L90.4521 13.9955Z" fill="white"/>
<path d="M96.0694 19.1623L100.333 14.8979L104.598 19.1623L100.333 23.4272L96.0694 19.1623Z" fill="white"/>
<path d="M102.003 24.3295L105.5 20.8318L108.997 24.3295L105.5 27.8267L102.003 24.3295Z" fill="white"/>
<path d="M106.408 19.1621L110.666 14.9037L114.924 19.1621L110.666 23.4209L106.408 19.1621Z" fill="white"/>
<path d="M111.118 13.9955L115.833 9.28L120.548 13.9955L115.833 18.7109L111.118 13.9955Z" fill="white"/>
<path d="M106.013 8.82782L110.666 4.17419L115.319 8.82782L110.666 13.4814L106.013 8.82782Z" fill="white"/>
<path d="M95.8666 -1.50574L100.333 -5.97338L104.8 -1.50574L100.333 2.96143L95.8666 -1.50574Z" fill="white"/>
<path d="M90.5967 3.66156L95.167 -0.909309L99.7373 3.66156L95.167 8.23242L90.5967 3.66156Z" fill="white"/>
<path d="M85.3477 8.82782L90.0008 4.17419L94.6538 8.82782L90.0008 13.4814L85.3477 8.82782Z" fill="white"/>
<path d="M80.1191 13.9955L84.8344 9.28L89.5493 13.9955L84.8344 18.7109L80.1191 13.9955Z" fill="white"/>
<path d="M85.6947 19.1625L90.0009 14.8562L94.3071 19.1625L90.0009 23.4692L85.6947 19.1625Z" fill="white"/>
<path d="M91.6488 24.3296L95.1674 20.8105L98.686 24.3296L95.1674 27.8486L91.6488 24.3296Z" fill="white"/>
<path d="M97.6739 29.4965L100.333 26.8367L102.993 29.4965L100.333 32.1562L97.6739 29.4965Z" fill="white"/>
<path d="M103.534 34.6639L105.5 32.6979L107.465 34.6639L105.5 36.6299L103.534 34.6639Z" fill="white"/>
<path d="M108.029 29.4968L110.667 26.8599L113.303 29.4968L110.667 32.1338L108.029 29.4968Z" fill="white"/>
<path d="M112.373 24.33L115.833 20.8696L119.293 24.33L115.833 27.79L112.373 24.33Z" fill="white"/>
<path d="M116.798 19.1626L120.999 14.961L125.2 19.1626L120.999 23.3647L116.798 19.1626Z" fill="white"/>
<path d="M121.471 13.9949L126.165 9.29991L130.86 13.9949L126.165 18.6899L121.471 13.9949Z" fill="white"/>
<path d="M116.346 8.82782L120.999 4.17419L125.652 8.82782L120.999 13.4814L116.346 8.82782Z" fill="white"/>
<path d="M111.242 3.66114L115.833 -0.930647L120.424 3.66114L115.833 8.25293L111.242 3.66114Z" fill="white"/>
<path d="M106.199 -1.50574L110.666 -5.97338L115.133 -1.50574L110.666 2.96143L106.199 -1.50574Z" fill="white"/>
<path d="M85.5545 -1.50581L90.0006 -5.95253L94.4463 -1.50581L90.0006 2.94043L85.5545 -1.50581Z" fill="white"/>
<path d="M80.2784 3.66132L84.8343 -0.895124L89.3901 3.66132L84.8343 8.21777L80.2784 3.66132Z" fill="white"/>
<path d="M75.0147 8.82782L79.6678 4.17419L84.3208 8.82782L79.6678 13.4814L75.0147 8.82782Z" fill="white"/>
<path d="M69.8278 13.9954L74.5013 9.32127L79.1753 13.9954L74.5013 18.6699L69.8278 13.9954Z" fill="white"/>
<path d="M75.2641 19.162L79.668 14.7576L84.0723 19.162L79.668 23.5669L75.2641 19.162Z" fill="white"/>
<path d="M81.2293 24.3295L84.8344 20.724L88.4395 24.3295L84.8344 27.9351L81.2293 24.3295Z" fill="white"/>
<path d="M87.2956 29.4968L90.0006 26.7915L92.7056 29.4968L90.0006 32.2021L87.2956 29.4968Z" fill="white"/>
<path d="M93.1774 34.6636L95.1673 32.674L97.1572 34.6636L95.1673 36.6538L93.1774 34.6636Z" fill="white"/>
<path d="M98.8857 39.8304L100.333 38.3824L101.782 39.8304L100.333 41.2788L98.8857 39.8304Z" fill="white"/>
<path d="M104.542 44.9981L105.5 44.0403L106.458 44.9981L105.5 45.9556L104.542 44.9981Z" fill="white"/>
<path d="M109.218 39.8304L110.666 38.3824L112.114 39.8304L110.666 41.2788L109.218 39.8304Z" fill="white"/>
<path d="M113.891 34.6637L115.833 32.7219L117.774 34.6637L115.833 36.6055L113.891 34.6637Z" fill="white"/>
<path d="M118.424 29.4967L120.999 26.9211L123.574 29.4967L120.999 32.0718L118.424 29.4967Z" fill="white"/>
<path d="M122.8 24.3298L126.166 20.9632L129.532 24.3298L126.166 27.6963L122.8 24.3298Z" fill="white"/>
<path d="M127.221 19.162L131.332 15.051L135.443 19.162L131.332 23.2734L127.221 19.162Z" fill="white"/>
<path d="M131.887 13.9952L136.499 9.38295L141.11 13.9952L136.499 18.6079L131.887 13.9952Z" fill="white"/>
<path d="M126.679 8.82782L131.332 4.17419L135.985 8.82782L131.332 13.4814L126.679 8.82782Z" fill="white"/>
<path d="M121.574 3.66114L126.166 -0.930647L130.757 3.66114L126.166 8.25293L121.574 3.66114Z" fill="white"/>
<path d="M116.533 -1.50574L120.999 -5.97338L125.466 -1.50574L120.999 2.96143L116.533 -1.50574Z" fill="white"/>
<path d="M75.2361 -1.50555L79.6674 -5.93739L84.0986 -1.50555L79.6674 2.92627L75.2361 -1.50555Z" fill="white"/>
<path d="M69.9725 3.66144L74.5014 -0.868034L79.0303 3.66144L74.5014 8.19092L69.9725 3.66144Z" fill="white"/>
<path d="M64.7026 8.82826L69.3352 4.19508L73.9678 8.82826L69.3352 13.4614L64.7026 8.82826Z" fill="white"/>
<path d="M59.5157 13.9953L64.1687 9.34166L68.8218 13.9953L64.1687 18.6489L59.5157 13.9953Z" fill="white"/>
<path d="M64.806 19.162L69.3349 14.6325L73.8638 19.162L69.3349 23.6919L64.806 19.162Z" fill="white"/>
<path d="M70.7454 24.3292L74.5011 20.573L78.2568 24.3292L74.5011 28.0854L70.7454 24.3292Z" fill="white"/>
<path d="M76.8495 29.4966L79.6674 26.6779L82.4858 29.4966L79.6674 32.3149L76.8495 29.4966Z" fill="white"/>
<path d="M82.7969 34.6636L84.8347 32.626L86.8721 34.6636L84.8347 36.7017L82.7969 34.6636Z" fill="white"/>
<path d="M88.5274 39.8302L90.0008 38.3566L91.4741 39.8302L90.0008 41.3037L88.5274 39.8302Z" fill="white"/>
<path d="M94.1824 44.9981L95.1671 44.0127L96.1519 44.9981L95.1671 45.9829L94.1824 44.9981Z" fill="white"/>
<path d="M99.7744 50.1647L100.333 49.6058L100.892 50.1647L100.333 50.7236L99.7744 50.1647Z" fill="white"/>
<path d="M105.285 55.332L105.5 55.1172L105.714 55.332L105.5 55.5464L105.285 55.332Z" fill="white"/>
<path d="M110.108 50.1647L110.667 49.6058L111.226 50.1647L110.667 50.7236L110.108 50.1647Z" fill="white"/>
<path d="M114.883 44.9982L115.833 44.0487L116.782 44.9982L115.833 45.9473L114.883 44.9982Z" fill="white"/>
<path d="M119.594 39.8306L120.999 38.4259L122.404 39.8306L120.999 41.2358L119.594 39.8306Z" fill="white"/>
<path d="M124.279 34.6633L126.166 32.7769L128.052 34.6633L126.166 36.5498L124.279 34.6633Z" fill="white"/>
<path d="M128.879 29.4964L131.332 27.0431L133.785 29.4964L131.332 31.9497L128.879 29.4964Z" fill="white"/>
<path d="M133.308 24.3297L136.499 21.1385L139.689 24.3297L136.499 27.5205L133.308 24.3297Z" fill="white"/>
<path d="M137.739 19.162L141.665 15.2352L145.591 19.162L141.665 23.0894L137.739 19.162Z" fill="white"/>
<path d="M142.365 13.9952L146.831 9.52806L151.298 13.9952L146.831 18.4624L142.365 13.9952Z" fill="white"/>
<path d="M136.991 8.82838L141.665 4.15429L146.338 8.82838L141.665 13.5029L136.991 8.82838Z" fill="white"/>
<path d="M131.887 3.66119L136.499 -0.951051L141.11 3.66119L136.499 8.27344L131.887 3.66119Z" fill="white"/>
<path d="M126.845 -1.50617L131.332 -5.99427L135.819 -1.50617L131.332 2.98145L126.845 -1.50617Z" fill="white"/>
<path d="M64.9249 -1.50563L69.3353 -5.917L73.7456 -1.50563L69.3353 2.90527L64.9249 -1.50563Z" fill="white"/>
<path d="M59.6603 3.66088L64.1688 -0.848139L68.6768 3.66088L64.1688 8.16943L59.6603 3.66088Z" fill="white"/>
<path d="M54.3905 8.82818L59.0026 4.21593L63.6143 8.82818L59.0026 13.4404L54.3905 8.82818Z" fill="white"/>
<path d="M49.1822 13.9953L53.8352 9.34166L58.4883 13.9953L53.8352 18.6489L49.1822 13.9953Z" fill="white"/>
<path d="M54.3079 19.1624L59.0023 14.4678L63.6963 19.1624L59.0023 23.8574L54.3079 19.1624Z" fill="white"/>
<path d="M60.1994 24.3297L64.1686 20.36L68.1372 24.3297L64.1686 28.2988L60.1994 24.3297Z" fill="white"/>
<path d="M66.3377 29.4968L69.3351 26.499L72.3325 29.4968L69.3351 32.4946L66.3377 29.4968Z" fill="white"/>
<path d="M72.3756 34.6636L74.5013 32.5377L76.627 34.6636L74.5013 36.7896L72.3756 34.6636Z" fill="white"/>
<path d="M78.1265 39.8306L79.6678 38.2892L81.2095 39.8306L79.6678 41.3726L78.1265 39.8306Z" fill="white"/>
<path d="M83.8223 44.9979L84.8345 43.9857L85.8462 44.9979L84.8345 46.0098L83.8223 44.9979Z" fill="white"/>
<path d="M89.4122 50.1652L90.0012 49.5761L90.5898 50.1652L90.0012 50.7539L89.4122 50.1652Z" fill="white"/>
<path d="M94.9522 55.332L95.167 55.1172L95.3818 55.332L95.167 55.5464L94.9522 55.332Z" fill="white"/>
<path d="M115.629 55.332L115.833 55.1279L116.037 55.332L115.833 55.5361L115.629 55.332Z" fill="white"/>
<path d="M120.471 50.1652L120.999 49.636L121.528 50.1652L120.999 50.6938L120.471 50.1652Z" fill="white"/>
<path d="M125.282 44.9983L126.165 44.1148L127.049 44.9983L126.165 45.8813L125.282 44.9983Z" fill="white"/>
<path d="M130.012 39.8308L131.332 38.5107L132.652 39.8308L131.332 41.1514L130.012 39.8308Z" fill="white"/>
<path d="M134.727 34.6635L136.499 32.8914L138.27 34.6635L136.499 36.4355L134.727 34.6635Z" fill="white"/>
<path d="M139.391 29.4967L141.665 27.2224L143.939 29.4967L141.665 31.771L139.391 29.4967Z" fill="white"/>
<path d="M143.901 24.3299L146.831 21.3991L149.762 24.3299L146.831 27.2607L143.901 24.3299Z" fill="white"/>
<path d="M148.343 19.1621L151.998 15.5073L155.652 19.1621L151.998 22.8174L148.343 19.1621Z" fill="white"/>
<path d="M152.927 13.995L157.164 9.75749L161.401 13.995L157.164 18.2324L152.927 13.995Z" fill="white"/>
<path d="M147.283 8.82799L151.998 4.1125L156.712 8.82799L151.998 13.5435L147.283 8.82799Z" fill="white"/>
<path d="M142.199 3.66127L146.831 -0.971901L151.464 3.66127L146.831 8.29443L142.199 3.66127Z" fill="white"/>
<path d="M137.156 -1.50562L141.665 -6.01465L146.173 -1.50562L141.665 3.00293L137.156 -1.50562Z" fill="white"/>
<path d="M54.6336 -1.50577L59.0026 -5.87531L63.3711 -1.50577L59.0026 2.86328L54.6336 -1.50577Z" fill="white"/>
<path d="M49.3899 3.66117L53.8356 -0.785535L58.2817 3.66117L53.8356 8.10742L49.3899 3.66117Z" fill="white"/>
<path d="M44.14 8.82844L48.6688 4.29895L53.1978 8.82844L48.6688 13.3579L44.14 8.82844Z" fill="white"/>
<path d="M38.8706 13.9952L43.5032 9.36254L48.1357 13.9952L43.5032 18.6284L38.8706 13.9952Z" fill="white"/>
<path d="M43.9749 19.1624L48.6693 14.4678L53.3638 19.1624L48.6693 23.8574L43.9749 19.1624Z" fill="white"/>
<path d="M49.5984 24.3294L53.8353 20.092L58.0723 24.3294L53.8353 28.5669L49.5984 24.3294Z" fill="white"/>
<path d="M55.7021 29.4964L59.0026 26.1954L62.3027 29.4964L59.0026 32.7974L55.7021 29.4964Z" fill="white"/>
<path d="M61.8949 34.6637L64.1689 32.3894L66.4429 34.6637L64.1689 36.938L61.8949 34.6637Z" fill="white"/>
<path d="M67.7114 39.8304L69.3354 38.2066L70.959 39.8304L69.3354 41.4546L67.7114 39.8304Z" fill="white"/>
<path d="M73.4356 44.9982L74.5013 43.9324L75.5669 44.9982L74.5013 46.0635L73.4356 44.9982Z" fill="white"/>
<path d="M79.0494 50.1653L79.6678 49.5468L80.2861 50.1653L79.6678 50.7837L79.0494 50.1653Z" fill="white"/>
<path d="M84.5948 55.3318L84.8343 55.0923L85.0732 55.3318L84.8343 55.5708L84.5948 55.3318Z" fill="white"/>
<path d="M125.998 55.3321L126.166 55.1647L126.333 55.3321L126.166 55.4995L125.998 55.3321Z" fill="white"/>
<path d="M130.865 50.165L131.332 49.6972L131.8 50.165L131.332 50.6323L130.865 50.165Z" fill="white"/>
<path d="M135.707 44.9981L136.499 44.2067L137.29 44.9981L136.499 45.7891L135.707 44.9981Z" fill="white"/>
<path d="M140.475 39.8306L141.665 38.6402L142.855 39.8306L141.665 41.021L140.475 39.8306Z" fill="white"/>
<path d="M145.257 34.6633L146.831 33.0893L148.405 34.6633L146.831 36.2373L145.257 34.6633Z" fill="white"/>
<path d="M149.944 29.4964L151.998 27.4417L154.052 29.4964L151.998 31.5508L149.944 29.4964Z" fill="white"/>
<path d="M154.612 24.3295L157.164 21.7772L159.716 24.3295L157.164 26.8818L154.612 24.3295Z" fill="white"/>
<path d="M159.074 19.1622L162.331 15.9054L165.587 19.1622L162.331 22.4194L159.074 19.1622Z" fill="white"/>
<path d="M163.641 13.9949L167.497 10.1383L171.353 13.9949L167.497 17.8516L163.641 13.9949Z" fill="white"/>
<path d="M157.657 8.82838L162.331 4.15429L167.004 8.82838L162.331 13.5029L157.657 8.82838Z" fill="white"/>
<path d="M152.511 3.66131L157.164 -0.992329L161.817 3.66131L157.164 8.31494L152.511 3.66131Z" fill="white"/>
<path d="M147.463 -1.50573L151.998 -6.04172L156.533 -1.50573L151.998 3.02979L147.463 -1.50573Z" fill="white"/>
<path d="M44.3907 -1.50587L48.6695 -5.78565L52.9482 -1.50587L48.6695 2.77344L44.3907 -1.50587Z" fill="white"/>
<path d="M39.0986 3.66106L43.5029 -0.743804L47.9072 3.66106L43.5029 8.06592L39.0986 3.66106Z" fill="white"/>
<path d="M33.87 8.82825L38.3366 4.36107L42.8032 8.82825L38.3366 13.2954L33.87 8.82825Z" fill="white"/>
<path d="M28.6201 13.9955L33.1694 9.44555L37.7192 13.9955L33.1694 18.5459L28.6201 13.9955Z" fill="white"/>
<path d="M33.6837 19.1623L38.3367 14.5087L42.9897 19.1623L38.3367 23.8164L33.6837 19.1623Z" fill="white"/>
<path d="M38.9739 24.3299L43.5028 19.8004L48.0317 24.3299L43.5028 28.8594L38.9739 24.3299Z" fill="white"/>
<path d="M44.9995 29.4963L48.6691 25.8261L52.3389 29.4963L48.6691 33.1665L44.9995 29.4963Z" fill="white"/>
<path d="M51.2903 34.6636L53.8354 32.1183L56.3809 34.6636L53.8354 37.209L51.2903 34.6636Z" fill="white"/>
<path d="M57.2058 39.8307L59.0023 38.0345L60.7983 39.8307L59.0023 41.6274L57.2058 39.8307Z" fill="white"/>
<path d="M63.0232 44.9983L64.1688 43.8525L65.314 44.9983L64.1688 46.1436L63.0232 44.9983Z" fill="white"/>
<path d="M68.6578 50.1647L69.3348 49.4877L70.0117 50.1647L69.3348 50.8413L68.6578 50.1647Z" fill="white"/>
<path d="M74.2516 55.3318L74.5013 55.0821L74.751 55.3318L74.5013 55.5815L74.2516 55.3318Z" fill="white"/>
<path d="M136.397 55.3322L136.499 55.2304L136.601 55.3322L136.499 55.4341L136.397 55.3322Z" fill="white"/>
<path d="M141.292 50.1652L141.665 49.7922L142.038 50.1652L141.665 50.5381L141.292 50.1652Z" fill="white"/>
<path d="M146.184 44.9983L146.831 44.3501L147.479 44.9983L146.831 45.646L146.184 44.9983Z" fill="white"/>
<path d="M150.986 39.8305L151.998 38.8187L153.01 39.8305L151.998 40.8428L150.986 39.8305Z" fill="white"/>
<path d="M155.81 34.6635L157.164 33.3099L158.518 34.6635L157.164 36.0176L155.81 34.6635Z" fill="white"/>
<path d="M160.559 29.4965L162.331 27.7244L164.102 29.4965L162.331 31.2686L160.559 29.4965Z" fill="white"/>
<path d="M165.324 24.3295L167.497 22.1562L169.67 24.3295L167.497 26.5024L165.324 24.3295Z" fill="white"/>
<path d="M169.958 19.1619L172.663 16.4566L175.368 19.1619L172.663 21.8677L169.958 19.1619Z" fill="white"/>
<path d="M174.551 13.9953L177.83 10.7166L181.108 13.9953L177.83 17.2744L174.551 13.9953Z" fill="white"/>
<path d="M168.315 8.82817L172.663 4.47957L177.011 8.82817L172.663 13.1768L168.315 8.82817Z" fill="white"/>
<path d="M162.823 3.66136L167.497 -1.0132L172.17 3.66136L167.497 8.33545L162.823 3.66136Z" fill="white"/>
<path d="M157.719 -1.5058L162.331 -6.11852L166.942 -1.5058L162.331 3.10645L157.719 -1.5058Z" fill="white"/>
<path d="M34.1349 -1.50585L38.3365 -5.70798L42.5376 -1.50585L38.3365 2.6958L34.1349 -1.50585Z" fill="white"/>
<path d="M28.8907 3.66111L33.1695 -0.618201L37.4487 3.66111L33.1695 7.94043L28.8907 3.66111Z" fill="white"/>
<path d="M23.6137 8.82828L28.0032 4.4383L32.3931 8.82828L28.0032 13.2183L23.6137 8.82828Z" fill="white"/>
<path d="M18.3919 13.9952L22.8375 9.54894L27.2837 13.9952L22.8375 18.4419L18.3919 13.9952Z" fill="white"/>
<path d="M23.3715 19.1622L28.0036 14.5295L32.6362 19.1622L28.0036 23.7954L23.3715 19.1622Z" fill="white"/>
<path d="M28.455 24.3299L33.1699 19.6145L37.8853 24.3299L33.1699 29.0454L28.455 24.3299Z" fill="white"/>
<path d="M34.2259 29.4969L38.3368 25.3855L42.4473 29.4969L38.3368 33.6079L34.2259 29.4969Z" fill="white"/>
<path d="M40.5278 34.6637L43.5029 31.6882L46.478 34.6637L43.5029 37.6392L40.5278 34.6637Z" fill="white"/>
<path d="M46.6625 39.8305L48.6691 37.8241L50.6758 39.8305L48.6691 41.8374L46.6625 39.8305Z" fill="white"/>
<path d="M52.5341 44.9983L53.8359 43.6959L55.1382 44.9983L53.8359 46.3003L52.5341 44.9983Z" fill="white"/>
<path d="M58.2392 50.1652L59.0021 49.4021L59.7646 50.1652L59.0021 50.9282L58.2392 50.1652Z" fill="white"/>
<path d="M63.8614 55.3323L64.1688 55.0249L64.4761 55.3323L64.1688 55.6396L63.8614 55.3323Z" fill="white"/>
<path d="M151.783 50.165L151.998 49.9502L152.212 50.165L151.998 50.3794L151.783 50.165Z" fill="white"/>
<path d="M156.687 44.998L157.164 44.5209L157.641 44.998L157.164 45.4746L156.687 44.998Z" fill="white"/>
<path d="M161.568 39.8307L162.331 39.0677L163.094 39.8307L162.331 40.5938L161.568 39.8307Z" fill="white"/>
<path d="M166.413 34.6637L167.497 33.5793L168.581 34.6637L167.497 35.748L166.413 34.6637Z" fill="white"/>
<path d="M171.241 29.4966L172.663 28.0737L174.086 29.4966L172.663 30.9194L171.241 29.4966Z" fill="white"/>
<path d="M176.082 24.3297L177.829 22.5823L179.577 24.3297L177.829 26.0771L176.082 24.3297Z" fill="white"/>
<path d="M180.895 19.1619L182.997 17.0602L185.098 19.1619L182.997 21.2642L180.895 19.1619Z" fill="white"/>
<path d="M185.663 13.9953L188.163 11.496L190.662 13.9953L188.163 16.4951L185.663 13.9953Z" fill="white"/>
<path d="M179.183 8.82824L182.997 5.01438L186.81 8.82824L182.997 12.6421L179.183 8.82824Z" fill="white"/>
<path d="M173.136 3.66094L177.83 -1.03407L182.524 3.66094L177.83 8.35596L173.136 3.66094Z" fill="white"/>
<path d="M168.01 -1.50567L172.663 -6.15978L177.316 -1.50567L172.663 3.14795L168.01 -1.50567Z" fill="white"/>
<path d="M23.9288 -1.50584L28.0035 -5.5815L32.0786 -1.50584L28.0035 2.56934L23.9288 -1.50584Z" fill="white"/>
<path d="M18.678 3.66099L22.8373 -0.498818L26.9966 3.66099L22.8373 7.8208L18.678 3.66099Z" fill="white"/>
<path d="M13.4485 8.8282L17.671 4.60562L21.8931 8.8282L17.671 13.0508L13.4485 8.8282Z" fill="white"/>
<path d="M8.21945 13.9954L12.5048 9.71008L16.7896 13.9954L12.5048 18.2812L8.21945 13.9954Z" fill="white"/>
<path d="M13.1836 19.1623L17.6712 14.6747L22.1587 19.1623L17.6712 23.6504L13.1836 19.1623Z" fill="white"/>
<path d="M18.1841 24.3298L22.8372 19.6761L27.4902 24.3298L22.8372 28.9834L18.1841 24.3298Z" fill="white"/>
<path d="M23.4332 29.4965L28.0035 24.9257L32.5742 29.4965L28.0035 34.0674L23.4332 29.4965Z" fill="white"/>
<path d="M29.6082 34.6633L33.1701 31.101L36.7319 34.6633L33.1701 38.2256L29.6082 34.6633Z" fill="white"/>
<path d="M35.9928 39.8303L38.337 37.4863L40.6807 39.8303L38.337 42.1748L35.9928 39.8303Z" fill="white"/>
<path d="M41.9787 44.9977L43.5028 43.4735L45.0264 44.9977L43.5028 46.5215L41.9787 44.9977Z" fill="white"/>
<path d="M47.7665 50.1648L48.6689 49.2618L49.5718 50.1648L48.6689 51.0674L47.7665 50.1648Z" fill="white"/>
<path d="M53.4535 55.3322L53.8356 54.9495L54.2183 55.3322L53.8356 55.7148L53.4535 55.3322Z" fill="white"/>
<path d="M162.271 50.1651L162.331 50.1056L162.39 50.1651L162.331 50.2246L162.271 50.1651Z" fill="white"/>
<path d="M167.214 44.9981L167.497 44.714L167.781 44.9981L167.497 45.2817L167.214 44.9981Z" fill="white"/>
<path d="M172.165 39.8306L172.664 39.3326L173.162 39.8306L172.664 40.3291L172.165 39.8306Z" fill="white"/>
<path d="M177.067 34.6637L177.83 33.9007L178.593 34.6637L177.83 35.4268L177.067 34.6637Z" fill="white"/>
<path d="M181.984 29.4965L182.997 28.4847L184.008 29.4965L182.997 30.5083L181.984 29.4965Z" fill="white"/>
<path d="M186.894 24.3296L188.163 23.0607L189.431 24.3296L188.163 25.5981L186.894 24.3296Z" fill="white"/>
<path d="M191.781 19.1621L193.329 17.6132L194.878 19.1621L193.329 20.7114L191.781 19.1621Z" fill="white"/>
<path d="M196.724 13.995L198.496 12.2234L200.268 13.995L198.496 15.7671L196.724 13.995Z" fill="white"/>
<path d="M190.36 8.8284L193.329 5.85943L196.297 8.8284L193.329 11.7974L190.36 8.8284Z" fill="white"/>
<path d="M183.947 3.66139L188.163 -0.555144L192.379 3.66139L188.163 7.87793L183.947 3.66139Z" fill="white"/>
<path d="M178.322 -1.50562L182.996 -6.18018L187.67 -1.50562L182.996 3.16846L178.322 -1.50562Z" fill="white"/>
<path d="M13.787 -1.50564L17.6711 -5.39018L21.5547 -1.50564L17.6711 2.37842L13.787 -1.50564Z" fill="white"/>
<path d="M8.55668 3.66114L12.5044 -0.287097L16.4521 3.66114L12.5044 7.60938L8.55668 3.66114Z" fill="white"/>
<path d="M3.29874 8.8283L7.33759 4.78892L11.3765 8.8283L7.33759 12.8677L3.29874 8.8283Z" fill="white"/>
<path d="M-1.93074 13.9956L2.17138 9.89293L6.27393 13.9956L2.17138 18.0986L-1.93074 13.9956Z" fill="white"/>
<path d="M2.97528 19.1624L7.33774 14.7994L11.7007 19.1624L7.33774 23.5259L2.97528 19.1624Z" fill="white"/>
<path d="M7.95452 24.3295L12.5044 19.7791L17.0537 24.3295L12.5044 28.8794L7.95452 24.3295Z" fill="white"/>
<path d="M12.9968 29.4968L17.6707 24.8223L22.3442 29.4968L17.6707 34.1709L12.9968 29.4968Z" fill="white"/>
<path d="M18.6212 34.6638L22.8372 30.4473L27.0532 34.6638L22.8372 38.8804L18.6212 34.6638Z" fill="white"/>
<path d="M25.0062 39.8308L28.0036 36.833L31.0015 39.8308L28.0036 42.8291L25.0062 39.8308Z" fill="white"/>
<path d="M31.3081 44.998L33.1697 43.1358L35.0317 44.998L33.1697 46.8599L31.3081 44.998Z" fill="white"/>
<path d="M37.2178 50.1649L38.3369 49.0457L39.4556 50.1649L38.3369 51.2837L37.2178 50.1649Z" fill="white"/>
<path d="M42.9776 55.332L43.503 54.8065L44.0283 55.332L43.503 55.8574L42.9776 55.332Z" fill="white"/>
<path d="M177.77 44.9981L177.83 44.9386L177.889 44.9981L177.83 45.0571L177.77 44.9981Z" fill="white"/>
<path d="M182.782 39.8311L182.997 39.6167L183.211 39.8311L182.997 40.0459L182.782 39.8311Z" fill="white"/>
<path d="M187.757 34.6638L188.162 34.2588L188.567 34.6638L188.162 35.0688L187.757 34.6638Z" fill="white"/>
<path d="M192.741 29.4968L193.329 28.9081L193.918 29.4968L193.329 30.0854L192.741 29.4968Z" fill="white"/>
<path d="M197.732 24.3297L198.495 23.5667L199.258 24.3297L198.495 25.0928L197.732 24.3297Z" fill="white"/>
<path d="M202.732 19.1623L203.662 18.2323L204.592 19.1623L203.662 20.0928L202.732 19.1623Z" fill="white"/>
<path d="M207.763 13.9953L208.828 12.9295L209.894 13.9953L208.828 15.061L207.763 13.9953Z" fill="white"/>
<path d="M201.672 8.82821L203.662 6.83851L205.652 8.82821L203.662 10.8184L201.672 8.82821Z" fill="white"/>
<path d="M195.123 3.66113L198.496 0.288084L201.868 3.66113L198.496 7.03418L195.123 3.66113Z" fill="white"/>
<path d="M188.8 -1.50555L193.329 -6.0355L197.858 -1.50555L193.329 3.02393L188.8 -1.50555Z" fill="white"/>
<path d="M3.66168 -1.50578L7.33744 -5.18247L11.0137 -1.50578L7.33744 2.1709L3.66168 -1.50578Z" fill="white"/>
<path d="M-1.5842 3.66128L2.17153 -0.0949198L5.92725 3.66128L2.17153 7.41748L-1.5842 3.66128Z" fill="white"/>
<path d="M-6.79328 8.82847L-2.99477 5.02948L0.803711 8.82847L-2.99477 12.6274L-6.79328 8.82847Z" fill="white"/>
<path d="M-7.13273 19.1619L-2.99483 15.0235L1.14307 19.1619L-2.99483 23.3008L-7.13273 19.1619Z" fill="white"/>
<path d="M-2.23916 24.3293L2.1712 19.918L6.58154 24.3293L2.1712 28.7402L-2.23916 24.3293Z" fill="white"/>
<path d="M2.72591 29.4966L7.33757 24.8844L11.9497 29.4966L7.33757 34.1089L2.72591 29.4966Z" fill="white"/>
<path d="M7.78949 34.6634L12.5044 29.948L17.2192 34.6634L12.5044 39.3789L7.78949 34.6634Z" fill="white"/>
<path d="M13.8297 39.8306L17.6709 35.9888L21.5122 39.8306L17.6709 43.6724L13.8297 39.8306Z" fill="white"/>
<path d="M20.4236 44.9983L22.8371 42.5841L25.251 44.9983L22.8371 47.4121L20.4236 44.9983Z" fill="white"/>
<path d="M26.5556 50.1648L28.0034 48.7164L29.4517 50.1648L28.0034 51.6128L26.5556 50.1648Z" fill="white"/>
<path d="M32.4356 55.3317L33.1697 54.597L33.9043 55.3317L33.1697 56.0659L32.4356 55.3317Z" fill="white"/>
<path d="M198.436 34.6636L198.495 34.6041L198.555 34.6636L198.495 34.7231L198.436 34.6636Z" fill="white"/>
<path d="M203.483 29.4967L203.662 29.3182L203.84 29.4967L203.662 29.6753L203.483 29.4967Z" fill="white"/>
<path d="M208.555 24.3296L208.829 24.0557L209.102 24.3296L208.829 24.603L208.555 24.3296Z" fill="white"/>
<path d="M213.655 19.1621L213.995 18.8217L214.335 19.1621L213.995 19.5029L213.655 19.1621Z" fill="white"/>
<path d="M218.779 13.9952L219.161 13.613L219.544 13.9952L219.161 14.3779L218.779 13.9952Z" fill="white"/>
<path d="M212.857 8.82799L213.995 7.69014L215.132 8.82799L213.995 9.96582L212.857 8.82799Z" fill="white"/>
<path d="M206.649 3.66097L208.829 1.48063L211.008 3.66097L208.829 5.84131L206.649 3.66097Z" fill="white"/>
<path d="M200.014 -1.50574L203.662 -5.15454L207.31 -1.50574L203.662 2.14258L200.014 -1.50574Z" fill="white"/>
<path d="M-6.42681 -1.50582L-2.99514 -4.93792L0.436523 -1.50582L-2.99514 1.92627L-6.42681 -1.50582Z" fill="white"/>
<path d="M-7.42027 29.4966L-2.99503 25.0708L1.43018 29.4966L-2.99503 33.9224L-7.42027 29.4966Z" fill="white"/>
<path d="M-2.46096 34.6637L2.17163 30.0305L6.8042 34.6637L2.17163 39.2969L-2.46096 34.6637Z" fill="white"/>
<path d="M2.70551 39.8307L7.33762 35.198L11.9702 39.8307L7.33762 44.4639L2.70551 39.8307Z" fill="white"/>
<path d="M9.07321 44.9981L12.5049 41.566L15.9365 44.9981L12.5049 48.4297L9.07321 44.9981Z" fill="white"/>
<path d="M15.6884 50.1652L17.6708 48.1825L19.6533 50.1652L17.6708 52.1479L15.6884 50.1652Z" fill="white"/>
<path d="M21.7716 55.3322L22.8372 54.2664L23.9028 55.3322L22.8372 56.3979L21.7716 55.3322Z" fill="white"/>
<path d="M223.946 8.82825L224.328 8.44555L224.71 8.82825L224.328 9.21094L223.946 8.82825Z" fill="white"/>
<path d="M217.945 3.66152L219.162 2.4451L220.378 3.66152L219.162 4.87793L217.945 3.66152Z" fill="white"/>
<path d="M211.634 -1.50579L213.995 -3.86655L216.355 -1.50579L213.995 0.854492L211.634 -1.50579Z" fill="white"/>
<path d="M-7.64838 39.8307L-2.99533 35.1771L1.65771 39.8307L-2.99533 44.4844L-7.64838 39.8307Z" fill="white"/>
<path d="M-2.29503 44.9982L2.17159 40.5305L6.63818 44.9982L2.17159 49.4653L-2.29503 44.9982Z" fill="white"/>
<path d="M4.25809 50.165L7.33779 47.0844L10.418 50.165L7.33779 53.2451L4.25809 50.165Z" fill="white"/>
<path d="M10.8804 55.3323L12.5044 53.7081L14.1279 55.3323L12.5044 56.9561L10.8804 55.3323Z" fill="white"/>
<path d="M16.9361 60.4992L17.6707 59.765L18.4048 60.4992L17.6707 61.2339L16.9361 60.4992Z" fill="white"/>
<path d="M229.154 3.66109L229.494 3.32071L229.835 3.66109L229.494 4.00146L229.154 3.66109Z" fill="white"/>
<path d="M-7.35774 50.1648L-2.99528 45.8018L1.36719 50.1648L-2.99528 54.5278L-7.35774 50.1648Z" fill="white"/>
<path d="M-0.601354 55.3318L2.17151 52.5586L4.94482 55.3318L2.17151 58.105L-0.601354 55.3318Z" fill="white"/>
<path d="M6.00984 60.4991L7.33769 59.1711L8.66602 60.4991L7.33769 61.8271L6.00984 60.4991Z" fill="white"/>
</g>
<defs>
<clipPath id="clip0_228_6013">
<rect width="260" height="60" fill="white" transform="translate(272)"/>
</clipPath>
<clipPath id="clip1_228_6013">
<rect width="260" height="60" fill="white"/>
</clipPath>
</defs>
</svg>
