<svg width="569" height="60" viewBox="0 0 569 60" fill="none" xmlns="http://www.w3.org/2000/svg">
<g clip-path="url(#clip0_110_3597)">
<rect width="569" height="60" fill="#5694DB"/>
<g style="mix-blend-mode:overlay" opacity="0.7">
<path d="M112.207 -91.2803C110.645 -92.8424 108.112 -92.8424 106.55 -91.2803L2.59988 12.6698C1.03778 14.2319 1.03778 16.7646 2.59988 18.3267L106.55 122.277C108.112 123.839 110.645 123.839 112.207 122.277L216.157 18.3266C217.719 16.7645 217.719 14.2318 216.157 12.6697L112.207 -91.2803Z" fill="white" fill-opacity="0.1"/>
<path fill-rule="evenodd" clip-rule="evenodd" d="M105.843 -91.9874L1.89277 11.9627C-0.0598523 13.9153 -0.0598486 17.0811 1.89277 19.0338L105.843 122.984C107.795 124.936 110.961 124.936 112.914 122.984L216.864 19.0337C218.817 17.0811 218.817 13.9152 216.864 11.9626L112.914 -91.9874C110.961 -93.94 107.796 -93.94 105.843 -91.9874ZM106.55 -91.2803C108.112 -92.8424 110.645 -92.8424 112.207 -91.2803L216.157 12.6697C217.719 14.2318 217.719 16.7645 216.157 18.3266L112.207 122.277C110.645 123.839 108.112 123.839 106.55 122.277L2.59988 18.3267C1.03778 16.7646 1.03778 14.2319 2.59988 12.6698L106.55 -91.2803Z" fill="white"/>
<path d="M178.637 -158.027C177.075 -159.589 174.542 -159.589 172.98 -158.027L69.0301 -54.0773C67.468 -52.5152 67.468 -49.9825 69.0301 -48.4204L172.98 55.5296C174.542 57.0917 177.075 57.0917 178.637 55.5296L282.587 -48.4205C284.149 -49.9826 284.149 -52.5152 282.587 -54.0773L178.637 -158.027Z" fill="white" fill-opacity="0.1"/>
<path fill-rule="evenodd" clip-rule="evenodd" d="M172.273 -158.734L68.3229 -54.7844C66.3703 -52.8317 66.3703 -49.6659 68.3229 -47.7133L172.273 56.2367C174.226 58.1894 177.391 58.1894 179.344 56.2367L283.294 -47.7134C285.247 -49.666 285.247 -52.8318 283.294 -54.7844L179.344 -158.734C177.392 -160.687 174.226 -160.687 172.273 -158.734ZM172.98 -158.027C174.542 -159.589 177.075 -159.589 178.637 -158.027L282.587 -54.0773C284.149 -52.5152 284.149 -49.9826 282.587 -48.4205L178.637 55.5296C177.075 57.0917 174.542 57.0917 172.98 55.5296L69.0301 -48.4204C67.468 -49.9825 67.468 -52.5152 69.0301 -54.0773L172.98 -158.027Z" fill="white"/>
<path d="M178.637 -25.1024C177.075 -26.6645 174.542 -26.6645 172.98 -25.1024L69.0301 78.8477C67.468 80.4098 67.468 82.9425 69.0301 84.5046L172.98 188.455C174.542 190.017 177.075 190.017 178.637 188.455L282.587 84.5045C284.149 82.9424 284.149 80.4097 282.587 78.8476L178.637 -25.1024Z" fill="white" fill-opacity="0.1"/>
<path fill-rule="evenodd" clip-rule="evenodd" d="M172.273 -25.8095L68.3229 78.1406C66.3703 80.0932 66.3703 83.2591 68.3229 85.2117L172.273 189.162C174.226 191.114 177.391 191.114 179.344 189.162L283.294 85.2116C285.247 83.259 285.247 80.0932 283.294 78.1405L179.344 -25.8095C177.392 -27.7621 174.226 -27.7621 172.273 -25.8095ZM172.98 -25.1024C174.542 -26.6645 177.075 -26.6645 178.637 -25.1024L282.587 78.8476C284.149 80.4097 284.149 82.9424 282.587 84.5045L178.637 188.455C177.075 190.017 174.542 190.017 172.98 188.455L69.0301 84.5046C67.468 82.9425 67.468 80.4098 69.0301 78.8477L172.98 -25.1024Z" fill="white"/>
</g>
<g style="mix-blend-mode:overlay" opacity="0.3">
<path d="M393.41 -24.2803C394.972 -25.8424 397.505 -25.8424 399.067 -24.2803L503.017 79.6698C504.579 81.2319 504.579 83.7646 503.017 85.3267L399.067 189.277C397.505 190.839 394.973 190.839 393.41 189.277L289.46 85.3266C287.898 83.7645 287.898 81.2318 289.46 79.6697L393.41 -24.2803Z" fill="white" fill-opacity="0.1"/>
<path fill-rule="evenodd" clip-rule="evenodd" d="M399.774 -24.9874L503.724 78.9627C505.677 80.9153 505.677 84.0811 503.724 86.0338L399.774 189.984C397.822 191.936 394.656 191.936 392.703 189.984L288.753 86.0337C286.801 84.0811 286.801 80.9152 288.753 78.9626L392.703 -24.9874C394.656 -26.94 397.822 -26.94 399.774 -24.9874ZM399.067 -24.2803C397.505 -25.8424 394.972 -25.8424 393.41 -24.2803L289.46 79.6697C287.898 81.2318 287.898 83.7645 289.46 85.3266L393.41 189.277C394.973 190.839 397.505 190.839 399.067 189.277L503.017 85.3267C504.579 83.7646 504.579 81.2319 503.017 79.6698L399.067 -24.2803Z" fill="white"/>
<path d="M326.98 -91.0274C328.542 -92.5895 331.075 -92.5895 332.637 -91.0274L436.587 12.9227C438.149 14.4848 438.149 17.0175 436.587 18.5796L332.637 122.53C331.075 124.092 328.542 124.092 326.98 122.53L223.03 18.5795C221.468 17.0174 221.468 14.4848 223.03 12.9227L326.98 -91.0274Z" fill="white" fill-opacity="0.1"/>
<path fill-rule="evenodd" clip-rule="evenodd" d="M333.344 -91.7345L437.294 12.2156C439.247 14.1683 439.247 17.3341 437.294 19.2867L333.344 123.237C331.392 125.189 328.226 125.189 326.273 123.237L222.323 19.2866C220.37 17.334 220.37 14.1682 222.323 12.2156L326.273 -91.7345C328.226 -93.6871 331.392 -93.6871 333.344 -91.7345ZM332.637 -91.0274C331.075 -92.5895 328.542 -92.5895 326.98 -91.0274L223.03 12.9227C221.468 14.4848 221.468 17.0174 223.03 18.5795L326.98 122.53C328.542 124.092 331.075 124.092 332.637 122.53L436.587 18.5796C438.149 17.0175 438.149 14.4848 436.587 12.9227L332.637 -91.0274Z" fill="white"/>
<path d="M326.98 41.8976C328.542 40.3355 331.075 40.3355 332.637 41.8976L436.587 145.848C438.149 147.41 438.149 149.942 436.587 151.505L332.637 255.455C331.075 257.017 328.542 257.017 326.98 255.455L223.03 151.505C221.468 149.942 221.468 147.41 223.03 145.848L326.98 41.8976Z" fill="white" fill-opacity="0.1"/>
<path fill-rule="evenodd" clip-rule="evenodd" d="M333.344 41.1905L437.294 145.141C439.247 147.093 439.247 150.259 437.294 152.212L333.344 256.162C331.392 258.114 328.226 258.114 326.273 256.162L222.323 152.212C220.37 150.259 220.37 147.093 222.323 145.141L326.273 41.1905C328.226 39.2379 331.392 39.2379 333.344 41.1905ZM332.637 41.8976C331.075 40.3355 328.542 40.3355 326.98 41.8976L223.03 145.848C221.468 147.41 221.468 149.942 223.03 151.504L326.98 255.455C328.542 257.017 331.075 257.017 332.637 255.455L436.587 151.505C438.149 149.942 438.149 147.41 436.587 145.848L332.637 41.8976Z" fill="white"/>
</g>
<g clip-path="url(#clip1_110_3597)">
<rect width="59" height="56" transform="translate(510 2)" fill="#5694DB"/>
<g style="mix-blend-mode:overlay" opacity="0.3">
<path d="M511.466 50.625V34.065C511.466 32.505 511.846 31.105 512.606 29.865C513.366 28.625 514.366 27.645 515.606 26.925C516.846 26.165 518.226 25.785 519.746 25.785H545.666C545.866 25.785 546.026 25.725 546.146 25.605C546.306 25.445 546.386 25.265 546.386 25.065V16.005C546.386 15.805 546.306 15.645 546.146 15.525C546.026 15.365 545.866 15.285 545.666 15.285H520.046C519.846 15.285 519.666 15.365 519.506 15.525C519.386 15.645 519.326 15.805 519.326 16.005V18.945H511.466V15.705C511.466 14.145 511.846 12.745 512.606 11.505C513.366 10.265 514.366 9.285 515.606 8.565C516.846 7.805 518.226 7.425 519.746 7.425H545.966C547.486 7.425 548.866 7.805 550.106 8.565C551.386 9.285 552.386 10.265 553.106 11.505C553.866 12.745 554.246 14.145 554.246 15.705V25.425C554.246 26.905 553.866 28.285 553.106 29.565C552.386 30.805 551.386 31.805 550.106 32.565C548.866 33.325 547.486 33.705 545.966 33.705H520.046C519.846 33.705 519.666 33.785 519.506 33.945C519.386 34.065 519.326 34.225 519.326 34.425V42.045C519.326 42.245 519.386 42.425 519.506 42.585C519.666 42.705 519.846 42.765 520.046 42.765H554.246V50.625H511.466Z" fill="white"/>
<path d="M511.466 50.625V34.065C511.466 32.505 511.846 31.105 512.606 29.865C513.366 28.625 514.366 27.645 515.606 26.925C516.846 26.165 518.226 25.785 519.746 25.785H545.666C545.866 25.785 546.026 25.725 546.146 25.605C546.306 25.445 546.386 25.265 546.386 25.065V16.005C546.386 15.805 546.306 15.645 546.146 15.525C546.026 15.365 545.866 15.285 545.666 15.285H520.046C519.846 15.285 519.666 15.365 519.506 15.525C519.386 15.645 519.326 15.805 519.326 16.005V18.945H511.466V15.705C511.466 14.145 511.846 12.745 512.606 11.505C513.366 10.265 514.366 9.285 515.606 8.565C516.846 7.805 518.226 7.425 519.746 7.425H545.966C547.486 7.425 548.866 7.805 550.106 8.565C551.386 9.285 552.386 10.265 553.106 11.505C553.866 12.745 554.246 14.145 554.246 15.705V25.425C554.246 26.905 553.866 28.285 553.106 29.565C552.386 30.805 551.386 31.805 550.106 32.565C548.866 33.325 547.486 33.705 545.966 33.705H520.046C519.846 33.705 519.666 33.785 519.506 33.945C519.386 34.065 519.326 34.225 519.326 34.425V42.045C519.326 42.245 519.386 42.425 519.506 42.585C519.666 42.705 519.846 42.765 520.046 42.765H554.246V50.625H511.466Z" fill="white"/>
</g>
<g style="mix-blend-mode:overlay">
<path d="M525.219 44C525.219 43.3516 525.281 42.7109 525.406 42.0781C525.539 41.4453 525.715 40.8516 525.934 40.2969C526.152 39.7422 526.43 39.1836 526.766 38.6211C527.109 38.0508 527.457 37.5312 527.809 37.0625C528.168 36.5859 528.586 36.0977 529.062 35.5977C529.539 35.0898 529.988 34.6367 530.41 34.2383C530.84 33.8398 531.324 33.4141 531.863 32.9609C532.41 32.5 532.895 32.1016 533.316 31.7656C533.738 31.4297 534.219 31.0547 534.758 30.6406C534.891 30.5391 534.992 30.4609 535.062 30.4062C536.328 29.4219 537.27 28.3164 537.887 27.0898C538.504 25.8633 538.812 24.625 538.812 23.375C538.812 21.7266 538.371 20.457 537.488 19.5664C536.613 18.668 535.336 18.2188 533.656 18.2188C532.922 18.2188 532.168 18.3945 531.395 18.7461C530.629 19.0898 529.988 19.5508 529.473 20.1289C530.395 20.2461 531.164 20.6602 531.781 21.3711C532.406 22.0742 532.719 22.8984 532.719 23.8438C532.719 24.8828 532.352 25.7695 531.617 26.5039C530.891 27.2305 530.008 27.5938 528.969 27.5938C528.242 27.5938 527.578 27.4062 526.977 27.0312C526.375 26.6484 525.918 26.1406 525.605 25.5078C525.137 24.625 524.902 23.6797 524.902 22.6719C524.902 21.8516 525.059 21.043 525.371 20.2461C525.684 19.4492 526.148 18.707 526.766 18.0195C527.383 17.3242 528.113 16.7109 528.957 16.1797C529.801 15.6484 530.789 15.2305 531.922 14.9258C533.055 14.6211 534.258 14.4688 535.531 14.4688C537.117 14.4688 538.551 14.6289 539.832 14.9492C541.121 15.2617 542.191 15.6875 543.043 16.2266C543.895 16.7578 544.605 17.3906 545.176 18.125C545.746 18.8516 546.156 19.6133 546.406 20.4102C546.656 21.1992 546.781 22.0312 546.781 22.9062C546.781 23.7578 546.688 24.5625 546.5 25.3203C546.32 26.0703 546.078 26.7305 545.773 27.3008C545.477 27.8711 545.102 28.4219 544.648 28.9531C544.195 29.4844 543.734 29.9414 543.266 30.3242C542.805 30.707 542.281 31.1016 541.695 31.5078C541.109 31.9141 540.566 32.2695 540.066 32.5742C539.566 32.8711 539.02 33.2109 538.426 33.5938C537.84 33.9688 537.344 34.3125 536.938 34.625C536.523 34.9375 536.031 35.2891 535.461 35.6797C534.898 36.0703 534.453 36.3828 534.125 36.6172C533.805 36.8438 533.441 37.1484 533.035 37.5312C532.637 37.9141 532.273 38.332 531.945 38.7852C532.836 38.5117 533.719 38.375 534.594 38.375H540.688C541.016 38.375 541.309 38.25 541.566 38C541.824 37.7422 542.02 37.4141 542.152 37.0156C542.293 36.6172 542.395 36.2148 542.457 35.8086C542.527 35.4023 542.562 35.0078 542.562 34.625V32.75H546.781V44H525.219Z" fill="white"/>
</g>
<g style="mix-blend-mode:overlay" opacity="0.5">
<path d="M551.947 49.26C547.187 49.26 541.807 48.44 535.807 46.8V46.86C533.367 48.14 531.227 48.78 529.387 48.78C528.307 48.78 527.307 48.52 526.387 48C525.227 47.4 524.647 46.62 524.647 45.66C524.647 44.82 525.067 44.14 525.907 43.62C526.547 43.22 527.347 43.02 528.307 43.02C529.067 43.02 531.447 43.62 535.447 44.82L535.807 44.64L536.107 44.46C549.867 35.98 558.787 28.3 562.867 21.42C564.707 18.34 565.627 15.82 565.627 13.86C565.627 10.94 563.687 9.48 559.807 9.48C557.247 9.48 554.587 10.16 551.827 11.52C549.267 12.76 547.007 14.36 545.047 16.32C544.687 16.68 544.247 17.18 543.727 17.82C543.207 18.42 542.607 19.16 541.927 20.04C541.767 20.32 541.507 20.46 541.147 20.46C540.467 20.46 540.127 20.12 540.127 19.44C540.127 19.24 540.207 19.06 540.367 18.9C542.527 15.74 545.387 13.1 548.947 10.98C552.747 8.7 556.427 7.56 559.987 7.56C562.147 7.56 563.887 8.04 565.207 9C566.687 10.08 567.427 11.66 567.427 13.74C567.427 16.3 566.447 19.22 564.487 22.5C560.247 29.62 551.487 37.3 538.207 45.54C543.367 46.74 547.867 47.34 551.707 47.34C558.627 47.34 562.027 46.04 561.907 43.44L561.847 43.08C561.847 42.32 562.187 41.94 562.867 41.94C563.467 41.94 563.767 42.4 563.767 43.32C563.767 47.28 559.827 49.26 551.947 49.26ZM529.267 46.8C530.307 46.8 531.467 46.54 532.747 46.02C530.707 45.3 529.387 44.94 528.787 44.94C527.707 44.94 527.167 45.24 527.167 45.84C527.167 46.48 527.867 46.8 529.267 46.8Z" fill="white"/>
<path d="M551.947 49.26C547.187 49.26 541.807 48.44 535.807 46.8V46.86C533.367 48.14 531.227 48.78 529.387 48.78C528.307 48.78 527.307 48.52 526.387 48C525.227 47.4 524.647 46.62 524.647 45.66C524.647 44.82 525.067 44.14 525.907 43.62C526.547 43.22 527.347 43.02 528.307 43.02C529.067 43.02 531.447 43.62 535.447 44.82L535.807 44.64L536.107 44.46C549.867 35.98 558.787 28.3 562.867 21.42C564.707 18.34 565.627 15.82 565.627 13.86C565.627 10.94 563.687 9.48 559.807 9.48C557.247 9.48 554.587 10.16 551.827 11.52C549.267 12.76 547.007 14.36 545.047 16.32C544.687 16.68 544.247 17.18 543.727 17.82C543.207 18.42 542.607 19.16 541.927 20.04C541.767 20.32 541.507 20.46 541.147 20.46C540.467 20.46 540.127 20.12 540.127 19.44C540.127 19.24 540.207 19.06 540.367 18.9C542.527 15.74 545.387 13.1 548.947 10.98C552.747 8.7 556.427 7.56 559.987 7.56C562.147 7.56 563.887 8.04 565.207 9C566.687 10.08 567.427 11.66 567.427 13.74C567.427 16.3 566.447 19.22 564.487 22.5C560.247 29.62 551.487 37.3 538.207 45.54C543.367 46.74 547.867 47.34 551.707 47.34C558.627 47.34 562.027 46.04 561.907 43.44L561.847 43.08C561.847 42.32 562.187 41.94 562.867 41.94C563.467 41.94 563.767 42.4 563.767 43.32C563.767 47.28 559.827 49.26 551.947 49.26ZM529.267 46.8C530.307 46.8 531.467 46.54 532.747 46.02C530.707 45.3 529.387 44.94 528.787 44.94C527.707 44.94 527.167 45.24 527.167 45.84C527.167 46.48 527.867 46.8 529.267 46.8Z" fill="white"/>
</g>
</g>
</g>
<defs>
<clipPath id="clip0_110_3597">
<rect width="569" height="60" fill="white"/>
</clipPath>
<clipPath id="clip1_110_3597">
<rect width="59" height="56" fill="white" transform="translate(510 2)"/>
</clipPath>
</defs>
</svg>
