<svg width="252" height="60" viewBox="0 0 252 60" fill="none" xmlns="http://www.w3.org/2000/svg">
<g clip-path="url(#clip0_124_5523)">
<rect width="252" height="60" fill="#5694DB"/>
<rect x="62" y="19.5" width="20" height="20" rx="10" fill="url(#paint0_linear_124_5523)"/>
<rect x="62" y="19.5" width="20" height="20" rx="10" stroke="white" stroke-width="2"/>
<path fill-rule="evenodd" clip-rule="evenodd" d="M73.1739 29.5001L70.2792 32.4015C70.0075 32.6738 70.0064 33.1163 70.2767 33.39C70.5469 33.6637 70.9862 33.6648 71.2579 33.3925L74.6417 30.0008C74.8047 29.8375 74.8703 29.6129 74.8384 29.4003C74.8189 29.2529 74.7527 29.1106 74.64 28.9976L71.2605 25.6103C70.9889 25.338 70.5496 25.3392 70.2793 25.6128C70.0091 25.8865 70.0102 26.3291 70.2819 26.6014L73.1739 29.5001Z" fill="white"/>
<g style="mix-blend-mode:overlay" opacity="0.7">
<mask id="path-3-outside-1_124_5523" maskUnits="userSpaceOnUse" x="-35.1296" y="-16.5207" width="223.446" height="223.446" fill="black">
<rect fill="white" x="-35.1296" y="-16.5207" width="223.446" height="223.446"/>
<path d="M79.4217 -12.278C77.8596 -13.8401 75.3269 -13.8401 73.7648 -12.278L-30.1853 91.6721C-31.7474 93.2342 -31.7474 95.7668 -30.1853 97.3289L73.7648 201.279C75.3269 202.841 77.8595 202.841 79.4216 201.279L183.372 97.3288C184.934 95.7667 184.934 93.2341 183.372 91.672L79.4217 -12.278Z"/>
</mask>
<path d="M79.4217 -12.278C77.8596 -13.8401 75.3269 -13.8401 73.7648 -12.278L-30.1853 91.6721C-31.7474 93.2342 -31.7474 95.7668 -30.1853 97.3289L73.7648 201.279C75.3269 202.841 77.8595 202.841 79.4216 201.279L183.372 97.3288C184.934 95.7667 184.934 93.2341 183.372 91.672L79.4217 -12.278Z" fill="white" fill-opacity="0.1"/>
<path d="M183.372 97.3288L182.665 96.6217L183.372 97.3288ZM183.372 91.672L182.665 92.3791L183.372 91.672ZM79.4216 201.279L80.1287 201.986L79.4216 201.279ZM-30.1853 91.6721L-30.8924 90.965L-30.1853 91.6721ZM73.7648 -12.278L74.4719 -11.5709L73.7648 -12.278ZM79.4217 -12.278L80.1288 -12.9852L79.4217 -12.278ZM74.4719 -11.5709L-29.4782 92.3792L-30.8924 90.965L73.0577 -12.9852L74.4719 -11.5709ZM-29.4782 96.6218L74.4719 200.572L73.0576 201.986L-30.8924 98.036L-29.4782 96.6218ZM78.7145 200.572L182.665 96.6217L184.079 98.0359L80.1287 201.986L78.7145 200.572ZM182.665 92.3791L78.7146 -11.5709L80.1288 -12.9852L184.079 90.9649L182.665 92.3791ZM182.665 96.6217C183.836 95.4502 183.836 93.5507 182.665 92.3791L184.079 90.9649C186.031 92.9175 186.031 96.0833 184.079 98.0359L182.665 96.6217ZM74.4719 200.572C75.6434 201.743 77.5429 201.743 78.7145 200.572L80.1287 201.986C78.1761 203.939 75.0103 203.939 73.0576 201.986L74.4719 200.572ZM-29.4782 92.3792C-30.6497 93.5507 -30.6497 95.4502 -29.4782 96.6218L-30.8924 98.036C-32.845 96.0834 -32.845 92.9176 -30.8924 90.965L-29.4782 92.3792ZM73.0577 -12.9852C75.0104 -14.9378 78.1762 -14.9378 80.1288 -12.9852L78.7146 -11.5709C77.543 -12.7425 75.6435 -12.7425 74.4719 -11.5709L73.0577 -12.9852Z" fill="white" mask="url(#path-3-outside-1_124_5523)"/>
<mask id="path-5-outside-2_124_5523" maskUnits="userSpaceOnUse" x="-76.8868" y="-191.46" width="439.82" height="439.82" fill="black">
<rect fill="white" x="-76.8868" y="-191.46" width="439.82" height="439.82"/>
<path d="M145.852 -79.0251C144.29 -80.5872 141.757 -80.5872 140.195 -79.0251L36.2449 24.925C34.6828 26.4871 34.6828 29.0198 36.2449 30.5819L140.195 134.532C141.757 136.094 144.29 136.094 145.852 134.532L249.802 30.5818C251.364 29.0197 251.364 26.487 249.802 24.9249L145.852 -79.0251Z"/>
</mask>
<path d="M145.852 -79.0251C144.29 -80.5872 141.757 -80.5872 140.195 -79.0251L36.2449 24.925C34.6828 26.4871 34.6828 29.0198 36.2449 30.5819L140.195 134.532C141.757 136.094 144.29 136.094 145.852 134.532L249.802 30.5818C251.364 29.0197 251.364 26.487 249.802 24.9249L145.852 -79.0251Z" fill="white" fill-opacity="0.1"/>
<path d="M249.802 24.9249L250.509 24.2178L249.802 24.9249ZM140.195 134.532L140.902 133.825L140.195 134.532ZM36.2449 24.925L35.5378 24.2179L36.2449 24.925ZM36.2449 30.5819L35.5378 31.289L36.2449 30.5819ZM140.195 -79.0251L140.902 -78.318L140.195 -79.0251ZM145.852 -79.0251L145.145 -78.318L145.852 -79.0251ZM140.902 -78.318L36.952 25.6321L35.5378 24.2179L139.488 -79.7322L140.902 -78.318ZM36.952 29.8748L140.902 133.825L139.488 135.239L35.5378 31.289L36.952 29.8748ZM145.145 133.825L249.095 29.8747L250.509 31.2889L146.559 135.239L145.145 133.825ZM249.095 25.632L145.145 -78.318L146.559 -79.7322L250.509 24.2178L249.095 25.632ZM249.095 29.8747C250.266 28.7031 250.266 26.8036 249.095 25.632L250.509 24.2178C252.462 26.1705 252.462 29.3363 250.509 31.2889L249.095 29.8747ZM140.902 133.825C142.074 134.996 143.973 134.996 145.145 133.825L146.559 135.239C144.606 137.192 141.44 137.192 139.488 135.239L140.902 133.825ZM36.952 25.6321C35.7805 26.8037 35.7805 28.7032 36.952 29.8748L35.5378 31.289C33.5852 29.3364 33.5852 26.1705 35.5378 24.2179L36.952 25.6321ZM139.488 -79.7322C141.441 -81.6848 144.606 -81.6848 146.559 -79.7322L145.145 -78.318C143.973 -79.4896 142.074 -79.4896 140.902 -78.318L139.488 -79.7322Z" fill="white" mask="url(#path-5-outside-2_124_5523)"/>
<mask id="path-7-outside-3_124_5523" maskUnits="userSpaceOnUse" x="-76.8868" y="-58.5355" width="439.82" height="439.82" fill="black">
<rect fill="white" x="-76.8868" y="-58.5355" width="439.82" height="439.82"/>
<path d="M145.852 53.8999C144.29 52.3378 141.757 52.3378 140.195 53.8999L36.2449 157.85C34.6828 159.412 34.6828 161.945 36.2449 163.507L140.195 267.457C141.757 269.019 144.29 269.019 145.852 267.457L249.802 163.507C251.364 161.945 251.364 159.412 249.802 157.85L145.852 53.8999Z"/>
</mask>
<path d="M145.852 53.8999C144.29 52.3378 141.757 52.3378 140.195 53.8999L36.2449 157.85C34.6828 159.412 34.6828 161.945 36.2449 163.507L140.195 267.457C141.757 269.019 144.29 269.019 145.852 267.457L249.802 163.507C251.364 161.945 251.364 159.412 249.802 157.85L145.852 53.8999Z" fill="white" fill-opacity="0.1"/>
<path d="M249.802 163.507L250.509 164.214L249.802 163.507ZM140.195 267.457L139.488 268.164L140.195 267.457ZM145.852 267.457L145.145 266.75L145.852 267.457ZM36.2449 157.85L36.952 158.557L36.2449 157.85ZM36.2449 163.507L36.952 162.8L36.2449 163.507ZM140.195 53.8999L139.488 53.1928L140.195 53.8999ZM140.902 54.607L36.952 158.557L35.5378 157.143L139.488 53.1928L140.902 54.607ZM36.952 162.8L140.902 266.75L139.488 268.164L35.5378 164.214L36.952 162.8ZM145.145 266.75L249.095 162.8L250.509 164.214L146.559 268.164L145.145 266.75ZM249.095 158.557L145.145 54.607L146.559 53.1928L250.509 157.143L249.095 158.557ZM249.095 162.8C250.266 161.628 250.266 159.729 249.095 158.557L250.509 157.143C252.462 159.095 252.462 162.261 250.509 164.214L249.095 162.8ZM140.902 266.75C142.074 267.921 143.973 267.921 145.145 266.75L146.559 268.164C144.606 270.117 141.44 270.117 139.488 268.164L140.902 266.75ZM36.952 158.557C35.7805 159.729 35.7805 161.628 36.952 162.8L35.5378 164.214C33.5852 162.261 33.5852 159.096 35.5378 157.143L36.952 158.557ZM139.488 53.1928C141.441 51.2402 144.606 51.2402 146.559 53.1928L145.145 54.607C143.973 53.4354 142.074 53.4354 140.902 54.607L139.488 53.1928Z" fill="white" mask="url(#path-7-outside-3_124_5523)"/>
</g>
</g>
<defs>
<linearGradient id="paint0_linear_124_5523" x1="63" y1="19.7969" x2="81" y2="38.5" gradientUnits="userSpaceOnUse">
<stop stop-color="#FF8E3D"/>
<stop offset="1" stop-color="#FF6F3D"/>
</linearGradient>
<clipPath id="clip0_124_5523">
<rect width="252" height="60" fill="white"/>
</clipPath>
</defs>
</svg>
