<svg width="403" height="60" viewBox="0 0 403 60" fill="none" xmlns="http://www.w3.org/2000/svg">
<g clip-path="url(#clip0_124_4757)">
<rect width="403" height="60" fill="#5694DB"/>
<g style="mix-blend-mode:overlay">
<mask id="path-1-outside-1_124_4757" maskUnits="userSpaceOnUse" x="125.614" y="4.83267" width="53.7401" height="53.7401" fill="black">
<rect fill="white" x="125.614" y="4.83267" width="53.7401" height="53.7401"/>
<path d="M149.656 9.07532C151.218 7.51322 153.751 7.51322 155.313 9.07531L174.559 28.3215C176.121 29.8836 176.121 32.4162 174.559 33.9783L155.313 53.2244C153.751 54.7865 151.218 54.7865 149.656 53.2244L130.41 33.9783C128.848 32.4162 128.848 29.8835 130.41 28.3214L149.656 9.07532Z"/>
</mask>
<path d="M149.656 9.07532C151.218 7.51322 153.751 7.51322 155.313 9.07531L174.559 28.3215C176.121 29.8836 176.121 32.4162 174.559 33.9783L155.313 53.2244C153.751 54.7865 151.218 54.7865 149.656 53.2244L130.41 33.9783C128.848 32.4162 128.848 29.8835 130.41 28.3214L149.656 9.07532Z" fill="white" fill-opacity="0.1"/>
<path d="M130.41 33.9783L131.117 33.2712L130.41 33.9783ZM130.41 28.3214L131.117 29.0285L130.41 28.3214ZM155.313 53.2244L154.606 52.5173L155.313 53.2244ZM149.656 53.2244L148.949 53.9315L149.656 53.2244ZM174.559 28.3215L173.852 29.0286L174.559 28.3215ZM174.559 33.9783L175.266 34.6854L174.559 33.9783ZM155.313 9.07531L156.02 8.36821L155.313 9.07531ZM149.656 9.07532L148.949 8.36821L149.656 9.07532ZM154.606 9.78242L173.852 29.0286L175.266 27.6143L156.02 8.36821L154.606 9.78242ZM173.852 33.2712L154.606 52.5173L156.02 53.9315L175.266 34.6854L173.852 33.2712ZM150.363 52.5173L131.117 33.2712L129.703 34.6854L148.949 53.9315L150.363 52.5173ZM131.117 29.0285L150.363 9.78242L148.949 8.36821L129.703 27.6143L131.117 29.0285ZM131.117 33.2712C129.945 32.0996 129.945 30.2001 131.117 29.0285L129.703 27.6143C127.75 29.567 127.75 32.7328 129.703 34.6854L131.117 33.2712ZM154.606 52.5173C153.434 53.6889 151.535 53.6889 150.363 52.5173L148.949 53.9315C150.901 55.8842 154.067 55.8842 156.02 53.9315L154.606 52.5173ZM173.852 29.0286C175.023 30.2001 175.023 32.0996 173.852 33.2712L175.266 34.6854C177.219 32.7328 177.219 29.567 175.266 27.6143L173.852 29.0286ZM156.02 8.36821C154.067 6.41559 150.901 6.41559 148.949 8.36821L150.363 9.78242C151.535 8.61085 153.434 8.61085 154.606 9.78242L156.02 8.36821Z" fill="white" mask="url(#path-1-outside-1_124_4757)"/>
<mask id="path-3-outside-2_124_4757" maskUnits="userSpaceOnUse" x="110.521" y="-10.3322" width="53.7401" height="53.7401" fill="black">
<rect fill="white" x="110.521" y="-10.3322" width="53.7401" height="53.7401"/>
<path d="M134.563 -6.08957C136.125 -7.65167 138.657 -7.65167 140.22 -6.08957L159.466 13.1566C161.028 14.7187 161.028 17.2513 159.466 18.8134L140.22 38.0595C138.657 39.6216 136.125 39.6216 134.563 38.0595L115.317 18.8134C113.754 17.2513 113.754 14.7187 115.317 13.1566L134.563 -6.08957Z"/>
</mask>
<path d="M134.563 -6.08957C136.125 -7.65167 138.657 -7.65167 140.22 -6.08957L159.466 13.1566C161.028 14.7187 161.028 17.2513 159.466 18.8134L140.22 38.0595C138.657 39.6216 136.125 39.6216 134.563 38.0595L115.317 18.8134C113.754 17.2513 113.754 14.7187 115.317 13.1566L134.563 -6.08957Z" fill="white" fill-opacity="0.1"/>
<path d="M115.317 18.8134L116.024 18.1063L115.317 18.8134ZM115.317 13.1566L116.024 13.8637L115.317 13.1566ZM140.22 38.0595L140.927 38.7667L140.22 38.0595ZM134.563 38.0595L133.856 38.7667L134.563 38.0595ZM159.466 13.1566L158.759 13.8637L159.466 13.1566ZM159.466 18.8134L158.759 18.1063L159.466 18.8134ZM140.22 -6.08957L140.927 -6.79668L140.22 -6.08957ZM134.563 -6.08957L133.856 -6.79668L134.563 -6.08957ZM139.512 -5.38247L158.759 13.8637L160.173 12.4495L140.927 -6.79668L139.512 -5.38247ZM158.759 18.1063L139.512 37.3524L140.927 38.7667L160.173 19.5205L158.759 18.1063ZM135.27 37.3524L116.024 18.1063L114.609 19.5205L133.856 38.7667L135.27 37.3524ZM116.024 13.8637L135.27 -5.38246L133.856 -6.79668L114.609 12.4494L116.024 13.8637ZM116.024 18.1063C114.852 16.9347 114.852 15.0352 116.024 13.8637L114.609 12.4494C112.657 14.4021 112.657 17.5679 114.609 19.5205L116.024 18.1063ZM139.512 37.3524C138.341 38.524 136.441 38.524 135.27 37.3524L133.856 38.7667C135.808 40.7193 138.974 40.7193 140.927 38.7667L139.512 37.3524ZM158.759 13.8637C159.93 15.0352 159.93 16.9347 158.759 18.1063L160.173 19.5205C162.125 17.5679 162.125 14.4021 160.173 12.4495L158.759 13.8637ZM140.927 -6.79668C138.974 -8.7493 135.808 -8.7493 133.856 -6.79668L135.27 -5.38246C136.441 -6.55404 138.341 -6.55404 139.512 -5.38247L140.927 -6.79668Z" fill="white" mask="url(#path-3-outside-2_124_4757)"/>
<mask id="path-5-outside-3_124_4757" maskUnits="userSpaceOnUse" x="110.521" y="19.8689" width="53.7401" height="53.7401" fill="black">
<rect fill="white" x="110.521" y="19.8689" width="53.7401" height="53.7401"/>
<path d="M134.563 24.1116C136.125 22.5495 138.657 22.5495 140.22 24.1116L159.466 43.3577C161.028 44.9198 161.028 47.4525 159.466 49.0145L140.22 68.2607C138.657 69.8228 136.125 69.8228 134.563 68.2607L115.317 49.0145C113.754 47.4524 113.754 44.9198 115.317 43.3577L134.563 24.1116Z"/>
</mask>
<path d="M134.563 24.1116C136.125 22.5495 138.657 22.5495 140.22 24.1116L159.466 43.3577C161.028 44.9198 161.028 47.4525 159.466 49.0145L140.22 68.2607C138.657 69.8228 136.125 69.8228 134.563 68.2607L115.317 49.0145C113.754 47.4524 113.754 44.9198 115.317 43.3577L134.563 24.1116Z" fill="white" fill-opacity="0.1"/>
<path d="M115.317 49.0145L116.024 48.3074L115.317 49.0145ZM115.317 43.3577L114.609 42.6506L115.317 43.3577ZM140.22 68.2607L140.927 68.9678L140.22 68.2607ZM134.563 68.2607L133.856 68.9678L134.563 68.2607ZM159.466 43.3577L158.759 44.0648L159.466 43.3577ZM159.466 49.0145L158.759 48.3074L159.466 49.0145ZM140.22 24.1116L140.927 23.4044L140.22 24.1116ZM134.563 24.1116L135.27 24.8187L134.563 24.1116ZM139.512 24.8187L158.759 44.0648L160.173 42.6506L140.927 23.4044L139.512 24.8187ZM158.759 48.3074L139.512 67.5536L140.927 68.9678L160.173 49.7217L158.759 48.3074ZM135.27 67.5536L116.024 48.3074L114.609 49.7216L133.856 68.9678L135.27 67.5536ZM116.024 44.0648L135.27 24.8187L133.856 23.4044L114.609 42.6506L116.024 44.0648ZM116.024 48.3074C114.852 47.1359 114.852 45.2364 116.024 44.0648L114.609 42.6506C112.657 44.6032 112.657 47.769 114.609 49.7216L116.024 48.3074ZM139.512 67.5536C138.341 68.7251 136.441 68.7251 135.27 67.5536L133.856 68.9678C135.808 70.9204 138.974 70.9204 140.927 68.9678L139.512 67.5536ZM158.759 44.0648C159.93 45.2364 159.93 47.1359 158.759 48.3074L160.173 49.7217C162.125 47.769 162.125 44.6032 160.173 42.6506L158.759 44.0648ZM140.927 23.4044C138.974 21.4518 135.808 21.4518 133.856 23.4044L135.27 24.8187C136.441 23.6471 138.341 23.6471 139.512 24.8187L140.927 23.4044Z" fill="white" mask="url(#path-5-outside-3_124_4757)"/>
</g>
<g style="mix-blend-mode:overlay" opacity="0.3">
<mask id="path-7-outside-4_124_4757" maskUnits="userSpaceOnUse" x="-11.0222" y="-244.968" width="552.957" height="552.957" fill="black">
<rect fill="white" x="-11.0222" y="-244.968" width="552.957" height="552.957"/>
<path d="M262.628 -104.125C264.19 -105.687 266.723 -105.687 268.285 -104.125L400.643 28.2332C402.205 29.7953 402.205 32.328 400.643 33.8901L268.285 166.248C266.723 167.81 264.19 167.81 262.628 166.248L130.27 33.89C128.708 32.3279 128.708 29.7952 130.27 28.2331L262.628 -104.125Z"/>
</mask>
<path d="M262.628 -104.125C264.19 -105.687 266.723 -105.687 268.285 -104.125L400.643 28.2332C402.205 29.7953 402.205 32.328 400.643 33.8901L268.285 166.248C266.723 167.81 264.19 167.81 262.628 166.248L130.27 33.89C128.708 32.3279 128.708 29.7952 130.27 28.2331L262.628 -104.125Z" fill="white" fill-opacity="0.1"/>
<path d="M130.27 33.89L129.563 34.5971L130.27 33.89ZM130.27 28.2331L129.563 27.526L130.27 28.2331ZM268.285 166.248L267.578 165.541L268.285 166.248ZM262.628 166.248L263.335 165.541L262.628 166.248ZM400.643 28.2332L401.35 27.5261L400.643 28.2332ZM400.643 33.8901L401.35 34.5972L400.643 33.8901ZM268.285 -104.125L267.578 -103.418L268.285 -104.125ZM262.628 -104.125L263.335 -103.418L262.628 -104.125ZM267.578 -103.418L399.936 28.9403L401.35 27.5261L268.992 -104.832L267.578 -103.418ZM399.936 33.183L267.578 165.541L268.992 166.955L401.35 34.5972L399.936 33.183ZM263.335 165.541L130.977 33.1829L129.563 34.5971L261.921 166.955L263.335 165.541ZM130.977 28.9402L263.335 -103.418L261.921 -104.832L129.563 27.526L130.977 28.9402ZM130.977 33.1829C129.806 32.0113 129.806 30.1118 130.977 28.9402L129.563 27.526C127.61 29.4787 127.61 32.6445 129.563 34.5971L130.977 33.1829ZM267.578 165.541C266.406 166.713 264.507 166.713 263.335 165.541L261.921 166.955C263.874 168.908 267.04 168.908 268.992 166.955L267.578 165.541ZM399.936 28.9403C401.108 30.1119 401.108 32.0114 399.936 33.183L401.35 34.5972C403.303 32.6446 403.303 29.4787 401.35 27.5261L399.936 28.9403ZM268.992 -104.832C267.039 -106.785 263.874 -106.785 261.921 -104.832L263.335 -103.418C264.507 -104.589 266.406 -104.589 267.578 -103.418L268.992 -104.832Z" fill="white" mask="url(#path-7-outside-4_124_4757)"/>
<mask id="path-9-outside-5_124_4757" maskUnits="userSpaceOnUse" x="-94.6702" y="-329.015" width="552.957" height="552.957" fill="black">
<rect fill="white" x="-94.6702" y="-329.015" width="552.957" height="552.957"/>
<path d="M178.98 -188.172C180.542 -189.734 183.075 -189.734 184.637 -188.172L316.995 -55.8134C318.557 -54.2513 318.557 -51.7187 316.995 -50.1566L184.637 82.2015C183.075 83.7636 180.542 83.7636 178.98 82.2015L46.622 -50.1567C45.0599 -51.7187 45.0599 -54.2514 46.622 -55.8135L178.98 -188.172Z"/>
</mask>
<path d="M178.98 -188.172C180.542 -189.734 183.075 -189.734 184.637 -188.172L316.995 -55.8134C318.557 -54.2513 318.557 -51.7187 316.995 -50.1566L184.637 82.2015C183.075 83.7636 180.542 83.7636 178.98 82.2015L46.622 -50.1567C45.0599 -51.7187 45.0599 -54.2514 46.622 -55.8135L178.98 -188.172Z" fill="white" fill-opacity="0.1"/>
<path d="M46.622 -50.1567L45.9149 -49.4495L46.622 -50.1567ZM46.622 -55.8135L45.9149 -56.5206L46.622 -55.8135ZM184.637 82.2015L183.93 81.4944L184.637 82.2015ZM178.98 82.2015L179.687 81.4944L178.98 82.2015ZM316.995 -50.1566L317.702 -49.4494L316.995 -50.1566ZM184.637 -188.172L183.93 -187.464L184.637 -188.172ZM183.93 -187.464L316.288 -55.1063L317.702 -56.5205L185.344 -188.879L183.93 -187.464ZM316.288 -50.8637L183.93 81.4944L185.344 82.9086L317.702 -49.4494L316.288 -50.8637ZM179.687 81.4944L47.3292 -50.8638L45.9149 -49.4495L178.273 82.9086L179.687 81.4944ZM47.3292 -55.1064L179.687 -187.464L178.273 -188.879L45.9149 -56.5206L47.3292 -55.1064ZM47.3292 -50.8638C46.1576 -52.0353 46.1576 -53.9348 47.3292 -55.1064L45.9149 -56.5206C43.9623 -54.568 43.9623 -51.4022 45.9149 -49.4495L47.3292 -50.8638ZM183.93 81.4944C182.758 82.666 180.859 82.666 179.687 81.4944L178.273 82.9086C180.226 84.8612 183.392 84.8612 185.344 82.9086L183.93 81.4944ZM316.288 -55.1063C317.46 -53.9347 317.46 -52.0352 316.288 -50.8637L317.702 -49.4494C319.655 -51.4021 319.655 -54.5679 317.702 -56.5205L316.288 -55.1063ZM185.344 -188.879C183.391 -190.831 180.226 -190.831 178.273 -188.879L179.687 -187.464C180.859 -188.636 182.758 -188.636 183.93 -187.464L185.344 -188.879Z" fill="white" mask="url(#path-9-outside-5_124_4757)"/>
<mask id="path-11-outside-6_124_4757" maskUnits="userSpaceOnUse" x="-94.6702" y="-161.639" width="552.957" height="552.957" fill="black">
<rect fill="white" x="-94.6702" y="-161.639" width="552.957" height="552.957"/>
<path d="M178.98 -20.7955C180.542 -22.3576 183.075 -22.3576 184.637 -20.7955L316.995 111.563C318.557 113.125 318.557 115.657 316.995 117.22L184.637 249.578C183.075 251.14 180.542 251.14 178.98 249.578L46.622 117.219C45.0599 115.657 45.0599 113.125 46.622 111.563L178.98 -20.7955Z"/>
</mask>
<path d="M178.98 -20.7955C180.542 -22.3576 183.075 -22.3576 184.637 -20.7955L316.995 111.563C318.557 113.125 318.557 115.657 316.995 117.22L184.637 249.578C183.075 251.14 180.542 251.14 178.98 249.578L46.622 117.219C45.0599 115.657 45.0599 113.125 46.622 111.563L178.98 -20.7955Z" fill="white" fill-opacity="0.1"/>
<path d="M46.622 117.219L45.9149 117.927L46.622 117.219ZM46.622 111.563L45.9149 110.856L46.622 111.563ZM184.637 249.578L183.93 248.871L184.637 249.578ZM178.98 249.578L179.687 248.871L178.98 249.578ZM316.995 111.563L317.702 110.856L316.995 111.563ZM316.995 117.22L317.702 117.927L316.995 117.22ZM184.637 -20.7955L183.93 -20.0883L184.637 -20.7955ZM178.98 -20.7955L179.687 -20.0883L178.98 -20.7955ZM183.93 -20.0883L316.288 112.27L317.702 110.856L185.344 -21.5026L183.93 -20.0883ZM316.288 116.512L183.93 248.871L185.344 250.285L317.702 117.927L316.288 116.512ZM179.687 248.871L47.3292 116.512L45.9149 117.927L178.273 250.285L179.687 248.871ZM47.3292 112.27L179.687 -20.0883L178.273 -21.5026L45.9149 110.856L47.3292 112.27ZM47.3292 116.512C46.1576 115.341 46.1576 113.441 47.3292 112.27L45.9149 110.856C43.9623 112.808 43.9623 115.974 45.9149 117.927L47.3292 116.512ZM183.93 248.871C182.758 250.042 180.859 250.042 179.687 248.871L178.273 250.285C180.226 252.237 183.392 252.237 185.344 250.285L183.93 248.871ZM316.288 112.27C317.46 113.441 317.46 115.341 316.288 116.512L317.702 117.927C319.655 115.974 319.655 112.808 317.702 110.856L316.288 112.27ZM185.344 -21.5026C183.391 -23.4552 180.226 -23.4552 178.273 -21.5026L179.687 -20.0883C180.859 -21.2599 182.758 -21.2599 183.93 -20.0883L185.344 -21.5026Z" fill="white" mask="url(#path-11-outside-6_124_4757)"/>
</g>
<rect x="1" y="20" width="20" height="20" rx="10" fill="url(#paint0_linear_124_4757)"/>
<rect x="1" y="20" width="20" height="20" rx="10" stroke="white" stroke-width="2"/>
<path fill-rule="evenodd" clip-rule="evenodd" d="M12.1717 29.9977L9.49333 32.6823C9.10326 33.0732 9.10163 33.7087 9.48969 34.1017C9.87775 34.4947 10.5086 34.4963 10.8986 34.1053L13.8537 31.1435C14.1628 30.8336 14.228 30.3702 14.0486 29.9957C14.2263 29.6216 14.1607 29.1597 13.8523 28.8507L10.9017 25.8932C10.5116 25.5022 9.88081 25.5039 9.49274 25.8968C9.10468 26.2898 9.10631 26.9253 9.49639 27.3163L12.1717 29.9977Z" fill="white"/>
</g>
<defs>
<linearGradient id="paint0_linear_124_4757" x1="2.00003" y1="20.2969" x2="20" y2="39" gradientUnits="userSpaceOnUse">
<stop stop-color="#FF8E3D"/>
<stop offset="1" stop-color="#FF6F3D"/>
</linearGradient>
<clipPath id="clip0_124_4757">
<rect width="403" height="60" fill="white"/>
</clipPath>
</defs>
</svg>
