<svg width="59" height="56" viewBox="0 0 59 56" fill="none" xmlns="http://www.w3.org/2000/svg">
<g clip-path="url(#clip0_110_3674)">
<rect width="59" height="56" fill="#5694DB"/>
<g style="mix-blend-mode:overlay" opacity="0.3">
<path d="M1.46583 48.625V32.065C1.46583 30.505 1.84583 29.105 2.60583 27.865C3.36583 26.625 4.36583 25.645 5.60583 24.925C6.84583 24.165 8.22583 23.785 9.74583 23.785H35.6658C35.8658 23.785 36.0258 23.725 36.1458 23.605C36.3058 23.445 36.3858 23.265 36.3858 23.065V14.005C36.3858 13.805 36.3058 13.645 36.1458 13.525C36.0258 13.365 35.8658 13.285 35.6658 13.285H10.0458C9.84583 13.285 9.66583 13.365 9.50583 13.525C9.38583 13.645 9.32583 13.805 9.32583 14.005V16.945H1.46583V13.705C1.46583 12.145 1.84583 10.745 2.60583 9.505C3.36583 8.265 4.36583 7.285 5.60583 6.565C6.84583 5.805 8.22583 5.425 9.74583 5.425H35.9658C37.4858 5.425 38.8658 5.805 40.1058 6.565C41.3858 7.285 42.3858 8.265 43.1058 9.505C43.8658 10.745 44.2458 12.145 44.2458 13.705V23.425C44.2458 24.905 43.8658 26.285 43.1058 27.565C42.3858 28.805 41.3858 29.805 40.1058 30.565C38.8658 31.325 37.4858 31.705 35.9658 31.705H10.0458C9.84583 31.705 9.66583 31.785 9.50583 31.945C9.38583 32.065 9.32583 32.225 9.32583 32.425V40.045C9.32583 40.245 9.38583 40.425 9.50583 40.585C9.66583 40.705 9.84583 40.765 10.0458 40.765H44.2458V48.625H1.46583Z" fill="white"/>
<path d="M1.46583 48.625V32.065C1.46583 30.505 1.84583 29.105 2.60583 27.865C3.36583 26.625 4.36583 25.645 5.60583 24.925C6.84583 24.165 8.22583 23.785 9.74583 23.785H35.6658C35.8658 23.785 36.0258 23.725 36.1458 23.605C36.3058 23.445 36.3858 23.265 36.3858 23.065V14.005C36.3858 13.805 36.3058 13.645 36.1458 13.525C36.0258 13.365 35.8658 13.285 35.6658 13.285H10.0458C9.84583 13.285 9.66583 13.365 9.50583 13.525C9.38583 13.645 9.32583 13.805 9.32583 14.005V16.945H1.46583V13.705C1.46583 12.145 1.84583 10.745 2.60583 9.505C3.36583 8.265 4.36583 7.285 5.60583 6.565C6.84583 5.805 8.22583 5.425 9.74583 5.425H35.9658C37.4858 5.425 38.8658 5.805 40.1058 6.565C41.3858 7.285 42.3858 8.265 43.1058 9.505C43.8658 10.745 44.2458 12.145 44.2458 13.705V23.425C44.2458 24.905 43.8658 26.285 43.1058 27.565C42.3858 28.805 41.3858 29.805 40.1058 30.565C38.8658 31.325 37.4858 31.705 35.9658 31.705H10.0458C9.84583 31.705 9.66583 31.785 9.50583 31.945C9.38583 32.065 9.32583 32.225 9.32583 32.425V40.045C9.32583 40.245 9.38583 40.425 9.50583 40.585C9.66583 40.705 9.84583 40.765 10.0458 40.765H44.2458V48.625H1.46583Z" fill="white"/>
</g>
<g style="mix-blend-mode:overlay" opacity="0.5">
<path d="M41.9471 47.26C37.1871 47.26 31.8071 46.44 25.8071 44.8V44.86C23.3671 46.14 21.2271 46.78 19.3871 46.78C18.3071 46.78 17.3071 46.52 16.3871 46C15.2271 45.4 14.6471 44.62 14.6471 43.66C14.6471 42.82 15.0671 42.14 15.9071 41.62C16.5471 41.22 17.3471 41.02 18.3071 41.02C19.0671 41.02 21.4471 41.62 25.4471 42.82L25.8071 42.64L26.1071 42.46C39.8671 33.98 48.7871 26.3 52.8671 19.42C54.7071 16.34 55.6271 13.82 55.6271 11.86C55.6271 8.94 53.6871 7.48 49.8071 7.48C47.2471 7.48 44.5871 8.16 41.8271 9.52C39.2671 10.76 37.0071 12.36 35.0471 14.32C34.6871 14.68 34.2471 15.18 33.7271 15.82C33.2071 16.42 32.6071 17.16 31.9271 18.04C31.7671 18.32 31.5071 18.46 31.1471 18.46C30.4671 18.46 30.1271 18.12 30.1271 17.44C30.1271 17.24 30.2071 17.06 30.3671 16.9C32.5271 13.74 35.3871 11.1 38.9471 8.98C42.7471 6.7 46.4271 5.56 49.9871 5.56C52.1471 5.56 53.8871 6.04 55.2071 7C56.6871 8.08 57.4271 9.66 57.4271 11.74C57.4271 14.3 56.4471 17.22 54.4871 20.5C50.2471 27.62 41.4871 35.3 28.2071 43.54C33.3671 44.74 37.8671 45.34 41.7071 45.34C48.6271 45.34 52.0271 44.04 51.9071 41.44L51.8471 41.08C51.8471 40.32 52.1871 39.94 52.8671 39.94C53.4671 39.94 53.7671 40.4 53.7671 41.32C53.7671 45.28 49.8271 47.26 41.9471 47.26ZM19.2671 44.8C20.3071 44.8 21.4671 44.54 22.7471 44.02C20.7071 43.3 19.3871 42.94 18.7871 42.94C17.7071 42.94 17.1671 43.24 17.1671 43.84C17.1671 44.48 17.8671 44.8 19.2671 44.8Z" fill="white"/>
<path d="M41.9471 47.26C37.1871 47.26 31.8071 46.44 25.8071 44.8V44.86C23.3671 46.14 21.2271 46.78 19.3871 46.78C18.3071 46.78 17.3071 46.52 16.3871 46C15.2271 45.4 14.6471 44.62 14.6471 43.66C14.6471 42.82 15.0671 42.14 15.9071 41.62C16.5471 41.22 17.3471 41.02 18.3071 41.02C19.0671 41.02 21.4471 41.62 25.4471 42.82L25.8071 42.64L26.1071 42.46C39.8671 33.98 48.7871 26.3 52.8671 19.42C54.7071 16.34 55.6271 13.82 55.6271 11.86C55.6271 8.94 53.6871 7.48 49.8071 7.48C47.2471 7.48 44.5871 8.16 41.8271 9.52C39.2671 10.76 37.0071 12.36 35.0471 14.32C34.6871 14.68 34.2471 15.18 33.7271 15.82C33.2071 16.42 32.6071 17.16 31.9271 18.04C31.7671 18.32 31.5071 18.46 31.1471 18.46C30.4671 18.46 30.1271 18.12 30.1271 17.44C30.1271 17.24 30.2071 17.06 30.3671 16.9C32.5271 13.74 35.3871 11.1 38.9471 8.98C42.7471 6.7 46.4271 5.56 49.9871 5.56C52.1471 5.56 53.8871 6.04 55.2071 7C56.6871 8.08 57.4271 9.66 57.4271 11.74C57.4271 14.3 56.4471 17.22 54.4871 20.5C50.2471 27.62 41.4871 35.3 28.2071 43.54C33.3671 44.74 37.8671 45.34 41.7071 45.34C48.6271 45.34 52.0271 44.04 51.9071 41.44L51.8471 41.08C51.8471 40.32 52.1871 39.94 52.8671 39.94C53.4671 39.94 53.7671 40.4 53.7671 41.32C53.7671 45.28 49.8271 47.26 41.9471 47.26ZM19.2671 44.8C20.3071 44.8 21.4671 44.54 22.7471 44.02C20.7071 43.3 19.3871 42.94 18.7871 42.94C17.7071 42.94 17.1671 43.24 17.1671 43.84C17.1671 44.48 17.8671 44.8 19.2671 44.8Z" fill="white"/>
</g>
</g>
<defs>
<clipPath id="clip0_110_3674">
<rect width="59" height="56" fill="white"/>
</clipPath>
</defs>
</svg>
