<svg width="104" height="36" viewBox="0 0 104 36" fill="none" xmlns="http://www.w3.org/2000/svg">
<path d="M13.5558 35.9685C10.9008 35.9685 8.58948 35.5569 6.65295 34.7654C4.56024 33.9105 2.93604 32.644 1.78037 30.9975C0.593459 29.3194 0 27.3247 0 25.0766C0 22.8286 0.593461 20.9289 1.8116 19.2824C2.40506 18.4592 3.15469 17.731 3.99802 17.0977C3.49827 16.6544 3.09222 16.1478 2.7174 15.6412C2.65493 15.5779 2.68617 15.4829 2.74864 15.4196C2.81111 15.3563 2.90481 15.3879 2.96727 15.4513C3.37332 16.0212 3.84184 16.5278 4.34159 17.0027C4.37282 17.0344 4.40406 17.0977 4.40406 17.1294C4.40406 17.1927 4.40406 17.2244 4.34159 17.256C3.43579 17.8893 2.68617 18.6175 2.06148 19.4724C0.905801 21.0555 0.312345 22.9553 0.312345 25.1083C0.312345 27.2614 0.9058 29.2244 2.03024 30.8392C3.15468 32.454 4.74764 33.6572 6.77788 34.5121C8.68319 35.272 10.9633 35.6836 13.5558 35.6836C16.1482 35.6836 18.4283 35.3036 20.3649 34.5121C22.4263 33.6888 24.0505 32.454 25.175 30.8392C25.2375 30.7759 25.3312 30.7442 25.3936 30.8076C25.4561 30.8709 25.4873 30.9659 25.4249 31.0292C24.2692 32.6756 22.6138 33.9421 20.4898 34.797C18.522 35.5886 16.2107 35.9685 13.587 35.9685H13.5558ZM13.5558 30.3959C10.8384 30.3959 8.74565 29.8577 7.37134 28.8128C6.12196 27.8946 5.59097 26.7548 5.59097 25.14C5.59097 23.5252 6.15319 22.4803 7.37134 21.5621C7.43381 21.4988 7.52751 21.5305 7.58998 21.5938C7.65245 21.6571 7.62121 21.7521 7.55874 21.8154C6.40307 22.6703 5.90331 23.7152 5.90331 25.14C5.90331 26.5648 6.40307 27.7046 7.55874 28.5595C8.90183 29.5727 10.9008 30.0793 13.5558 30.0793C16.2107 30.0793 18.3034 29.5727 19.6465 28.5595C19.7089 28.4962 19.8027 28.5279 19.8651 28.5912C19.9276 28.6545 19.8964 28.7495 19.8339 28.8128C18.4283 29.8577 16.3356 30.3959 13.5558 30.3959ZM13.5558 14.6914C13.4621 14.6914 13.3996 14.628 13.3996 14.5331C13.3996 14.4381 13.4621 14.3747 13.5558 14.3747C15.8983 14.3747 17.6787 13.9315 18.8344 13.0449C19.8027 12.3167 20.2399 11.4301 20.2399 10.1953C20.2399 8.96047 19.8027 8.0106 18.7719 7.2507C17.5538 6.36415 15.8046 5.88921 13.5558 5.88921C11.3069 5.88921 13.3996 5.82589 13.3996 5.7309C13.3996 5.63591 13.4621 5.57259 13.5558 5.57259C15.8983 5.57259 17.7099 6.04753 18.9593 6.96574C20.0525 7.78896 20.5523 8.77049 20.5523 10.1636C20.5523 11.5568 20.0838 12.4433 19.0218 13.2666C17.8036 14.1848 15.9608 14.6597 13.5558 14.6597V14.6914ZM24.2379 4.87602C24.1755 4.87602 24.1442 4.87602 24.113 4.81269C23.051 3.32456 21.5518 2.18471 19.6777 1.42481C17.9286 0.696574 15.8671 0.348287 13.5558 0.348287C11.2444 0.348287 9.21417 0.696574 7.46504 1.42481C7.37133 1.45647 7.30887 1.42481 7.2464 1.32982C7.18393 1.23483 7.2464 1.17151 7.3401 1.10819C9.12046 0.379949 11.2132 0 13.5245 0C15.8359 0 17.9911 0.379949 19.7714 1.10819C21.708 1.89975 23.2384 3.07126 24.3316 4.59105C24.3941 4.65438 24.3629 4.74937 24.3004 4.81269C24.3004 4.81269 24.238 4.81269 24.2067 4.81269L24.2379 4.87602Z" fill="#7C82FF"/>
<path d="M13.5558 33.4348C11.2132 33.4348 9.24543 33.0866 7.59 32.4216C5.96581 31.7567 4.6852 30.7752 3.81063 29.5404C2.93607 28.2739 2.49878 26.7857 2.49878 25.076C2.49878 23.3662 2.93607 21.973 3.81063 20.7699C4.6852 19.5667 5.93458 18.6485 7.59 17.9836C9.2142 17.3503 11.2132 17.0337 13.5558 17.0337C15.8984 17.0337 17.8661 17.3503 19.5216 17.9836C21.177 18.6168 22.4576 19.535 23.3322 20.7699C24.238 21.973 24.6753 23.4295 24.6753 25.076C24.6753 26.7224 24.238 28.2739 23.3634 29.5404C22.4888 30.8069 21.2082 31.7567 19.5528 32.4216C17.8974 33.0866 15.8984 33.4348 13.5558 33.4348ZM13.5558 32.6116C16.8042 32.6116 19.3342 31.9467 21.1145 30.5852C22.9261 29.2554 23.8007 27.419 23.8007 25.1076C23.8007 22.7963 22.8949 21.0865 21.1145 19.725C19.3029 18.3952 16.8042 17.6986 13.5558 17.6986C10.3074 17.6986 7.83987 18.3635 6.05951 19.725C4.27914 21.0548 3.37335 22.8596 3.37335 25.1076C3.37335 27.3557 4.27914 29.2237 6.05951 30.5852C7.83987 31.915 10.3386 32.6116 13.5558 32.6116ZM13.5558 17.6036C11.4318 17.6036 9.62024 17.3187 8.15222 16.7171C6.6842 16.1155 5.52853 15.2606 4.7789 14.1524C3.99804 13.0442 3.62322 11.7461 3.62322 10.2263C3.62322 8.70648 4.02927 7.28167 4.84136 6.14182C5.65346 5.00197 6.80914 4.11542 8.30839 3.48218C9.80765 2.88059 11.5568 2.56396 13.5558 2.56396C15.5548 2.56396 17.3664 2.88059 18.8656 3.48218C20.3649 4.08376 21.5206 4.97031 22.3639 6.14182C23.2072 7.28167 23.6133 8.64315 23.6133 10.2263C23.6133 11.8094 23.2072 13.0442 22.4264 14.1524C21.6455 15.2606 20.4898 16.1155 18.9906 16.7171C17.4913 17.3187 15.6797 17.6036 13.5558 17.6036ZM13.5558 16.9071C16.4606 16.9071 18.7095 16.3055 20.3337 15.1023C21.9579 13.8991 22.7387 12.2527 22.7387 10.2263C22.7387 8.19988 21.9266 6.45844 20.2712 5.25527C18.6158 4.02044 16.3669 3.41885 13.5558 3.41885C10.7447 3.41885 8.55827 4.02044 6.90284 5.25527C5.27865 6.49011 4.43532 8.13655 4.43532 10.1946C4.43532 12.2527 5.24741 13.8675 6.84037 15.1023C8.43333 16.3371 10.6822 16.9387 13.5558 16.9387V16.9071Z" fill="#74E0DA"/>
<path d="M32.7028 35.9685C31.7658 35.9685 30.86 35.5886 30.1416 34.8604C30.0791 34.797 30.0791 34.7021 30.1416 34.6387C30.204 34.5754 30.2977 34.5754 30.3602 34.6387C30.9849 35.272 31.8282 35.6519 32.6716 35.6519C33.5149 35.6519 34.4519 35.272 35.0766 34.6071C35.1391 34.5437 35.2328 34.5437 35.2953 34.6071C35.3577 34.6704 35.3577 34.7654 35.2953 34.8287C34.6081 35.5569 33.6711 35.9685 32.6716 35.9685H32.7028Z" fill="#7C82FF"/>
<path d="M32.7011 33.4355C32.42 33.4355 32.1701 33.3088 31.9202 33.0872C31.7016 32.8655 31.5767 32.5806 31.5767 32.2956C31.5767 32.0106 31.7016 31.694 31.9202 31.4724C32.1389 31.2507 32.42 31.1558 32.7011 31.1558C32.9822 31.1558 33.2946 31.2507 33.5132 31.4724C33.7318 31.694 33.8255 31.9473 33.8255 32.2956C33.8255 32.6439 33.7318 32.8339 33.5132 33.0872C33.2946 33.3088 33.0447 33.4355 32.7011 33.4355Z" fill="#74E0DA"/>
<path d="M48.9753 19.7574H47.4135C46.0392 19.7574 44.9148 18.6176 44.9148 17.2244V16.5595C44.9148 16.0213 45.1022 15.4513 45.4145 15.0081L52.1299 6.04758H40.1047C40.011 6.04758 39.9485 5.98426 39.9485 5.88927C39.9485 5.79428 40.011 5.73096 40.1047 5.73096H52.4423C52.5047 5.73096 52.5672 5.76262 52.5672 5.82594C52.5672 5.88927 52.5672 5.95259 52.5672 5.98426L45.6644 15.198C45.3833 15.578 45.2271 16.0529 45.2271 16.5278V17.1928C45.2271 18.4276 46.1954 19.4091 47.4135 19.4091H48.9753C49.069 19.4091 49.1314 19.4725 49.1314 19.5674C49.1314 19.6624 49.069 19.7258 48.9753 19.7258V19.7574Z" fill="#7C82FF"/>
<path d="M49.5379 30.396C47.6326 30.396 45.9459 30.0794 44.5091 29.4145C43.1348 28.7812 42.1041 28.053 41.5106 27.2298C41.4481 27.1665 41.4794 27.0715 41.5419 27.0081C41.6043 26.9448 41.698 26.9765 41.7605 27.0398C42.3227 27.8314 43.291 28.5279 44.6341 29.1295C46.0396 29.7628 47.695 30.0794 49.5379 30.0794C51.3807 30.0794 49.694 30.1427 49.694 30.2377C49.694 30.3327 49.6316 30.396 49.5379 30.396Z" fill="#7C82FF"/>
<path d="M49.5375 35.9684C49.4438 35.9684 49.3813 35.9051 49.3813 35.8101C49.3813 35.7151 49.4438 35.6518 49.5375 35.6518C52.005 35.6518 54.1602 35.2085 55.9406 34.3536C57.8147 33.4354 59.2514 32.1689 60.2509 30.4908C61.2192 28.876 61.719 26.9763 61.719 24.8866C61.719 21.6886 60.5945 19.0607 58.3769 17.0659C57.0026 15.8311 55.2222 14.9762 53.0358 14.5329C52.9421 14.5329 52.9108 14.4379 52.9108 14.343C52.9108 14.248 53.0046 14.2163 53.0983 14.2163C55.3159 14.6912 57.1587 15.5461 58.5643 16.8443C60.8444 18.9023 62.0001 21.6253 62.0001 24.9182C62.0001 28.2111 61.5003 29.0027 60.5008 30.6808C59.4701 32.3906 58.0021 33.7204 56.0655 34.6702C54.2539 35.5568 52.0675 36.0001 49.5375 36.0001V35.9684Z" fill="#7C82FF"/>
<path d="M60.7189 3.51442C60.6252 3.51442 60.5628 3.4511 60.5628 3.35611V2.6912C60.5628 1.45636 59.5945 0.474828 58.3763 0.474828H40.1354C40.0417 0.474828 39.9792 0.411503 39.9792 0.316515C39.9792 0.221528 40.0417 0.158203 40.1354 0.158203H58.3763C59.7507 0.158203 60.8751 1.29805 60.8751 2.6912V3.35611C60.8751 3.4511 60.8126 3.51442 60.7189 3.51442Z" fill="#7C82FF"/>
<path d="M49.5373 33.4356C47.2572 33.4356 45.1957 33.024 43.3529 32.2008C41.5101 31.3776 40.1045 30.3644 39.1987 29.0979L39.7609 28.528C40.6043 29.6678 41.8849 30.6177 43.634 31.4092C45.3831 32.2008 47.3509 32.5807 49.5686 32.5807C51.7862 32.5807 54.816 31.8842 56.3464 30.491C57.8769 29.0979 58.6578 27.2298 58.6578 24.8868C58.6578 22.5438 57.8769 20.6757 56.3152 19.2825C54.7535 17.8894 52.3172 17.1928 49.0063 17.1928H47.4446V16.5279L57.4396 3.19801L57.5333 3.51463H40.167V2.69141H58.4079V3.35632L48.4129 16.6862L48.3192 16.3696H48.9751C52.5358 16.3696 55.1908 17.1611 56.9399 18.7443C58.689 20.3274 59.5636 22.3854 59.5636 24.9184C59.5636 27.4514 59.1888 28.0847 58.4079 29.3828C57.6583 30.681 56.5338 31.6625 55.0346 32.3908C53.5666 33.119 51.7237 33.4673 49.5686 33.4673L49.5373 33.4356Z" fill="#74E0DA"/>
<path fill-rule="evenodd" clip-rule="evenodd" d="M93.5436 17.9975L89.2936 22.2574C88.9036 22.6483 88.9019 23.2838 89.29 23.6768L89.317 23.7042C89.7051 24.0972 90.3359 24.0988 90.726 23.7078L95.7058 18.7165C95.9258 18.496 96.0223 18.1977 95.9949 17.909C95.9768 17.6784 95.8799 17.4531 95.7044 17.2772L90.731 12.2923C90.3409 11.9013 89.7101 11.9029 89.3221 12.2959L89.295 12.3233C88.907 12.7163 88.9086 13.3518 89.2987 13.7428L93.5436 17.9975Z" fill="white"/>
</svg>
