<svg width="211" height="142" viewBox="0 0 211 142" fill="none" xmlns="http://www.w3.org/2000/svg">
<g opacity="0.9" clip-path="url(#clip0_1374_25708)">
<rect width="211" height="142" fill="#F0F6F9"/>
<path opacity="0.7" fill-rule="evenodd" clip-rule="evenodd" d="M105.532 92.0294L244.661 -12.7875C256.496 -21.8561 255.391 -30.7598 242.193 -32.69L86.6922 -59.858C73.4286 -62.3119 53.241 -56.9915 41.9522 -48.0668L-97.177 56.7502C-109.011 65.8187 -107.907 74.7224 -94.7083 76.6527L60.792 103.821C76.2466 106.751 94.1783 100.43 105.532 92.0294Z" fill="url(#paint0_linear_1374_25708)"/>
<path fill-rule="evenodd" clip-rule="evenodd" d="M120.48 79.2617L226.143 -59.2263C235.089 -71.1532 231.622 -79.4281 218.392 -77.7231L61.3318 -61.8985C47.8981 -60.6803 29.8967 -50.107 21.4367 -38.4659L-84.226 100.022C-93.1725 111.949 -89.7052 120.224 -76.4755 118.519L80.5851 102.694C96.2568 101.343 111.816 90.416 120.48 79.2617Z" fill="url(#paint1_linear_1374_25708)"/>
</g>
<defs>
<linearGradient id="paint0_linear_1374_25708" x1="36.4588" y1="4.36111" x2="117.344" y2="147.496" gradientUnits="userSpaceOnUse">
<stop stop-color="#D9F4FF"/>
<stop offset="1" stop-color="#D9F4FF" stop-opacity="0"/>
</linearGradient>
<linearGradient id="paint1_linear_1374_25708" x1="30.3024" y1="13.4982" x2="183.046" y2="106.365" gradientUnits="userSpaceOnUse">
<stop stop-color="#D9F4FF"/>
<stop offset="0.329457" stop-color="#D9F4FF" stop-opacity="0"/>
</linearGradient>
<clipPath id="clip0_1374_25708">
<rect width="211" height="142" fill="white"/>
</clipPath>
</defs>
</svg>
