<svg width="87" height="56" viewBox="0 0 87 56" fill="none" xmlns="http://www.w3.org/2000/svg">
<g clip-path="url(#clip0_1392_32287)">
<path d="M38.9043 82.5815L38.9043 31.8569L12.0937 31.857L1.36085 43.3638L1.36086 82.5815L38.9043 82.5815Z" fill="white" stroke="#9ADAF3" stroke-width="2"/>
<path d="M2.63865 42.147L10.6592 42.147L10.6592 33.4221L2.63865 42.147Z" fill="#EEFBFF" stroke="#9ADAF3" stroke-width="2"/>
<rect width="15" height="1" transform="matrix(-1 0 0 1 33.3608 44.8567)" fill="#AAAAAA"/>
<rect width="15" height="1" transform="matrix(-1 0 0 1 33.3608 48.8567)" fill="#AAAAAA"/>
<rect width="23" height="1" transform="matrix(-1 0 0 1 33.3608 52.8567)" fill="#AAAAAA"/>
<path d="M32.3403 65.0022L32.3403 2.07739L65.3078 2.0774L79.2312 16.006L79.2312 65.0022L32.3403 65.0022Z" fill="white" stroke="#9ADAF3" stroke-width="2"/>
<path d="M66.7168 14.5918L66.7168 3.49154L77.817 14.5918L66.7168 14.5918Z" fill="#EEFBFF" stroke="#9ADAF3" stroke-width="2"/>
<rect x="40.7715" y="27.4402" width="14" height="1" fill="#AAAAAA"/>
<rect x="40.7715" y="31.8567" width="30" height="1" fill="#AAAAAA"/>
<rect x="40.7715" y="36.8567" width="30" height="1" fill="#AAAAAA"/>
<rect x="59.7715" y="40.8567" width="12" height="1" fill="#AAAAAA"/>
<rect x="59.7715" y="45.8567" width="12" height="1" fill="#AAAAAA"/>
<rect x="40.7715" y="22.8567" width="14" height="1" fill="#AAAAAA"/>
<rect width="34" height="13" transform="matrix(-1 0 0 1 55.3608 -0.143311)" fill="#9ADAF3"/>
<rect x="-0.5" y="0.5" width="31" height="10" transform="matrix(-1 0 0 1 53.3608 0.856689)" stroke="white"/>
<path d="M84.6762 26.3664L80.7191 22.3944L64.5315 38.3869L63.3686 43.5277L68.5003 42.3951L84.6762 26.3664Z" fill="white"/>
<path d="M81.1719 29.8588L77.2148 25.8867L64.3983 38.5194L68.58 42.3154L81.1719 29.8588Z" fill="url(#paint0_linear_1392_32287)"/>
<path fill-rule="evenodd" clip-rule="evenodd" d="M68.4444 42.0935L83.901 26.6885C84.1113 26.4789 84.1069 26.1434 83.8912 25.9393L81.0076 23.2099C80.7919 23.0058 80.4465 23.0102 80.2361 23.2198L64.7796 38.6248C64.7136 38.6906 64.6663 38.7719 64.6424 38.8608L63.6132 42.6883C63.5062 43.0859 63.8857 43.445 64.2922 43.331L68.205 42.2328C68.2959 42.2073 68.3784 42.1593 68.4444 42.0935ZM84.2916 27.0582C84.7122 26.6389 84.7035 25.968 84.272 25.5597L81.3884 22.8304C80.957 22.422 80.2662 22.4309 79.8456 22.8501L64.389 38.2551C64.257 38.3867 64.1624 38.5494 64.1146 38.7272L63.0853 42.5546C62.8715 43.3498 63.6304 44.0681 64.4433 43.84L68.3562 42.7418C68.538 42.6908 68.703 42.5948 68.835 42.4632L84.2916 27.0582Z" fill="#555F65"/>
<path d="M79.4839 27.9629L66.8295 40.5751L66.3354 40.1075L78.9899 27.4953L79.4839 27.9629Z" fill="white"/>
<path fill-rule="evenodd" clip-rule="evenodd" d="M64.5774 38.2735L68.6771 41.992L68.3048 42.3792L64.2051 38.6606L64.5774 38.2735Z" fill="#555F65"/>
<path fill-rule="evenodd" clip-rule="evenodd" d="M77.5437 25.7867L81.4414 29.6713L81.0495 30.0393L77.1519 26.1546L77.5437 25.7867Z" fill="#555F65"/>
<path fill-rule="evenodd" clip-rule="evenodd" d="M64.0312 40.8209L66.3353 42.9018L64.0314 43.5886L63.3214 42.9016L64.0312 40.8209Z" fill="#555F65"/>
<path fill-rule="evenodd" clip-rule="evenodd" d="M78.5217 24.8702L82.2997 28.6377L81.9091 29.0072L78.1311 25.2397L78.5217 24.8702Z" fill="#555F65"/>
<path d="M25.4776 25.842C25.4776 31.423 20.9482 35.9473 15.3609 35.9473C9.77355 35.9473 5.24414 31.423 5.24414 25.842C5.24414 20.2609 9.77355 15.7366 15.3609 15.7366C20.9482 15.7366 25.4776 20.2609 25.4776 25.842Z" fill="white"/>
<path d="M15.5489 14.8583C9.4749 14.7557 4.46641 19.5401 4.36264 25.5444C4.30369 28.9489 5.698 32.0469 8.14206 34.0817C8.30187 33.9438 8.61401 33.7793 8.80453 33.6767L12.0867 31.907C12.5171 31.6747 12.7853 31.2287 12.7853 30.7437V29.4142C12.7853 29.4142 11.8218 28.2752 11.4545 26.6925C11.1498 26.4976 10.9456 26.1607 10.9456 25.7771V24.3221C10.9456 24.002 11.0896 23.716 11.3133 23.5158V21.4124C11.3133 21.4124 10.8763 18.1393 15.3605 18.1393C19.8447 18.1393 19.4076 21.4124 19.4076 21.4124V23.5158C19.6318 23.716 19.7754 24.002 19.7754 24.3221V25.7771C19.7754 26.2662 19.4433 26.6778 18.9925 26.8152C18.7414 27.587 18.379 28.3228 17.9 28.9916C17.7792 29.1602 17.6663 29.303 17.5675 29.4142V30.7773C17.5675 31.2792 17.8544 31.7383 18.3085 31.9623L21.8231 33.6993C22.0339 33.8035 22.404 33.9352 22.5796 34.0817C24.9498 32.1277 26.3015 29.2062 26.3583 25.9162C26.4629 19.9119 21.3623 14.9565 15.5489 14.8583Z" fill="url(#paint1_linear_1392_32287)"/>
<path fill-rule="evenodd" clip-rule="evenodd" d="M26.3608 25.8424C26.3608 31.9078 21.4378 36.8281 15.3608 36.8281C9.28384 36.8281 4.36084 31.9078 4.36084 25.8424C4.36084 19.777 9.28384 14.8567 15.3608 14.8567C21.4378 14.8567 26.3608 19.777 26.3608 25.8424ZM15.3608 35.9478C20.9481 35.9478 25.4776 31.4235 25.4776 25.8424C25.4776 20.2614 20.9481 15.737 15.3608 15.737C9.77354 15.737 5.24413 20.2614 5.24413 25.8424C5.24413 31.4235 9.77354 35.9478 15.3608 35.9478Z" fill="#657077"/>
<path d="M48.7076 46.6578C48.7076 50.1371 45.8834 52.9575 42.3997 52.9575C38.9159 52.9575 36.0918 50.1371 36.0918 46.6578C36.0918 43.1786 38.9159 40.3582 42.3997 40.3582C45.8834 40.3582 48.7076 43.1786 48.7076 46.6578Z" fill="white"/>
<path d="M42.6887 40.0716C39.0475 40.0075 36.157 42.2831 36.0948 46.0392C36.0595 48.1689 36.8964 50.539 38.3615 51.8119C38.4573 51.7257 38.6444 51.6228 38.7586 51.5586L40.7262 50.4515C40.9842 50.3062 41.1449 50.0272 41.1449 49.7238V48.8921C41.1449 48.8921 40.5674 48.1796 40.3472 47.1895C40.1645 47.0676 40.0421 46.8569 40.0421 46.6169V45.7067C40.0421 45.5064 40.1285 45.3275 40.2626 45.2023V43.8865C40.2626 43.8865 40.0006 41.8389 42.6887 41.8389C45.3768 41.8389 45.1148 43.8865 45.1148 43.8865V45.2023C45.2492 45.3275 45.3353 45.5064 45.3353 45.7067V46.6169C45.3353 46.9228 45.1362 47.1803 44.866 47.2663C44.7154 47.7491 44.4982 48.2093 44.211 48.6277C44.1386 48.7332 44.0709 48.8226 44.0117 48.8921V49.7448C44.0117 50.0588 44.1837 50.346 44.4559 50.4861L46.5627 51.5727L46.9892 51.5256C48.41 50.3033 48.9622 48.7157 48.9962 46.6576C49.0492 43.4615 46.3301 40.1358 42.6887 40.0716Z" fill="#CCCCCC"/>
<path fill-rule="evenodd" clip-rule="evenodd" d="M49.3608 46.738C49.3608 50.5385 46.2268 53.6194 42.3608 53.6194C38.4948 53.6194 35.3608 50.5385 35.3608 46.738C35.3608 42.9376 38.4948 39.8567 42.3608 39.8567C46.2268 39.8567 49.3608 42.9376 49.3608 46.738ZM42.3608 53.046C45.9047 53.046 48.7775 50.2218 48.7775 46.738C48.7775 43.2543 45.9047 40.4301 42.3608 40.4301C38.817 40.4301 35.9442 43.2543 35.9442 46.738C35.9442 50.2218 38.817 53.046 42.3608 53.046Z" fill="#657077"/>
</g>
<defs>
<linearGradient id="paint0_linear_1392_32287" x1="64.3974" y1="25.244" x2="80.8112" y2="42.6571" gradientUnits="userSpaceOnUse">
<stop stop-color="#FFC671"/>
<stop offset="0.59375" stop-color="#FF7541"/>
<stop offset="1" stop-color="#FF6F3D"/>
</linearGradient>
<linearGradient id="paint1_linear_1392_32287" x1="4.36088" y1="14.1057" x2="23.3153" y2="36.6424" gradientUnits="userSpaceOnUse">
<stop stop-color="#FFC671"/>
<stop offset="0.59375" stop-color="#FF7541"/>
<stop offset="1" stop-color="#FF6F3D"/>
</linearGradient>
<clipPath id="clip0_1392_32287">
<rect width="86" height="56" fill="white" transform="translate(0.36084)"/>
</clipPath>
</defs>
</svg>
