<svg width="211" height="142" viewBox="0 0 211 142" fill="none" xmlns="http://www.w3.org/2000/svg">
<g opacity="0.9" clip-path="url(#clip0_1374_25834)">
<rect width="211" height="142" transform="matrix(1 0 0 -1 0 142)" fill="white"/>
<mask id="mask0_1374_25834" style="mask-type:alpha" maskUnits="userSpaceOnUse" x="0" y="0" width="211" height="267">
<rect width="211" height="267" transform="matrix(1 0 0 -1 0 267)" fill="white"/>
</mask>
<g mask="url(#mask0_1374_25834)">
<path opacity="0.4" d="M111.69 78.1262L111.699 78.1237C123.161 74.8561 137.249 65.2675 144.598 51.5743C144.6 51.5723 144.601 51.5702 144.602 51.5682L218.268 -81.8439C218.27 -81.8475 218.272 -81.8512 218.274 -81.8548C221.537 -87.4556 222.361 -92.383 220.2 -95.5337C219.124 -97.104 217.404 -98.0564 215.247 -98.4182C213.095 -98.7789 210.451 -98.5654 207.395 -97.7574L207.386 -97.7552L68.3911 -59.6101C68.387 -59.6091 68.383 -59.6081 68.379 -59.6071C62.4482 -58.1464 55.8049 -54.4157 49.8786 -49.6348C43.9477 -44.8501 38.6487 -38.9438 35.4594 -33.0535C35.4587 -33.0522 35.458 -33.0509 35.4573 -33.0496L-38.217 100.377C-41.4802 105.978 -42.3035 110.905 -40.1434 114.056C-39.0668 115.626 -37.3473 116.579 -35.1897 116.94C-33.0379 117.301 -30.3938 117.088 -27.3377 116.28L-27.3294 116.277L111.69 78.1262Z" fill="#F2F2F2" stroke="#F2F2F2" stroke-width="2"/>
<path opacity="0.4" d="M198.69 222.126L198.699 222.123C210.161 218.856 224.249 209.267 231.598 195.574C231.6 195.572 231.601 195.57 231.602 195.568L305.268 62.1556C305.27 62.152 305.272 62.1484 305.274 62.1447C308.537 56.5439 309.361 51.6165 307.2 48.4658C306.124 46.8955 304.404 45.9431 302.247 45.5814C300.095 45.2207 297.451 45.4341 294.395 46.2421L294.386 46.2443L155.391 84.3894C155.387 84.3904 155.383 84.3914 155.379 84.3924C149.448 85.8531 142.805 89.5838 136.879 94.3647C130.948 99.1494 125.649 105.056 122.459 110.946C122.459 110.947 122.458 110.949 122.457 110.95L48.783 244.377C45.5198 249.977 44.6965 254.905 46.8566 258.055C47.9332 259.626 49.6527 260.578 51.8103 260.94C53.9621 261.301 56.6062 261.087 59.6623 260.279L59.6706 260.277L198.69 222.126Z" fill="#F2F2F2" stroke="#F2F2F2" stroke-width="2"/>
<path opacity="0.4" d="M224.038 208.965L224.042 208.963C234.484 203.44 246.177 191.236 250.481 176.473C250.481 176.472 250.482 176.471 250.482 176.47L294.897 30.6662C294.898 30.6641 294.899 30.6619 294.899 30.6598C296.922 24.5349 296.612 19.8437 294.087 17.4395C292.827 16.2396 291.082 15.6856 288.982 15.7754C286.886 15.865 284.407 16.5958 281.621 18.0015L281.617 18.0035L153.538 84.139C153.536 84.1399 153.534 84.1407 153.532 84.1416C148.112 86.7602 142.437 91.7337 137.658 97.6059C132.877 103.48 128.957 110.297 127.084 116.635C127.084 116.636 127.083 116.637 127.083 116.638L82.6674 262.443C82.6667 262.445 82.6661 262.447 82.6654 262.449C80.6429 268.574 80.9529 273.266 83.4775 275.67C84.7375 276.87 86.4827 277.424 88.5822 277.334C90.6786 277.244 93.1574 276.513 95.9436 275.108L95.9474 275.106L224.038 208.965Z" stroke="#F2F2F2"/>
<path d="M98.618 21.2052L98.614 21.2144C92.9072 34.3904 80.3748 49.0841 65.2417 54.4004C65.2397 54.4011 65.2377 54.4018 65.2357 54.4025L-82.9028 108.826C-82.9066 108.827 -82.9105 108.829 -82.9143 108.83C-89.1789 111.329 -94.1574 110.967 -96.7415 107.557C-99.3157 104.16 -99.0276 98.3648 -96.1483 91.3981L-96.1446 91.3894L-28.3058 -69.0225C-28.3041 -69.0268 -28.3024 -69.0311 -28.3006 -69.0354C-25.5784 -75.908 -20.4543 -83.0497 -14.4403 -89.0318C-8.42214 -95.0179 -1.43325 -99.922 5.07856 -102.242C5.0801 -102.243 5.08164 -102.243 5.08318 -102.244L153.237 -156.673C159.501 -159.171 164.48 -158.809 167.064 -155.399C169.638 -152.002 169.35 -146.207 166.471 -139.241L166.467 -139.232L98.618 21.2052Z" fill="#F2F2F2" stroke="#F2F2F2" stroke-width="2"/>
</g>
</g>
<defs>
<clipPath id="clip0_1374_25834">
<rect width="211" height="142" fill="white"/>
</clipPath>
</defs>
</svg>
