<svg width="211" height="142" viewBox="0 0 211 142" fill="none" xmlns="http://www.w3.org/2000/svg">
<g opacity="0.9">
<g clip-path="url(#clip0_1166_15449)">
<rect width="211" height="142" rx="6" transform="matrix(1 0 0 -1 0 142)" fill="white"/>
<mask id="mask0_1166_15449" style="mask-type:alpha" maskUnits="userSpaceOnUse" x="0" y="0" width="211" height="267">
<rect width="211" height="267" rx="6" transform="matrix(1 0 0 -1 0 267)" fill="white"/>
</mask>
<g mask="url(#mask0_1166_15449)">
<path opacity="0.4" d="M111.69 78.1262L111.699 78.1237C123.161 74.8561 137.249 65.2675 144.598 51.5743C144.6 51.5723 144.601 51.5702 144.602 51.5682L218.268 -81.8439C218.27 -81.8475 218.272 -81.8512 218.274 -81.8548C221.537 -87.4556 222.361 -92.383 220.2 -95.5337C219.124 -97.104 217.404 -98.0564 215.247 -98.4182C213.095 -98.7789 210.451 -98.5654 207.395 -97.7574L207.386 -97.7552L68.3911 -59.6101C68.387 -59.6091 68.383 -59.6081 68.379 -59.6071C62.4482 -58.1464 55.8049 -54.4157 49.8786 -49.6348C43.9477 -44.8501 38.6487 -38.9438 35.4594 -33.0535C35.4587 -33.0522 35.458 -33.0509 35.4573 -33.0496L-38.217 100.377C-41.4802 105.978 -42.3035 110.905 -40.1434 114.056C-39.0668 115.626 -37.3473 116.579 -35.1897 116.94C-33.0379 117.301 -30.3938 117.088 -27.3377 116.28L-27.3294 116.277L111.69 78.1262Z" fill="#F2F2F2" stroke="#F2F2F2" stroke-width="2"/>
<path opacity="0.4" d="M198.69 222.126L198.699 222.123C210.161 218.856 224.249 209.267 231.598 195.574C231.6 195.572 231.601 195.57 231.602 195.568L305.268 62.1556C305.27 62.152 305.272 62.1484 305.274 62.1447C308.537 56.5439 309.361 51.6165 307.2 48.4658C306.124 46.8955 304.404 45.9431 302.247 45.5814C300.095 45.2207 297.451 45.4341 294.395 46.2421L294.386 46.2443L155.391 84.3894C155.387 84.3904 155.383 84.3914 155.379 84.3924C149.448 85.8531 142.805 89.5838 136.879 94.3647C130.948 99.1494 125.649 105.056 122.459 110.946C122.459 110.947 122.458 110.949 122.457 110.95L48.783 244.377C45.5198 249.977 44.6965 254.905 46.8566 258.055C47.9332 259.626 49.6527 260.578 51.8103 260.94C53.9621 261.301 56.6062 261.087 59.6623 260.279L59.6706 260.277L198.69 222.126Z" fill="#F2F2F2" stroke="#F2F2F2" stroke-width="2"/>
<path opacity="0.4" d="M224.038 208.965L224.042 208.963C234.484 203.44 246.176 191.236 250.481 176.473C250.481 176.472 250.481 176.471 250.481 176.47L294.897 30.6662C294.897 30.6641 294.898 30.6619 294.899 30.6598C296.921 24.5349 296.611 19.8437 294.087 17.4395C292.827 16.2396 291.081 15.6856 288.982 15.7754C286.885 15.865 284.407 16.5958 281.621 18.0015L281.617 18.0035L153.537 84.139C153.535 84.1399 153.533 84.1407 153.532 84.1416C148.112 86.7602 142.436 91.7337 137.657 97.6059C132.876 103.48 128.957 110.297 127.083 116.635C127.083 116.636 127.083 116.637 127.083 116.638L82.6669 262.443C82.6662 262.445 82.6656 262.447 82.6649 262.449C80.6424 268.574 80.9524 273.266 83.477 275.67C84.737 276.87 86.4822 277.424 88.5817 277.334C90.6781 277.244 93.1569 276.513 95.9431 275.108L95.9469 275.106L224.038 208.965Z" stroke="#F2F2F2"/>
<path d="M98.6175 21.2052L98.6135 21.2144C92.9067 34.3904 80.3743 49.0841 65.2412 54.4004C65.2392 54.4011 65.2372 54.4018 65.2352 54.4025L-82.9033 108.826C-82.9071 108.827 -82.911 108.829 -82.9148 108.83C-89.1794 111.329 -94.1579 110.967 -96.742 107.557C-99.3162 104.16 -99.0281 98.3648 -96.1488 91.3981L-96.1451 91.3894L-28.3063 -69.0225C-28.3046 -69.0268 -28.3028 -69.0311 -28.3011 -69.0354C-25.5789 -75.908 -20.4548 -83.0497 -14.4408 -89.0318C-8.42263 -95.0179 -1.43373 -99.922 5.07807 -102.242C5.07961 -102.243 5.08115 -102.243 5.08269 -102.244L153.236 -156.673C159.501 -159.171 164.479 -158.809 167.063 -155.399C169.638 -152.002 169.35 -146.207 166.47 -139.241L166.467 -139.232L98.6175 21.2052Z" fill="#F2F2F2" stroke="#F2F2F2" stroke-width="2"/>
</g>
<path d="M210.953 98.8446C210.953 98.1146 210.87 97.3035 210.787 96.5736L213.936 94.4648L212.527 90.3283L208.798 90.4094C208.052 89.0306 207.14 87.814 206.063 86.6785L207.306 83.1909L203.659 80.6765L200.676 82.9475C199.267 82.2987 197.775 81.812 196.2 81.5687L195.206 78H190.73L189.653 81.4876C188.078 81.7309 186.587 82.2176 185.178 82.8664L182.194 80.6765L178.63 83.272L179.873 86.7596C178.796 87.8951 177.884 89.1117 177.138 90.4905L173.409 90.4094L172 94.4648L175.149 96.5736C175.066 97.3035 174.984 98.0335 174.984 98.8446C174.984 99.6556 175.066 100.386 175.149 101.116L172 103.224L173.409 107.361L177.221 107.28C177.967 108.659 178.879 109.875 179.956 110.93L178.63 114.417L182.277 117.013L185.261 114.742C186.669 115.39 188.161 115.877 189.653 116.12L190.73 119.689H195.206L196.283 116.12C197.858 115.877 199.35 115.39 200.676 114.742L203.659 117.013L207.306 114.417L206.063 110.93C207.14 109.794 208.052 108.577 208.798 107.28L212.61 107.361L214.019 103.224L210.87 101.116C210.87 100.386 210.953 99.5745 210.953 98.8446Z" stroke="#E2E2E2" stroke-miterlimit="10" stroke-linecap="round" stroke-linejoin="round"/>
<path d="M192.969 109.956C199.239 109.956 204.323 104.981 204.323 98.8444C204.323 92.7075 199.239 87.7327 192.969 87.7327C186.698 87.7327 181.614 92.7075 181.614 98.8444C181.614 104.981 186.698 109.956 192.969 109.956Z" stroke="#E2E2E2" stroke-miterlimit="10" stroke-linecap="round" stroke-linejoin="round"/>
<path d="M151.953 137.845C151.953 137.115 151.87 136.304 151.787 135.574L154.936 133.465L153.527 129.328L149.798 129.409C149.052 128.031 148.14 126.814 147.063 125.678L148.306 122.191L144.659 119.677L141.676 121.948C140.267 121.299 138.775 120.812 137.2 120.569L136.206 117H131.73L130.653 120.488C129.078 120.731 127.587 121.218 126.178 121.866L123.194 119.677L119.63 122.272L120.873 125.76C119.796 126.895 118.884 128.112 118.138 129.491L114.409 129.409L113 133.465L116.149 135.574C116.066 136.304 115.984 137.033 115.984 137.845C115.984 138.656 116.066 139.386 116.149 140.116L113 142.224L114.409 146.361L118.221 146.28C118.967 147.659 119.879 148.875 120.956 149.93L119.63 153.417L123.277 156.013L126.261 153.742C127.669 154.39 129.161 154.877 130.653 155.12L131.73 158.689H136.206L137.283 155.12C138.858 154.877 140.35 154.39 141.676 153.742L144.659 156.013L148.306 153.417L147.063 149.93C148.14 148.794 149.052 147.577 149.798 146.28L153.61 146.361L155.019 142.224L151.87 140.116C151.87 139.386 151.953 138.575 151.953 137.845Z" stroke="#E2E2E2" stroke-miterlimit="10" stroke-linecap="round" stroke-linejoin="round"/>
<path d="M133.969 148.956C140.239 148.956 145.323 143.981 145.323 137.844C145.323 131.708 140.239 126.733 133.969 126.733C127.698 126.733 122.614 131.708 122.614 137.844C122.614 143.981 127.698 148.956 133.969 148.956Z" stroke="#E2E2E2" stroke-miterlimit="10" stroke-linecap="round" stroke-linejoin="round"/>
<path d="M135.785 120.782L143.383 121.045L143.248 124.798L135.65 124.535C134.826 124.506 134.208 123.843 134.238 123.02L134.267 122.196C134.294 121.463 135.005 120.8 135.785 120.782Z" fill="white" stroke="#9ADAF3" stroke-width="2" stroke-miterlimit="10" stroke-linecap="round" stroke-linejoin="round"/>
<path d="M136.248 107.874L143.847 108.138L143.712 111.891L136.113 111.628C135.289 111.599 134.671 110.936 134.701 110.112L134.731 109.288C134.76 108.465 135.424 107.846 136.248 107.874Z" fill="white" stroke="#9ADAF3" stroke-width="2" stroke-miterlimit="10" stroke-linecap="round" stroke-linejoin="round"/>
<path d="M144.022 104.523L148.6 104.682C155.191 104.91 160.354 110.451 160.118 117.042C159.881 123.633 154.333 128.803 147.742 128.575L143.164 128.416L144.022 104.523Z" fill="white" stroke="#9ADAF3" stroke-width="2" stroke-miterlimit="10"/>
<path d="M159.275 112.429L161.381 112.502C162.204 112.531 162.866 113.241 162.881 114.112L162.661 120.246C162.631 121.07 161.92 121.733 161.049 121.748L158.943 121.675L159.275 112.429Z" fill="white" stroke="#9ADAF3" stroke-width="2" stroke-miterlimit="10" stroke-linecap="round" stroke-linejoin="round"/>
<path d="M162.648 119.008L166.337 119.135L166.47 115.446L162.78 115.318L162.648 119.008Z" fill="white" stroke="#9ADAF3" stroke-width="2" stroke-miterlimit="10" stroke-linecap="round" stroke-linejoin="round"/>
<path d="M167.056 117.516L250.125 118.654" stroke="#9ADAF3" stroke-width="3.4138"/>
<path d="M203.121 117.132C203.121 124.896 196.827 131.191 189.063 131.191C181.298 131.191 175.004 124.896 175.004 117.132C175.004 109.368 181.298 103.073 189.063 103.073C196.827 103.073 203.121 109.368 203.121 117.132Z" fill="white"/>
<path fill-rule="evenodd" clip-rule="evenodd" d="M204.165 117.063C204.165 125.379 197.415 132.126 189.082 132.126C180.75 132.126 174 125.379 174 117.063C174 108.746 180.75 102 189.082 102C197.415 102 204.165 108.746 204.165 117.063ZM189.082 130.919C196.743 130.919 202.954 124.715 202.954 117.063C202.954 109.41 196.743 103.207 189.082 103.207C181.422 103.207 175.211 109.41 175.211 117.063C175.211 124.715 181.422 130.919 189.082 130.919Z" fill="#657077"/>
<path fill-rule="evenodd" clip-rule="evenodd" d="M188.063 117.289L180.629 113.813C179.995 113.51 179.995 113.041 180.629 112.765L188.063 109.289C188.696 108.985 189.715 108.985 190.32 109.289L197.754 112.765C198.387 113.068 198.387 113.537 197.754 113.813L190.32 117.289C189.687 117.565 188.668 117.565 188.063 117.289Z" fill="#5DC0E8"/>
<path fill-rule="evenodd" clip-rule="evenodd" d="M182.729 119.012L188.063 121.506C188.669 121.782 189.688 121.782 190.321 121.506L195.654 119.013L197.754 119.995C198.387 120.298 198.387 120.767 197.754 121.043L190.32 124.519C189.687 124.795 188.668 124.795 188.063 124.519L180.629 121.043C179.995 120.74 179.995 120.271 180.629 119.995L182.729 119.012Z" fill="#FF6F3D"/>
<path fill-rule="evenodd" clip-rule="evenodd" d="M182.729 115.397L188.063 117.891C188.668 118.167 189.687 118.167 190.32 117.891L195.654 115.397L197.754 116.38C198.387 116.683 198.387 117.152 197.754 117.428L190.32 120.904C189.687 121.18 188.668 121.18 188.063 120.904L180.629 117.428C179.995 117.125 179.995 116.656 180.629 116.38L182.729 115.397Z" fill="#95C038"/>
</g>
</g>
<defs>
<clipPath id="clip0_1166_15449">
<rect width="211" height="142" rx="4" fill="white"/>
</clipPath>
</defs>
</svg>
