<svg width="211" height="142" viewBox="0 0 211 142" fill="none" xmlns="http://www.w3.org/2000/svg">
<g opacity="0.9" clip-path="url(#clip0_1166_15323)">
<rect width="211" height="142" fill="#F0F6F9"/>
<path opacity="0.7" fill-rule="evenodd" clip-rule="evenodd" d="M105.532 92.0294L244.661 -12.7875C256.496 -21.8561 255.391 -30.7598 242.193 -32.69L86.6922 -59.858C73.4286 -62.3119 53.241 -56.9915 41.9522 -48.0668L-97.177 56.7502C-109.011 65.8187 -107.907 74.7224 -94.7083 76.6527L60.792 103.821C76.2466 106.751 94.1783 100.43 105.532 92.0294Z" fill="url(#paint0_linear_1166_15323)"/>
<path fill-rule="evenodd" clip-rule="evenodd" d="M120.48 79.2617L226.143 -59.2263C235.089 -71.1532 231.622 -79.4281 218.392 -77.7231L61.3318 -61.8985C47.8981 -60.6803 29.8967 -50.107 21.4367 -38.4659L-84.226 100.022C-93.1725 111.949 -89.7052 120.224 -76.4755 118.519L80.5851 102.694C96.2568 101.343 111.816 90.416 120.48 79.2617Z" fill="url(#paint1_linear_1166_15323)"/>
<g opacity="0.7">
<path d="M147.96 104.612C147.96 103.685 147.901 102.758 147.782 101.83L151.631 99.2809L149.914 94.1817L145.295 94.2976C144.348 92.6173 143.223 91.1107 141.92 89.778L143.46 85.4901L139.019 82.2452L135.348 85.0265C133.631 84.2153 131.796 83.6359 129.901 83.2882L128.598 78.9424H123.092L121.789 83.2882C119.894 83.6359 118.059 84.2153 116.342 85.0265L112.612 82.2452L108.171 85.4322L109.71 89.72C108.408 91.0528 107.224 92.6173 106.335 94.2397L101.717 94.1238L100 99.2229L103.849 101.772C103.73 102.7 103.671 103.627 103.671 104.554C103.671 105.481 103.73 106.466 103.849 107.393L100 109.943L101.717 115.042L106.335 114.926C107.283 116.548 108.408 118.113 109.71 119.445L108.171 123.733L112.612 126.92L116.283 124.139C118 124.95 119.835 125.53 121.73 125.877L123.033 130.281H128.539L129.842 125.877C131.736 125.53 133.572 124.95 135.289 124.139L138.96 126.92L143.401 123.733L141.861 119.445C143.164 118.113 144.289 116.548 145.236 114.926L149.855 115.042L151.572 109.943L147.723 107.393C147.901 106.466 147.96 105.539 147.96 104.612Z" stroke="#F5F5F5" stroke-miterlimit="10" stroke-linecap="round" stroke-linejoin="round"/>
<path d="M125.815 121.937C135.593 121.937 143.519 114.18 143.519 104.612C143.519 95.0433 135.593 87.2865 125.815 87.2865C116.038 87.2865 108.112 95.0433 108.112 104.612C108.112 114.18 116.038 121.937 125.815 121.937Z" stroke="#F5F5F5" stroke-miterlimit="10" stroke-linecap="round" stroke-linejoin="round"/>
<path d="M125.815 118.287C133.533 118.287 139.789 112.164 139.789 104.612C139.789 97.0596 133.533 90.9371 125.815 90.9371C118.098 90.9371 111.842 97.0596 111.842 104.612C111.842 112.164 118.098 118.287 125.815 118.287Z" stroke="#F5F5F5" stroke-miterlimit="10" stroke-linecap="round" stroke-linejoin="round"/>
<path d="M216.829 82.8917C216.829 82.3702 216.769 81.7908 216.71 81.2693L218.96 79.7627L217.953 76.8075L215.289 76.8655C214.756 75.8804 214.105 75.0113 213.335 74.2L214.223 71.7084L211.618 69.9122L209.487 71.5346C208.48 71.0711 207.414 70.7234 206.289 70.5496L205.579 68H202.381L201.612 70.4916C200.487 70.6654 199.421 71.0131 198.414 71.4767L196.283 69.9122L193.737 71.7664L194.625 74.258C193.855 75.0692 193.204 75.9384 192.671 76.9234L190.007 76.8655L189 79.7627L191.25 81.2693C191.191 81.7908 191.132 82.3123 191.132 82.8917C191.132 83.4711 191.191 83.9926 191.25 84.5141L189 86.0207L190.007 88.9759L192.73 88.9179C193.263 89.903 193.914 90.7721 194.684 91.5254L193.737 94.017L196.342 95.8712L198.474 94.2488C199.48 94.7124 200.546 95.06 201.612 95.2339L202.381 97.7834H205.579L206.348 95.2339C207.473 95.06 208.539 94.7124 209.487 94.2488L211.618 95.8712L214.223 94.017L213.335 91.5254C214.105 90.7142 214.756 89.845 215.289 88.9179L218.013 88.9759L219.019 86.0207L216.769 84.5141C216.769 83.9926 216.829 83.4132 216.829 82.8917Z" stroke="#F5F5F5" stroke-miterlimit="10" stroke-linecap="round" stroke-linejoin="round"/>
<path d="M203.98 90.8299C208.46 90.8299 212.092 87.2757 212.092 82.8915C212.092 78.5073 208.46 74.9531 203.98 74.9531C199.5 74.9531 195.869 78.5073 195.869 82.8915C195.869 87.2757 199.5 90.8299 203.98 90.8299Z" stroke="#F5F5F5" stroke-miterlimit="10" stroke-linecap="round" stroke-linejoin="round"/>
</g>
<rect x="127.39" y="96.249" width="19.5761" height="47.625" rx="1.15761" fill="white" stroke="#9ADAF3" stroke-width="2"/>
<rect x="184.351" y="96.249" width="30.3641" height="47.625" rx="1.15761" fill="white" stroke="#9ADAF3" stroke-width="2"/>
<rect x="135.675" y="107.641" width="12.4991" height="8.35652" stroke="#9ADAF3" stroke-width="2"/>
<rect x="193.172" y="106.106" width="13.4991" height="9.35652" stroke="#FF6F3D"/>
<rect x="135.676" y="115.927" width="12.4991" height="8.35652" stroke="#9ADAF3" stroke-width="2"/>
<rect x="135.676" y="124.212" width="12.4991" height="8.35652" stroke="#9ADAF3" stroke-width="2"/>
<rect x="193.172" y="123.712" width="13.4991" height="9.35652" stroke="#FF6F3D"/>
<path d="M195.814 147.636C195.814 148.275 195.296 148.793 194.657 148.793H147.189C146.55 148.793 146.032 148.275 146.032 147.636V82.9076C146.032 82.2683 146.55 81.75 147.189 81.75H181.297L195.814 96.2675V147.636Z" fill="white" stroke="#9ADAF3" stroke-width="2"/>
<path d="M182.711 82.8189L194.4 94.5079H182.711V82.8189Z" stroke="#9ADAF3" stroke-width="2" stroke-linecap="round" stroke-linejoin="round"/>
<rect x="156" y="125.037" width="31.0695" height="2" rx="1" fill="#AAAAAA"/>
<rect x="156" y="133.037" width="31.0695" height="2" rx="1" fill="#AAAAAA"/>
<rect x="156" y="117.037" width="31.0695" height="2" rx="1" fill="#AAAAAA"/>
<rect x="156" y="109.037" width="31.0695" height="2" rx="1" fill="#AAAAAA"/>
<path fill-rule="evenodd" clip-rule="evenodd" d="M172 101.037H156L161.714 95.0366L164 97.0366L167.429 93.0366L172 98.0366V101.037Z" stroke="#FF6F3D" stroke-width="1.03565" stroke-linecap="round" stroke-linejoin="round"/>
<path d="M160.942 91.0352C160.942 91.8537 160.279 92.5173 159.46 92.5173C158.641 92.5173 157.978 91.8537 157.978 91.0352C157.978 90.2166 158.641 89.553 159.46 89.553C160.279 89.553 160.942 90.2166 160.942 91.0352Z" stroke="#FF6F3D" stroke-width="1.03565"/>
<path d="M164.236 106.931L168.193 102.959L184.154 118.725L185.317 123.866L180.185 122.733L164.236 106.931Z" fill="white"/>
<path d="M167.514 110.197L171.471 106.225L184.287 118.857L180.105 122.653L167.514 110.197Z" fill="#9ADAF3"/>
<path fill-rule="evenodd" clip-rule="evenodd" d="M180.241 122.431L164.785 107.026C164.574 106.817 164.579 106.481 164.794 106.277L167.678 103.548C167.894 103.344 168.239 103.348 168.449 103.558L183.906 118.963C183.972 119.028 184.019 119.11 184.043 119.199L185.072 123.026C185.179 123.424 184.8 123.783 184.393 123.669L180.481 122.571C180.39 122.545 180.307 122.497 180.241 122.431ZM164.394 107.396C163.973 106.977 163.982 106.306 164.414 105.898L167.297 103.168C167.729 102.76 168.419 102.769 168.84 103.188L184.297 118.593C184.429 118.725 184.523 118.887 184.571 119.065L185.6 122.893C185.814 123.688 185.055 124.406 184.242 124.178L180.329 123.08C180.148 123.029 179.983 122.933 179.851 122.801L164.394 107.396Z" fill="#555F65"/>
<path d="M169.202 108.301L181.857 120.913L182.351 120.445L169.696 107.833L169.202 108.301Z" fill="white"/>
<path fill-rule="evenodd" clip-rule="evenodd" d="M184.108 118.611L180.008 122.33L180.381 122.717L184.48 118.999L184.108 118.611Z" fill="#555F65"/>
<path fill-rule="evenodd" clip-rule="evenodd" d="M171.142 106.125L167.245 110.01L167.636 110.378L171.534 106.493L171.142 106.125Z" fill="#555F65"/>
<path fill-rule="evenodd" clip-rule="evenodd" d="M184.655 121.159L182.351 123.24L184.655 123.927L185.365 123.239L184.655 121.159Z" fill="#555F65"/>
<path fill-rule="evenodd" clip-rule="evenodd" d="M170.164 105.208L166.386 108.976L166.776 109.345L170.554 105.578L170.164 105.208Z" fill="#555F65"/>
<path d="M207.102 92.5094L203.145 88.5373L186.958 104.53L185.795 109.671L190.927 108.538L207.102 92.5094Z" fill="white"/>
<path d="M203.598 96.0017L199.641 92.0296L186.825 104.662L191.006 108.458L203.598 96.0017Z" fill="url(#paint2_linear_1166_15323)"/>
<path fill-rule="evenodd" clip-rule="evenodd" d="M190.871 108.236L206.327 92.8313C206.538 92.6217 206.533 92.2862 206.317 92.0821L203.434 89.3528C203.218 89.1486 202.873 89.153 202.662 89.3626L187.206 104.768C187.14 104.833 187.093 104.915 187.069 105.004L186.039 108.831C185.933 109.229 186.312 109.588 186.718 109.474L190.631 108.376C190.722 108.35 190.805 108.302 190.871 108.236ZM206.718 93.201C207.138 92.7818 207.13 92.1109 206.698 91.7025L203.815 88.9732C203.383 88.5648 202.692 88.5737 202.272 88.9929L186.815 104.398C186.683 104.53 186.589 104.692 186.541 104.87L185.512 108.697C185.298 109.493 186.057 110.211 186.87 109.983L190.782 108.885C190.964 108.834 191.129 108.738 191.261 108.606L206.718 93.201Z" fill="#555F65"/>
<path d="M201.91 94.1057L189.256 106.718L188.762 106.25L201.416 93.6381L201.91 94.1057Z" fill="white"/>
<path fill-rule="evenodd" clip-rule="evenodd" d="M187.004 104.416L191.103 108.135L190.731 108.522L186.631 104.804L187.004 104.416Z" fill="#555F65"/>
<path fill-rule="evenodd" clip-rule="evenodd" d="M199.97 91.9295L203.868 95.8142L203.476 96.1821L199.578 92.2974L199.97 91.9295Z" fill="#555F65"/>
<path fill-rule="evenodd" clip-rule="evenodd" d="M186.457 106.964L188.762 109.045L186.458 109.731L185.748 109.044L186.457 106.964Z" fill="#555F65"/>
<path fill-rule="evenodd" clip-rule="evenodd" d="M200.948 91.0129L204.726 94.7804L204.335 95.1499L200.557 91.3824L200.948 91.0129Z" fill="#555F65"/>
<path d="M167.041 127.608C167.041 132.927 162.723 137.24 157.396 137.24C152.07 137.24 147.752 132.927 147.752 127.608C147.752 122.288 152.07 117.976 157.396 117.976C162.723 117.976 167.041 122.288 167.041 127.608Z" fill="white"/>
<path d="M157.838 117.538C152.271 117.44 147.852 120.919 147.757 126.662C147.703 129.918 148.982 133.542 151.222 135.488C151.369 135.356 151.655 135.199 151.829 135.101L154.838 133.408C155.232 133.186 155.478 132.759 155.478 132.296V131.024C155.478 131.024 154.595 129.934 154.258 128.421C153.979 128.234 153.792 127.912 153.792 127.545V126.154C153.792 125.847 153.924 125.574 154.129 125.382V123.371C154.129 123.371 153.728 120.24 157.838 120.24C161.948 120.24 161.548 123.371 161.548 123.371V125.382C161.753 125.574 161.885 125.847 161.885 126.154V127.545C161.885 128.013 161.58 128.407 161.167 128.538C160.937 129.276 160.605 129.98 160.166 130.62C160.055 130.781 159.952 130.918 159.861 131.024V132.328C159.861 132.808 160.124 133.247 160.54 133.461L163.762 135.122L164.414 135.05C166.586 133.182 167.43 130.754 167.482 127.607C167.563 122.721 163.406 117.636 157.838 117.538Z" fill="#CCCCCC"/>
<path fill-rule="evenodd" clip-rule="evenodd" d="M168.04 127.731C168.04 133.541 163.248 138.252 157.337 138.252C151.426 138.252 146.634 133.541 146.634 127.731C146.634 121.92 151.426 117.209 157.337 117.209C163.248 117.209 168.04 121.92 168.04 127.731ZM157.337 137.375C162.755 137.375 167.148 133.057 167.148 127.731C167.148 122.404 162.755 118.086 157.337 118.086C151.919 118.086 147.526 122.404 147.526 127.731C147.526 133.057 151.919 137.375 157.337 137.375Z" fill="#657077"/>
<path d="M152.605 127.676C152.605 133.049 148.244 137.404 142.866 137.404C137.487 137.404 133.126 133.049 133.126 127.676C133.126 122.303 137.487 117.948 142.866 117.948C148.244 117.948 152.605 122.303 152.605 127.676Z" fill="white"/>
<path d="M143.046 117.102C137.199 117.003 132.378 121.609 132.278 127.389C132.221 130.667 133.563 133.649 135.916 135.608C136.07 135.475 136.37 135.317 136.554 135.218L139.713 133.514C140.128 133.291 140.386 132.861 140.386 132.394V131.115C140.386 131.115 139.458 130.018 139.105 128.494C138.811 128.307 138.615 127.983 138.615 127.613V126.212C138.615 125.904 138.754 125.629 138.969 125.436V123.411C138.969 123.411 138.548 120.26 142.865 120.26C147.182 120.26 146.761 123.411 146.761 123.411V125.436C146.977 125.629 147.115 125.904 147.115 126.212V127.613C147.115 128.084 146.795 128.48 146.362 128.613C146.12 129.356 145.771 130.064 145.31 130.708C145.193 130.87 145.085 131.008 144.99 131.115V132.427C144.99 132.91 145.266 133.352 145.703 133.568L149.086 135.24C149.289 135.34 149.646 135.467 149.815 135.608C152.096 133.727 153.398 130.914 153.452 127.747C153.553 121.967 148.643 117.196 143.046 117.102Z" fill="url(#paint3_linear_1166_15323)"/>
<path fill-rule="evenodd" clip-rule="evenodd" d="M153.455 127.676C153.455 133.515 148.716 138.252 142.865 138.252C137.015 138.252 132.276 133.515 132.276 127.676C132.276 121.837 137.015 117.1 142.865 117.1C148.716 117.1 153.455 121.837 153.455 127.676ZM142.865 137.404C148.244 137.404 152.605 133.049 152.605 127.676C152.605 122.303 148.244 117.948 142.865 117.948C137.487 117.948 133.126 122.303 133.126 127.676C133.126 133.049 137.487 137.404 142.865 137.404Z" fill="#657077"/>
<path d="M138.213 127.676C138.213 133.03 133.867 137.37 128.506 137.37C123.145 137.37 118.799 133.03 118.799 127.676C118.799 122.322 123.145 117.982 128.506 117.982C133.867 117.982 138.213 122.322 138.213 127.676Z" fill="white"/>
<path d="M128.951 117.541C123.348 117.442 118.9 120.944 118.804 126.724C118.75 130.002 120.037 133.649 122.292 135.608C122.439 135.475 122.727 135.317 122.903 135.218L125.931 133.514C126.328 133.291 126.575 132.861 126.575 132.394V131.115C126.575 131.115 125.687 130.018 125.348 128.495C125.067 128.307 124.878 127.983 124.878 127.613V126.213C124.878 125.904 125.011 125.629 125.218 125.436V123.412C125.218 123.412 124.814 120.261 128.951 120.261C133.088 120.261 132.684 123.412 132.684 123.412V125.436C132.891 125.629 133.024 125.904 133.024 126.213V127.613C133.024 128.084 132.717 128.48 132.302 128.613C132.07 129.356 131.736 130.064 131.294 130.708C131.182 130.87 131.078 131.008 130.987 131.115V132.427C130.987 132.91 131.252 133.352 131.671 133.568L134.913 135.24L135.569 135.167C137.755 133.286 138.605 130.843 138.658 127.676C138.739 122.758 134.555 117.64 128.951 117.541Z" fill="#9ADAF3"/>
<path fill-rule="evenodd" clip-rule="evenodd" d="M139.096 127.676C139.096 133.517 134.355 138.252 128.506 138.252C122.658 138.252 117.917 133.517 117.917 127.676C117.917 121.836 122.658 117.101 128.506 117.101C134.355 117.101 139.096 121.836 139.096 127.676ZM128.506 137.371C133.868 137.371 138.214 133.03 138.214 127.676C138.214 122.322 133.868 117.982 128.506 117.982C123.145 117.982 118.799 122.322 118.799 127.676C118.799 133.03 123.145 137.371 128.506 137.371Z" fill="#657077"/>
</g>
<defs>
<linearGradient id="paint0_linear_1166_15323" x1="36.4588" y1="4.36111" x2="117.344" y2="147.496" gradientUnits="userSpaceOnUse">
<stop stop-color="#D9F4FF"/>
<stop offset="1" stop-color="#D9F4FF" stop-opacity="0"/>
</linearGradient>
<linearGradient id="paint1_linear_1166_15323" x1="30.3024" y1="13.4982" x2="183.046" y2="106.365" gradientUnits="userSpaceOnUse">
<stop stop-color="#D9F4FF"/>
<stop offset="0.329457" stop-color="#D9F4FF" stop-opacity="0"/>
</linearGradient>
<linearGradient id="paint2_linear_1166_15323" x1="186.824" y1="91.3869" x2="203.237" y2="108.8" gradientUnits="userSpaceOnUse">
<stop stop-color="#FFC671"/>
<stop offset="0.59375" stop-color="#FF7541"/>
<stop offset="1" stop-color="#FF6F3D"/>
</linearGradient>
<linearGradient id="paint3_linear_1166_15323" x1="132.276" y1="116.377" x2="150.523" y2="138.073" gradientUnits="userSpaceOnUse">
<stop stop-color="#FFC671"/>
<stop offset="0.59375" stop-color="#FF7541"/>
<stop offset="1" stop-color="#FF6F3D"/>
</linearGradient>
<clipPath id="clip0_1166_15323">
<rect width="211" height="142" fill="white"/>
</clipPath>
</defs>
</svg>
