<svg width="101" height="66" viewBox="0 0 101 66" fill="none" xmlns="http://www.w3.org/2000/svg">
<g clip-path="url(#clip0_1392_32218)">
<path d="M100.314 22.8446C100.314 22.1146 100.231 21.3035 100.148 20.5736L103.297 18.4648L101.888 14.3283L98.1588 14.4094C97.4129 13.0306 96.5012 11.814 95.4238 10.6785L96.667 7.19086L93.0203 4.67654L90.0367 6.94754C88.6278 6.29868 87.136 5.81204 85.5613 5.56872L84.5667 2H80.0913L79.0139 5.48761C77.4392 5.73093 75.9474 6.21758 74.5385 6.86643L71.5549 4.67654L67.9911 7.27197L69.2343 10.7596C68.1569 11.8951 67.2452 13.1117 66.4993 14.4905L62.7698 14.4094L61.3608 18.4648L64.5102 20.5736C64.4273 21.3035 64.3445 22.0335 64.3445 22.8446C64.3445 23.6556 64.4273 24.3856 64.5102 25.1156L61.3608 27.2243L62.7698 31.3608L66.5822 31.2797C67.3281 32.6585 68.2397 33.8751 69.3171 34.9295L67.9911 38.4171L71.6377 41.0126L74.6214 38.7416C76.0303 39.3904 77.5221 39.8771 79.0139 40.1204L80.0913 43.6891H84.5667L85.6442 40.1204C87.2189 39.8771 88.7107 39.3904 90.0367 38.7416L93.0203 41.0126L96.667 38.4171L95.4238 34.9295C96.5012 33.794 97.4129 32.5774 98.1588 31.2797L101.971 31.3608L103.38 27.2243L100.231 25.1156C100.231 24.3856 100.314 23.5745 100.314 22.8446Z" stroke="#E2E2E2" stroke-miterlimit="10" stroke-linecap="round" stroke-linejoin="round"/>
<path d="M82.3294 33.9561C88.6002 33.9561 93.6837 28.9812 93.6837 22.8444C93.6837 16.7075 88.6002 11.7327 82.3294 11.7327C76.0586 11.7327 70.9751 16.7075 70.9751 22.8444C70.9751 28.9812 76.0586 33.9561 82.3294 33.9561Z" stroke="#E2E2E2" stroke-miterlimit="10" stroke-linecap="round" stroke-linejoin="round"/>
<path d="M41.3136 61.8446C41.3136 61.1146 41.2307 60.3035 41.1479 59.5736L44.2972 57.4648L42.8883 53.3283L39.1588 53.4094C38.4129 52.0306 37.5012 50.814 36.4238 49.6785L37.667 46.1909L34.0203 43.6765L31.0367 45.9475C29.6278 45.2987 28.136 44.812 26.5613 44.5687L25.5667 41H21.0913L20.0139 44.4876C18.4392 44.7309 16.9474 45.2176 15.5385 45.8664L12.5549 43.6765L8.9911 46.272L10.2343 49.7596C9.15686 50.8951 8.24519 52.1117 7.49929 53.4905L3.76977 53.4094L2.36084 57.4648L5.51022 59.5736C5.42734 60.3035 5.34446 61.0335 5.34446 61.8446C5.34446 62.6556 5.42734 63.3856 5.51022 64.1156L2.36084 66.2243L3.76977 70.3608L7.58217 70.2797C8.32808 71.6585 9.23973 72.8751 10.3171 73.9295L8.9911 77.4171L12.6377 80.0126L15.6214 77.7416C17.0303 78.3904 18.5221 78.8771 20.0139 79.1204L21.0913 82.6891H25.5667L26.6442 79.1204C28.2189 78.8771 29.7107 78.3904 31.0367 77.7416L34.0203 80.0126L37.667 77.4171L36.4238 73.9295C37.5012 72.794 38.4129 71.5774 39.1588 70.2797L42.9712 70.3608L44.3801 66.2243L41.2307 64.1156C41.2307 63.3856 41.3136 62.5745 41.3136 61.8446Z" stroke="#E2E2E2" stroke-miterlimit="10" stroke-linecap="round" stroke-linejoin="round"/>
<path d="M23.3294 72.9561C29.6002 72.9561 34.6837 67.9812 34.6837 61.8444C34.6837 55.7075 29.6002 50.7327 23.3294 50.7327C17.0586 50.7327 11.9751 55.7075 11.9751 61.8444C11.9751 67.9812 17.0586 72.9561 23.3294 72.9561Z" stroke="#E2E2E2" stroke-miterlimit="10" stroke-linecap="round" stroke-linejoin="round"/>
<path d="M25.1455 44.7817L32.744 45.0448L32.6093 48.7981L25.0107 48.535C24.1868 48.5065 23.5689 47.8434 23.5985 47.0195L23.6281 46.1957C23.6544 45.4633 24.3657 44.8005 25.1455 44.7817Z" fill="white" stroke="#9ADAF3" stroke-width="2" stroke-miterlimit="10" stroke-linecap="round" stroke-linejoin="round"/>
<path d="M25.6088 31.8744L33.2074 32.1376L33.0726 35.8909L25.4741 35.6278C24.6502 35.5992 24.0323 34.9362 24.0619 34.1123L24.0915 33.2884C24.1211 32.4645 24.7849 31.8459 25.6088 31.8744Z" fill="white" stroke="#9ADAF3" stroke-width="2" stroke-miterlimit="10" stroke-linecap="round" stroke-linejoin="round"/>
<path d="M33.383 28.523L37.9604 28.6815C44.5519 28.9098 49.7152 34.4506 49.4786 41.0418C49.2419 47.633 43.6941 52.8029 37.1026 52.5746L32.5251 52.4161L33.383 28.523Z" fill="white" stroke="#9ADAF3" stroke-width="2" stroke-miterlimit="10"/>
<path d="M48.6358 36.4293L50.7414 36.5022C51.5653 36.5308 52.2273 37.2412 52.2418 38.1124L52.0216 44.2459C51.992 45.0698 51.2808 45.7326 50.4094 45.7483L48.3038 45.6753L48.6358 36.4293Z" fill="white" stroke="#9ADAF3" stroke-width="2" stroke-miterlimit="10" stroke-linecap="round" stroke-linejoin="round"/>
<path d="M52.0084 43.0077L55.6982 43.1355L55.8307 39.4458L52.1408 39.318L52.0084 43.0077Z" fill="white" stroke="#9ADAF3" stroke-width="2" stroke-miterlimit="10" stroke-linecap="round" stroke-linejoin="round"/>
<path d="M56.417 41.5161L139.486 42.654" stroke="#9ADAF3" stroke-width="3.4138"/>
<path d="M92.482 41.1319C92.482 48.8962 86.1878 55.1905 78.4234 55.1905C70.659 55.1905 64.3647 48.8962 64.3647 41.1319C64.3647 33.3675 70.659 27.0732 78.4234 27.0732C86.1878 27.0732 92.482 33.3675 92.482 41.1319Z" fill="white"/>
<path fill-rule="evenodd" clip-rule="evenodd" d="M93.5257 41.0628C93.5257 49.3792 86.7756 56.1257 78.4433 56.1257C70.1109 56.1257 63.3608 49.3792 63.3608 41.0628C63.3608 32.7464 70.1109 26 78.4433 26C86.7756 26 93.5257 32.7464 93.5257 41.0628ZM78.4433 54.9186C86.1042 54.9186 92.3146 48.7152 92.3146 41.0628C92.3146 33.4105 86.1042 27.207 78.4433 27.207C70.7823 27.207 64.5719 33.4105 64.5719 41.0628C64.5719 48.7152 70.7823 54.9186 78.4433 54.9186Z" fill="#657077"/>
<path fill-rule="evenodd" clip-rule="evenodd" d="M77.4235 41.2893L69.9896 37.8131C69.3563 37.5097 69.3563 37.0407 69.9896 36.7648L77.4235 33.2886C78.0567 32.9852 79.0755 32.9852 79.6812 33.2886L87.1151 36.7648C87.7483 37.0683 87.7483 37.5373 87.1151 37.8131L79.6812 41.2893C79.0479 41.5652 78.0292 41.5652 77.4235 41.2893Z" fill="#5DC0E8"/>
<path fill-rule="evenodd" clip-rule="evenodd" d="M72.0903 43.0125L77.4239 45.5065C78.0297 45.7824 79.0484 45.7824 79.6816 45.5065L85.0148 43.0127L87.1151 43.9948C87.7483 44.2982 87.7483 44.7673 87.1151 45.0431L79.6812 48.5193C79.0479 48.7952 78.0292 48.7952 77.4235 48.5193L69.9896 45.0431C69.3563 44.7397 69.3563 44.2707 69.9896 43.9948L72.0903 43.0125Z" fill="#FF6F3D"/>
<path fill-rule="evenodd" clip-rule="evenodd" d="M72.0901 39.3975L77.4235 41.8914C78.0292 42.1673 79.0479 42.1673 79.6812 41.8914L85.0146 39.3975L87.1151 40.3797C87.7483 40.6831 87.7483 41.1521 87.1151 41.428L79.6812 44.9042C79.0479 45.1801 78.0292 45.1801 77.4235 44.9042L69.9896 41.428C69.3563 41.1246 69.3563 40.6556 69.9896 40.3797L72.0901 39.3975Z" fill="#95C038"/>
</g>
<defs>
<clipPath id="clip0_1392_32218">
<rect width="100" height="66" fill="white" transform="translate(0.36084)"/>
</clipPath>
</defs>
</svg>
