<svg width="211" height="142" viewBox="0 0 211 142" fill="none" xmlns="http://www.w3.org/2000/svg">
<g opacity="0.9" clip-path="url(#clip0_1166_15384)">
<rect width="211" height="142" transform="matrix(1 0 0 -1 0 142)" fill="#EBF9FF"/>
<g opacity="0.6" filter="url(#filter0_d_1166_15384)">
<path d="M86.0527 67.7538L86.0484 67.7565C81.6665 70.5875 75.584 72.5585 69.3374 73.4716C63.0897 74.3848 56.6225 74.2478 51.4617 72.8156L51.4617 72.8158L51.449 72.8119L-68.2104 36.107C-68.2125 36.1064 -68.2146 36.1058 -68.2168 36.1052C-73.3497 34.6792 -76.3814 32.0915 -76.8104 28.8896C-77.2384 25.6953 -75.0269 22.231 -70.4954 19.177L-70.4914 19.1743L34.924 -50.4299C34.9259 -50.4313 34.9278 -50.4326 34.9297 -50.434C39.2869 -53.4807 45.3588 -55.5584 51.6081 -56.4719C57.8604 -57.3858 64.3469 -57.1427 69.5411 -55.495C69.5419 -55.4948 69.5427 -55.4946 69.5435 -55.4943L189.205 -18.7891C194.338 -17.3631 197.369 -14.7753 197.798 -11.5734C198.226 -8.37911 196.015 -4.9149 191.483 -1.86083L191.479 -1.8582L86.0527 67.7538Z" stroke="white"/>
</g>
<g filter="url(#filter1_d_1166_15384)">
<path d="M95.7903 111.694L95.7872 111.69C92.8595 108.066 88.2523 104.7 83.2143 102.186C78.1752 99.6709 72.6553 97.9837 67.8785 97.759L67.8785 97.7588L67.8652 97.7585L-43.6412 95.5183C-43.6434 95.5182 -43.6456 95.5181 -43.6478 95.518C-48.3963 95.296 -51.7121 96.6433 -52.981 99.2641C-54.2466 101.878 -53.3227 105.45 -50.333 109.301L-50.3301 109.305L19.5255 197.568C19.5269 197.57 19.5283 197.572 19.5297 197.574C22.3765 201.375 26.9454 204.828 31.9858 207.344C37.029 209.86 42.5955 211.463 47.4611 211.515C47.462 211.515 47.4628 211.515 47.4636 211.515L158.972 213.755C163.72 213.977 167.036 212.63 168.305 210.009C169.571 207.395 168.647 203.823 165.657 199.972L165.654 199.968L95.7903 111.694Z" stroke="white"/>
</g>
<path opacity="0.7" fill-rule="evenodd" clip-rule="evenodd" d="M82.7816 61.3365L188.208 -8.27547C197.174 -14.3179 196.213 -21.4903 186.06 -24.3079L66.388 -61.0165C56.1786 -64.256 40.7552 -62.0016 32.2063 -56.0201L-73.2203 13.5919C-82.186 19.6343 -81.225 26.8067 -71.0722 29.6243L48.5999 66.3329C58.7527 69.1505 74.1762 66.896 82.7816 61.3365Z" fill="url(#paint0_linear_1166_15384)"/>
<path d="M163.543 167.725L163.543 117L136.733 117L126 128.507L126 167.725L163.543 167.725Z" fill="white" stroke="#9ADAF3" stroke-width="2"/>
<path d="M127.278 127.29L135.298 127.29L135.298 118.565L127.278 127.29Z" fill="#EEFBFF" stroke="#9ADAF3" stroke-width="2"/>
<rect width="15" height="1" transform="matrix(-1 0 0 1 158 130)" fill="#AAAAAA"/>
<rect width="15" height="1" transform="matrix(-1 0 0 1 158 134)" fill="#AAAAAA"/>
<rect width="23" height="1" transform="matrix(-1 0 0 1 158 138)" fill="#AAAAAA"/>
<rect width="10.3566" height="0.94151" transform="matrix(-1 0 0 1 157.953 141.421)" fill="#AAAAAA"/>
<path d="M156.979 150.146L156.979 87.2207L189.947 87.2207L203.87 101.149L203.87 150.146L156.979 150.146Z" fill="white" stroke="#9ADAF3" stroke-width="2"/>
<path d="M191.356 99.7352L191.356 88.635L202.456 99.7352L191.356 99.7352Z" fill="#EEFBFF" stroke="#9ADAF3" stroke-width="2"/>
<rect x="165.411" y="112.583" width="14" height="1" fill="#AAAAAA"/>
<rect x="165.411" y="117" width="30" height="1" fill="#AAAAAA"/>
<rect x="165.411" y="122" width="30" height="1" fill="#AAAAAA"/>
<rect x="184.411" y="126" width="12" height="1" fill="#AAAAAA"/>
<rect x="184.411" y="131" width="12" height="1" fill="#AAAAAA"/>
<rect x="165.411" y="108" width="14" height="1" fill="#AAAAAA"/>
<rect width="34" height="13" transform="matrix(-1 0 0 1 180 85)" fill="#9ADAF3"/>
<rect x="-0.5" y="0.5" width="31" height="10" transform="matrix(-1 0 0 1 178 86)" stroke="white"/>
<path d="M209.315 111.51L205.358 107.538L189.171 123.53L188.008 128.671L193.139 127.538L209.315 111.51Z" fill="white"/>
<path d="M205.811 115.002L201.854 111.03L189.037 123.663L193.219 127.459L205.811 115.002Z" fill="url(#paint1_linear_1166_15384)"/>
<path fill-rule="evenodd" clip-rule="evenodd" d="M193.084 127.237L208.54 111.832C208.75 111.622 208.746 111.287 208.53 111.083L205.647 108.353C205.431 108.149 205.086 108.153 204.875 108.363L189.419 123.768C189.353 123.834 189.305 123.915 189.282 124.004L188.252 127.832C188.145 128.229 188.525 128.588 188.931 128.474L192.844 127.376C192.935 127.351 193.018 127.303 193.084 127.237ZM208.931 112.202C209.351 111.782 209.343 111.111 208.911 110.703L206.028 107.974C205.596 107.565 204.905 107.574 204.485 107.993L189.028 123.398C188.896 123.53 188.802 123.693 188.754 123.87L187.725 127.698C187.511 128.493 188.27 129.211 189.083 128.983L192.995 127.885C193.177 127.834 193.342 127.738 193.474 127.606L208.931 112.202Z" fill="#555F65"/>
<path d="M204.123 113.106L191.469 125.718L190.975 125.251L203.629 112.639L204.123 113.106Z" fill="white"/>
<path fill-rule="evenodd" clip-rule="evenodd" d="M189.217 123.417L193.316 127.135L192.944 127.522L188.844 123.804L189.217 123.417Z" fill="#555F65"/>
<path fill-rule="evenodd" clip-rule="evenodd" d="M202.183 110.93L206.081 114.815L205.689 115.183L201.791 111.298L202.183 110.93Z" fill="#555F65"/>
<path fill-rule="evenodd" clip-rule="evenodd" d="M188.67 125.964L190.974 128.045L188.671 128.732L187.961 128.045L188.67 125.964Z" fill="#555F65"/>
<path fill-rule="evenodd" clip-rule="evenodd" d="M203.161 110.014L206.939 113.781L206.548 114.151L202.77 110.383L203.161 110.014Z" fill="#555F65"/>
<path d="M150.117 110.985C150.117 116.566 145.587 121.091 140 121.091C134.413 121.091 129.883 116.566 129.883 110.985C129.883 105.404 134.413 100.88 140 100.88C145.587 100.88 150.117 105.404 150.117 110.985Z" fill="white"/>
<path d="M140.188 100.002C134.114 99.899 129.106 104.683 129.002 110.688C128.943 114.092 130.337 117.19 132.781 119.225C132.941 119.087 133.253 118.923 133.444 118.82L136.726 117.05C137.156 116.818 137.424 116.372 137.424 115.887V114.558C137.424 114.558 136.461 113.418 136.094 111.836C135.789 111.641 135.585 111.304 135.585 110.92V109.465C135.585 109.145 135.729 108.859 135.953 108.659V106.556C135.953 106.556 135.515 103.283 140 103.283C144.484 103.283 144.047 106.556 144.047 106.556V108.659C144.271 108.859 144.415 109.145 144.415 109.465V110.92C144.415 111.41 144.082 111.821 143.632 111.959C143.381 112.73 143.018 113.466 142.539 114.135C142.418 114.304 142.305 114.446 142.207 114.558V115.921C142.207 116.422 142.494 116.882 142.948 117.106L146.462 118.843C146.673 118.947 147.043 119.079 147.219 119.225C149.589 117.271 150.941 114.349 150.998 111.059C151.102 105.055 146.001 100.1 140.188 100.002Z" fill="url(#paint2_linear_1166_15384)"/>
<path fill-rule="evenodd" clip-rule="evenodd" d="M151 110.986C151 117.051 146.077 121.971 140 121.971C133.923 121.971 129 117.051 129 110.986C129 104.92 133.923 100 140 100C146.077 100 151 104.92 151 110.986ZM140 121.091C145.587 121.091 150.117 116.567 150.117 110.986C150.117 105.405 145.587 100.88 140 100.88C134.413 100.88 129.883 105.405 129.883 110.986C129.883 116.567 134.413 121.091 140 121.091Z" fill="#657077"/>
<path d="M173.347 131.801C173.347 135.28 170.523 138.101 167.039 138.101C163.555 138.101 160.731 135.28 160.731 131.801C160.731 128.322 163.555 125.501 167.039 125.501C170.523 125.501 173.347 128.322 173.347 131.801Z" fill="white"/>
<path d="M167.328 125.215C163.687 125.151 160.796 127.426 160.734 131.183C160.699 133.312 161.536 135.682 163.001 136.955C163.096 136.869 163.284 136.766 163.398 136.702L165.365 135.595C165.623 135.45 165.784 135.171 165.784 134.867V134.035C165.784 134.035 165.207 133.323 164.986 132.333C164.804 132.211 164.681 132 164.681 131.76V130.85C164.681 130.65 164.768 130.471 164.902 130.346V129.03C164.902 129.03 164.64 126.982 167.328 126.982C170.016 126.982 169.754 129.03 169.754 129.03V130.346C169.888 130.471 169.974 130.65 169.974 130.85V131.76C169.974 132.066 169.775 132.324 169.505 132.41C169.355 132.892 169.137 133.353 168.85 133.771C168.778 133.877 168.71 133.966 168.651 134.035V134.888C168.651 135.202 168.823 135.489 169.095 135.629L171.202 136.716L171.628 136.669C173.049 135.447 173.601 133.859 173.635 131.801C173.688 128.605 170.969 125.279 167.328 125.215Z" fill="#CCCCCC"/>
<path fill-rule="evenodd" clip-rule="evenodd" d="M174 131.881C174 135.682 170.866 138.763 167 138.763C163.134 138.763 160 135.682 160 131.881C160 128.081 163.134 125 167 125C170.866 125 174 128.081 174 131.881ZM167 138.189C170.544 138.189 173.417 135.365 173.417 131.881C173.417 128.398 170.544 125.573 167 125.573C163.456 125.573 160.583 128.398 160.583 131.881C160.583 135.365 163.456 138.189 167 138.189Z" fill="#657077"/>
</g>
<defs>
<filter id="filter0_d_1166_15384" x="-102.362" y="-75.4998" width="325.712" height="182.049" filterUnits="userSpaceOnUse" color-interpolation-filters="sRGB">
<feFlood flood-opacity="0" result="BackgroundImageFix"/>
<feColorMatrix in="SourceAlpha" type="matrix" values="0 0 0 0 0 0 0 0 0 0 0 0 0 0 0 0 0 0 127 0" result="hardAlpha"/>
<feOffset dy="7"/>
<feGaussianBlur stdDeviation="12.5"/>
<feColorMatrix type="matrix" values="0 0 0 0 0.333333 0 0 0 0 0.333333 0 0 0 0 0.333333 0 0 0 0.15 0"/>
<feBlend mode="normal" in2="BackgroundImageFix" result="effect1_dropShadow_1166_15384"/>
<feBlend mode="normal" in="SourceGraphic" in2="effect1_dropShadow_1166_15384" result="shape"/>
</filter>
<filter id="filter1_d_1166_15384" x="-79.0317" y="76.9922" width="273.388" height="169.289" filterUnits="userSpaceOnUse" color-interpolation-filters="sRGB">
<feFlood flood-opacity="0" result="BackgroundImageFix"/>
<feColorMatrix in="SourceAlpha" type="matrix" values="0 0 0 0 0 0 0 0 0 0 0 0 0 0 0 0 0 0 127 0" result="hardAlpha"/>
<feOffset dy="7"/>
<feGaussianBlur stdDeviation="12.5"/>
<feColorMatrix type="matrix" values="0 0 0 0 0.333333 0 0 0 0 0.333333 0 0 0 0 0.333333 0 0 0 0.15 0"/>
<feBlend mode="normal" in2="BackgroundImageFix" result="effect1_dropShadow_1166_15384"/>
<feBlend mode="normal" in="SourceGraphic" in2="effect1_dropShadow_1166_15384" result="shape"/>
</filter>
<linearGradient id="paint0_linear_1166_15384" x1="28.4198" y1="2.89864" x2="69.4803" y2="105.092" gradientUnits="userSpaceOnUse">
<stop stop-color="white"/>
<stop offset="1" stop-color="white" stop-opacity="0"/>
</linearGradient>
<linearGradient id="paint1_linear_1166_15384" x1="189.037" y1="110.387" x2="205.45" y2="127.8" gradientUnits="userSpaceOnUse">
<stop stop-color="#FFC671"/>
<stop offset="0.59375" stop-color="#FF7541"/>
<stop offset="1" stop-color="#FF6F3D"/>
</linearGradient>
<linearGradient id="paint2_linear_1166_15384" x1="129" y1="99.249" x2="147.954" y2="121.786" gradientUnits="userSpaceOnUse">
<stop stop-color="#FFC671"/>
<stop offset="0.59375" stop-color="#FF7541"/>
<stop offset="1" stop-color="#FF6F3D"/>
</linearGradient>
<clipPath id="clip0_1166_15384">
<rect width="211" height="142" fill="white"/>
</clipPath>
</defs>
</svg>
