<svg width="100" height="80" viewBox="0 0 100 80" fill="none" xmlns="http://www.w3.org/2000/svg">
<path d="M91.3812 25H44.6188C43.1725 25 42 26.1391 42 27.5443V55.4557C42 56.8609 43.1725 58 44.6188 58H91.3812C92.8275 58 94 56.8609 94 55.4557V27.5443C94 26.1391 92.8275 25 91.3812 25Z" fill="#FEFEFE"/>
<path fill-rule="evenodd" clip-rule="evenodd" d="M44.6188 24H91.3812C93.3524 24 95 25.5598 95 27.5443V55.4557C95 57.4402 93.3524 59 91.3812 59H44.6188C42.6476 59 41 57.4402 41 55.4557V27.5443C41 25.5598 42.6476 24 44.6188 24ZM44.6188 25H91.3812C92.8275 25 94 26.1391 94 27.5443V55.4557C94 56.8609 92.8275 58 91.3812 58H44.6188C43.1725 58 42 56.8609 42 55.4557V27.5443C42 26.1391 43.1725 25 44.6188 25Z" fill="#9ADAF3"/>
<rect x="69" y="52" width="21" height="1" fill="#666666"/>
<path d="M64.9996 30C64.4473 30 63.9996 30.4478 63.9997 31.0002C63.9997 31.5524 64.4474 32 64.9996 32H78.9995C79.5518 32 79.9995 31.5523 79.9995 31C79.9995 30.4477 79.5518 30 78.9995 30L64.9996 30Z" fill="url(#paint0_linear_1452_19001)"/>
<path d="M59.9995 35.9979C59.9995 35.4491 59.5546 35 59.0016 35C58.4527 35 58.0037 35.4491 57.9995 35.9979C57.9995 36.5509 58.4486 37 59.0016 37C59.5504 37 59.9995 36.5509 59.9995 35.9979Z" fill="url(#paint1_linear_1452_19001)"/>
<path d="M59.9995 41.0021C59.9995 40.4491 59.5546 40 59.0016 40C58.4527 40 58.0037 40.4449 57.9995 41.0021C57.9995 41.5509 58.4486 42 59.0016 42C59.5504 42 59.9995 41.5551 59.9995 41.0021Z" fill="url(#paint2_linear_1452_19001)"/>
<path d="M59.0016 45C59.5546 45 59.9995 45.4491 59.9995 45.9979C59.9995 46.5509 59.5504 47 59.0016 47C58.4486 47 57.9995 46.5509 57.9995 45.9979C58.0037 45.4449 58.4527 45 59.0016 45Z" fill="url(#paint3_linear_1452_19001)"/>
<path d="M63 35.5002C62.9999 35.224 63.2238 35 63.5 35L85.4998 35C85.7759 35 85.9998 35.2239 85.9998 35.5C85.9998 35.7761 85.7759 36 85.4998 36H63.5C63.2239 36 63.0001 35.7763 63 35.5002Z" fill="#666666"/>
<path d="M63 40.5002C62.9999 40.224 63.2238 40 63.5 40L85.4998 40C85.7759 40 85.9998 40.2239 85.9998 40.5C85.9998 40.7761 85.7759 41 85.4998 41H63.5C63.2239 41 63.0001 40.7763 63 40.5002Z" fill="#666666"/>
<path d="M63.5 45C63.2238 45 62.9999 45.224 63 45.5002C63.0001 45.7763 63.2239 46 63.5 46H85.4998C85.7759 46 85.9998 45.7761 85.9998 45.5C85.9998 45.2239 85.7759 45 85.4998 45L63.5 45Z" fill="#666666"/>
<path d="M42 53H94V55.5C94 56.8807 92.8807 58 91.5 58H44.5C43.1193 58 42 56.8807 42 55.5V53Z" fill="#BDECFF"/>
<path fill-rule="evenodd" clip-rule="evenodd" d="M41.7092 43.9111C38.8526 43.9111 36.7251 45.1657 35.6185 46.6944C34.266 48.563 34.2522 50.9844 33.9758 53.8059C33.9756 54.7461 33.9756 55.4257 33.9756 56.0001C33.9756 57.1047 34.8711 58 35.9756 58H49.9004C50.9478 58 51.837 57.1906 51.8072 56.1436C51.7623 54.5672 51.4734 53.1236 50.8782 51.2838C56.2921 56.5691 65.0171 55.3819 68.9311 52.7567C71.444 51.0891 70.5268 48.2547 68.1646 49.2565C66.3452 50.0353 64.412 50.5087 62.4413 50.6579C56.5735 51.3617 54.651 46.6821 50.046 44.4628C49.0692 43.9111 46.6108 43.9111 46.6108 43.9111C46.6108 43.9111 41.7885 44.0037 41.7092 43.9111Z" fill="url(#paint4_linear_1452_19001)"/>
<path fill-rule="evenodd" clip-rule="evenodd" d="M42.1985 42.9454L42.1691 42.9111H41.7092C38.5553 42.9111 36.1164 44.3011 34.8085 46.1081C34.0087 47.2131 33.6292 48.4511 33.4084 49.7216C33.252 50.622 33.1669 51.6046 33.0814 52.5921C33.0492 52.9649 33.0168 53.3384 32.9806 53.7084L32.9758 53.7569L32.9756 56.0001C32.9756 57.6571 34.3189 59 35.9756 59H49.9005C51.4372 59 52.8548 57.7967 52.8069 56.1151C52.785 55.3456 52.7085 54.6084 52.5741 53.8549C55.0374 55.3497 57.8226 55.9585 60.4566 55.9866C63.9718 56.0241 67.336 55.03 69.4863 53.5886C70.9812 52.5956 71.6955 51.076 71.3427 49.7487C71.1639 49.0759 70.7041 48.4958 70.0045 48.2172C69.3177 47.9437 68.5366 48.0126 67.7744 48.3359L67.7713 48.3372C66.0528 49.0728 64.2269 49.5199 62.366 49.6607L62.3441 49.6624L62.3224 49.665C59.7366 49.9752 58.0443 49.128 56.3751 47.8602C55.8525 47.4633 55.3779 47.063 54.8761 46.6397C54.5163 46.3363 54.1426 46.0211 53.7273 45.6869C52.788 44.9312 51.7447 44.1749 50.5065 43.5746C50.1356 43.372 49.6948 43.2479 49.3036 43.1654C48.8854 43.0772 48.4457 43.021 48.0554 42.9844C47.6626 42.9477 47.3046 42.9295 47.0453 42.9204C46.9152 42.9158 46.8088 42.9135 46.734 42.9123C46.6965 42.9117 46.6669 42.9114 46.6461 42.9113L46.6215 42.9112L46.6144 42.9111L46.6111 42.9111C46.611 42.9111 46.6109 42.9111 46.6109 43.9111L46.6111 42.9111H46.6013L46.5917 42.9113L46.3857 42.9151C46.2542 42.9174 46.0661 42.9207 45.8402 42.9243C45.3881 42.9315 44.7851 42.9401 44.1803 42.9459C43.574 42.9517 42.9715 42.9545 42.5179 42.9502C42.3976 42.9491 42.2906 42.9475 42.1985 42.9454ZM50.0461 44.4628C49.0693 43.9111 46.6109 43.9111 46.6109 43.9111C46.6109 43.9111 41.7886 44.0037 41.7092 43.9111C38.8526 43.9111 36.7251 45.1657 35.6186 46.6944C34.457 48.2992 34.2828 50.3116 34.0817 52.635C34.0486 53.017 34.0148 53.4075 33.9758 53.8059L33.9756 56.0001C33.9756 57.1047 34.8711 58 35.9756 58H49.9005C50.9479 58 51.8371 57.1906 51.8073 56.1435C51.7776 55.1017 51.6413 54.1178 51.3805 53.0393C51.2467 52.4859 51.0801 51.9077 50.8783 51.2838C51.3194 51.7145 51.7826 52.1022 52.2633 52.4497C57.6822 56.366 65.3362 55.168 68.9313 52.7567C71.4443 51.0891 70.527 48.2547 68.1648 49.2565C66.3454 50.0353 64.4122 50.5087 62.4415 50.6579C58.6363 51.1143 56.4903 49.3069 54.196 47.3746C52.9522 46.3271 51.6649 45.243 50.0461 44.4628Z" fill="#666666"/>
<path fill-rule="evenodd" clip-rule="evenodd" d="M38.651 54.0009C38.8569 54.0158 39.0128 54.2104 38.9992 54.4355L38.7464 58.6184C38.7327 58.8435 38.5548 59.014 38.349 58.9991C38.1431 58.9842 37.9872 58.7896 38.0008 58.5645L38.2536 54.3816C38.2673 54.1565 38.4452 53.986 38.651 54.0009Z" fill="#666666"/>
<path fill-rule="evenodd" clip-rule="evenodd" d="M47.023 45.8857L47.2163 45.6881C47.2936 45.5951 47.3 45.5544 47.3 45.3278V41.4224C46.3277 41.8807 45.247 42.12 44.15 42.12C43.053 42.12 41.9723 41.8807 41 41.4224V45.322C41 45.5486 41 45.5893 41.0773 45.6823L41.2512 45.8857C42.0049 46.7923 42.8617 47.5827 43.6669 48.5648C43.8666 48.8031 43.9954 48.9135 44.15 48.8845C44.3046 48.8554 44.4334 48.8031 44.6267 48.5648C45.4061 47.5827 46.2629 46.7923 47.023 45.8857Z" fill="white"/>
<path fill-rule="evenodd" clip-rule="evenodd" d="M46.3 45.1947V42.844C45.6023 43.0267 44.8787 43.12 44.15 43.12C43.4213 43.12 42.6977 43.0267 42 42.844V45.2226L42.0203 45.2464C42.3598 45.6548 42.7238 46.0408 43.1203 46.4611C43.1359 46.4776 43.1515 46.4942 43.1672 46.5108C43.4809 46.8434 43.8121 47.1959 44.1428 47.578C44.4653 47.1964 44.7915 46.8448 45.1026 46.5129C45.1484 46.4641 45.1938 46.4158 45.2387 46.3679C45.6017 45.9814 45.9383 45.6229 46.2567 45.2432L46.2813 45.2139L46.3 45.1947ZM43.6669 48.5648C43.2464 48.052 42.8119 47.5914 42.3853 47.1393C41.995 46.7256 41.6114 46.3189 41.2512 45.8857L41.0773 45.6823C41 45.5893 41 45.5486 41 45.322V41.4224C41.3225 41.5744 41.657 41.7023 42 41.8054C42.6911 42.0131 43.4169 42.12 44.15 42.12C44.8831 42.12 45.6089 42.0131 46.3 41.8054C46.643 41.7023 46.9775 41.5744 47.3 41.4224V45.3278C47.3 45.5544 47.2936 45.5951 47.2163 45.6881L47.023 45.8857C46.6853 46.2885 46.3285 46.6683 45.968 47.0522C45.5169 47.5324 45.0599 48.019 44.6267 48.5648C44.4334 48.8031 44.3046 48.8554 44.15 48.8845C43.9954 48.9135 43.8666 48.8031 43.6669 48.5648ZM42.0009 45.4331C42.0009 45.4331 42.0008 45.4322 42.0007 45.4301L42.0009 45.4331Z" fill="#666666"/>
<path d="M51 36C51 39.866 47.866 43 44 43C40.134 43 37 39.866 37 36C37 32.134 40.134 29 44 29C47.866 29 51 32.134 51 36Z" fill="white"/>
<path fill-rule="evenodd" clip-rule="evenodd" d="M44 42C47.3137 42 50 39.3137 50 36C50 32.6863 47.3137 30 44 30C40.6863 30 38 32.6863 38 36C38 39.3137 40.6863 42 44 42ZM44 43C47.866 43 51 39.866 51 36C51 32.134 47.866 29 44 29C40.134 29 37 32.134 37 36C37 39.866 40.134 43 44 43Z" fill="#666666"/>
<path fill-rule="evenodd" clip-rule="evenodd" d="M44.2757 32.0409C45.6046 34.4328 48.7673 37.2034 50.9666 36.8667C50.9903 36.6338 51.0014 36.3996 50.9999 36.1653C50.9438 34.2449 50.1817 32.423 48.8751 31.0855C47.5685 29.748 45.82 29 44 29C42.1799 29 40.4314 29.748 39.1248 31.0855C37.8182 32.423 37.0561 34.2449 37.0001 36.1653C36.9988 36.4443 37.0143 36.7231 37.0466 37C40.0888 36.7801 42.8597 34.8662 44.2757 32.0409Z" fill="#EFEFEF"/>
<path fill-rule="evenodd" clip-rule="evenodd" d="M44.2899 30.0075L45.1499 31.5553C45.7424 32.6218 46.7715 33.811 47.9053 34.6851C48.6735 35.2773 49.387 35.6473 49.9778 35.8055C49.8451 34.2744 49.1982 32.8472 48.1598 31.7843C47.1062 30.7057 45.7286 30.0816 44.2899 30.0075ZM44.1787 30.0028L43.3817 31.5929C42.2817 33.7875 40.2758 35.3495 38.0185 35.8497C38.1424 34.3019 38.7917 32.8574 39.8401 31.7843C40.9643 30.6335 42.4574 30 44 30C44.0596 30 44.1192 30.0009 44.1787 30.0028ZM37.0001 36.1653C37.0017 36.1102 37.0039 36.0552 37.0066 36.0002C37.1003 34.1407 37.8557 32.3846 39.1248 31.0855C40.4314 29.748 42.1799 29 44 29C45.82 29 47.5685 29.748 48.8751 31.0855C50.1817 32.423 50.9438 34.2449 50.9999 36.1653C51.0014 36.3996 50.9903 36.6338 50.9666 36.8667C49.0585 37.1588 46.4253 35.112 44.8935 33.0029C44.6598 32.681 44.4517 32.3576 44.2757 32.0409C44.1037 32.3842 43.9116 32.714 43.7015 33.029C42.3723 35.0215 40.3204 36.4194 38.0379 36.8672C37.9451 36.8855 37.8518 36.9021 37.7582 36.9172C37.523 36.955 37.2857 36.9827 37.0466 37C37.0232 36.7989 37.0086 36.5969 37.0028 36.3944C37.0006 36.3181 36.9997 36.2417 37.0001 36.1653Z" fill="#666666"/>
<path d="M84 68H89V74H84V68Z" fill="white"/>
<path fill-rule="evenodd" clip-rule="evenodd" d="M83 67H90V75H83V67ZM84 68V74H89V68H84Z" fill="#666666"/>
<path d="M92.9995 62.5C92.9995 66.0899 90.0894 69 86.4995 69C82.9097 69 79.9995 66.0899 79.9995 62.5C79.9995 58.9101 82.9097 56 86.4995 56C90.0894 56 92.9995 58.9101 92.9995 62.5Z" fill="white"/>
<path fill-rule="evenodd" clip-rule="evenodd" d="M86.4995 68C89.5371 68 91.9995 65.5376 91.9995 62.5C91.9995 59.4624 89.5371 57 86.4995 57C83.4619 57 80.9995 59.4624 80.9995 62.5C80.9995 65.5376 83.4619 68 86.4995 68ZM86.4995 69C90.0894 69 92.9995 66.0899 92.9995 62.5C92.9995 58.9101 90.0894 56 86.4995 56C82.9097 56 79.9995 58.9101 79.9995 62.5C79.9995 66.0899 82.9097 69 86.4995 69Z" fill="#666666"/>
<path fill-rule="evenodd" clip-rule="evenodd" d="M89.9997 70.8296C89.9997 71.0264 89.9165 71.2141 89.7708 71.3463L87.0332 73.8308C86.9873 73.8725 86.9475 73.9216 86.8965 73.9569C86.7085 74.087 86.3314 74.0867 86.1364 73.9619C86.0782 73.9247 86.0325 73.871 85.9796 73.8267C85.0147 73.018 83.8879 72.1603 83.1667 71.3379C83.0556 71.2112 82.9997 71.0468 82.9997 70.8783Lnan nanL82.9997 70.8783C82.9997 70.4188 82.5856 70.0677 82.1382 70.1726C80.4117 70.5773 79.0917 71.2592 77.8616 72.1056C77.386 72.4328 77.3174 73.1044 77.7328 73.5053C79.9698 75.6644 83.0785 77 86.5195 77C89.9365 77 93.0279 75.6787 95.2617 73.5468C95.6795 73.1481 95.6145 72.4758 95.1405 72.1458C93.9012 71.2828 92.5642 70.5816 90.8127 70.1664C90.3912 70.0665 89.9997 70.3964 89.9997 70.8296Lnan nanL89.9997 70.8296Z" fill="#E2E2E2"/>
<path fill-rule="evenodd" clip-rule="evenodd" d="M89.0055 70.6906C89.086 69.7197 90.0007 68.9463 91.0434 69.1934C92.9438 69.6439 94.395 70.4081 95.712 71.3252C96.6829 72.0013 96.8466 73.4167 95.9522 74.2703C93.5349 76.5773 90.1972 78.0001 86.5196 78.0001C82.8167 78.0001 79.4599 76.5621 77.0384 74.2249C76.1491 73.3666 76.3202 71.9524 77.2948 71.2818C78.6032 70.3816 80.0365 69.6383 81.91 69.1991C82.9895 68.946 83.9298 69.759 83.996 70.7651C84.494 71.3116 85.1799 71.8738 85.9152 72.4766C86.1087 72.6352 86.3056 72.7966 86.5034 72.9613L89.0055 70.6906ZM89.7709 71.3464C89.9166 71.2141 89.9997 71.0265 89.9997 70.8296C89.9997 70.3965 90.3913 70.0666 90.8127 70.1665C92.5642 70.5816 93.9013 71.2829 95.1406 72.1459C95.6146 72.4759 95.6795 73.1481 95.2617 73.5469C93.028 75.6788 89.9365 77.0001 86.5196 77.0001C83.0785 77.0001 79.9699 75.6645 77.7328 73.5053C77.3175 73.1044 77.3861 72.4329 77.8617 72.1056C79.0917 71.2593 80.4117 70.5774 82.1382 70.1727C82.5857 70.0678 82.9997 70.4188 82.9997 70.8784C82.9997 71.0469 83.0557 71.2113 83.1668 71.338C83.7297 71.9799 84.5397 72.6434 85.327 73.2882C85.5483 73.4695 85.7679 73.6493 85.9796 73.8267C85.9989 73.8429 86.0172 73.8603 86.0355 73.8776C86.0675 73.908 86.0994 73.9383 86.1364 73.962C86.3315 74.0868 86.7085 74.0871 86.8965 73.957C86.9296 73.9341 86.9579 73.9054 86.9863 73.8767C87.0017 73.8611 87.0171 73.8455 87.0333 73.8308L89.7709 71.3464Z" fill="#666666"/>
<path d="M87.0091 57.0228C89.8071 57.2749 91.9998 59.583 91.9998 62.3913C91.9998 62.4492 92.0019 62.5147 92.0041 62.5827C92.0087 62.7266 92.0137 62.8819 91.9998 63C90.2761 63.2404 87.5084 60.5084 86.5045 58.5093C85.5005 60.5084 82.7329 63.2404 81.0091 63C80.9952 62.8819 81.0002 62.7267 81.0048 62.5827C81.007 62.5147 81.0091 62.4492 81.0091 62.3913C81.0091 59.583 83.2018 57.2749 85.9998 57.0228C86.1645 57.0083 86.3313 57 86.4998 57L86.5045 57L86.5091 57C86.6776 57 86.8444 57.0083 87.0091 57.0228Z" fill="#AAAAAA"/>
<path fill-rule="evenodd" clip-rule="evenodd" d="M87.0972 56.0267L87.0988 56.0269C90.391 56.3234 92.9998 59.0444 92.9998 62.3913C92.9998 62.43 93.0013 62.4783 93.0036 62.5505C93.0038 62.558 93.0041 62.5661 93.0044 62.5745C93.0085 62.6991 93.016 62.9215 92.993 63.1169L92.9027 63.8837L92.138 63.9904C91.4273 64.0895 90.7192 63.8748 90.1152 63.5789C89.4961 63.2756 88.8842 62.837 88.3241 62.3474C87.662 61.7687 87.0288 61.0802 86.5045 60.3784C85.9801 61.0802 85.3469 61.7687 84.6848 62.3474C84.1247 62.837 83.5129 63.2756 82.8937 63.5789C82.2897 63.8748 81.5816 64.0895 80.871 63.9904L80.1062 63.8837L80.016 63.1169C79.993 62.9215 80.0004 62.6991 80.0045 62.5745C80.0048 62.5661 80.0051 62.5581 80.0053 62.5505C80.0076 62.4783 80.0091 62.43 80.0091 62.3913C80.0091 59.0444 82.6179 56.3234 85.9101 56.0269L85.9117 56.0267C86.1023 56.0099 86.2986 56 86.4998 56L86.5087 56C86.7099 56 86.9066 56.0099 87.0972 56.0267ZM86.1372 57.0122C86.0913 57.0152 86.0455 57.0188 85.9998 57.0228C83.2018 57.2749 81.0091 59.583 81.0091 62.3913C81.0091 62.4492 81.007 62.5147 81.0048 62.5827C81.0002 62.7267 80.9952 62.8819 81.0091 63C81.2962 63.04 81.6122 62.9976 81.9442 62.8899C81.9632 62.8838 81.9823 62.8774 82.0014 62.8708C83.3365 62.4102 84.9155 60.9202 85.9084 59.4959C86.1437 59.1585 86.346 58.8248 86.5045 58.5093C86.6629 58.8248 86.8653 59.1585 87.1005 59.4959C88.0935 60.9202 89.6724 62.4102 91.0075 62.8708C91.0267 62.8774 91.0458 62.8838 91.0648 62.8899C91.3968 62.9977 91.7128 63.04 91.9998 63C92.0137 62.8819 92.0087 62.7266 92.0041 62.5827C92.0019 62.5147 91.9998 62.4492 91.9998 62.3913C91.9998 59.583 89.8071 57.2749 87.0091 57.0228C86.9635 57.0188 86.9177 57.0152 86.8717 57.0122C86.7518 57.0043 86.6309 57 86.5091 57H86.4998C86.378 57 86.2571 57.0043 86.1372 57.0122Z" fill="#666666"/>
<path d="M63 68H68V74H63V68Z" fill="white"/>
<path fill-rule="evenodd" clip-rule="evenodd" d="M62 67H69V75H62V67ZM63 68V74H68V68H63Z" fill="#666666"/>
<path d="M71.9995 62.5C71.9995 66.0899 69.0894 69 65.4995 69C61.9097 69 58.9995 66.0899 58.9995 62.5C58.9995 58.9101 61.9097 56 65.4995 56C69.0894 56 71.9995 58.9101 71.9995 62.5Z" fill="white"/>
<path fill-rule="evenodd" clip-rule="evenodd" d="M65.4995 68C68.5371 68 70.9995 65.5376 70.9995 62.5C70.9995 59.4624 68.5371 57 65.4995 57C62.4619 57 59.9995 59.4624 59.9995 62.5C59.9995 65.5376 62.4619 68 65.4995 68ZM65.4995 69C69.0894 69 71.9995 66.0899 71.9995 62.5C71.9995 58.9101 69.0894 56 65.4995 56C61.9097 56 58.9995 58.9101 58.9995 62.5C58.9995 66.0899 61.9097 69 65.4995 69Z" fill="#666666"/>
<path fill-rule="evenodd" clip-rule="evenodd" d="M68.9997 70.8296C68.9997 71.0264 68.9165 71.2141 68.7708 71.3463L66.0332 73.8308C65.9873 73.8725 65.9475 73.9216 65.8965 73.9569C65.7085 74.087 65.3314 74.0867 65.1364 73.9619C65.0782 73.9247 65.0325 73.871 64.9796 73.8267C64.0147 73.018 62.8879 72.1603 62.1667 71.3379C62.0556 71.2112 61.9997 71.0468 61.9997 70.8783Lnan nanL61.9997 70.8783C61.9997 70.4188 61.5856 70.0677 61.1382 70.1726C59.4117 70.5773 58.0917 71.2592 56.8616 72.1056C56.386 72.4328 56.3174 73.1044 56.7328 73.5053C58.9698 75.6644 62.0785 77 65.5195 77C68.9365 77 72.0279 75.6787 74.2617 73.5468C74.6795 73.1481 74.6145 72.4758 74.1405 72.1458C72.9012 71.2828 71.5642 70.5816 69.8127 70.1664C69.3912 70.0665 68.9997 70.3964 68.9997 70.8296Lnan nanL68.9997 70.8296Z" fill="url(#paint5_linear_1452_19001)"/>
<path fill-rule="evenodd" clip-rule="evenodd" d="M68.0055 70.6906C68.086 69.7197 69.0007 68.9463 70.0434 69.1934C71.9438 69.6439 73.395 70.4081 74.712 71.3252C75.6829 72.0013 75.8466 73.4167 74.9522 74.2703C72.5349 76.5773 69.1972 78.0001 65.5196 78.0001C61.8167 78.0001 58.4599 76.5621 56.0384 74.2249C55.1491 73.3666 55.3202 71.9524 56.2948 71.2818C57.6032 70.3816 59.0365 69.6383 60.91 69.1991C61.9895 68.946 62.9298 69.759 62.996 70.7651C63.494 71.3116 64.1799 71.8738 64.9152 72.4766C65.1087 72.6352 65.3056 72.7966 65.5034 72.9613L68.0055 70.6906ZM68.7709 71.3464C68.9166 71.2141 68.9997 71.0265 68.9997 70.8296C68.9997 70.3965 69.3913 70.0666 69.8127 70.1665C71.5642 70.5816 72.9013 71.2829 74.1406 72.1459C74.6146 72.4759 74.6795 73.1481 74.2617 73.5469C72.028 75.6788 68.9365 77.0001 65.5196 77.0001C62.0785 77.0001 58.9699 75.6645 56.7328 73.5053C56.3175 73.1044 56.3861 72.4329 56.8617 72.1056C58.0917 71.2593 59.4117 70.5774 61.1382 70.1727C61.5857 70.0678 61.9997 70.4188 61.9997 70.8784C61.9997 71.0469 62.0557 71.2113 62.1668 71.338C62.7297 71.9799 63.5397 72.6434 64.327 73.2882C64.5483 73.4695 64.7679 73.6493 64.9796 73.8267C64.9989 73.8429 65.0172 73.8603 65.0355 73.8776C65.0675 73.908 65.0994 73.9383 65.1364 73.962C65.3315 74.0868 65.7085 74.0871 65.8965 73.957C65.9296 73.9341 65.9579 73.9054 65.9863 73.8767C66.0017 73.8611 66.0171 73.8455 66.0333 73.8308L68.7709 71.3464Z" fill="#666666"/>
<path d="M66.0091 57.0228C68.8071 57.2749 70.9998 59.583 70.9998 62.3913C70.9998 62.4492 71.0019 62.5147 71.0041 62.5827C71.0087 62.7266 71.0137 62.8819 70.9998 63C69.2761 63.2404 66.5084 60.5084 65.5045 58.5093C64.5005 60.5084 61.7329 63.2404 60.0091 63C59.9952 62.8819 60.0002 62.7267 60.0048 62.5827C60.007 62.5147 60.0091 62.4492 60.0091 62.3913C60.0091 59.583 62.2018 57.2749 64.9998 57.0228C65.1645 57.0083 65.3313 57 65.4998 57C65.5014 57 65.5029 57 65.5045 57C65.506 57 65.5076 57 65.5091 57C65.6776 57 65.8444 57.0083 66.0091 57.0228Z" fill="#AAAAAA"/>
<path fill-rule="evenodd" clip-rule="evenodd" d="M66.0972 56.0267L66.0988 56.0269C69.391 56.3234 71.9998 59.0444 71.9998 62.3913C71.9998 62.43 72.0013 62.4783 72.0036 62.5505C72.0038 62.558 72.0041 62.5661 72.0044 62.5745C72.0085 62.6991 72.016 62.9215 71.993 63.1169L71.9027 63.8837L71.138 63.9904C70.4273 64.0895 69.7192 63.8748 69.1152 63.5789C68.4961 63.2756 67.8842 62.837 67.3241 62.3474C66.662 61.7687 66.0288 61.0802 65.5045 60.3784C64.9801 61.0802 64.3469 61.7687 63.6848 62.3474C63.1247 62.837 62.5129 63.2756 61.8937 63.5789C61.2897 63.8748 60.5816 64.0895 59.871 63.9904L59.1062 63.8837L59.016 63.1169C58.993 62.9215 59.0004 62.6991 59.0045 62.5745C59.0048 62.5661 59.0051 62.5581 59.0053 62.5505C59.0076 62.4783 59.0091 62.43 59.0091 62.3913C59.0091 59.0444 61.6179 56.3234 64.9101 56.0269L64.9117 56.0267C65.1023 56.0099 65.2986 56 65.4998 56H65.5091C65.7103 56 65.9066 56.0099 66.0972 56.0267ZM65.1372 57.0122C65.0913 57.0152 65.0455 57.0188 64.9998 57.0228C62.2018 57.2749 60.0091 59.583 60.0091 62.3913C60.0091 62.4492 60.007 62.5147 60.0048 62.5827C60.0002 62.7267 59.9952 62.8819 60.0091 63C60.2962 63.04 60.6122 62.9976 60.9442 62.8899C60.9632 62.8838 60.9823 62.8774 61.0014 62.8708C62.3365 62.4102 63.9155 60.9202 64.9084 59.4959C65.1437 59.1585 65.346 58.8248 65.5045 58.5093C65.6629 58.8248 65.8653 59.1585 66.1005 59.4959C67.0935 60.9202 68.6724 62.4102 70.0075 62.8708C70.0267 62.8774 70.0458 62.8838 70.0648 62.8899C70.3968 62.9977 70.7128 63.04 70.9998 63C71.0137 62.8819 71.0087 62.7266 71.0041 62.5827C71.0019 62.5147 70.9998 62.4492 70.9998 62.3913C70.9998 59.583 68.8071 57.2749 66.0091 57.0228C65.9635 57.0188 65.9177 57.0152 65.8717 57.0122C65.7518 57.0043 65.6309 57 65.5091 57H65.4998C65.378 57 65.2571 57.0043 65.1372 57.0122Z" fill="#666666"/>
<path d="M41.9995 68H46.9995V74H41.9995V68Z" fill="white"/>
<path fill-rule="evenodd" clip-rule="evenodd" d="M40.9995 67H47.9995V75H40.9995V67ZM41.9995 68V74H46.9995V68H41.9995Z" fill="#666666"/>
<path d="M50.9995 62.5C50.9995 66.0899 48.0894 69 44.4995 69C40.9097 69 37.9995 66.0899 37.9995 62.5C37.9995 58.9101 40.9097 56 44.4995 56C48.0894 56 50.9995 58.9101 50.9995 62.5Z" fill="white"/>
<path fill-rule="evenodd" clip-rule="evenodd" d="M44.4995 68C47.5371 68 49.9995 65.5376 49.9995 62.5C49.9995 59.4624 47.5371 57 44.4995 57C41.4619 57 38.9995 59.4624 38.9995 62.5C38.9995 65.5376 41.4619 68 44.4995 68ZM44.4995 69C48.0894 69 50.9995 66.0899 50.9995 62.5C50.9995 58.9101 48.0894 56 44.4995 56C40.9097 56 37.9995 58.9101 37.9995 62.5C37.9995 66.0899 40.9097 69 44.4995 69Z" fill="#666666"/>
<path fill-rule="evenodd" clip-rule="evenodd" d="M47.9997 70.8296C47.9997 71.0264 47.9165 71.2141 47.7708 71.3463L45.0332 73.8308C44.9873 73.8725 44.9475 73.9216 44.8965 73.9569C44.7085 74.087 44.3314 74.0867 44.1364 73.9619C44.0782 73.9247 44.0325 73.871 43.9796 73.8267C43.0147 73.018 41.8879 72.1603 41.1667 71.3379C41.0556 71.2112 40.9997 71.0468 40.9997 70.8783Lnan nanL40.9997 70.8783C40.9997 70.4188 40.5856 70.0677 40.1382 70.1726C38.4117 70.5773 37.0917 71.2592 35.8616 72.1056C35.386 72.4328 35.3174 73.1044 35.7328 73.5053C37.9698 75.6644 41.0785 77 44.5195 77C47.9365 77 51.0279 75.6787 53.2617 73.5468C53.6795 73.1481 53.6145 72.4758 53.1405 72.1458C51.9012 71.2828 50.5642 70.5816 48.8127 70.1664C48.3912 70.0665 47.9997 70.3964 47.9997 70.8296Lnan nanL47.9997 70.8296Z" fill="#BDECFF"/>
<path fill-rule="evenodd" clip-rule="evenodd" d="M47.0055 70.6906C47.086 69.7197 48.0007 68.9463 49.0434 69.1934C50.9438 69.6439 52.395 70.4081 53.712 71.3252C54.6829 72.0013 54.8466 73.4167 53.9522 74.2703C51.5349 76.5773 48.1972 78.0001 44.5196 78.0001C40.8167 78.0001 37.4599 76.5621 35.0384 74.2249C34.1491 73.3666 34.3202 71.9524 35.2948 71.2818C36.6032 70.3816 38.0365 69.6383 39.91 69.1991C40.9895 68.946 41.9298 69.759 41.996 70.7651C42.494 71.3116 43.1799 71.8738 43.9152 72.4766C44.1087 72.6352 44.3056 72.7966 44.5034 72.9613L47.0055 70.6906ZM47.7709 71.3464C47.9166 71.2141 47.9997 71.0265 47.9997 70.8296C47.9997 70.3965 48.3913 70.0666 48.8127 70.1665C50.5642 70.5816 51.9013 71.2829 53.1406 72.1459C53.6146 72.4759 53.6795 73.1481 53.2617 73.5469C51.028 75.6788 47.9365 77.0001 44.5196 77.0001C41.0785 77.0001 37.9699 75.6645 35.7328 73.5053C35.3175 73.1044 35.3861 72.4329 35.8617 72.1056C37.0917 71.2593 38.4117 70.5774 40.1382 70.1727C40.5857 70.0678 40.9997 70.4188 40.9997 70.8784C40.9997 71.0469 41.0557 71.2113 41.1668 71.338C41.7297 71.9799 42.5397 72.6434 43.327 73.2882C43.5483 73.4695 43.7679 73.6493 43.9796 73.8267C43.9989 73.8429 44.0172 73.8603 44.0355 73.8776C44.0675 73.908 44.0994 73.9383 44.1364 73.962C44.3315 74.0868 44.7085 74.0871 44.8965 73.957C44.9296 73.9341 44.9579 73.9054 44.9863 73.8767C45.0017 73.8611 45.0171 73.8455 45.0333 73.8308L47.7709 71.3464Z" fill="#666666"/>
<path d="M45.0091 57.0228C47.8071 57.2749 49.9998 59.583 49.9998 62.3913C49.9998 62.4492 50.0019 62.5147 50.0041 62.5827C50.0087 62.7266 50.0137 62.8819 49.9998 63C48.2761 63.2404 45.5084 60.5084 44.5045 58.5093C43.5005 60.5084 40.7329 63.2404 39.0091 63C38.9952 62.8819 39.0002 62.7267 39.0048 62.5827C39.007 62.5147 39.0091 62.4492 39.0091 62.3913C39.0091 59.583 41.2018 57.2749 43.9998 57.0228C44.1645 57.0083 44.3313 57 44.4998 57L44.5045 57L44.5091 57C44.6776 57 44.8444 57.0083 45.0091 57.0228Z" fill="#AAAAAA"/>
<path fill-rule="evenodd" clip-rule="evenodd" d="M45.0972 56.0267L45.0988 56.0269C48.391 56.3234 50.9998 59.0444 50.9998 62.3913C50.9998 62.43 51.0013 62.4783 51.0036 62.5505C51.0038 62.558 51.0041 62.5661 51.0044 62.5745C51.0085 62.6991 51.016 62.9215 50.993 63.1169L50.9027 63.8837L50.138 63.9904C49.4273 64.0895 48.7192 63.8748 48.1152 63.5789C47.4961 63.2756 46.8842 62.837 46.3241 62.3474C45.662 61.7687 45.0288 61.0802 44.5045 60.3784C43.9801 61.0802 43.3469 61.7687 42.6848 62.3474C42.1247 62.837 41.5129 63.2756 40.8937 63.5789C40.2897 63.8748 39.5816 64.0895 38.871 63.9904L38.1062 63.8837L38.016 63.1169C37.993 62.9215 38.0004 62.6991 38.0045 62.5745C38.0048 62.5661 38.0051 62.5581 38.0053 62.5505C38.0076 62.4783 38.0091 62.43 38.0091 62.3913C38.0091 59.0444 40.6179 56.3234 43.9101 56.0269L43.9117 56.0267C44.1023 56.0099 44.2986 56 44.4998 56L44.5087 56C44.7099 56 44.9066 56.0099 45.0972 56.0267ZM44.1372 57.0122C44.0913 57.0152 44.0455 57.0188 43.9998 57.0228C41.2018 57.2749 39.0091 59.583 39.0091 62.3913C39.0091 62.4492 39.007 62.5147 39.0048 62.5827C39.0002 62.7267 38.9952 62.8819 39.0091 63C39.2962 63.04 39.6122 62.9976 39.9442 62.8899C39.9632 62.8838 39.9823 62.8774 40.0014 62.8708C41.3365 62.4102 42.9155 60.9202 43.9084 59.4959C44.1437 59.1585 44.346 58.8248 44.5045 58.5093C44.6629 58.8248 44.8653 59.1585 45.1005 59.4959C46.0935 60.9202 47.6724 62.4102 49.0075 62.8708C49.0267 62.8774 49.0458 62.8838 49.0648 62.8899C49.3968 62.9977 49.7128 63.04 49.9998 63C50.0137 62.8819 50.0087 62.7266 50.0041 62.5827C50.0019 62.5147 49.9998 62.4492 49.9998 62.3913C49.9998 59.583 47.8071 57.2749 45.0091 57.0228C44.9635 57.0188 44.9177 57.0152 44.8717 57.0122C44.7518 57.0043 44.6309 57 44.5091 57H44.4998C44.378 57 44.2571 57.0043 44.1372 57.0122Z" fill="#666666"/>
<defs>
<linearGradient id="paint0_linear_1452_19001" x1="57.9996" y1="29.3359" x2="74.2923" y2="51.2443" gradientUnits="userSpaceOnUse">
<stop stop-color="#FF8E3D"/>
<stop offset="1" stop-color="#FF6F3D"/>
</linearGradient>
<linearGradient id="paint1_linear_1452_19001" x1="57.9996" y1="29.3359" x2="74.2923" y2="51.2443" gradientUnits="userSpaceOnUse">
<stop stop-color="#FF8E3D"/>
<stop offset="1" stop-color="#FF6F3D"/>
</linearGradient>
<linearGradient id="paint2_linear_1452_19001" x1="57.9996" y1="29.3359" x2="74.2923" y2="51.2443" gradientUnits="userSpaceOnUse">
<stop stop-color="#FF8E3D"/>
<stop offset="1" stop-color="#FF6F3D"/>
</linearGradient>
<linearGradient id="paint3_linear_1452_19001" x1="57.9996" y1="29.3359" x2="74.2923" y2="51.2443" gradientUnits="userSpaceOnUse">
<stop stop-color="#FF8E3D"/>
<stop offset="1" stop-color="#FF6F3D"/>
</linearGradient>
<linearGradient id="paint4_linear_1452_19001" x1="33.9757" y1="43.3608" x2="43.1895" y2="68.1321" gradientUnits="userSpaceOnUse">
<stop stop-color="#FF8E3D"/>
<stop offset="1" stop-color="#FF6F3D"/>
</linearGradient>
<linearGradient id="paint5_linear_1452_19001" x1="56.459" y1="69.8808" x2="60.8732" y2="81.9841" gradientUnits="userSpaceOnUse">
<stop stop-color="#FF8E3D"/>
<stop offset="1" stop-color="#FF6F3D"/>
</linearGradient>
</defs>
</svg>
