<svg width="100" height="80" viewBox="0 0 100 80" fill="none" xmlns="http://www.w3.org/2000/svg">
<g clip-path="url(#clip0_1428_29314)">
<path fill-rule="evenodd" clip-rule="evenodd" d="M79.2528 15.8524C79.3175 15.6429 79.5112 15.5 79.7305 15.5H84.2059C84.4304 15.5 84.6273 15.6496 84.6876 15.8658L85.5965 19.1274C87.0037 19.3748 88.3418 19.8081 89.6101 20.3693L92.3567 18.2787C92.5287 18.1478 92.7654 18.1422 92.9433 18.2649L96.59 20.7792C96.7764 20.9077 96.8532 21.1455 96.7771 21.3587L95.6362 24.5595C96.5809 25.5847 97.3995 26.6811 98.0893 27.903L101.517 27.8284C101.735 27.8237 101.931 27.9607 102.001 28.1671L103.41 32.3036C103.483 32.5178 103.403 32.7543 103.215 32.8802L100.318 34.8201C100.389 35.4726 100.453 36.1866 100.453 36.8446C100.453 37.223 100.431 37.6194 100.411 37.9997L100.411 38.0069C100.395 38.2984 100.38 38.5806 100.373 38.8509L103.298 40.8089C103.486 40.9348 103.566 41.1713 103.493 41.3856L102.084 45.522C102.013 45.7283 101.818 45.8653 101.6 45.8607L98.0811 45.7858C97.3942 46.9382 96.5789 48.0258 95.6362 49.0486L96.7771 52.2493C96.8522 52.4599 96.7783 52.6948 96.5961 52.8245L92.9495 55.4199C92.7711 55.5469 92.5309 55.543 92.3567 55.4104L89.6158 53.3242C88.407 53.886 87.0741 54.3171 85.672 54.563L84.6846 57.8336C84.6209 58.0447 84.4264 58.1891 84.2059 58.1891H79.7305C79.51 58.1891 79.3156 58.0447 79.2519 57.8336L78.2636 54.5601C76.9226 54.3125 75.5917 53.8799 74.3263 53.3199L71.5798 55.4104C71.4056 55.543 71.1654 55.5469 70.987 55.4199L67.3404 52.8245C67.155 52.6926 67.0821 52.4521 67.1629 52.2394L68.374 49.0542C67.4295 48.089 66.6149 46.9991 65.93 45.786L62.4196 45.8607C62.2017 45.8653 62.0059 45.7283 61.9357 45.522L60.5267 41.3856C60.4538 41.1713 60.5338 40.9348 60.7219 40.8089L63.6185 38.8693C63.5479 38.2343 63.4837 37.5716 63.4837 36.8446C63.4837 36.1175 63.5479 35.4548 63.6185 34.8198L60.7219 32.8802C60.5329 32.7537 60.4531 32.5155 60.5277 32.3007L61.9367 28.2453C62.0078 28.0404 62.203 27.9048 62.4198 27.9095L65.8471 27.9841C66.5369 26.7622 67.3556 25.6658 68.3002 24.6406L67.1593 21.4399C67.0849 21.2311 67.1568 20.9983 67.336 20.8678L70.8997 18.2724C71.0757 18.1442 71.3144 18.1446 71.4899 18.2735L74.2381 20.2905C75.5109 19.7269 76.854 19.2921 78.2667 19.0446L79.2528 15.8524ZM80.0994 16.5L79.1308 19.6352C79.0744 19.818 78.9185 19.9525 78.7295 19.9817C77.2074 20.2169 75.7603 20.6881 74.3868 21.3206C74.2217 21.3966 74.0284 21.3771 73.8818 21.2695L71.1929 19.2959L68.2268 21.4561L69.3445 24.5917C69.4077 24.7691 69.3659 24.9671 69.2362 25.1037C68.1854 26.2112 67.3009 27.3926 66.5783 28.7284C66.4891 28.8933 66.3151 28.9945 66.1276 28.9904L62.7619 28.9172L61.5991 32.2641L64.4276 34.1581C64.583 34.2621 64.6673 34.4442 64.6462 34.63C64.5631 35.3625 64.4837 36.0658 64.4837 36.8446C64.4837 37.6234 64.5631 38.3266 64.6462 39.0592C64.6673 39.245 64.583 39.427 64.4276 39.531L61.5971 41.4263L62.7643 44.8531L66.2107 44.7798C66.3981 44.7758 66.572 44.877 66.6611 45.0418C67.3842 46.3783 68.2659 47.5542 69.3061 48.5722C69.4482 48.7113 69.4944 48.9214 69.4237 49.1072L68.2349 52.2338L71.267 54.3918L73.9577 52.3437C74.1049 52.2317 74.3018 52.2101 74.4697 52.2874C75.8443 52.9205 77.2929 53.3919 78.7336 53.6269C78.9221 53.6577 79.0766 53.7931 79.1318 53.9759L80.1019 57.1891H83.8346L84.8047 53.9759C84.8603 53.7916 85.0168 53.6557 85.207 53.6263C86.73 53.3909 88.1736 52.92 89.4562 52.2925C89.626 52.2093 89.8283 52.2292 89.9787 52.3437L92.6695 54.3918L95.7083 52.229L94.592 49.0974C94.5288 48.92 94.5706 48.722 94.7003 48.5854C95.7517 47.4773 96.6392 46.2924 97.3645 45.0305C97.4556 44.8721 97.6259 44.7759 97.8086 44.7798L101.255 44.8531L102.422 41.4263L99.5918 39.531C99.4531 39.4382 99.3699 39.2824 99.3699 39.1156C99.3699 38.7371 99.3913 38.3407 99.4117 37.9604L99.4121 37.9532C99.433 37.5652 99.4528 37.1937 99.4528 36.8446C99.4528 36.1461 99.3732 35.3605 99.2903 34.63C99.2692 34.4442 99.3535 34.2621 99.5089 34.1581L102.339 32.2628L101.172 28.8361L97.8089 28.9093C97.6214 28.9134 97.4474 28.8122 97.3582 28.6473C96.6356 27.3115 95.7511 26.1301 94.7003 25.0226C94.5706 24.886 94.5288 24.688 94.592 24.5106L95.7063 21.3846L92.674 19.2939L89.9787 21.3454C89.8316 21.4574 89.6347 21.479 89.4668 21.4017C88.0933 20.7692 86.6462 20.298 85.1241 20.0629C84.9301 20.0329 84.7716 19.8921 84.7188 19.7029L83.8262 16.5H80.0994Z" fill="#E2E2E2"/>
<path fill-rule="evenodd" clip-rule="evenodd" d="M81.9686 26.2327C75.9637 26.2327 71.1143 30.9938 71.1143 36.8444C71.1143 42.6949 75.9637 47.4561 81.9686 47.4561C87.9735 47.4561 92.8229 42.6949 92.8229 36.8444C92.8229 30.9938 87.9735 26.2327 81.9686 26.2327ZM70.1143 36.8444C70.1143 30.4213 75.4319 25.2327 81.9686 25.2327C88.5053 25.2327 93.8229 30.4213 93.8229 36.8444C93.8229 43.2674 88.5053 48.4561 81.9686 48.4561C75.4319 48.4561 70.1143 43.2674 70.1143 36.8444Z" fill="#E2E2E2"/>
<path fill-rule="evenodd" clip-rule="evenodd" d="M20.2528 54.8524C20.3175 54.6429 20.5112 54.5 20.7305 54.5H25.2059C25.4304 54.5 25.6273 54.6496 25.6876 54.8658L26.5965 58.1274C28.0037 58.3748 29.3418 58.8081 30.6101 59.3693L33.3567 57.2787C33.5287 57.1478 33.7654 57.1422 33.9433 57.2649L37.59 59.7792C37.7764 59.9077 37.8532 60.1455 37.7771 60.3587L36.6362 63.5595C37.5809 64.5847 38.3995 65.6811 39.0893 66.903L42.5166 66.8284C42.7346 66.8237 42.9305 66.9607 43.0008 67.1671L44.4097 71.3036C44.4827 71.5178 44.4027 71.7543 44.2146 71.8802L41.3176 73.8201C41.3885 74.4726 41.4528 75.1866 41.4528 75.8446C41.4528 76.223 41.4315 76.6194 41.411 76.9997L41.4107 77.0069C41.395 77.2984 41.3799 77.5806 41.3733 77.8509L44.2975 79.8089C44.4855 79.9348 44.5656 80.1713 44.4926 80.3856L43.0837 84.522C43.0134 84.7283 42.8176 84.8653 42.5997 84.8607L39.0811 84.7858C38.3942 85.9382 37.5789 87.0258 36.6362 88.0486L37.7771 91.2493C37.8522 91.4599 37.7783 91.6948 37.5961 91.8245L33.9495 94.4199C33.7711 94.5469 33.5309 94.543 33.3567 94.4104L30.6158 92.3242C29.407 92.886 28.0741 93.3171 26.672 93.563L25.6846 96.8336C25.6209 97.0447 25.4264 97.1891 25.2059 97.1891H20.7305C20.51 97.1891 20.3156 97.0447 20.2519 96.8336L19.2636 93.5601C17.9226 93.3125 16.5917 92.8799 15.3263 92.3199L12.5798 94.4104C12.4056 94.543 12.1654 94.5469 11.987 94.4199L8.34037 91.8245C8.155 91.6926 8.08208 91.4521 8.16295 91.2394L9.37401 88.0542C8.42953 87.089 7.61492 85.9991 6.92996 84.786L3.41961 84.8607C3.20173 84.8653 3.00594 84.7283 2.93567 84.522L1.52675 80.3856C1.45378 80.1713 1.5338 79.9348 1.72185 79.8089L4.61848 77.8693C4.54786 77.2343 4.48366 76.5716 4.48366 75.8446C4.48366 75.1175 4.54786 74.4548 4.61848 73.8198L1.72185 71.8802C1.53286 71.7537 1.45309 71.5155 1.52774 71.3007L2.93666 67.2453C3.00785 67.0404 3.203 66.9048 3.41984 66.9095L6.84714 66.9841C7.53693 65.7622 8.35562 64.6658 9.30024 63.6406L8.15933 60.4399C8.08492 60.2311 8.1568 59.9983 8.33595 59.8678L11.8997 57.2724C12.0757 57.1442 12.3144 57.1446 12.4899 57.2735L15.2381 59.2905C16.5109 58.7269 17.854 58.2921 19.2667 58.0446L20.2528 54.8524ZM21.0994 55.5L20.1308 58.6352C20.0744 58.818 19.9185 58.9525 19.7295 58.9817C18.2074 59.2169 16.7603 59.6881 15.3868 60.3206C15.2217 60.3966 15.0284 60.3771 14.8818 60.2695L12.1929 58.2959L9.22676 60.4561L10.3445 63.5917C10.4077 63.7691 10.3659 63.9671 10.2362 64.1037C9.18537 65.2112 8.30089 66.3926 7.57827 67.7284C7.48905 67.8933 7.31507 67.9945 7.12762 67.9904L3.76187 67.9172L2.59907 71.2641L5.42761 73.1581C5.58298 73.2621 5.66732 73.4442 5.64623 73.63C5.56305 74.3625 5.48366 75.0658 5.48366 75.8446C5.48366 76.6234 5.56305 77.3266 5.64623 78.0592C5.66732 78.245 5.58298 78.427 5.42761 78.531L2.59705 80.4263L3.76426 83.8531L7.21074 83.7798C7.39811 83.7758 7.57198 83.877 7.66115 84.0418C8.38415 85.3783 9.2659 86.5542 10.3061 87.5722C10.4482 87.7113 10.4944 87.9214 10.4237 88.1072L9.23495 91.2338L12.267 93.3918L14.9577 91.3437C15.1049 91.2317 15.3018 91.2101 15.4697 91.2874C16.8443 91.9205 18.2929 92.3919 19.7336 92.6269C19.9221 92.6577 20.0766 92.7931 20.1318 92.9759L21.1019 96.1891H24.8346L25.8047 92.9759C25.8603 92.7916 26.0168 92.6557 26.207 92.6263C27.73 92.3909 29.1736 91.92 30.4562 91.2925C30.626 91.2093 30.8283 91.2292 30.9787 91.3437L33.6695 93.3918L36.7083 91.229L35.592 88.0974C35.5288 87.92 35.5706 87.722 35.7003 87.5854C36.7517 86.4773 37.6392 85.2924 38.3645 84.0305C38.4556 83.8721 38.6259 83.7759 38.8086 83.7798L42.2551 83.8531L43.4223 80.4263L40.5918 78.531C40.4531 78.4382 40.3699 78.2824 40.3699 78.1156C40.3699 77.7371 40.3913 77.3407 40.4117 76.9604L40.4121 76.9532C40.433 76.5652 40.4528 76.1937 40.4528 75.8446C40.4528 75.1461 40.3732 74.3605 40.2903 73.63C40.2692 73.4442 40.3535 73.2621 40.5089 73.1581L43.3394 71.2628L42.1723 67.8361L38.8089 67.9093C38.6214 67.9134 38.4474 67.8122 38.3582 67.6473C37.6356 66.3115 36.7511 65.1301 35.7003 64.0226C35.5706 63.886 35.5288 63.688 35.592 63.5106L36.7063 60.3846L33.674 58.2939L30.9787 60.3454C30.8316 60.4574 30.6347 60.479 30.4668 60.4017C29.0933 59.7692 27.6462 59.298 26.1241 59.0629C25.9301 59.0329 25.7716 58.8921 25.7188 58.7029L24.8262 55.5H21.0994Z" fill="#E2E2E2"/>
<path fill-rule="evenodd" clip-rule="evenodd" d="M22.9686 65.2327C16.9637 65.2327 12.1143 69.9938 12.1143 75.8444C12.1143 81.6949 16.9637 86.4561 22.9686 86.4561C28.9735 86.4561 33.8229 81.6949 33.8229 75.8444C33.8229 69.9938 28.9735 65.2327 22.9686 65.2327ZM11.1143 75.8444C11.1143 69.4213 16.4319 64.2327 22.9686 64.2327C29.5053 64.2327 34.8229 69.4213 34.8229 75.8444C34.8229 82.2674 29.5053 87.4561 22.9686 87.4561C16.4319 87.4561 11.1143 82.2674 11.1143 75.8444Z" fill="#E2E2E2"/>
<path d="M31 42H36C41.4079 42 46.0446 45.3021 48.0037 50H50C51.3062 50 52.4175 50.8348 52.8293 52H56C56.5523 52 57 52.4477 57 53V57C57 57.5523 56.5523 58 56 58H52.8293C52.4175 59.1652 51.3062 60 50 60H48.0037C46.0446 64.6979 41.4079 68 36 68H31V65H25C23.3431 65 22 63.6569 22 62C22 60.3431 23.3431 59 25 59H31V51H25C23.3431 51 22 49.6569 22 48C22 46.3431 23.3431 45 25 45H31V42Z" fill="white"/>
<path fill-rule="evenodd" clip-rule="evenodd" d="M48.0037 50C46.0446 45.3021 41.4079 42 36 42H31V45H25C23.3431 45 22 46.3431 22 48C22 49.6569 23.3431 51 25 51H31V59H25C23.3431 59 22 60.3431 22 62C22 63.6569 23.3431 65 25 65H31V68H36C41.4079 68 46.0446 64.6979 48.0037 60H50C51.3062 60 52.4175 59.1652 52.8293 58H56C56.5522 58 56.9999 57.5524 57 57.0002H99.9888V53.0002H57C57 52.448 56.5523 52 56 52H52.8293C52.4175 50.8348 51.3062 50 50 50H48.0037ZM36 44H33V66H36C42.0751 66 47 61.0751 47 55C47 48.9249 42.0751 44 36 44ZM53 54V56H55V54H53ZM51 57V53C51 52.4477 50.5523 52 50 52H49V58H50C50.5523 58 51 57.5523 51 57ZM25 47H31V49H25C24.4477 49 24 48.5523 24 48C24 47.4477 24.4477 47 25 47ZM25 61H31V63H25C24.4477 63 24 62.5523 24 62C24 61.4477 24.4477 61 25 61Z" fill="#9ADAF3"/>
<path d="M91.9985 55C91.9985 62.732 85.7305 69 77.9985 69C70.2665 69 63.9985 62.732 63.9985 55C63.9985 47.268 70.2665 41 77.9985 41C85.7305 41 91.9985 47.268 91.9985 55Z" fill="white"/>
<path fill-rule="evenodd" clip-rule="evenodd" d="M93.4985 55.0688C93.4985 63.6293 86.5589 70.5688 77.9985 70.5688C69.4381 70.5688 62.4985 63.6293 62.4985 55.0688C62.4985 46.5084 69.4381 39.5688 77.9985 39.5688C86.5589 39.5688 93.4985 46.5084 93.4985 55.0688ZM77.9985 69.0688C85.7305 69.0688 91.9985 62.8008 91.9985 55.0688C91.9985 47.3369 85.7305 41.0688 77.9985 41.0688C70.2665 41.0688 63.9985 47.3369 63.9985 55.0688C63.9985 62.8008 70.2665 69.0688 77.9985 69.0688Z" fill="#657077"/>
<path fill-rule="evenodd" clip-rule="evenodd" d="M76.8999 63.4118L69.4744 59.9911C68.8419 59.6924 68.8419 59.2309 69.4744 58.9594L72.0596 57.7649L76.8724 59.9911C77.505 60.2897 78.5225 60.2897 79.1276 59.9911L83.9404 57.7649L86.5256 58.9594C87.1581 59.2581 87.1581 59.7196 86.5256 59.9911L79.1001 63.4118C78.5225 63.6832 77.505 63.6832 76.8999 63.4118Z" fill="#FF6F3D"/>
<path fill-rule="evenodd" clip-rule="evenodd" d="M76.8759 59.1787L69.473 55.7541C68.8423 55.4551 68.8423 54.993 69.473 54.7212L71.9954 53.5525L76.8759 55.8084C77.5065 56.1074 78.5209 56.1074 79.1241 55.8084L84.0046 53.5525L86.527 54.7212C87.1577 55.0202 87.1577 55.4823 86.527 55.7541L79.1241 59.1787C78.4935 59.4777 77.4791 59.4777 76.8759 59.1787Z" fill="#95C038"/>
<path fill-rule="evenodd" clip-rule="evenodd" d="M76.8759 54.9898L69.473 51.6144C68.8423 51.3197 68.8423 50.8643 69.473 50.5964L76.8759 47.221C77.5065 46.9263 78.5209 46.9263 79.1241 47.221L86.527 50.5964C87.1577 50.8911 87.1577 51.3465 86.527 51.6144L79.1241 54.9898C78.4935 55.2576 77.4791 55.2576 76.8759 54.9898Z" fill="#5DC0E8"/>
</g>
<defs>
<clipPath id="clip0_1428_29314">
<rect width="100" height="80" fill="white"/>
</clipPath>
</defs>
</svg>
