<svg width="61" height="61" viewBox="0 0 61 61" fill="none" xmlns="http://www.w3.org/2000/svg">
<rect x="3.86133" y="19.4529" width="21" height="38" rx="2.5" fill="#EFEFEF" stroke="#808080"/>
<path d="M24.3613 23.4529H24.8613V22.9529V21.9529C24.8613 20.5722 23.742 19.4529 22.3613 19.4529H6.36133C4.98062 19.4529 3.86133 20.5722 3.86133 21.9529V22.9529V23.4529H4.36133H24.3613Z" fill="#BDECFF" stroke="#808080"/>
<rect x="7.86133" y="28.4529" width="21" height="7" rx="1.5" fill="#D9F4FF" stroke="#9ADAF3"/>
<rect x="7.56133" y="40.1529" width="14.6" height="11.6" rx="0.8" fill="white" stroke="#666666" stroke-width="0.4"/>
<path d="M13.3725 42.9529H7.77246V45.9529H13.3725V42.9529Z" fill="#D9F4FF"/>
<path d="M13.3617 48.7529H7.76172V51.7529H13.3617V48.7529Z" fill="#D9F4FF"/>
<path fill-rule="evenodd" clip-rule="evenodd" d="M7.36133 50.9529C7.36133 51.5052 7.80904 51.9529 8.36133 51.9529H21.3613C21.9136 51.9529 22.3613 51.5052 22.3613 50.9529V40.9529C22.3613 40.4006 21.9136 39.9529 21.3613 39.9529H8.36133C7.80904 39.9529 7.36133 40.4006 7.36133 40.9529V50.9529ZM21.3613 40.3529H13.7613V42.7528H19.3613V43.1528H13.7613V45.7528H19.3613V46.1528H13.7613V48.7528H19.3613V49.1528H13.7613V51.5529H21.3613C21.6927 51.5529 21.9613 51.2843 21.9613 50.9529V40.9529C21.9613 40.6215 21.6927 40.3529 21.3613 40.3529ZM13.3613 48.7528V46.1528H7.76133V48.7528H13.3613ZM7.76133 49.1528H13.3613V51.5529H8.36133C8.02996 51.5529 7.76133 51.2843 7.76133 50.9529V49.1528ZM13.3613 43.1528V45.7528H7.76133V43.1528H13.3613ZM13.3613 42.7528V40.3529H8.36133C8.02996 40.3529 7.76133 40.6215 7.76133 40.9529V42.7528H13.3613Z" fill="#666666"/>
<rect x="16.8613" y="6.45288" width="41" height="51" rx="2.5" fill="white" stroke="#808080"/>
<path d="M57.3613 11.4529H57.8613V10.9529V8.95288C57.8613 7.57217 56.742 6.45288 55.3613 6.45288H19.3613C17.9806 6.45288 16.8613 7.57217 16.8613 8.95288V10.9529V11.4529H17.3613H57.3613Z" fill="#BDECFF" stroke="#808080"/>
<rect x="22.8613" y="16.4678" width="29" height="4" fill="#93D5D1" stroke="#27ABA3" stroke-linejoin="round"/>
<rect x="39.8613" y="46.4849" width="12" height="5" fill="#93D5D1" stroke="#27ABA3" stroke-linejoin="round"/>
<rect x="22.8613" y="46.4849" width="12" height="5" fill="#F2F2F2" stroke="#E2E2E2" stroke-linejoin="round"/>
<circle cx="24.3613" cy="25.9529" r="1.5" fill="#FEFEFE" stroke="#27ABA3" stroke-linejoin="round"/>
<circle cx="24.3613" cy="31.9529" r="1.5" fill="#FEFEFE" stroke="#27ABA3" stroke-linejoin="round"/>
<circle cx="24.3613" cy="37.9529" r="1.5" fill="#FEFEFE" stroke="#27ABA3" stroke-linejoin="round"/>
<rect x="28.3613" y="24.9529" width="23" height="2" rx="1" fill="#CCCCCC"/>
<rect x="28.3613" y="30.9529" width="23" height="2" rx="1" fill="#CCCCCC"/>
<rect x="28.3613" y="36.9529" width="23" height="2" rx="1" fill="#CCCCCC"/>
</svg>
