<svg width="100" height="80" viewBox="0 0 100 80" fill="none" xmlns="http://www.w3.org/2000/svg">
<g clip-path="url(#clip0_1428_29312)">
<path d="M52.5435 105.582L52.5434 54.8569L25.7329 54.857L15 66.3638L15 105.582L52.5435 105.582Z" fill="white" stroke="#9ADAF3" stroke-width="2"/>
<path d="M25 66L25 55.4799L15.3566 66L25 66Z" fill="#EEFBFF" stroke="#9ADAF3" stroke-width="2"/>
<path d="M47 68H32V69H47V68Z" fill="#AAAAAA"/>
<path d="M47 72H32V73H47V72Z" fill="#AAAAAA"/>
<path d="M24 76H47V77H24V76Z" fill="#AAAAAA"/>
<path d="M45.0002 24L79 24L94 39L93.8705 89.0022L45 89.0022L45.0002 24Z" fill="white"/>
<path fill-rule="evenodd" clip-rule="evenodd" d="M91.9979 39.8263L78.1716 26L47.0002 26L47 87.0022L91.8757 87.0022L91.9979 39.8263ZM93.8705 89.0022L94 39L79 24L45.0002 24L45 89.0022L93.8705 89.0022Z" fill="#9ADAF3"/>
<path d="M78 40L78.0002 24L79 24L94 39L94 40L78 40Z" fill="#EEFBFF"/>
<path fill-rule="evenodd" clip-rule="evenodd" d="M80.0002 27.8286L80 38L90.1716 38L80.0002 27.8286ZM78.0002 25.8286L78.0002 24.9998L78.0002 25.8286ZM78.0002 24L79 24L94 39L94 40L78 40L78.0002 25.8286" fill="#9ADAF3"/>
<path d="M68 44H54V45H68V44Z" fill="#AAAAAA"/>
<path d="M68 49H54V50H68V49Z" fill="#AAAAAA"/>
<path d="M84 54H54V55H84V54Z" fill="#AAAAAA"/>
<path d="M54 59H84V60H54V59Z" fill="#AAAAAA"/>
<path d="M86 64L74 64V65L86 65V64Z" fill="#AAAAAA"/>
<path d="M74 69L86 69V70L74 70V69Z" fill="#AAAAAA"/>
<path d="M69 23H35V36H69V23Z" fill="#9ADAF3"/>
<path d="M67 25H37V34H67V25Z" fill="#D3F5FF"/>
<path fill-rule="evenodd" clip-rule="evenodd" d="M68 24H36V35H68V24ZM67 25V34H37V25H67Z" fill="white"/>
<path d="M98.3153 49.3664L94.3582 45.3944L78.1707 61.3869L77.0078 66.5277L82.1394 65.3951L98.3153 49.3664Z" fill="white"/>
<path d="M94.811 52.8588L90.8539 48.8867L78.0375 61.5194L82.2192 65.3154L94.811 52.8588Z" fill="url(#paint0_linear_1428_29312)"/>
<path fill-rule="evenodd" clip-rule="evenodd" d="M82.0836 65.0935L97.5401 49.6885C97.7504 49.4789 97.7461 49.1434 97.5304 48.9393L94.6467 46.2099C94.431 46.0058 94.0856 46.0102 93.8753 46.2198L78.4188 61.6248C78.3527 61.6906 78.3055 61.7719 78.2816 61.8608L77.2523 65.6883C77.1454 66.0859 77.5249 66.445 77.9313 66.3309L81.8442 65.2328C81.9351 65.2073 82.0176 65.1593 82.0836 65.0935ZM97.9307 50.0582C98.3514 49.6389 98.3426 48.968 97.9112 48.5597L95.0276 45.8304C94.5961 45.422 93.9054 45.4309 93.4847 45.8501L78.0282 61.2551C77.8961 61.3867 77.8015 61.5494 77.7537 61.7272L76.7245 65.5546C76.5107 66.3498 77.2696 67.0681 78.0825 66.84L81.9954 65.7418C82.1771 65.6908 82.3421 65.5948 82.4742 65.4632L97.9307 50.0582Z" fill="#555F65"/>
<path d="M93.123 50.9629L80.4686 63.5751L79.9746 63.1075L92.629 50.4953L93.123 50.9629Z" fill="white"/>
<path fill-rule="evenodd" clip-rule="evenodd" d="M78.2165 61.2735L82.3162 64.992L81.944 65.3792L77.8443 61.6606L78.2165 61.2735Z" fill="#555F65"/>
<path fill-rule="evenodd" clip-rule="evenodd" d="M91.1828 48.7867L95.0805 52.6713L94.6887 53.0393L90.791 49.1546L91.1828 48.7867Z" fill="#555F65"/>
<path fill-rule="evenodd" clip-rule="evenodd" d="M77.6703 63.8209L79.9744 65.9018L77.6705 66.5886L76.9606 65.9016L77.6703 63.8209Z" fill="#555F65"/>
<path fill-rule="evenodd" clip-rule="evenodd" d="M92.1608 47.8702L95.9388 51.6377L95.5482 52.0072L91.7702 48.2397L92.1608 47.8702Z" fill="#555F65"/>
<path d="M39.1167 48.9996C39.1167 54.5879 34.5873 59.1182 29 59.1182C23.4127 59.1182 18.8833 54.5879 18.8833 48.9996C18.8833 43.4113 23.4127 38.8811 29 38.8811C34.5873 38.8811 39.1167 43.4113 39.1167 48.9996Z" fill="white"/>
<path d="M29.1881 38.0016C23.1141 37.8989 18.1056 42.6895 18.0018 48.7016C17.9429 52.1105 19.3372 55.2125 21.7812 57.25C21.941 57.1119 22.2532 56.9472 22.4437 56.8445L25.7258 55.0724C26.1563 54.8399 26.4244 54.3933 26.4244 53.9076V52.5765C26.4244 52.5765 25.461 51.4359 25.0936 49.8512C24.789 49.6561 24.5847 49.3188 24.5847 48.9346V47.4777C24.5847 47.1572 24.7288 46.8709 24.9525 46.6704V44.5643C24.9525 44.5643 24.5154 41.2869 28.9997 41.2869C33.4839 41.2869 33.0468 44.5643 33.0468 44.5643V46.6704C33.2709 46.8709 33.4146 47.1572 33.4146 47.4777V48.9346C33.4146 49.4243 33.0825 49.8364 32.6317 49.9741C32.3806 50.7469 32.0182 51.4836 31.5392 52.1533C31.4184 52.3221 31.3055 52.4651 31.2067 52.5765V53.9413C31.2067 54.4438 31.4935 54.9036 31.9476 55.1279L35.4622 56.8671C35.6731 56.9714 36.0432 57.1033 36.2188 57.25C38.589 55.2935 39.9406 52.3682 39.9975 49.0739C40.1021 43.0618 35.0014 38.0999 29.1881 38.0016Z" fill="url(#paint1_linear_1428_29312)"/>
<path fill-rule="evenodd" clip-rule="evenodd" d="M40 49C40 55.0733 35.077 60 29 60C22.923 60 18 55.0733 18 49C18 42.9267 22.923 38 29 38C35.077 38 40 42.9267 40 49ZM29 59.1185C34.5873 59.1185 39.1167 54.5883 39.1167 49C39.1167 43.4117 34.5873 38.8815 29 38.8815C23.4127 38.8815 18.8833 43.4117 18.8833 49C18.8833 54.5883 23.4127 59.1185 29 59.1185Z" fill="#657077"/>
<path d="M62.3467 69.775C62.3467 73.3142 59.5226 76.1833 56.0388 76.1833C52.5551 76.1833 49.731 73.3142 49.731 69.775C49.731 66.2358 52.5551 63.3667 56.0388 63.3667C59.5226 63.3667 62.3467 66.2358 62.3467 69.775Z" fill="white"/>
<path d="M56.328 63.0753C52.6869 63.01 49.3098 65.9125 49.2476 69.7334C49.2123 71.8998 50.5358 73.7232 52.0009 75.018C52.0967 74.9303 52.2838 74.8256 52.398 74.7603L54.3655 73.6341C54.6235 73.4863 54.7843 73.2025 54.7843 72.8939V72.0479C54.7843 72.0479 54.2068 71.323 53.9865 70.3159C53.8039 70.1919 53.6815 69.9775 53.6815 69.7334V68.8075C53.6815 68.6038 53.7678 68.4218 53.9019 68.2944V66.9559C53.9019 66.9559 53.6399 64.873 56.328 64.873C59.0162 64.873 58.7541 66.9559 58.7541 66.9559V68.2944C58.8885 68.4218 58.9746 68.6038 58.9746 68.8075V69.7334C58.9746 70.0446 58.7755 70.3065 58.5053 70.394C58.3548 70.8851 58.1375 71.3533 57.8504 71.7789C57.778 71.8862 57.7103 71.9771 57.6511 72.0479V72.9153C57.6511 73.2346 57.823 73.5268 58.0952 73.6694L60.2021 74.7747L60.6285 74.7267C62.0494 73.4833 62.6015 71.8684 62.6356 69.7748C62.6885 66.5237 59.9694 63.1406 56.328 63.0753Z" fill="#CCCCCC"/>
<path fill-rule="evenodd" clip-rule="evenodd" d="M63 69.8567C63 73.7227 59.866 76.8567 56 76.8567C52.134 76.8567 49 73.7227 49 69.8567C49 65.9907 52.134 62.8567 56 62.8567C59.866 62.8567 63 65.9907 63 69.8567ZM56 76.2734C59.5438 76.2734 62.4167 73.4005 62.4167 69.8567C62.4167 66.3129 59.5438 63.44 56 63.44C52.4562 63.44 49.5833 66.3129 49.5833 69.8567C49.5833 73.4005 52.4562 76.2734 56 76.2734Z" fill="#657077"/>
</g>
<defs>
<linearGradient id="paint0_linear_1428_29312" x1="78.0366" y1="48.244" x2="94.4504" y2="65.6571" gradientUnits="userSpaceOnUse">
<stop stop-color="#FFC671"/>
<stop offset="0.59375" stop-color="#FF7541"/>
<stop offset="1" stop-color="#FF6F3D"/>
</linearGradient>
<linearGradient id="paint1_linear_1428_29312" x1="18" y1="37.248" x2="36.9833" y2="59.7897" gradientUnits="userSpaceOnUse">
<stop stop-color="#FFC671"/>
<stop offset="0.59375" stop-color="#FF7541"/>
<stop offset="1" stop-color="#FF6F3D"/>
</linearGradient>
<clipPath id="clip0_1428_29312">
<rect width="100" height="80" fill="white"/>
</clipPath>
</defs>
</svg>
