<svg width="211" height="142" viewBox="0 0 211 142" fill="none" xmlns="http://www.w3.org/2000/svg">
<g opacity="0.9">
<g clip-path="url(#clip0_1166_15487)">
<rect width="211" height="142" rx="6" transform="matrix(1 0 0 -1 0 142)" fill="white"/>
<mask id="mask0_1166_15487" style="mask-type:alpha" maskUnits="userSpaceOnUse" x="0" y="0" width="211" height="267">
<rect width="211" height="267" rx="6" transform="matrix(1 0 0 -1 0 267)" fill="white"/>
</mask>
<g mask="url(#mask0_1166_15487)">
<path opacity="0.4" d="M111.69 78.1262L111.699 78.1237C123.161 74.8561 137.249 65.2675 144.598 51.5743C144.6 51.5723 144.601 51.5702 144.602 51.5682L218.268 -81.8439C218.27 -81.8475 218.272 -81.8512 218.274 -81.8548C221.537 -87.4556 222.361 -92.383 220.2 -95.5337C219.124 -97.104 217.404 -98.0564 215.247 -98.4182C213.095 -98.7789 210.451 -98.5654 207.395 -97.7574L207.386 -97.7552L68.3911 -59.6101C68.387 -59.6091 68.383 -59.6081 68.379 -59.6071C62.4482 -58.1464 55.8049 -54.4157 49.8786 -49.6348C43.9477 -44.8501 38.6487 -38.9438 35.4594 -33.0535C35.4587 -33.0522 35.458 -33.0509 35.4573 -33.0496L-38.217 100.377C-41.4802 105.978 -42.3035 110.905 -40.1434 114.056C-39.0668 115.626 -37.3473 116.579 -35.1897 116.94C-33.0379 117.301 -30.3938 117.088 -27.3377 116.28L-27.3294 116.277L111.69 78.1262Z" fill="#F2F2F2" stroke="#F2F2F2" stroke-width="2"/>
<path opacity="0.4" d="M198.69 222.126L198.699 222.123C210.161 218.856 224.249 209.267 231.598 195.574C231.6 195.572 231.601 195.57 231.602 195.568L305.268 62.1556C305.27 62.152 305.272 62.1484 305.274 62.1447C308.537 56.5439 309.361 51.6165 307.2 48.4658C306.124 46.8955 304.404 45.9431 302.247 45.5814C300.095 45.2207 297.451 45.4341 294.395 46.2421L294.386 46.2443L155.391 84.3894C155.387 84.3904 155.383 84.3914 155.379 84.3924C149.448 85.8531 142.805 89.5838 136.879 94.3647C130.948 99.1494 125.649 105.056 122.459 110.946C122.459 110.947 122.458 110.949 122.457 110.95L48.783 244.377C45.5198 249.977 44.6965 254.905 46.8566 258.055C47.9332 259.626 49.6527 260.578 51.8103 260.94C53.9621 261.301 56.6062 261.087 59.6623 260.279L59.6706 260.277L198.69 222.126Z" fill="#F2F2F2" stroke="#F2F2F2" stroke-width="2"/>
<path opacity="0.4" d="M224.038 208.965L224.042 208.963C234.484 203.44 246.176 191.236 250.481 176.473C250.481 176.472 250.481 176.471 250.481 176.47L294.897 30.6662C294.897 30.6641 294.898 30.6619 294.899 30.6598C296.921 24.5349 296.611 19.8437 294.087 17.4395C292.827 16.2396 291.081 15.6856 288.982 15.7754C286.885 15.865 284.407 16.5958 281.621 18.0015L281.617 18.0035L153.537 84.139C153.535 84.1399 153.533 84.1407 153.532 84.1416C148.112 86.7602 142.436 91.7337 137.657 97.6059C132.876 103.48 128.957 110.297 127.083 116.635C127.083 116.636 127.083 116.637 127.083 116.638L82.6669 262.443C82.6662 262.445 82.6656 262.447 82.6649 262.449C80.6424 268.574 80.9524 273.266 83.477 275.67C84.737 276.87 86.4822 277.424 88.5817 277.334C90.6781 277.244 93.1569 276.513 95.9431 275.108L95.9469 275.106L224.038 208.965Z" stroke="#F2F2F2"/>
<path d="M98.6175 21.2052L98.6135 21.2144C92.9067 34.3904 80.3743 49.0841 65.2412 54.4004C65.2392 54.4011 65.2372 54.4018 65.2352 54.4025L-82.9033 108.826C-82.9071 108.827 -82.911 108.829 -82.9148 108.83C-89.1794 111.329 -94.1579 110.967 -96.742 107.557C-99.3162 104.16 -99.0281 98.3648 -96.1488 91.3981L-96.1451 91.3894L-28.3063 -69.0225C-28.3046 -69.0268 -28.3028 -69.0311 -28.3011 -69.0354C-25.5789 -75.908 -20.4548 -83.0497 -14.4408 -89.0318C-8.42263 -95.0179 -1.43373 -99.922 5.07807 -102.242C5.07961 -102.243 5.08115 -102.243 5.08269 -102.244L153.236 -156.673C159.501 -159.171 164.479 -158.809 167.063 -155.399C169.638 -152.002 169.35 -146.207 166.47 -139.241L166.467 -139.232L98.6175 21.2052Z" fill="#F2F2F2" stroke="#F2F2F2" stroke-width="2"/>
</g>
<path d="M202.381 86.5H155.619C153.91 86.5 152.5 87.8495 152.5 89.5443V117.456C152.5 119.151 153.91 120.5 155.619 120.5H202.381C204.09 120.5 205.5 119.151 205.5 117.456V89.5443C205.5 87.8495 204.09 86.5 202.381 86.5Z" fill="#FEFEFE" stroke="#9ADAF3"/>
<path fill-rule="evenodd" clip-rule="evenodd" d="M170.462 97.2C171.015 97.2 171.46 97.649 171.46 98.1979C171.46 98.7509 171.011 99.2 170.462 99.2C169.909 99.2 169.46 98.7509 169.46 98.1979C169.464 97.649 169.913 97.2 170.462 97.2Z" fill="url(#paint0_linear_1166_15487)"/>
<path fill-rule="evenodd" clip-rule="evenodd" d="M170.462 101.556C171.015 101.556 171.46 102.005 171.46 102.558C171.46 103.111 171.011 103.556 170.462 103.556C169.909 103.556 169.46 103.107 169.46 102.558C169.464 102.001 169.913 101.556 170.462 101.556Z" fill="url(#paint1_linear_1166_15487)"/>
<path fill-rule="evenodd" clip-rule="evenodd" d="M170.462 105.911C171.015 105.911 171.46 106.36 171.46 106.909C171.46 107.462 171.011 107.911 170.462 107.911C169.909 107.911 169.46 107.462 169.46 106.909C169.464 106.356 169.913 105.911 170.462 105.911Z" fill="url(#paint2_linear_1166_15487)"/>
<path fill-rule="evenodd" clip-rule="evenodd" d="M173.87 102.678C173.87 102.402 174.094 102.178 174.37 102.178L196.68 102.178C196.956 102.178 197.18 102.402 197.18 102.678C197.18 102.954 196.956 103.178 196.68 103.178H174.37C174.094 103.178 173.87 102.954 173.87 102.678Z" fill="#666666"/>
<path fill-rule="evenodd" clip-rule="evenodd" d="M173.87 98.3225C173.87 98.0463 174.094 97.8223 174.37 97.8223L196.68 97.8223C196.956 97.8223 197.18 98.0461 197.18 98.3223C197.18 98.5984 196.956 98.8223 196.68 98.8223H174.37C174.094 98.8223 173.87 98.5985 173.87 98.3225Z" fill="#666666"/>
<path fill-rule="evenodd" clip-rule="evenodd" d="M175 93.0002C175 92.4478 175.448 92 176 92L190 92C190.552 92 191 92.4477 191 93C191 93.5523 190.552 94 190 94H176C175.448 94 175 93.5524 175 93.0002Z" fill="url(#paint3_linear_1166_15487)"/>
<path fill-rule="evenodd" clip-rule="evenodd" d="M173.87 107.033C173.87 106.757 174.094 106.533 174.37 106.533L196.68 106.533C196.956 106.533 197.18 106.757 197.18 107.033C197.18 107.309 196.956 107.533 196.68 107.533H174.37C174.094 107.533 173.87 107.309 173.87 107.033Z" fill="#666666"/>
<path d="M148 115H205V118C205 119.105 204.105 120 203 120H150C148.895 120 148 119.105 148 118V115Z" fill="#BDECFF"/>
<path fill-rule="evenodd" clip-rule="evenodd" d="M154 114.5C154 114.776 154.14 115 154.313 115H200.687C200.86 115 201 114.776 201 114.5C201 114.224 200.86 114 200.687 114H154.313C154.14 114 154 114.224 154 114.5Z" fill="#666666"/>
<path d="M157.611 105.911C157.611 105.411 157.611 105.411 157.611 105.411L157.611 105.411L157.612 105.411L157.614 105.411L157.62 105.411L157.642 105.411C157.662 105.411 157.69 105.412 157.726 105.412C157.798 105.413 157.901 105.416 158.028 105.42C158.28 105.429 158.628 105.447 159.009 105.482C159.388 105.518 159.807 105.572 160.201 105.655C160.579 105.735 160.969 105.848 161.277 106.019C162.472 106.597 163.485 107.329 164.414 108.076C164.808 108.394 165.177 108.704 165.536 109.007C166.05 109.44 166.546 109.858 167.073 110.258C168.802 111.572 170.622 112.492 173.382 112.161L173.393 112.16L173.404 112.159C175.32 112.014 177.199 111.554 178.968 110.797L178.97 110.796C179.646 110.509 180.287 110.47 180.82 110.682C181.359 110.896 181.718 111.343 181.86 111.877C182.141 112.937 181.585 114.259 180.209 115.173C178.155 116.55 174.893 117.523 171.462 117.487C168.527 117.455 165.425 116.684 162.826 114.749C163.091 115.806 163.216 116.719 163.236 117.734C163.262 119.096 162.106 120.1 160.814 120.1H146.89C145.505 120.1 144.402 118.974 144.449 117.584C144.464 117.143 144.476 116.596 144.476 115.806L144.476 115.781L144.478 115.757C144.516 115.373 144.549 114.991 144.582 114.614C144.666 113.634 144.749 112.685 144.901 111.807C145.115 110.576 145.476 109.421 146.214 108.401C147.421 106.733 149.704 105.411 152.709 105.411H152.939L152.962 105.438C152.963 105.438 152.964 105.438 152.965 105.438C153.096 105.444 153.283 105.448 153.513 105.45C153.972 105.455 154.578 105.452 155.185 105.446C155.791 105.44 156.396 105.431 156.848 105.424C157.075 105.421 157.263 105.417 157.395 105.415L157.547 105.412L157.588 105.411L157.598 105.411L157.601 105.411L157.601 105.411L157.601 105.411L157.611 105.911ZM157.611 105.911V105.411L157.601 105.411L157.611 105.911Z" fill="url(#paint4_linear_1166_15487)" stroke="#666666"/>
<path fill-rule="evenodd" clip-rule="evenodd" d="M149.08 116.489C149.21 116.501 149.308 116.646 149.299 116.814L149.14 119.937C149.132 120.105 149.019 120.233 148.89 120.221C148.76 120.21 148.662 120.065 148.67 119.897L148.83 116.774C148.838 116.606 148.95 116.478 149.08 116.489Z" fill="#666666"/>
<path d="M157.485 107.536L157.472 107.55L157.46 107.564C157.132 107.956 156.785 108.325 156.423 108.71C156.378 108.758 156.333 108.806 156.287 108.855C155.88 109.289 155.46 109.744 155.057 110.252C155.016 110.302 154.985 110.333 154.965 110.352C154.939 110.324 154.908 110.29 154.872 110.246C154.457 109.74 154.031 109.286 153.623 108.854C153.606 108.836 153.589 108.818 153.572 108.8C153.179 108.383 152.805 107.987 152.456 107.566L152.456 107.566L152.451 107.561L152.32 107.408C152.32 107.404 152.32 107.4 152.32 107.395L152.32 107.322V104.168C153.163 104.466 154.062 104.62 154.97 104.62C155.878 104.62 156.776 104.466 157.62 104.168V107.328C157.62 107.355 157.62 107.378 157.619 107.397C157.619 107.398 157.619 107.398 157.619 107.399L157.485 107.536Z" fill="white" stroke="#666666"/>
<circle cx="155" cy="98" r="6.5" fill="white" stroke="#666666"/>
<path d="M155.713 93.7981L155.253 92.9705L154.829 93.8169C153.565 96.3383 151.167 98.083 148.505 98.4494C148.501 98.3576 148.5 98.2657 148.5 98.1737C148.554 96.3773 149.268 94.6784 150.482 93.4349C151.698 92.1907 153.319 91.5 155 91.5C156.681 91.5 158.302 92.1907 159.517 93.4349C160.732 94.6786 161.446 96.3776 161.5 98.1743C161.5 98.2471 161.499 98.32 161.497 98.3927C160.665 98.3593 159.636 97.8801 158.6 97.081C157.417 96.1692 156.341 94.9293 155.713 93.7981Z" fill="#EFEFEF" stroke="#666666"/>
<path d="M158.964 133.605L158.966 133.602L159.083 133.454C159.136 133.387 159.199 133.293 159.229 133.154C159.25 133.057 159.25 132.954 159.25 132.883L159.25 132.877V132.371V129.26V128.43L158.516 128.818C157.905 129.142 157.35 129.149 156.545 129.149C155.764 129.149 155.113 129.085 154.562 128.812L153.84 128.455V129.26V132.39V132.877C153.84 132.883 153.84 132.889 153.84 132.895C153.84 132.958 153.839 133.052 153.854 133.135C153.879 133.276 153.939 133.376 154.001 133.454L154.118 133.602L154.118 133.602L154.12 133.605C154.384 133.935 154.663 134.241 154.934 134.539C154.949 134.554 154.963 134.57 154.977 134.585C155.265 134.902 155.545 135.212 155.816 135.556L155.816 135.556C155.887 135.646 155.98 135.756 156.092 135.839C156.201 135.919 156.357 135.992 156.545 135.982C156.733 135.992 156.888 135.919 156.997 135.839C157.11 135.756 157.203 135.646 157.273 135.556L156.881 135.246L157.273 135.557C157.544 135.214 157.824 134.903 158.111 134.586C158.121 134.575 158.132 134.563 158.142 134.552C158.416 134.249 158.697 133.938 158.964 133.605Z" fill="white" stroke="#666666"/>
<circle cx="156.46" cy="124.06" r="6" fill="white" stroke="#666666"/>
<path fill-rule="evenodd" clip-rule="evenodd" d="M156.758 120.794C158 122.831 160.927 125.187 162.968 124.906C162.992 124.703 163 124.501 163 124.29C163 120.817 160.089 118 156.5 118C152.911 118 150 120.817 150 124.29C150 124.532 150.016 124.766 150.04 125C152 124.977 155.21 123.705 156.758 120.794Z" fill="#AAAAAA" stroke="#666666"/>
<path d="M156.074 135.553L156.052 135.576L156.034 135.602C156.026 135.613 156.019 135.623 156.012 135.632C156.003 135.621 155.994 135.609 155.984 135.596L155.984 135.595C155.622 135.107 155.161 134.651 154.727 134.23C154.678 134.183 154.63 134.136 154.583 134.09C154.192 133.713 153.831 133.364 153.54 133.014L153.156 133.334L153.54 133.014C153.518 132.988 153.5 132.946 153.5 132.889C153.5 132.125 152.8 131.505 152.012 131.697C150.27 132.122 148.797 132.835 147.525 133.716C146.817 134.207 146.708 135.211 147.317 135.834C149.528 138.098 152.608 139.5 156.019 139.5C159.406 139.5 162.469 138.113 164.677 135.878C165.289 135.258 165.186 134.253 164.48 133.758C163.203 132.863 161.716 132.132 159.959 131.695C159.189 131.504 158.5 132.109 158.5 132.858C158.5 132.912 158.479 132.964 158.443 133.004L156.074 135.553Z" fill="#BDECFF" stroke="#666666"/>
<path d="M178.494 134.227L178.496 134.225L178.613 134.076C178.666 134.009 178.729 133.915 178.759 133.776C178.78 133.679 178.78 133.576 178.78 133.506L178.78 133.5V132.994V129.883V129.052L178.046 129.441C177.435 129.764 176.881 129.771 176.075 129.771C175.294 129.771 174.643 129.707 174.092 129.434L173.37 129.077V129.883V133.013V133.5C173.37 133.505 173.37 133.511 173.37 133.518C173.37 133.58 173.37 133.674 173.384 133.757C173.409 133.898 173.469 133.998 173.531 134.076L173.649 134.225L173.649 134.225L173.65 134.227C173.914 134.557 174.193 134.863 174.465 135.161C174.479 135.177 174.493 135.192 174.507 135.208C174.795 135.524 175.076 135.834 175.346 136.178L175.347 136.179C175.417 136.268 175.51 136.379 175.623 136.461C175.732 136.541 175.887 136.614 176.075 136.604C176.263 136.614 176.419 136.541 176.528 136.461C176.64 136.379 176.733 136.268 176.803 136.179L176.411 135.869L176.803 136.179C177.075 135.837 177.355 135.525 177.641 135.209C177.652 135.197 177.662 135.186 177.673 135.174C177.946 134.871 178.227 134.561 178.494 134.227Z" fill="white" stroke="#666666"/>
<circle cx="175.99" cy="124.683" r="6" fill="white" stroke="#666666"/>
<path fill-rule="evenodd" clip-rule="evenodd" d="M176.312 121.379C177.474 123.345 180.212 125.619 182.121 125.348C182.144 125.152 182.151 124.957 182.151 124.753C182.151 121.402 179.428 118.683 176.071 118.683C172.714 118.683 169.99 121.402 169.99 124.753C169.99 124.987 170.005 125.213 170.028 125.439C171.861 125.416 174.864 124.188 176.312 121.379Z" fill="#AAAAAA" stroke="#666666"/>
<path d="M176.074 135.553L176.052 135.576L176.034 135.602C176.026 135.613 176.019 135.623 176.012 135.632C176.003 135.621 175.994 135.609 175.984 135.596L175.984 135.595C175.622 135.107 175.161 134.651 174.727 134.23C174.678 134.183 174.63 134.136 174.583 134.09C174.192 133.713 173.831 133.364 173.54 133.014L173.156 133.334L173.54 133.014C173.518 132.988 173.5 132.946 173.5 132.889C173.5 132.125 172.8 131.505 172.012 131.697C170.27 132.122 168.797 132.835 167.525 133.716C166.817 134.207 166.708 135.211 167.317 135.834C169.528 138.098 172.608 139.5 176.019 139.5C179.406 139.5 182.469 138.113 184.677 135.878C185.289 135.258 185.186 134.253 184.48 133.758C183.203 132.863 181.716 132.132 179.959 131.695C179.189 131.504 178.5 132.109 178.5 132.858C178.5 132.912 178.479 132.964 178.443 133.004L176.074 135.553Z" fill="url(#paint5_linear_1166_15487)" stroke="#666666"/>
<path d="M198.024 133.605L198.026 133.602L198.143 133.454C198.196 133.387 198.259 133.293 198.289 133.154C198.31 133.057 198.31 132.954 198.31 132.883L198.31 132.877V132.371V129.26V128.43L197.576 128.818C196.965 129.142 196.411 129.149 195.605 129.149C194.824 129.149 194.173 129.085 193.622 128.812L192.9 128.455V129.26V132.39V132.877C192.9 132.883 192.9 132.889 192.9 132.895C192.9 132.958 192.899 133.052 192.914 133.135C192.939 133.276 192.999 133.376 193.061 133.454L193.178 133.602L193.178 133.602L193.18 133.605C193.444 133.935 193.723 134.241 193.994 134.539C194.009 134.554 194.023 134.57 194.037 134.585C194.325 134.902 194.605 135.212 194.876 135.556L194.877 135.556C194.947 135.646 195.04 135.756 195.152 135.839C195.261 135.919 195.417 135.992 195.605 135.982C195.793 135.992 195.948 135.919 196.057 135.839C196.17 135.756 196.263 135.646 196.333 135.556L195.941 135.246L196.333 135.557C196.604 135.214 196.884 134.903 197.171 134.586C197.182 134.575 197.192 134.563 197.202 134.552C197.476 134.249 197.757 133.938 198.024 133.605Z" fill="white" stroke="#666666"/>
<circle cx="195.521" cy="124.06" r="6" fill="white" stroke="#666666"/>
<path fill-rule="evenodd" clip-rule="evenodd" d="M195.842 120.757C197.004 122.723 199.743 124.997 201.651 124.726C201.674 124.53 201.681 124.334 201.681 124.131C201.681 120.779 198.958 118.06 195.601 118.06C192.244 118.06 189.521 120.779 189.521 124.131C189.521 124.364 189.536 124.59 189.558 124.816C191.391 124.794 194.394 123.566 195.842 120.757Z" fill="#AAAAAA" stroke="#666666"/>
<path d="M196.074 135.553L196.052 135.576L196.034 135.602C196.026 135.613 196.019 135.623 196.012 135.632C196.003 135.621 195.994 135.609 195.984 135.596L195.984 135.595C195.622 135.107 195.161 134.651 194.727 134.23C194.678 134.183 194.63 134.136 194.583 134.09C194.192 133.713 193.831 133.364 193.54 133.014L193.156 133.334L193.54 133.014C193.518 132.988 193.5 132.946 193.5 132.889C193.5 132.125 192.8 131.505 192.012 131.697C190.27 132.122 188.797 132.835 187.525 133.716C186.817 134.207 186.708 135.211 187.317 135.834C189.528 138.098 192.608 139.5 196.019 139.5C199.406 139.5 202.469 138.113 204.677 135.878C205.289 135.258 205.186 134.253 204.48 133.758C203.203 132.863 201.716 132.132 199.959 131.695C199.189 131.504 198.5 132.109 198.5 132.858C198.5 132.912 198.479 132.964 198.443 133.004L196.074 135.553Z" fill="#E2E2E2" stroke="#666666"/>
</g>
</g>
<defs>
<linearGradient id="paint0_linear_1166_15487" x1="169.46" y1="97.1218" x2="171.46" y2="99.2" gradientUnits="userSpaceOnUse">
<stop stop-color="#FF8E3D"/>
<stop offset="1" stop-color="#FF6F3D"/>
</linearGradient>
<linearGradient id="paint1_linear_1166_15487" x1="169.46" y1="101.478" x2="171.46" y2="103.556" gradientUnits="userSpaceOnUse">
<stop stop-color="#FF8E3D"/>
<stop offset="1" stop-color="#FF6F3D"/>
</linearGradient>
<linearGradient id="paint2_linear_1166_15487" x1="169.46" y1="105.833" x2="171.46" y2="107.911" gradientUnits="userSpaceOnUse">
<stop stop-color="#FF8E3D"/>
<stop offset="1" stop-color="#FF6F3D"/>
</linearGradient>
<linearGradient id="paint3_linear_1166_15487" x1="175" y1="91.9219" x2="175.475" y2="95.8677" gradientUnits="userSpaceOnUse">
<stop stop-color="#FF8E3D"/>
<stop offset="1" stop-color="#FF6F3D"/>
</linearGradient>
<linearGradient id="paint4_linear_1166_15487" x1="144.89" y1="105.376" x2="153.631" y2="129.622" gradientUnits="userSpaceOnUse">
<stop stop-color="#FF8E3D"/>
<stop offset="1" stop-color="#FF6F3D"/>
</linearGradient>
<linearGradient id="paint5_linear_1166_15487" x1="167" y1="131.727" x2="171.599" y2="144.015" gradientUnits="userSpaceOnUse">
<stop stop-color="#FF8E3D"/>
<stop offset="1" stop-color="#FF6F3D"/>
</linearGradient>
<clipPath id="clip0_1166_15487">
<rect width="211" height="142" rx="4" fill="white"/>
</clipPath>
</defs>
</svg>
