<svg width="97" height="63" viewBox="0 0 97 63" fill="none" xmlns="http://www.w3.org/2000/svg">
<g clip-path="url(#clip0_1392_32354)">
<g opacity="0.7">
<path d="M33.3206 25.6117C33.3206 24.6846 33.2614 23.7575 33.143 22.8304L36.9916 20.2809L35.2746 15.1817L30.6562 15.2976C29.7088 13.6173 28.5839 12.1107 27.2813 10.778L28.8207 6.4901L24.38 3.24521L20.709 6.02654C18.9919 5.21532 17.1564 4.63588 15.2617 4.28821L13.9591 -0.0576172H8.45259L7.14998 4.28821C5.25527 4.63588 3.41977 5.21532 1.7027 6.02654L-2.02751 3.24521L-6.46823 6.43215L-4.92878 10.72C-6.23139 12.0528 -7.41559 13.6173 -8.30373 15.2397L-12.9221 15.1238L-14.6392 20.2229L-10.7905 22.7725C-10.909 23.6996 -10.9682 24.6267 -10.9682 25.5538C-10.9682 26.4809 -10.909 27.466 -10.7905 28.3931L-14.6392 30.9426L-12.9221 36.0417L-8.30373 35.9258C-7.35638 37.5483 -6.23139 39.1128 -4.92878 40.4455L-6.46823 44.7334L-2.02751 47.9203L1.64349 45.139C3.36056 45.9502 5.19606 46.5297 7.09077 46.8773L8.39338 51.2811H13.8999L15.2025 46.8773C17.0972 46.5297 18.9327 45.9502 20.6498 45.139L24.3208 47.9203L28.7615 44.7334L27.222 40.4455C28.5247 39.1128 29.6496 37.5483 30.597 35.9258L35.2153 36.0417L36.9324 30.9426L33.0838 28.3931C33.2614 27.466 33.3206 26.5388 33.3206 25.6117Z" stroke="#F5F5F5" stroke-miterlimit="10" stroke-linecap="round" stroke-linejoin="round"/>
<path d="M11.1763 42.9372C20.9538 42.9372 28.88 35.1804 28.88 25.6119C28.88 16.0433 20.9538 8.2865 11.1763 8.2865C1.39886 8.2865 -6.52734 16.0433 -6.52734 25.6119C-6.52734 35.1804 1.39886 42.9372 11.1763 42.9372Z" stroke="#F5F5F5" stroke-miterlimit="10" stroke-linecap="round" stroke-linejoin="round"/>
<path d="M11.1761 39.2869C18.8934 39.2869 25.1496 33.1644 25.1496 25.612C25.1496 18.0596 18.8934 11.9371 11.1761 11.9371C3.45877 11.9371 -2.79736 18.0596 -2.79736 25.612C-2.79736 33.1644 3.45877 39.2869 11.1761 39.2869Z" stroke="#F5F5F5" stroke-miterlimit="10" stroke-linecap="round" stroke-linejoin="round"/>
<path d="M102.189 3.8917C102.189 3.3702 102.13 2.79076 102.071 2.26926L104.321 0.762705L103.314 -2.19246L100.65 -2.13451C100.117 -3.11957 99.4657 -3.98873 98.696 -4.79995L99.5841 -7.29156L96.9789 -9.08784L94.8474 -7.46539C93.8408 -7.92895 92.775 -8.27662 91.65 -8.45045L90.9395 -11H87.7422L86.9725 -8.50839C85.8475 -8.33456 84.7817 -7.98689 83.7752 -7.52334L81.6436 -9.08784L79.0976 -7.23362L79.9858 -4.74201C79.216 -3.93079 78.5647 -3.06162 78.0318 -2.07657L75.3674 -2.13451L74.3608 0.762705L76.6108 2.26926C76.5516 2.79076 76.4924 3.31226 76.4924 3.8917C76.4924 4.47114 76.5516 4.99264 76.6108 5.51414L74.3608 7.0207L75.3674 9.97586L78.091 9.91791C78.6239 10.903 79.2752 11.7721 80.045 12.5254L79.0976 15.017L81.7028 16.8712L83.8344 15.2488C84.8409 15.7124 85.9067 16.06 86.9725 16.2339L87.7422 18.7834H90.9395L91.7093 16.2339C92.8342 16.06 93.9 15.7124 94.8474 15.2488L96.9789 16.8712L99.5841 15.017L98.696 12.5254C99.4657 11.7142 100.117 10.845 100.65 9.91791L103.374 9.97586L104.38 7.0207L102.13 5.51414C102.13 4.99264 102.189 4.4132 102.189 3.8917Z" stroke="#F5F5F5" stroke-miterlimit="10" stroke-linecap="round" stroke-linejoin="round"/>
<path d="M89.3412 11.8299C93.8212 11.8299 97.4529 8.27575 97.4529 3.8915C97.4529 -0.492742 93.8212 -4.04688 89.3412 -4.04688C84.8612 -4.04688 81.2295 -0.492742 81.2295 3.8915C81.2295 8.27575 84.8612 11.8299 89.3412 11.8299Z" stroke="#F5F5F5" stroke-miterlimit="10" stroke-linecap="round" stroke-linejoin="round"/>
</g>
<rect x="12.7515" y="17.249" width="19.5761" height="47.625" rx="1.15761" fill="white" stroke="#9ADAF3" stroke-width="2"/>
<rect x="69.7124" y="17.249" width="30.3641" height="47.625" rx="1.15761" fill="white" stroke="#9ADAF3" stroke-width="2"/>
<rect x="21.0366" y="28.6412" width="12.4991" height="8.35652" stroke="#9ADAF3" stroke-width="2"/>
<rect x="78.5332" y="27.1056" width="13.4991" height="9.35652" stroke="#FF6F3D"/>
<rect x="21.0371" y="36.9265" width="12.4991" height="8.35652" stroke="#9ADAF3" stroke-width="2"/>
<rect x="21.0371" y="45.2115" width="12.4991" height="8.35652" stroke="#9ADAF3" stroke-width="2"/>
<rect x="78.5332" y="44.7117" width="13.4991" height="9.35652" stroke="#FF6F3D"/>
<path d="M81.1756 68.6358C81.1756 69.2752 80.6574 69.7934 80.018 69.7934H32.5507C31.9113 69.7934 31.3931 69.2752 31.3931 68.6358V3.90761C31.3931 3.26828 31.9113 2.75 32.5507 2.75H66.6582L81.1756 17.2675V68.6358Z" fill="white" stroke="#9ADAF3" stroke-width="2"/>
<path d="M68.0728 3.81888L79.7618 15.5079H68.0728V3.81888Z" stroke="#9ADAF3" stroke-width="2" stroke-linecap="round" stroke-linejoin="round"/>
<rect x="41.3613" y="46.0366" width="31.0695" height="2" rx="1" fill="#AAAAAA"/>
<rect x="41.3613" y="54.0366" width="31.0695" height="2" rx="1" fill="#AAAAAA"/>
<rect x="41.3613" y="38.0366" width="31.0695" height="2" rx="1" fill="#AAAAAA"/>
<rect x="41.3613" y="30.0366" width="31.0695" height="2" rx="1" fill="#AAAAAA"/>
<path fill-rule="evenodd" clip-rule="evenodd" d="M57.3613 22.0366H41.3613L47.0756 16.0366L49.3613 18.0366L52.7899 14.0366L57.3613 19.0366V22.0366Z" stroke="#FF6F3D" stroke-width="1.03565" stroke-linecap="round" stroke-linejoin="round"/>
<path d="M46.3035 12.0352C46.3035 12.8537 45.6399 13.5173 44.8213 13.5173C44.0027 13.5173 43.3391 12.8537 43.3391 12.0352C43.3391 11.2166 44.0027 10.553 44.8213 10.553C45.6399 10.553 46.3035 11.2166 46.3035 12.0352Z" stroke="#FF6F3D" stroke-width="1.03565"/>
<path d="M49.5964 27.9311L53.5535 23.959L69.5144 39.7249L70.6773 44.8658L65.5456 43.7332L49.5964 27.9311Z" fill="white"/>
<path d="M52.874 31.1968L56.8311 27.2247L69.6476 39.8574L65.4658 43.6534L52.874 31.1968Z" fill="#9ADAF3"/>
<path fill-rule="evenodd" clip-rule="evenodd" d="M65.6015 43.4314L50.1449 28.0264C49.9346 27.8168 49.939 27.4813 50.1547 27.2771L53.0383 24.5478C53.254 24.3437 53.5994 24.3481 53.8098 24.5577L69.2663 39.9627C69.3323 40.0285 69.3796 40.1098 69.4035 40.1987L70.4327 44.0262C70.5397 44.4238 70.1602 44.7829 69.7537 44.6688L65.8409 43.5707C65.75 43.5452 65.6675 43.4972 65.6015 43.4314ZM49.7543 28.3961C49.3337 27.9768 49.3424 27.3059 49.7739 26.8976L52.6575 24.1683C53.0889 23.7599 53.7797 23.7688 54.2003 24.188L69.6569 39.593C69.7889 39.7246 69.8835 39.8873 69.9313 40.0651L70.9606 43.8925C71.1744 44.6877 70.4155 45.406 69.6026 45.1779L65.6897 44.0797C65.5079 44.0287 65.3429 43.9327 65.2109 43.8011L49.7543 28.3961Z" fill="#555F65"/>
<path d="M54.5625 29.3008L67.2169 41.913L67.7109 41.4454L55.0565 28.8332L54.5625 29.3008Z" fill="white"/>
<path fill-rule="evenodd" clip-rule="evenodd" d="M69.4685 39.6115L65.3688 43.33L65.7411 43.7172L69.8408 39.9986L69.4685 39.6115Z" fill="#555F65"/>
<path fill-rule="evenodd" clip-rule="evenodd" d="M56.5027 27.1249L52.605 31.0096L52.9968 31.3775L56.8945 27.4928L56.5027 27.1249Z" fill="#555F65"/>
<path fill-rule="evenodd" clip-rule="evenodd" d="M70.0152 42.1587L67.7111 44.2397L70.015 44.9265L70.725 44.2394L70.0152 42.1587Z" fill="#555F65"/>
<path fill-rule="evenodd" clip-rule="evenodd" d="M55.5242 26.2084L51.7462 29.9759L52.1368 30.3454L55.9148 26.5778L55.5242 26.2084Z" fill="#555F65"/>
<path d="M92.4633 13.5094L88.5062 9.5373L72.3186 25.5298L71.1558 30.6707L76.2874 29.5381L92.4633 13.5094Z" fill="white"/>
<path d="M88.959 17.0017L85.0019 13.0296L72.1854 25.6623L76.3672 29.4583L88.959 17.0017Z" fill="url(#paint0_linear_1392_32354)"/>
<path fill-rule="evenodd" clip-rule="evenodd" d="M76.2315 29.2363L91.6881 13.8313C91.8984 13.6217 91.894 13.2862 91.6783 13.0821L88.7947 10.3528C88.579 10.1486 88.2336 10.153 88.0233 10.3626L72.5667 25.7676C72.5007 25.8334 72.4534 25.9148 72.4295 26.0037L71.4003 29.8311C71.2934 30.2287 71.6728 30.5878 72.0793 30.4738L75.9921 29.3756C76.083 29.3501 76.1655 29.3021 76.2315 29.2363ZM92.0787 14.201C92.4993 13.7818 92.4906 13.1109 92.0591 12.7025L89.1755 9.9732C88.7441 9.56485 88.0533 9.57368 87.6327 9.99294L72.1761 25.3979C72.0441 25.5295 71.9495 25.6922 71.9017 25.87L70.8725 29.6975C70.6586 30.4927 71.4175 31.2109 72.2305 30.9828L76.1433 29.8846C76.3251 29.8336 76.4901 29.7376 76.6221 29.606L92.0787 14.201Z" fill="#555F65"/>
<path d="M87.271 15.1057L74.6166 27.7179L74.1226 27.2504L86.777 14.6381L87.271 15.1057Z" fill="white"/>
<path fill-rule="evenodd" clip-rule="evenodd" d="M72.3645 25.4164L76.4642 29.1349L76.0919 29.5221L71.9922 25.8036L72.3645 25.4164Z" fill="#555F65"/>
<path fill-rule="evenodd" clip-rule="evenodd" d="M85.3308 12.9295L89.2285 16.8142L88.8367 17.1821L84.939 13.2974L85.3308 12.9295Z" fill="#555F65"/>
<path fill-rule="evenodd" clip-rule="evenodd" d="M71.8183 27.9637L74.1224 30.0446L71.8185 30.7315L71.1085 30.0444L71.8183 27.9637Z" fill="#555F65"/>
<path fill-rule="evenodd" clip-rule="evenodd" d="M86.3088 12.0129L90.0868 15.7804L89.6962 16.1499L85.9182 12.3824L86.3088 12.0129Z" fill="#555F65"/>
<path d="M52.4018 48.6076C52.4018 53.9272 48.0838 58.2396 42.7573 58.2396C37.4308 58.2396 33.1128 53.9272 33.1128 48.6076C33.1128 43.288 37.4308 38.9756 42.7573 38.9756C48.0838 38.9756 52.4018 43.288 52.4018 48.6076Z" fill="white"/>
<path d="M43.1991 38.5378C37.632 38.4397 33.2125 41.9191 33.1174 47.662C33.0633 50.9183 34.343 54.542 36.5831 56.4882C36.7295 56.3564 37.0156 56.199 37.1902 56.1009L40.1985 54.4082C40.593 54.1861 40.8388 53.7594 40.8388 53.2956V52.024C40.8388 52.024 39.9558 50.9345 39.6191 49.4208C39.3398 49.2343 39.1526 48.9121 39.1526 48.5452V47.1535C39.1526 46.8474 39.2846 46.5738 39.4897 46.3823V44.3705C39.4897 44.3705 39.0891 41.2399 43.1991 41.2399C47.3092 41.2399 46.9085 44.3705 46.9085 44.3705V46.3823C47.114 46.5738 47.2456 46.8474 47.2456 47.1535V48.5452C47.2456 49.013 46.9413 49.4066 46.5281 49.5381C46.2979 50.2763 45.9658 50.98 45.5267 51.6197C45.416 51.781 45.3125 51.9176 45.222 52.024V53.3277C45.222 53.8077 45.4849 54.2469 45.9011 54.4612L49.1224 56.1225L49.7744 56.0504C51.9468 54.1815 52.791 51.7543 52.8431 48.6075C52.9241 43.7208 48.7667 38.6359 43.1991 38.5378Z" fill="#CCCCCC"/>
<path fill-rule="evenodd" clip-rule="evenodd" d="M53.4006 48.7305C53.4006 54.5413 48.6088 59.2519 42.6978 59.2519C36.7869 59.2519 31.9951 54.5413 31.9951 48.7305C31.9951 42.9198 36.7869 38.2092 42.6978 38.2092C48.6088 38.2092 53.4006 42.9198 53.4006 48.7305ZM42.6978 58.3751C48.1162 58.3751 52.5087 54.0571 52.5087 48.7305C52.5087 43.404 48.1162 39.086 42.6978 39.086C37.2795 39.086 32.887 43.404 32.887 48.7305C32.887 54.0571 37.2795 58.3751 42.6978 58.3751Z" fill="#657077"/>
<path d="M37.9656 48.6759C37.9656 54.0487 33.6052 58.4041 28.2265 58.4041C22.8477 58.4041 18.4873 54.0487 18.4873 48.6759C18.4873 43.3031 22.8477 38.9476 28.2265 38.9476C33.6052 38.9476 37.9656 43.3031 37.9656 48.6759Z" fill="white"/>
<path d="M28.4073 38.1019C22.5599 38.0031 17.7383 42.609 17.6384 48.3892C17.5817 51.6666 18.924 54.649 21.2768 56.6079C21.4307 56.4751 21.7312 56.3167 21.9146 56.218L25.0742 54.5143C25.4886 54.2907 25.7467 53.8613 25.7467 53.3944V52.1146C25.7467 52.1146 24.8193 51.018 24.4656 49.4945C24.1723 49.3068 23.9757 48.9825 23.9757 48.6132V47.2125C23.9757 46.9044 24.1144 46.629 24.3298 46.4363V44.4114C24.3298 44.4114 23.909 41.2604 28.2259 41.2604C32.5428 41.2604 32.122 44.4114 32.122 44.4114V46.4363C32.3378 46.629 32.476 46.9044 32.476 47.2125V48.6132C32.476 49.0841 32.1563 49.4802 31.7224 49.6126C31.4806 50.3556 31.1318 51.0639 30.6706 51.7077C30.5543 51.8701 30.4456 52.0075 30.3505 52.1146V53.4268C30.3505 53.9099 30.6267 54.3519 31.0638 54.5676L34.4472 56.2397C34.6502 56.34 35.0065 56.4668 35.1756 56.6079C37.4573 54.7268 38.7585 51.9143 38.8133 48.7471C38.914 42.9669 34.0037 38.1964 28.4073 38.1019Z" fill="url(#paint1_linear_1392_32354)"/>
<path fill-rule="evenodd" clip-rule="evenodd" d="M38.8157 48.6761C38.8157 54.5151 34.0764 59.2518 28.2262 59.2518C22.376 59.2518 17.6367 54.5151 17.6367 48.6761C17.6367 42.8371 22.376 38.1003 28.2262 38.1003C34.0764 38.1003 38.8157 42.8371 38.8157 48.6761ZM28.2262 58.4043C33.605 58.4043 37.9654 54.0488 37.9654 48.6761C37.9654 43.3033 33.605 38.9478 28.2262 38.9478C22.8474 38.9478 18.487 43.3033 18.487 48.6761C18.487 54.0488 22.8474 58.4043 28.2262 58.4043Z" fill="#657077"/>
<path d="M23.5742 48.676C23.5742 54.0301 19.2282 58.3704 13.8672 58.3704C8.50614 58.3704 4.16016 54.0301 4.16016 48.676C4.16016 43.3219 8.50614 38.9816 13.8672 38.9816C19.2282 38.9816 23.5742 43.3219 23.5742 48.676Z" fill="white"/>
<path d="M14.3119 38.541C8.7086 38.4422 4.26047 41.9442 4.16474 47.7243C4.11037 51.0017 5.39827 54.649 7.6529 56.6078C7.80033 56.4751 8.08827 56.3167 8.26403 56.2179L11.2918 54.5143C11.6889 54.2907 11.9362 53.8613 11.9362 53.3944V52.1146C11.9362 52.1146 11.0475 51.018 10.7086 49.4945C10.4275 49.3069 10.2391 48.9826 10.2391 48.6132V47.2125C10.2391 46.9044 10.372 46.6291 10.5784 46.4364V44.4115C10.5784 44.4115 10.1752 41.2606 14.3119 41.2606C18.4485 41.2606 18.0453 44.4115 18.0453 44.4115V46.4364C18.2521 46.6291 18.3846 46.9044 18.3846 47.2125V48.6132C18.3846 49.0841 18.0782 49.4803 17.6624 49.6126C17.4307 50.3556 17.0964 51.0639 16.6546 51.7077C16.5431 51.8701 16.439 52.0075 16.3478 52.1146V53.4268C16.3478 53.9099 16.6124 54.3519 17.0313 54.5676L20.2735 56.2396L20.9298 56.1672C23.1162 54.2861 23.9659 51.8431 24.0184 48.676C24.0998 43.7576 19.9155 38.6397 14.3119 38.541Z" fill="#9ADAF3"/>
<path fill-rule="evenodd" clip-rule="evenodd" d="M24.4568 48.6763C24.4568 54.5171 19.7157 59.252 13.8673 59.252C8.01891 59.252 3.27783 54.5171 3.27783 48.6763C3.27783 42.8355 8.01891 38.1006 13.8673 38.1006C19.7157 38.1006 24.4568 42.8355 24.4568 48.6763ZM13.8673 58.3707C19.2284 58.3707 23.5743 54.0304 23.5743 48.6763C23.5743 43.3222 19.2284 38.9819 13.8673 38.9819C8.50627 38.9819 4.16029 43.3222 4.16029 48.6763C4.16029 54.0304 8.50627 58.3707 13.8673 58.3707Z" fill="#657077"/>
</g>
<defs>
<linearGradient id="paint0_linear_1392_32354" x1="72.1846" y1="12.3869" x2="88.5983" y2="29.8" gradientUnits="userSpaceOnUse">
<stop stop-color="#FFC671"/>
<stop offset="0.59375" stop-color="#FF7541"/>
<stop offset="1" stop-color="#FF6F3D"/>
</linearGradient>
<linearGradient id="paint1_linear_1392_32354" x1="17.6368" y1="37.3774" x2="35.8838" y2="59.073" gradientUnits="userSpaceOnUse">
<stop stop-color="#FFC671"/>
<stop offset="0.59375" stop-color="#FF7541"/>
<stop offset="1" stop-color="#FF6F3D"/>
</linearGradient>
<clipPath id="clip0_1392_32354">
<rect width="96" height="63" fill="white" transform="translate(0.36084)"/>
</clipPath>
</defs>
</svg>
