<svg width="73" height="59" viewBox="0 0 73 59" fill="none" xmlns="http://www.w3.org/2000/svg">
<path d="M63.742 3.5H16.9796C15.2709 3.5 13.8608 4.84946 13.8608 6.54427V34.4557C13.8608 36.1505 15.2709 37.5 16.9796 37.5H63.742C65.4508 37.5 66.8608 36.1505 66.8608 34.4557V6.54427C66.8608 4.84946 65.4508 3.5 63.742 3.5Z" fill="#FEFEFE" stroke="#9ADAF3"/>
<path fill-rule="evenodd" clip-rule="evenodd" d="M31.8229 14.2C32.3759 14.2 32.8208 14.649 32.8208 15.1979C32.8208 15.7509 32.3717 16.2 31.8229 16.2C31.2699 16.2 30.8208 15.7509 30.8208 15.1979C30.825 14.649 31.274 14.2 31.8229 14.2Z" fill="url(#paint0_linear_1387_29890)"/>
<path fill-rule="evenodd" clip-rule="evenodd" d="M31.8229 18.5557C32.3759 18.5557 32.8208 19.0047 32.8208 19.5577C32.8208 20.1108 32.3717 20.5557 31.8229 20.5557C31.2699 20.5557 30.8208 20.1066 30.8208 19.5577C30.825 19.0006 31.274 18.5557 31.8229 18.5557Z" fill="url(#paint1_linear_1387_29890)"/>
<path fill-rule="evenodd" clip-rule="evenodd" d="M31.8229 22.9111C32.3759 22.9111 32.8208 23.3602 32.8208 23.9091C32.8208 24.4621 32.3717 24.9111 31.8229 24.9111C31.2699 24.9111 30.8208 24.4621 30.8208 23.9091C30.825 23.356 31.274 22.9111 31.8229 22.9111Z" fill="url(#paint2_linear_1387_29890)"/>
<path fill-rule="evenodd" clip-rule="evenodd" d="M35.2312 19.678C35.2311 19.4017 35.4549 19.1778 35.7312 19.1778L58.041 19.1777C58.3171 19.1777 58.541 19.4016 58.541 19.6777C58.541 19.9539 58.3171 20.1777 58.041 20.1777H35.7312C35.4551 20.1777 35.2313 19.954 35.2312 19.678Z" fill="#666666"/>
<path fill-rule="evenodd" clip-rule="evenodd" d="M35.2312 15.3225C35.2311 15.0463 35.4549 14.8223 35.7312 14.8223L58.041 14.8223C58.3171 14.8223 58.541 15.0461 58.541 15.3223C58.541 15.5984 58.3171 15.8223 58.041 15.8223H35.7312C35.4551 15.8223 35.2313 15.5985 35.2312 15.3225Z" fill="#666666"/>
<path fill-rule="evenodd" clip-rule="evenodd" d="M36.361 10.0002C36.3609 9.44784 36.8086 9.00004 37.361 9.00004L51.3608 9C51.9131 9 52.3608 9.44772 52.3608 10C52.3608 10.5523 51.9131 11 51.3608 11H37.361C36.8088 11 36.3611 10.5524 36.361 10.0002Z" fill="url(#paint3_linear_1387_29890)"/>
<path fill-rule="evenodd" clip-rule="evenodd" d="M35.2312 24.0334C35.2311 23.7572 35.4549 23.5332 35.7312 23.5332L58.041 23.5332C58.3171 23.5332 58.541 23.7571 58.541 24.0332C58.541 24.3093 58.3171 24.5332 58.041 24.5332H35.7312C35.4551 24.5332 35.2313 24.3095 35.2312 24.0334Z" fill="#666666"/>
<path d="M9.36084 32H66.3608V35C66.3608 36.1046 65.4654 37 64.3608 37H11.3608C10.2563 37 9.36084 36.1046 9.36084 35V32Z" fill="#BDECFF"/>
<path fill-rule="evenodd" clip-rule="evenodd" d="M15.3608 31.5C15.3608 31.7761 15.5011 32 15.6742 32H62.0475C62.2206 32 62.3608 31.7761 62.3608 31.5C62.3608 31.2239 62.2206 31 62.0475 31H15.6742C15.5011 31 15.3608 31.2239 15.3608 31.5Z" fill="#666666"/>
<path d="M18.9718 22.9111C18.9718 22.4111 18.9719 22.4111 18.9719 22.4111L18.9721 22.4111L18.9727 22.4111L18.9745 22.4111L18.9807 22.4112L19.0033 22.4113C19.0229 22.4114 19.0511 22.4117 19.0871 22.4123C19.1591 22.4134 19.2622 22.4156 19.3887 22.4201C19.6412 22.4289 19.9891 22.4466 20.3697 22.4823C20.749 22.5178 21.1683 22.5717 21.5614 22.6546C21.9403 22.7345 22.3295 22.8482 22.6379 23.019C23.8324 23.5966 24.8457 24.3289 25.7748 25.0765C26.1691 25.3937 26.5376 25.7043 26.8973 26.0074C27.411 26.4404 27.9066 26.8581 28.4336 27.2584C30.1631 28.5719 31.983 29.4925 34.7428 29.1614L34.7537 29.1601L34.7646 29.1593C36.6805 29.0143 38.5601 28.5541 40.329 27.7969L40.3305 27.7962C41.0069 27.5093 41.6476 27.4695 42.1804 27.6817C42.7197 27.8965 43.0784 28.3428 43.2204 28.8771C43.5021 29.9367 42.9454 31.2593 41.5697 32.1727C39.516 33.5497 36.2541 34.5233 32.8229 34.4866C29.8882 34.4553 26.7862 33.684 24.1866 31.7488C24.4517 32.8062 24.5773 33.719 24.5966 34.7344C24.6224 36.0959 23.4669 37.1 22.1753 37.1H8.25049C6.86598 37.1 5.7632 35.9737 5.80988 34.5844C5.8247 34.1434 5.83661 33.5956 5.83675 32.8058L5.83675 32.7814L5.83913 32.7571C5.87676 32.3731 5.90982 31.9911 5.9425 31.6136C6.02728 30.6342 6.10946 29.6849 6.26198 28.8072C6.4759 27.5762 6.83643 26.4209 7.57446 25.4013C8.78172 23.7334 11.0649 22.4111 14.0701 22.4111H14.3001L14.3232 22.4381C14.3242 22.4381 14.3252 22.4382 14.3262 22.4382C14.4565 22.4442 14.6441 22.4481 14.8742 22.4502C15.3326 22.4545 15.939 22.4517 16.546 22.4459C17.1523 22.4401 17.7564 22.4314 18.2091 22.4242C18.4354 22.4206 18.6238 22.4174 18.7555 22.415L18.9083 22.4122L18.9485 22.4115L18.9588 22.4113L18.9613 22.4112L18.962 22.4112L18.9621 22.4112L18.9718 22.9111ZM18.9718 22.9111V22.411L18.9622 22.4112L18.9718 22.9111Z" fill="url(#paint4_linear_1387_29890)" stroke="#666666"/>
<path fill-rule="evenodd" clip-rule="evenodd" d="M10.4409 33.4894C10.5706 33.5006 10.6688 33.6459 10.6602 33.814L10.501 36.9371C10.4924 37.1053 10.3803 37.2325 10.2506 37.2214C10.1209 37.2103 10.0227 37.065 10.0313 36.8969L10.1906 33.7737C10.1991 33.6056 10.3112 33.4783 10.4409 33.4894Z" fill="#666666"/>
<path d="M18.8462 24.5361L18.8328 24.5498L18.8205 24.5644C18.4925 24.9557 18.1458 25.3248 17.7841 25.71C17.7389 25.758 17.6936 25.8063 17.648 25.8549C17.2413 26.2887 16.8206 26.7441 16.4175 27.2518C16.3766 27.3021 16.3463 27.3329 16.3255 27.3516C16.2997 27.3241 16.2692 27.2895 16.2324 27.2457C15.818 26.7404 15.392 26.2863 14.9841 25.8539C14.9672 25.8359 14.9502 25.8179 14.9333 25.8C14.5401 25.3831 14.1662 24.9869 13.8164 24.566L13.8164 24.566L13.8119 24.5607L13.6809 24.4075C13.6809 24.4037 13.6808 24.3997 13.6808 24.3954L13.6807 24.322V21.1678C14.5241 21.4662 15.4227 21.62 16.3307 21.62C17.2386 21.62 18.1372 21.4662 18.9807 21.1678V24.3278C18.9807 24.3552 18.9806 24.3779 18.9803 24.3974C18.9803 24.3979 18.9803 24.3985 18.9803 24.399L18.8462 24.5361Z" fill="white" stroke="#666666"/>
<circle cx="16.3608" cy="15" r="6.5" fill="white" stroke="#666666"/>
<path d="M17.0736 10.7981L16.6138 9.97047L16.1895 10.8169C14.9258 13.3383 12.5275 15.083 9.86579 15.4494C9.86219 15.3576 9.86055 15.2657 9.86088 15.1737C9.91484 13.3773 10.6284 11.6784 11.8433 10.4349C13.0587 9.19072 14.6795 8.5 16.3608 8.5C18.0421 8.5 19.6629 9.19072 20.8783 10.4349C22.0933 11.6786 22.8069 13.3776 22.8607 15.1743C22.8612 15.2471 22.8603 15.32 22.858 15.3927C22.0261 15.3593 20.9973 14.8801 19.9609 14.081C18.7781 13.1692 17.7021 11.9293 17.0736 10.7981Z" fill="#EFEFEF" stroke="#666666"/>
<path d="M20.3245 50.6046L20.3264 50.6023L20.4435 50.4538C20.4965 50.3872 20.5595 50.2929 20.5897 50.1536C20.6107 50.0569 20.6107 49.9539 20.6107 49.8833L20.6107 49.8774V49.3715V46.2603V45.43L19.8768 45.8183C19.2654 46.1418 18.7113 46.1492 17.9057 46.1492C17.1243 46.1492 16.4739 46.0848 15.9223 45.8121L15.2007 45.4552V46.2603V49.3903V49.8774C15.2007 49.883 15.2007 49.889 15.2006 49.8953C15.2005 49.9576 15.2002 50.0517 15.215 50.135C15.2401 50.2761 15.3 50.3759 15.362 50.4538L15.4791 50.6023L15.4791 50.6023L15.481 50.6046C15.7446 50.9346 16.0239 51.241 16.2951 51.5387C16.3094 51.5543 16.3236 51.5699 16.3378 51.5855C16.6256 51.9015 16.9062 52.2117 17.1766 52.5556L17.1773 52.5565C17.2479 52.6458 17.3407 52.7562 17.4531 52.8386C17.5622 52.9186 17.7178 52.9917 17.9057 52.9818C18.0936 52.9917 18.2492 52.9186 18.3583 52.8386C18.4707 52.7562 18.5635 52.6458 18.634 52.5565L18.2417 52.2465L18.6336 52.5571C18.9052 52.2144 19.1852 51.9032 19.4719 51.5862C19.4823 51.5747 19.4927 51.5632 19.5031 51.5517C19.7769 51.249 20.058 50.9382 20.3245 50.6046Z" fill="white" stroke="#666666"/>
<circle cx="17.8213" cy="41.0603" r="6" fill="white" stroke="#666666"/>
<path fill-rule="evenodd" clip-rule="evenodd" d="M18.1189 37.7938C19.3608 39.8305 22.2883 42.1873 24.3286 41.9064C24.3528 41.7035 24.3608 41.5006 24.3608 41.2899C24.3608 37.8172 21.4496 35 17.8608 35C14.2721 35 11.3608 37.8172 11.3608 41.2899C11.3608 41.5318 11.377 41.7659 11.4012 42C13.3608 41.9766 16.5705 40.7046 18.1189 37.7938Z" fill="#AAAAAA" stroke="#666666"/>
<path d="M17.4346 52.553L17.413 52.5763L17.3945 52.602C17.3869 52.6127 17.3796 52.6228 17.3726 52.6323C17.364 52.6211 17.3549 52.609 17.3453 52.5959L17.3448 52.5954C16.9825 52.1072 16.5219 51.6506 16.0877 51.2299C16.0392 51.1829 15.9911 51.1364 15.9434 51.0903C15.5526 50.7126 15.1917 50.3639 14.9006 50.0142L14.5164 50.3341L14.9006 50.0142C14.879 49.9882 14.8608 49.946 14.8608 49.8886C14.8608 49.1246 14.1603 48.5048 13.3727 48.697C11.6311 49.1221 10.1577 49.8348 8.88548 50.7161C8.17759 51.2066 8.06914 52.2112 8.6776 52.8341C10.8886 55.0977 13.9693 56.5 17.3796 56.5C20.7665 56.5 23.83 55.1125 26.0375 52.8779C26.6497 52.2582 26.5465 51.2527 25.8413 50.7583C24.5641 49.863 23.077 49.1319 21.32 48.6954C20.5496 48.504 19.8608 49.1092 19.8608 49.8578C19.8608 49.912 19.8403 49.9642 19.8034 50.0039L17.4346 52.553Z" fill="#BDECFF" stroke="#666666"/>
<path d="M39.8547 51.227L39.8566 51.2246L39.9737 51.0761C40.0268 51.0095 40.0898 50.9152 40.12 50.776C40.141 50.6792 40.141 50.5763 40.141 50.5056L40.141 50.4997V49.9938V46.8826V46.0523L39.4071 46.4406C38.7957 46.7641 38.2416 46.7715 37.436 46.7715C36.6546 46.7715 36.0042 46.7072 35.4526 46.4344L34.731 46.0775V46.8826V50.0126V50.4997C34.731 50.5053 34.7309 50.5113 34.7309 50.5176C34.7308 50.5799 34.7305 50.674 34.7453 50.7573C34.7703 50.8984 34.8303 50.9983 34.8923 51.0761L35.0094 51.2246L35.0094 51.2246L35.0113 51.227C35.2749 51.5569 35.5541 51.8633 35.8254 52.161C35.8396 52.1766 35.8538 52.1922 35.868 52.2078C36.1559 52.5238 36.4364 52.8341 36.7069 53.1779L36.7076 53.1788C36.7782 53.2681 36.8709 53.3785 36.9834 53.4609C37.0925 53.5409 37.2481 53.614 37.436 53.6041C37.6239 53.614 37.7794 53.5409 37.8885 53.4609C38.001 53.3785 38.0937 53.2681 38.1643 53.1788L37.772 52.8688L38.1638 53.1794C38.4354 52.8368 38.7155 52.5255 39.0022 52.2085C39.0126 52.197 39.023 52.1855 39.0334 52.174C39.3072 51.8713 39.5882 51.5606 39.8547 51.227Z" fill="white" stroke="#666666"/>
<circle cx="37.3511" cy="41.6826" r="6" fill="white" stroke="#666666"/>
<path fill-rule="evenodd" clip-rule="evenodd" d="M37.6729 38.379C38.8347 40.3448 41.5732 42.6194 43.4818 42.3483C43.5045 42.1525 43.512 41.9566 43.512 41.7533C43.512 38.4016 40.7886 35.6826 37.4315 35.6826C34.0745 35.6826 31.3511 38.4016 31.3511 41.7533C31.3511 41.9868 31.3662 42.2127 31.3888 42.4387C33.222 42.4161 36.2245 41.1884 37.6729 38.379Z" fill="#AAAAAA" stroke="#666666"/>
<path d="M37.4346 52.553L37.413 52.5763L37.3945 52.602C37.3869 52.6127 37.3796 52.6228 37.3726 52.6323C37.364 52.6211 37.3549 52.609 37.3453 52.5959L37.3448 52.5954C36.9825 52.1072 36.5219 51.6506 36.0877 51.2299C36.0392 51.1829 35.9911 51.1364 35.9434 51.0903C35.5526 50.7126 35.1917 50.3639 34.9006 50.0142L34.5164 50.3341L34.9006 50.0142C34.879 49.9882 34.8608 49.946 34.8608 49.8886C34.8608 49.1246 34.1603 48.5048 33.3727 48.697C31.6311 49.1221 30.1577 49.8348 28.8855 50.7161C28.1776 51.2066 28.0691 52.2112 28.6776 52.8341C30.8886 55.0977 33.9693 56.5 37.3796 56.5C40.7665 56.5 43.83 55.1125 46.0375 52.8779C46.6497 52.2582 46.5465 51.2527 45.8413 50.7583C44.5641 49.863 43.077 49.1319 41.32 48.6954C40.5496 48.504 39.8608 49.1092 39.8608 49.8578C39.8608 49.912 39.8403 49.9642 39.8034 50.0039L37.4346 52.553Z" fill="url(#paint5_linear_1387_29890)" stroke="#666666"/>
<path d="M59.3845 50.6046L59.3864 50.6023L59.5035 50.4538C59.5566 50.3872 59.6196 50.2929 59.6498 50.1536C59.6708 50.0569 59.6708 49.9539 59.6707 49.8833L59.6707 49.8774V49.3715V46.2603V45.43L58.9369 45.8183C58.3255 46.1418 57.7714 46.1492 56.9657 46.1492C56.1844 46.1492 55.5339 46.0848 54.9824 45.8121L54.2607 45.4552V46.2603V49.3903V49.8774C54.2607 49.883 54.2607 49.889 54.2607 49.8953C54.2605 49.9576 54.2603 50.0517 54.2751 50.135C54.3001 50.2761 54.3601 50.3759 54.4221 50.4538L54.5392 50.6023L54.5392 50.6023L54.5411 50.6046C54.8046 50.9346 55.0839 51.241 55.3552 51.5387C55.3694 51.5543 55.3836 51.5699 55.3978 51.5855C55.6857 51.9015 55.9662 52.2117 56.2367 52.5556L56.2374 52.5565C56.308 52.6458 56.4007 52.7562 56.5132 52.8386C56.6223 52.9186 56.7778 52.9917 56.9657 52.9818C57.1536 52.9917 57.3092 52.9186 57.4183 52.8386C57.5308 52.7562 57.6235 52.6458 57.6941 52.5565L57.3018 52.2465L57.6936 52.5571C57.9652 52.2144 58.2453 51.9032 58.532 51.5862C58.5423 51.5747 58.5527 51.5632 58.5632 51.5517C58.8369 51.249 59.118 50.9382 59.3845 50.6046Z" fill="white" stroke="#666666"/>
<circle cx="56.8813" cy="41.0603" r="6" fill="white" stroke="#666666"/>
<path fill-rule="evenodd" clip-rule="evenodd" d="M57.2032 37.7567C58.365 39.7225 61.1035 41.9971 63.0121 41.726C63.0347 41.5302 63.0423 41.3343 63.0423 41.131C63.0423 37.7793 60.3189 35.0603 56.9618 35.0603C53.6047 35.0603 50.8813 37.7793 50.8813 41.131C50.8813 41.3645 50.8964 41.5904 50.9191 41.8164C52.7523 41.7938 55.7548 40.5661 57.2032 37.7567Z" fill="#AAAAAA" stroke="#666666"/>
<path d="M57.4346 52.553L57.413 52.5763L57.3945 52.602C57.3869 52.6127 57.3796 52.6228 57.3726 52.6323C57.364 52.6211 57.3549 52.609 57.3453 52.5959L57.3448 52.5954C56.9825 52.1072 56.5219 51.6506 56.0877 51.2299C56.0392 51.1829 55.9911 51.1364 55.9434 51.0903C55.5526 50.7126 55.1917 50.3639 54.9006 50.0142L54.5164 50.3341L54.9006 50.0142C54.879 49.9882 54.8608 49.946 54.8608 49.8886C54.8608 49.1246 54.1603 48.5048 53.3727 48.697C51.6311 49.1221 50.1577 49.8348 48.8855 50.7161C48.1776 51.2066 48.0691 52.2112 48.6776 52.8341C50.8886 55.0977 53.9693 56.5 57.3796 56.5C60.7665 56.5 63.83 55.1125 66.0375 52.8779C66.6497 52.2582 66.5465 51.2527 65.8413 50.7583C64.5641 49.863 63.077 49.1319 61.32 48.6954C60.5496 48.504 59.8608 49.1092 59.8608 49.8578C59.8608 49.912 59.8403 49.9642 59.8034 50.0039L57.4346 52.553Z" fill="#E2E2E2" stroke="#666666"/>
<defs>
<linearGradient id="paint0_linear_1387_29890" x1="30.8208" y1="14.1218" x2="32.8208" y2="16.2" gradientUnits="userSpaceOnUse">
<stop stop-color="#FF8E3D"/>
<stop offset="1" stop-color="#FF6F3D"/>
</linearGradient>
<linearGradient id="paint1_linear_1387_29890" x1="30.8208" y1="18.4775" x2="32.8208" y2="20.5557" gradientUnits="userSpaceOnUse">
<stop stop-color="#FF8E3D"/>
<stop offset="1" stop-color="#FF6F3D"/>
</linearGradient>
<linearGradient id="paint2_linear_1387_29890" x1="30.8208" y1="22.833" x2="32.8208" y2="24.9111" gradientUnits="userSpaceOnUse">
<stop stop-color="#FF8E3D"/>
<stop offset="1" stop-color="#FF6F3D"/>
</linearGradient>
<linearGradient id="paint3_linear_1387_29890" x1="36.3609" y1="8.92187" x2="36.8356" y2="12.8677" gradientUnits="userSpaceOnUse">
<stop stop-color="#FF8E3D"/>
<stop offset="1" stop-color="#FF6F3D"/>
</linearGradient>
<linearGradient id="paint4_linear_1387_29890" x1="6.25056" y1="22.3764" x2="14.9923" y2="46.6225" gradientUnits="userSpaceOnUse">
<stop stop-color="#FF8E3D"/>
<stop offset="1" stop-color="#FF6F3D"/>
</linearGradient>
<linearGradient id="paint5_linear_1387_29890" x1="28.3609" y1="48.7266" x2="32.9602" y2="61.0154" gradientUnits="userSpaceOnUse">
<stop stop-color="#FF8E3D"/>
<stop offset="1" stop-color="#FF6F3D"/>
</linearGradient>
</defs>
</svg>
