<svg width="100" height="80" viewBox="0 0 100 80" fill="none" xmlns="http://www.w3.org/2000/svg">
<g clip-path="url(#clip0_1392_32354)">
<path d="M15 35.1576C15 33.966 15.966 33 17.1576 33H34.8424C36.034 33 37 33.966 37 35.1576V80.8424C37 82.034 36.034 83 34.8424 83H17.1576C15.966 83 15 82.034 15 80.8424V35.1576Z" fill="white"/>
<path fill-rule="evenodd" clip-rule="evenodd" d="M34.8424 35H17.1576C17.0706 35 17 35.0706 17 35.1576V80.8424C17 80.9294 17.0706 81 17.1576 81H34.8424C34.9294 81 35 80.9294 35 80.8424V35.1576C35 35.0706 34.9294 35 34.8424 35ZM17.1576 33C15.966 33 15 33.966 15 35.1576V80.8424C15 82.034 15.966 83 17.1576 83H34.8424C36.034 83 37 82.034 37 80.8424V35.1576C37 33.966 36.034 33 34.8424 33H17.1576Z" fill="#9ADAF3"/>
<path d="M72 36.1576C72 34.966 72.966 34 74.1576 34H102.842C104.034 34 105 34.966 105 36.1576V80.8424C105 82.034 104.034 83 102.842 83H74.1576C72.966 83 72 82.034 72 80.8424V36.1576Z" fill="white"/>
<path fill-rule="evenodd" clip-rule="evenodd" d="M102.842 36H74.1576C74.0706 36 74 36.0706 74 36.1576V80.8424C74 80.9294 74.0706 81 74.1576 81H102.842C102.929 81 103 80.9294 103 80.8424V36.1576C103 36.0706 102.929 36 102.842 36ZM74.1576 34C72.966 34 72 34.966 72 36.1576V80.8424C72 82.034 72.966 83 74.1576 83H102.842C104.034 83 105 82.034 105 80.8424V36.1576C105 34.966 104.034 34 102.842 34H74.1576Z" fill="#9ADAF3"/>
<path fill-rule="evenodd" clip-rule="evenodd" d="M23.0005 44H38.0005V63H23.0005V44ZM25.0005 46H36.0005V53H25.0005V46ZM25.0005 55V61H36.0005V55H25.0005Z" fill="#9ADAF3"/>
<path fill-rule="evenodd" clip-rule="evenodd" d="M82.0005 54V44H96.0005V54H82.0005ZM83.0005 45H95.0005V53H83.0005V45Z" fill="#FF6F3D"/>
<path fill-rule="evenodd" clip-rule="evenodd" d="M82.0005 71V61H96.0005V71H82.0005ZM83.0005 62H95.0005V70H83.0005V62Z" fill="#FF6F3D"/>
<path fill-rule="evenodd" clip-rule="evenodd" d="M86 85.8424C86 87.034 85.034 88 83.8424 88H36.1576C34.966 88 34 87.034 34 85.8424V20.1576C34 18.966 34.966 18 36.1576 18H70.8333L86 33.3125V85.8424Z" fill="white"/>
<path fill-rule="evenodd" clip-rule="evenodd" d="M36.1576 86H83.8424C83.9294 86 84 85.9294 84 85.8424V34.1353L69.9993 20H36.1576C36.0706 20 36 20.0706 36 20.1576V85.8424C36 85.9294 36.0706 86 36.1576 86ZM70.8333 18H36.1576C34.966 18 34 18.966 34 20.1576V85.8424C34 87.034 34.966 88 36.1576 88H83.8424C85.034 88 86 87.034 86 85.8424V33.3125L70.8333 18Z" fill="#9ADAF3"/>
<path d="M70 34L70.0002 18L71 18L86 33L86 34L70 34Z" fill="#EEFBFF"/>
<path fill-rule="evenodd" clip-rule="evenodd" d="M72.0002 21.8286L72 32L82.1716 32L72.0002 21.8286ZM70.0002 19.8286L70.0002 18.9998L70.0002 19.8286ZM70.0002 18L71 18L86 33L86 34L70 34L70.0002 19.8286" fill="#9ADAF3"/>
<path d="M46.0005 47.0366C45.4482 47.0366 45.0005 47.4843 45.0005 48.0366C45.0005 48.5889 45.4482 49.0366 46.0005 49.0366H75.0005C75.5528 49.0366 76.0005 48.5889 76.0005 48.0366C76.0005 47.4843 75.5528 47.0366 75.0005 47.0366H46.0005Z" fill="#AAAAAA"/>
<path d="M45.0005 56.0366C45.0005 55.4843 45.4482 55.0366 46.0005 55.0366H75.0005C75.5528 55.0366 76.0005 55.4843 76.0005 56.0366C76.0005 56.5889 75.5528 57.0366 75.0005 57.0366H46.0005C45.4482 57.0366 45.0005 56.5889 45.0005 56.0366Z" fill="#AAAAAA"/>
<path d="M46.0005 63.0366C45.4482 63.0366 45.0005 63.4843 45.0005 64.0366C45.0005 64.5889 45.4482 65.0366 46.0005 65.0366H75.0005C75.5528 65.0366 76.0005 64.5889 76.0005 64.0366C76.0005 63.4843 75.5528 63.0366 75.0005 63.0366H46.0005Z" fill="#AAAAAA"/>
<path d="M46.0005 71.0366C45.4482 71.0366 45.0005 71.4843 45.0005 72.0366C45.0005 72.5889 45.4482 73.0366 46.0005 73.0366H75.0005C75.5528 73.0366 76.0005 72.5889 76.0005 72.0366C76.0005 71.4843 75.5528 71.0366 75.0005 71.0366H46.0005Z" fill="#AAAAAA"/>
<path fill-rule="evenodd" clip-rule="evenodd" d="M60.5 39.5H45.5V38.5L50.5 33.5L52.5 35.5L56.5 31.5L60.5 36V39.5Z" stroke="#FF6F3D" stroke-width="1.03565" stroke-linecap="round" stroke-linejoin="round"/>
<path d="M48.5 29C48.5 29.8284 47.8284 30.5 47 30.5C46.1716 30.5 45.5 29.8284 45.5 29C45.5 28.1716 46.1716 27.5 47 27.5C47.8284 27.5 48.5 28.1716 48.5 29Z" stroke="#FF6F3D"/>
<path d="M53.2514 44.9137L57.176 40.9737L73.1388 56.7422L74.3185 61.8673L69.2028 60.7182L53.2514 44.9137Z" fill="white"/>
<path d="M56.5295 48.1794L60.4542 44.2396L73.2727 56.8739L69.1235 60.6374L56.5295 48.1794Z" fill="#9ADAF3"/>
<path fill-rule="evenodd" clip-rule="evenodd" d="M69.2631 60.4291L53.7832 45.0008C53.5725 44.7909 53.5755 44.4563 53.7897 44.2536L56.6542 41.5433C56.8685 41.3405 57.213 41.3463 57.4237 41.5563L72.9036 56.9846C72.9698 57.0505 73.0173 57.1318 73.0415 57.2206L74.084 61.0422C74.1923 61.4392 73.8154 61.7959 73.4095 61.6804L69.5025 60.569C69.4117 60.5432 69.3292 60.495 69.2631 60.4291ZM53.3951 45.3679C52.9739 44.9481 52.9798 44.2789 53.4083 43.8734L56.2728 41.1631C56.7014 40.7576 57.3904 40.7693 57.8117 41.1892L73.2916 56.6174C73.4239 56.7493 73.5189 56.9119 73.5673 57.0894L74.6099 60.9111C74.8265 61.7051 74.0726 62.4184 73.2609 62.1875L69.3538 61.0761C69.1723 61.0245 69.0074 60.928 68.8751 60.7962L53.3951 45.3679Z" fill="#555F65"/>
<path d="M58.2021 46.2969L70.861 58.9135L71.3516 58.4492L58.6928 45.8326L58.2021 46.2969Z" fill="white"/>
<path fill-rule="evenodd" clip-rule="evenodd" d="M73.093 56.6279L69.0241 60.3135L69.3966 60.7005L73.4655 57.0149L73.093 56.6279Z" fill="#555F65"/>
<path fill-rule="evenodd" clip-rule="evenodd" d="M60.1263 44.1405L56.2606 47.9936L56.6524 48.3617L60.5181 44.5086L60.1263 44.1405Z" fill="#555F65"/>
<path fill-rule="evenodd" clip-rule="evenodd" d="M73.6458 59.1679L71.359 61.2304L73.6572 61.9237L74.3616 61.2425L73.6458 59.1679Z" fill="#555F65"/>
<path fill-rule="evenodd" clip-rule="evenodd" d="M59.161 43.2084L55.3859 46.973L55.7794 47.3454L59.5545 43.5807L59.161 43.2084Z" fill="#555F65"/>
<path d="M96.0871 30.4918L92.1626 26.5519L75.973 42.5471L74.7933 47.6722L79.9091 46.523L96.0871 30.4918Z" fill="white"/>
<path d="M92.5828 33.9843L88.6581 30.0446L75.8396 42.6789L79.9888 46.4423L92.5828 33.9843Z" fill="url(#paint0_linear_1392_32354)"/>
<path fill-rule="evenodd" clip-rule="evenodd" d="M79.8487 46.234L95.3287 30.8058C95.5393 30.5958 95.5364 30.2613 95.3221 30.0585L92.4576 27.3482C92.2433 27.1454 91.8988 27.1513 91.6882 27.3612L76.2082 42.7895C76.1421 42.8554 76.0946 42.9367 76.0704 43.0255L75.0278 46.8472C74.9195 47.2442 75.2964 47.6008 75.7023 47.4853L79.6093 46.374C79.7001 46.3482 79.7826 46.2999 79.8487 46.234ZM95.7167 31.1729C96.138 30.753 96.1321 30.0839 95.7035 29.6784L92.839 26.9681C92.4104 26.5626 91.7215 26.5742 91.3002 26.9941L75.8202 42.4224C75.6879 42.5542 75.5929 42.7168 75.5445 42.8944L74.502 46.716C74.2854 47.51 75.0392 48.2233 75.8509 47.9924L79.758 46.881C79.9395 46.8294 80.1044 46.733 80.2367 46.6011L95.7167 31.1729Z" fill="#555F65"/>
<path d="M90.9097 32.1019L78.2508 44.7185L77.7601 44.2543L90.419 31.6377L90.9097 32.1019Z" fill="white"/>
<path fill-rule="evenodd" clip-rule="evenodd" d="M76.0189 42.4328L80.0877 46.1185L79.7152 46.5055L75.6464 42.8199L76.0189 42.4328Z" fill="#555F65"/>
<path fill-rule="evenodd" clip-rule="evenodd" d="M88.9855 29.9452L92.8512 33.7983L92.4594 34.1664L88.5937 30.3133L88.9855 29.9452Z" fill="#555F65"/>
<path fill-rule="evenodd" clip-rule="evenodd" d="M75.466 44.9728L77.7528 47.0353L75.4546 47.7287L74.7502 47.0475L75.466 44.9728Z" fill="#555F65"/>
<path fill-rule="evenodd" clip-rule="evenodd" d="M89.9508 29.0129L93.7259 32.7776L93.3324 33.1499L89.5573 29.3853L89.9508 29.0129Z" fill="#555F65"/>
<path d="M55.6541 65.4106C55.6541 70.6294 51.4179 74.8601 46.1923 74.8601C40.9667 74.8601 36.7305 70.6294 36.7305 65.4106C36.7305 60.1918 40.9667 55.9611 46.1923 55.9611C51.4179 55.9611 55.6541 60.1918 55.6541 65.4106Z" fill="white"/>
<path d="M46.6258 55.5316C41.1641 55.4354 36.8283 58.8489 36.735 64.483C36.682 67.6776 37.9374 71.2327 40.1351 73.1421C40.2788 73.0127 40.5594 72.8583 40.7307 72.7621L43.682 71.1014C44.0691 70.8835 44.3102 70.465 44.3102 70.0099V68.7624C44.3102 68.7624 43.4439 67.6935 43.1136 66.2085C42.8396 66.0256 42.656 65.7095 42.656 65.3495V63.9842C42.656 63.6838 42.7855 63.4155 42.9867 63.2276V61.2539C42.9867 61.2539 42.5936 58.1825 46.6258 58.1825C50.658 58.1825 50.265 61.2539 50.265 61.2539V63.2276C50.4665 63.4155 50.5957 63.6838 50.5957 63.9842V65.3495C50.5957 65.8084 50.2971 66.1946 49.8917 66.3236C49.6659 67.0478 49.3401 67.7382 48.9093 68.3658C48.8007 68.5241 48.6992 68.658 48.6104 68.7624V70.0415C48.6104 70.5123 48.8683 70.9432 49.2766 71.1534L52.4369 72.7832L53.0766 72.7126C55.2078 70.8791 56.036 68.4978 56.0871 65.4106C56.1665 60.6165 52.0879 55.6279 46.6258 55.5316Z" fill="#CCCCCC"/>
<path fill-rule="evenodd" clip-rule="evenodd" d="M56.6343 65.5313C56.6343 71.232 51.9333 75.8533 46.1343 75.8533C40.3353 75.8533 35.6343 71.232 35.6343 65.5313C35.6343 59.8306 40.3353 55.2092 46.1343 55.2092C51.9333 55.2092 56.6343 59.8306 56.6343 65.5313ZM46.1343 74.9931C51.45 74.9931 55.7593 70.7569 55.7593 65.5313C55.7593 60.3056 51.45 56.0694 46.1343 56.0694C40.8185 56.0694 36.5093 60.3056 36.5093 65.5313C36.5093 70.7569 40.8185 74.9931 46.1343 74.9931Z" fill="#657077"/>
<path d="M41.4329 65.6001C41.4329 70.9344 37.1093 75.2587 31.776 75.2587C26.4427 75.2587 22.1191 70.9344 22.1191 65.6001C22.1191 60.2658 26.4427 55.9415 31.776 55.9415C37.1093 55.9415 41.4329 60.2658 41.4329 65.6001Z" fill="white"/>
<path d="M31.9554 55.1019C26.1575 55.0038 21.3766 59.5767 21.2776 65.3155C21.2213 68.5695 22.5523 71.5305 24.8852 73.4753C25.0378 73.3436 25.3357 73.1863 25.5176 73.0882L28.6505 71.3968C29.0614 71.1748 29.3174 70.7485 29.3174 70.2849V69.0142C29.3174 69.0142 28.3977 67.9255 28.0471 66.4129C27.7563 66.2266 27.5613 65.9046 27.5613 65.5379V64.1472C27.5613 63.8413 27.6988 63.568 27.9124 63.3766V61.3663C27.9124 61.3663 27.4951 58.2378 31.7755 58.2378C36.056 58.2378 35.6387 61.3663 35.6387 61.3663V63.3766C35.8527 63.568 35.9898 63.8413 35.9898 64.1472V65.5379C35.9898 66.0054 35.6728 66.3988 35.2425 66.5301C35.0028 67.2678 34.6569 67.971 34.1996 68.6103C34.0843 68.7715 33.9766 68.908 33.8823 69.0142V70.3171C33.8823 70.7967 34.1561 71.2356 34.5895 71.4497L37.9444 73.1098C38.1456 73.2094 38.4989 73.3353 38.6665 73.4753C40.929 71.6078 42.2192 68.8154 42.2735 65.6709C42.3733 59.932 37.5045 55.1957 31.9554 55.1019Z" fill="url(#paint1_linear_1392_32354)"/>
<path fill-rule="evenodd" clip-rule="evenodd" d="M42.2759 65.6003C42.2759 71.3975 37.5767 76.1003 31.7759 76.1003C25.9751 76.1003 21.2759 71.3975 21.2759 65.6003C21.2759 59.8031 25.9751 55.1003 31.7759 55.1003C37.5767 55.1003 42.2759 59.8031 42.2759 65.6003ZM31.7759 75.2589C37.1092 75.2589 41.4327 70.9346 41.4327 65.6003C41.4327 60.266 37.1092 55.9417 31.7759 55.9417C26.4425 55.9417 22.119 60.266 22.119 65.6003C22.119 70.9346 26.4425 75.2589 31.7759 75.2589Z" fill="#657077"/>
<path d="M27.2134 65.676C27.2134 71.0301 22.8674 75.3704 17.5063 75.3704C12.1453 75.3704 7.79932 71.0301 7.79932 65.676C7.79932 60.3219 12.1453 55.9816 17.5063 55.9816C22.8674 55.9816 27.2134 60.3219 27.2134 65.676Z" fill="white"/>
<path d="M17.951 55.541C12.3478 55.4422 7.89963 58.9442 7.8039 64.7243C7.74953 68.0017 9.03743 71.649 11.2921 73.6078C11.4395 73.4751 11.7274 73.3167 11.9032 73.2179L14.9309 71.5143C15.328 71.2907 15.5754 70.8613 15.5754 70.3944V69.1146C15.5754 69.1146 14.6866 68.018 14.3477 66.4945C14.0667 66.3069 13.8783 65.9826 13.8783 65.6132V64.2125C13.8783 63.9044 14.0112 63.6291 14.2176 63.4364V61.4115C14.2176 61.4115 13.8143 58.2606 17.951 58.2606C22.0877 58.2606 21.6845 61.4115 21.6845 61.4115V63.4364C21.8913 63.6291 22.0237 63.9044 22.0237 64.2125V65.6132C22.0237 66.0841 21.7174 66.4803 21.3016 66.6126C21.0699 67.3556 20.7356 68.0639 20.2937 68.7077C20.1823 68.8701 20.0781 69.0075 19.987 69.1146V70.4268C19.987 70.9099 20.2516 71.3519 20.6705 71.5676L23.9127 73.2396L24.5689 73.1672C26.7554 71.2861 27.6051 68.8431 27.6575 65.676C27.739 60.7576 23.5547 55.6397 17.951 55.541Z" fill="#9ADAF3"/>
<path fill-rule="evenodd" clip-rule="evenodd" d="M27.917 65.6006C27.917 71.3996 23.216 76.1006 17.417 76.1006C11.618 76.1006 6.91699 71.3996 6.91699 65.6006C6.91699 59.8016 11.618 55.1006 17.417 55.1006C23.216 55.1006 27.917 59.8016 27.917 65.6006ZM17.417 75.2256C22.7327 75.2256 27.042 70.9163 27.042 65.6006C27.042 60.2848 22.7327 55.9756 17.417 55.9756C12.1013 55.9756 7.79199 60.2848 7.79199 65.6006C7.79199 70.9163 12.1013 75.2256 17.417 75.2256Z" fill="#657077"/>
</g>
<defs>
<linearGradient id="paint0_linear_1392_32354" x1="75.8943" y1="29.4571" x2="92.1772" y2="46.7256" gradientUnits="userSpaceOnUse">
<stop stop-color="#FFC671"/>
<stop offset="0.59375" stop-color="#FF7541"/>
<stop offset="1" stop-color="#FF6F3D"/>
</linearGradient>
<linearGradient id="paint1_linear_1392_32354" x1="21.2759" y1="54.3826" x2="39.3963" y2="75.8996" gradientUnits="userSpaceOnUse">
<stop stop-color="#FFC671"/>
<stop offset="0.59375" stop-color="#FF7541"/>
<stop offset="1" stop-color="#FF6F3D"/>
</linearGradient>
<clipPath id="clip0_1392_32354">
<rect width="100" height="80" fill="white"/>
</clipPath>
</defs>
</svg>
