<svg width="211" height="142" viewBox="0 0 211 142" fill="none" xmlns="http://www.w3.org/2000/svg">
<g opacity="0.9" clip-path="url(#clip0_1374_25769)">
<rect width="211" height="142" transform="matrix(1 0 0 -1 0 142)" fill="#EBF9FF"/>
<g opacity="0.6" filter="url(#filter0_d_1374_25769)">
<path d="M86.0531 67.7538L86.0489 67.7565C81.667 70.5875 75.5845 72.5585 69.3379 73.4716C63.0901 74.3848 56.623 74.2478 51.4622 72.8156L51.4621 72.8158L51.4494 72.8119L-68.2099 36.107C-68.212 36.1064 -68.2141 36.1058 -68.2163 36.1052C-73.3493 34.6792 -76.3809 32.0915 -76.8099 28.8896C-77.2379 25.6953 -75.0264 22.231 -70.4949 19.177L-70.4909 19.1743L34.9244 -50.4299C34.9264 -50.4313 34.9283 -50.4326 34.9302 -50.434C39.2874 -53.4807 45.3593 -55.5584 51.6085 -56.4719C57.8609 -57.3858 64.3474 -57.1427 69.5416 -55.495C69.5424 -55.4948 69.5432 -55.4946 69.5439 -55.4943L189.205 -18.7891C194.338 -17.3631 197.37 -14.7753 197.799 -11.5734C198.227 -8.37911 196.015 -4.9149 191.484 -1.86083L191.48 -1.8582L86.0531 67.7538Z" stroke="white"/>
</g>
<g filter="url(#filter1_d_1374_25769)">
<path d="M95.7908 111.694L95.7876 111.69C92.86 108.066 88.2528 104.7 83.2148 102.186C78.1757 99.6709 72.6558 97.9837 67.879 97.759L67.879 97.7588L67.8657 97.7585L-43.6407 95.5183C-43.6429 95.5182 -43.6451 95.5181 -43.6473 95.518C-48.3958 95.296 -51.7116 96.6433 -52.9806 99.2641C-54.2461 101.878 -53.3222 105.45 -50.3325 109.301L-50.3296 109.305L19.526 197.568C19.5274 197.57 19.5288 197.572 19.5302 197.574C22.377 201.375 26.9459 204.828 31.9863 207.344C37.0295 209.86 42.596 211.463 47.4616 211.515C47.4625 211.515 47.4633 211.515 47.4641 211.515L158.972 213.755C163.721 213.977 167.037 212.63 168.306 210.009C169.571 207.395 168.647 203.823 165.658 199.972L165.655 199.968L95.7908 111.694Z" stroke="white"/>
</g>
<path opacity="0.7" fill-rule="evenodd" clip-rule="evenodd" d="M82.7821 61.3365L188.209 -8.27547C197.174 -14.3179 196.213 -21.4903 186.061 -24.3079L66.3885 -61.0165C56.1791 -64.256 40.7557 -62.0016 32.2068 -56.0201L-73.2198 13.5919C-82.1855 19.6343 -81.2245 26.8067 -71.0717 29.6243L48.6004 66.3329C58.7532 69.1505 74.1767 66.896 82.7821 61.3365Z" fill="url(#paint0_linear_1374_25769)"/>
</g>
<defs>
<filter id="filter0_d_1374_25769" x="-102.362" y="-75.4998" width="325.712" height="182.049" filterUnits="userSpaceOnUse" color-interpolation-filters="sRGB">
<feFlood flood-opacity="0" result="BackgroundImageFix"/>
<feColorMatrix in="SourceAlpha" type="matrix" values="0 0 0 0 0 0 0 0 0 0 0 0 0 0 0 0 0 0 127 0" result="hardAlpha"/>
<feOffset dy="7"/>
<feGaussianBlur stdDeviation="12.5"/>
<feColorMatrix type="matrix" values="0 0 0 0 0.333333 0 0 0 0 0.333333 0 0 0 0 0.333333 0 0 0 0.15 0"/>
<feBlend mode="normal" in2="BackgroundImageFix" result="effect1_dropShadow_1374_25769"/>
<feBlend mode="normal" in="SourceGraphic" in2="effect1_dropShadow_1374_25769" result="shape"/>
</filter>
<filter id="filter1_d_1374_25769" x="-79.0312" y="76.9922" width="273.388" height="169.289" filterUnits="userSpaceOnUse" color-interpolation-filters="sRGB">
<feFlood flood-opacity="0" result="BackgroundImageFix"/>
<feColorMatrix in="SourceAlpha" type="matrix" values="0 0 0 0 0 0 0 0 0 0 0 0 0 0 0 0 0 0 127 0" result="hardAlpha"/>
<feOffset dy="7"/>
<feGaussianBlur stdDeviation="12.5"/>
<feColorMatrix type="matrix" values="0 0 0 0 0.333333 0 0 0 0 0.333333 0 0 0 0 0.333333 0 0 0 0.15 0"/>
<feBlend mode="normal" in2="BackgroundImageFix" result="effect1_dropShadow_1374_25769"/>
<feBlend mode="normal" in="SourceGraphic" in2="effect1_dropShadow_1374_25769" result="shape"/>
</filter>
<linearGradient id="paint0_linear_1374_25769" x1="28.4203" y1="2.89864" x2="69.4808" y2="105.092" gradientUnits="userSpaceOnUse">
<stop stop-color="white"/>
<stop offset="1" stop-color="white" stop-opacity="0"/>
</linearGradient>
<clipPath id="clip0_1374_25769">
<rect width="211" height="142" fill="white"/>
</clipPath>
</defs>
</svg>
