<svg width="362" height="250" viewBox="0 0 362 250" fill="none" xmlns="http://www.w3.org/2000/svg">
<circle cx="94.6792" cy="95.1348" r="94.6792" fill="#FFE8CC"/>
<g filter="url(#filter0_d_5051_52496)">
<mask id="path-2-inside-1_5051_52496" fill="white">
<path fill-rule="evenodd" clip-rule="evenodd" d="M218.28 147.259L209.474 146.927C206.251 153.022 204.164 159.668 203.325 166.512L210.741 171.273C215.142 174.098 215.693 180.315 211.859 183.871L205.393 189.867C206.391 193.1 207.695 196.288 209.317 199.394C210.939 202.502 212.81 205.394 214.894 208.061L223.509 206.182C228.618 205.068 233.405 209.075 233.208 214.3L232.876 223.105C238.972 226.328 245.618 228.414 252.463 229.252L257.222 221.839C260.047 217.439 266.265 216.887 269.82 220.721L275.813 227.183C279.045 226.186 282.233 224.882 285.339 223.26C288.447 221.637 291.341 219.765 294.009 217.68L292.132 209.071C291.018 203.962 295.024 199.175 300.249 199.372L309.048 199.704C312.272 193.607 314.359 186.96 315.197 180.114L307.788 175.358C303.388 172.533 302.836 166.316 306.67 162.76L313.129 156.77C312.132 153.536 310.828 150.346 309.205 147.238C307.582 144.131 305.711 141.238 303.628 138.572L295.02 140.449C289.911 141.563 285.125 137.556 285.322 132.331L285.653 123.531C279.557 120.307 272.91 118.219 266.065 117.381L261.307 124.792C258.482 129.192 252.265 129.744 248.709 125.91L242.716 119.447C239.481 120.445 236.291 121.749 233.182 123.372C230.077 124.994 227.185 126.864 224.52 128.946L226.398 137.56C227.512 142.669 223.505 147.456 218.28 147.259ZM275.567 204.545C292.815 195.539 299.496 174.257 290.49 157.01C281.484 139.762 260.202 133.081 242.955 142.087C225.708 151.093 219.026 172.375 228.032 189.622C237.038 206.869 258.32 213.551 275.567 204.545Z"/>
</mask>
<path fill-rule="evenodd" clip-rule="evenodd" d="M218.28 147.259L209.474 146.927C206.251 153.022 204.164 159.668 203.325 166.512L210.741 171.273C215.142 174.098 215.693 180.315 211.859 183.871L205.393 189.867C206.391 193.1 207.695 196.288 209.317 199.394C210.939 202.502 212.81 205.394 214.894 208.061L223.509 206.182C228.618 205.068 233.405 209.075 233.208 214.3L232.876 223.105C238.972 226.328 245.618 228.414 252.463 229.252L257.222 221.839C260.047 217.439 266.265 216.887 269.82 220.721L275.813 227.183C279.045 226.186 282.233 224.882 285.339 223.26C288.447 221.637 291.341 219.765 294.009 217.68L292.132 209.071C291.018 203.962 295.024 199.175 300.249 199.372L309.048 199.704C312.272 193.607 314.359 186.96 315.197 180.114L307.788 175.358C303.388 172.533 302.836 166.316 306.67 162.76L313.129 156.77C312.132 153.536 310.828 150.346 309.205 147.238C307.582 144.131 305.711 141.238 303.628 138.572L295.02 140.449C289.911 141.563 285.125 137.556 285.322 132.331L285.653 123.531C279.557 120.307 272.91 118.219 266.065 117.381L261.307 124.792C258.482 129.192 252.265 129.744 248.709 125.91L242.716 119.447C239.481 120.445 236.291 121.749 233.182 123.372C230.077 124.994 227.185 126.864 224.52 128.946L226.398 137.56C227.512 142.669 223.505 147.456 218.28 147.259ZM275.567 204.545C292.815 195.539 299.496 174.257 290.49 157.01C281.484 139.762 260.202 133.081 242.955 142.087C225.708 151.093 219.026 172.375 228.032 189.622C237.038 206.869 258.32 213.551 275.567 204.545Z" fill="#DCEEF8"/>
<path d="M209.474 146.927L209.512 145.927L208.884 145.904L208.59 146.459L209.474 146.927ZM218.28 147.259L218.318 146.259L218.28 147.259ZM203.325 166.512L202.333 166.39L202.256 167.014L202.785 167.353L203.325 166.512ZM210.741 171.273L210.201 172.114L210.741 171.273ZM211.859 183.871L212.539 184.604L212.539 184.604L211.859 183.871ZM205.393 189.867L204.713 189.134L204.253 189.561L204.438 190.162L205.393 189.867ZM214.894 208.061L214.106 208.677L214.493 209.172L215.107 209.038L214.894 208.061ZM223.509 206.182L223.296 205.205L223.509 206.182ZM233.208 214.3L232.209 214.262L233.208 214.3ZM232.876 223.105L231.877 223.067L231.853 223.695L232.408 223.989L232.876 223.105ZM252.463 229.252L252.341 230.245L252.965 230.321L253.304 229.793L252.463 229.252ZM257.222 221.839L258.064 222.379L257.222 221.839ZM269.82 220.721L270.553 220.041L269.82 220.721ZM275.813 227.183L275.08 227.863L275.507 228.324L276.108 228.139L275.813 227.183ZM294.009 217.68L294.625 218.468L295.12 218.081L294.986 217.467L294.009 217.68ZM292.132 209.071L293.109 208.858L292.132 209.071ZM300.249 199.372L300.287 198.373L300.249 199.372ZM309.048 199.704L309.01 200.703L309.638 200.727L309.932 200.171L309.048 199.704ZM315.197 180.114L316.19 180.236L316.266 179.612L315.737 179.273L315.197 180.114ZM307.788 175.358L308.328 174.517L307.788 175.358ZM306.67 162.76L305.99 162.027L306.67 162.76ZM313.129 156.77L313.809 157.503L314.27 157.076L314.085 156.475L313.129 156.77ZM303.628 138.572L304.416 137.956L304.029 137.461L303.415 137.595L303.628 138.572ZM295.02 140.449L294.807 139.472L295.02 140.449ZM285.322 132.331L286.321 132.369L285.322 132.331ZM285.653 123.531L286.652 123.569L286.676 122.941L286.121 122.647L285.653 123.531ZM266.065 117.381L266.187 116.388L265.563 116.312L265.224 116.84L266.065 117.381ZM261.307 124.792L262.149 125.332L262.149 125.332L261.307 124.792ZM248.709 125.91L247.976 126.59L247.976 126.59L248.709 125.91ZM242.716 119.447L243.449 118.767L243.022 118.306L242.421 118.491L242.716 119.447ZM224.52 128.946L223.904 128.158L223.409 128.545L223.543 129.159L224.52 128.946ZM226.398 137.56L225.421 137.773L226.398 137.56ZM209.437 147.926L218.243 148.258L218.318 146.259L209.512 145.927L209.437 147.926ZM204.318 166.634C205.142 159.911 207.191 153.382 210.358 147.394L208.59 146.459C205.31 152.662 203.186 159.425 202.333 166.39L204.318 166.634ZM211.282 170.431L203.865 165.67L202.785 167.353L210.201 172.114L211.282 170.431ZM212.539 184.604C216.853 180.604 216.232 173.609 211.282 170.431L210.201 172.114C214.051 174.586 214.534 180.027 211.179 183.138L212.539 184.604ZM206.073 190.6L212.539 184.604L211.179 183.138L204.713 189.134L206.073 190.6ZM210.203 198.932C208.609 195.879 207.328 192.747 206.349 189.572L204.438 190.162C205.453 193.452 206.78 196.697 208.43 199.857L210.203 198.932ZM215.682 207.445C213.636 204.826 211.797 201.985 210.203 198.932L208.43 199.857C210.081 203.018 211.985 205.962 214.106 208.677L215.682 207.445ZM223.296 205.205L214.681 207.084L215.107 209.038L223.722 207.159L223.296 205.205ZM234.207 214.338C234.429 208.459 229.044 203.952 223.296 205.205L223.722 207.159C228.192 206.185 232.381 209.69 232.209 214.262L234.207 214.338ZM233.875 223.143L234.207 214.338L232.209 214.262L231.877 223.067L233.875 223.143ZM252.584 228.26C245.861 227.437 239.331 225.387 233.343 222.221L232.408 223.989C238.612 227.269 245.376 229.392 252.341 230.245L252.584 228.26ZM256.381 221.299L251.621 228.712L253.304 229.793L258.064 222.379L256.381 221.299ZM270.553 220.041C266.553 215.728 259.558 216.348 256.381 221.299L258.064 222.379C260.535 218.529 265.976 218.046 269.087 221.401L270.553 220.041ZM276.546 226.503L270.553 220.041L269.087 221.401L275.08 227.863L276.546 226.503ZM284.876 222.374C281.824 223.967 278.693 225.248 275.518 226.227L276.108 228.139C279.398 227.123 282.642 225.797 285.802 224.147L284.876 222.374ZM293.393 216.892C290.773 218.94 287.93 220.779 284.876 222.374L285.802 224.147C288.964 222.495 291.909 220.59 294.625 218.468L293.393 216.892ZM291.154 209.284L293.032 217.893L294.986 217.467L293.109 208.858L291.154 209.284ZM300.287 198.373C294.408 198.151 289.901 203.537 291.154 209.284L293.109 208.858C292.134 204.388 295.639 200.199 300.211 200.372L300.287 198.373ZM309.086 198.705L300.287 198.373L300.211 200.372L309.01 200.703L309.086 198.705ZM314.204 179.993C313.381 186.717 311.331 193.248 308.164 199.236L309.932 200.171C313.213 193.967 315.337 187.202 316.19 180.236L314.204 179.993ZM307.248 176.2L314.657 180.956L315.737 179.273L308.328 174.517L307.248 176.2ZM305.99 162.027C301.677 166.027 302.297 173.022 307.248 176.2L308.328 174.517C304.478 172.045 303.995 166.604 307.35 163.493L305.99 162.027ZM312.449 156.037L305.99 162.027L307.35 163.493L313.809 157.503L312.449 156.037ZM308.318 147.701C309.913 150.755 311.194 153.888 312.174 157.065L314.085 156.475C313.07 153.183 311.742 149.937 310.091 146.775L308.318 147.701ZM302.84 139.187C304.886 141.806 306.724 144.648 308.318 147.701L310.091 146.775C308.441 143.614 306.536 140.67 304.416 137.956L302.84 139.187ZM295.233 141.426L303.841 139.549L303.415 137.595L294.807 139.472L295.233 141.426ZM284.322 132.293C284.101 138.172 289.486 142.679 295.233 141.426L294.807 139.472C290.337 140.446 286.148 136.941 286.321 132.369L284.322 132.293ZM284.654 123.494L284.322 132.293L286.321 132.369L286.652 123.569L284.654 123.494ZM265.944 118.373C272.668 119.197 279.197 121.248 285.186 124.415L286.121 122.647C279.917 119.366 273.153 117.242 266.187 116.388L265.944 118.373ZM262.149 125.332L266.907 117.921L265.224 116.84L260.466 124.252L262.149 125.332ZM247.976 126.59C251.976 130.903 258.971 130.283 262.149 125.332L260.466 124.252C257.994 128.102 252.554 128.585 249.442 125.23L247.976 126.59ZM241.982 120.127L247.976 126.59L249.442 125.23L243.449 118.767L241.982 120.127ZM233.645 124.258C236.699 122.664 239.833 121.382 243.01 120.403L242.421 118.491C239.128 119.507 235.882 120.834 232.72 122.486L233.645 124.258ZM225.135 129.734C227.753 127.689 230.594 125.852 233.645 124.258L232.72 122.486C229.56 124.135 226.617 126.039 223.904 128.158L225.135 129.734ZM227.375 137.347L225.497 128.733L223.543 129.159L225.421 137.773L227.375 137.347ZM218.243 148.258C224.121 148.479 228.628 143.094 227.375 137.347L225.421 137.773C226.396 142.243 222.89 146.432 218.318 146.259L218.243 148.258ZM289.604 157.473C298.354 174.23 291.862 194.909 275.104 203.659L276.03 205.431C293.767 196.17 300.638 174.284 291.377 156.547L289.604 157.473ZM243.418 142.973C260.176 134.223 280.854 140.715 289.604 157.473L291.377 156.547C282.115 138.81 260.229 131.939 242.492 141.201L243.418 142.973ZM228.918 189.159C220.168 172.402 226.66 151.723 243.418 142.973L242.492 141.201C224.755 150.462 217.884 172.348 227.146 190.085L228.918 189.159ZM275.104 203.659C258.347 212.409 237.668 205.917 228.918 189.159L227.146 190.085C236.407 207.822 258.293 214.693 276.03 205.431L275.104 203.659Z" fill="#344E5D" mask="url(#path-2-inside-1_5051_52496)"/>
</g>
<g filter="url(#filter1_d_5051_52496)">
<mask id="path-4-inside-2_5051_52496" fill="white">
<path fill-rule="evenodd" clip-rule="evenodd" d="M169.967 63.7504C169.97 63.7758 169.973 63.8011 169.977 63.8265L170.522 67.7426C171.244 72.9215 166.885 77.3891 161.69 76.7947L157.761 76.3453C157.737 76.3425 157.712 76.3398 157.688 76.3372C154.929 80.7109 152.989 85.5617 151.971 90.6317C151.99 90.6467 152.01 90.6618 152.03 90.6768L155.185 93.06C159.357 96.2118 159.434 102.453 155.34 105.707L152.244 108.166C152.224 108.183 152.203 108.199 152.183 108.216C152.744 110.69 153.537 113.149 154.572 115.564C155.608 117.98 156.842 120.251 158.248 122.364C158.274 122.36 158.3 122.357 158.325 122.353L162.241 121.808C167.42 121.086 171.888 125.445 171.294 130.64L170.844 134.569C170.841 134.593 170.839 134.617 170.836 134.642C175.21 137.4 180.061 139.34 185.132 140.358C185.146 140.339 185.161 140.319 185.176 140.3L187.559 137.145C190.711 132.973 196.952 132.896 200.205 136.99L202.665 140.086C202.681 140.105 202.697 140.125 202.712 140.144C205.187 139.583 207.645 138.791 210.06 137.755C212.477 136.719 214.748 135.484 216.862 134.078C216.859 134.054 216.855 134.029 216.852 134.005L216.306 130.089C215.585 124.91 219.944 120.442 225.139 121.036L229.067 121.486C229.09 121.489 229.113 121.491 229.136 121.494C231.896 117.119 233.836 112.267 234.854 107.196C234.836 107.182 234.817 107.168 234.799 107.154L231.644 104.771C227.472 101.619 227.395 95.3778 231.489 92.1246L234.585 89.6647C234.604 89.6497 234.622 89.6345 234.641 89.6194C234.08 87.1438 233.287 84.6841 232.251 82.2675C231.215 79.8514 229.981 77.5813 228.576 75.4683C228.552 75.4714 228.528 75.4747 228.503 75.478L224.587 76.0236C219.408 76.7452 214.941 72.3859 215.535 67.1908L215.985 63.2626C215.987 63.2394 215.99 63.2163 215.992 63.1933C211.618 60.4337 206.767 58.4932 201.696 57.4748C201.682 57.4935 201.667 57.5122 201.653 57.531L199.27 60.6859C196.118 64.8582 189.877 64.9347 186.623 60.841L184.164 57.7454C184.148 57.7256 184.132 57.7059 184.116 57.6863C181.64 58.2475 179.18 59.0406 176.763 60.0766C174.348 61.1119 172.079 62.3456 169.967 63.7504Z"/>
</mask>
<path fill-rule="evenodd" clip-rule="evenodd" d="M169.967 63.7504C169.97 63.7758 169.973 63.8011 169.977 63.8265L170.522 67.7426C171.244 72.9215 166.885 77.3891 161.69 76.7947L157.761 76.3453C157.737 76.3425 157.712 76.3398 157.688 76.3372C154.929 80.7109 152.989 85.5617 151.971 90.6317C151.99 90.6467 152.01 90.6618 152.03 90.6768L155.185 93.06C159.357 96.2118 159.434 102.453 155.34 105.707L152.244 108.166C152.224 108.183 152.203 108.199 152.183 108.216C152.744 110.69 153.537 113.149 154.572 115.564C155.608 117.98 156.842 120.251 158.248 122.364C158.274 122.36 158.3 122.357 158.325 122.353L162.241 121.808C167.42 121.086 171.888 125.445 171.294 130.64L170.844 134.569C170.841 134.593 170.839 134.617 170.836 134.642C175.21 137.4 180.061 139.34 185.132 140.358C185.146 140.339 185.161 140.319 185.176 140.3L187.559 137.145C190.711 132.973 196.952 132.896 200.205 136.99L202.665 140.086C202.681 140.105 202.697 140.125 202.712 140.144C205.187 139.583 207.645 138.791 210.06 137.755C212.477 136.719 214.748 135.484 216.862 134.078C216.859 134.054 216.855 134.029 216.852 134.005L216.306 130.089C215.585 124.91 219.944 120.442 225.139 121.036L229.067 121.486C229.09 121.489 229.113 121.491 229.136 121.494C231.896 117.119 233.836 112.267 234.854 107.196C234.836 107.182 234.817 107.168 234.799 107.154L231.644 104.771C227.472 101.619 227.395 95.3778 231.489 92.1246L234.585 89.6647C234.604 89.6497 234.622 89.6345 234.641 89.6194C234.08 87.1438 233.287 84.6841 232.251 82.2675C231.215 79.8514 229.981 77.5813 228.576 75.4683C228.552 75.4714 228.528 75.4747 228.503 75.478L224.587 76.0236C219.408 76.7452 214.941 72.3859 215.535 67.1908L215.985 63.2626C215.987 63.2394 215.99 63.2163 215.992 63.1933C211.618 60.4337 206.767 58.4932 201.696 57.4748C201.682 57.4935 201.667 57.5122 201.653 57.531L199.27 60.6859C196.118 64.8582 189.877 64.9347 186.623 60.841L184.164 57.7454C184.148 57.7256 184.132 57.7059 184.116 57.6863C181.64 58.2475 179.18 59.0406 176.763 60.0766C174.348 61.1119 172.079 62.3456 169.967 63.7504Z" fill="#DCEEF8"/>
<path d="M169.977 63.8265L168.986 63.9645L168.986 63.9645L169.977 63.8265ZM169.967 63.7504L169.413 62.9177L168.894 63.2626L168.975 63.8801L169.967 63.7504ZM170.522 67.7426L171.513 67.6046L170.522 67.7426ZM161.69 76.7947L161.576 77.7882L161.69 76.7947ZM157.761 76.3453L157.875 75.3517L157.875 75.3517L157.761 76.3453ZM157.688 76.3372L157.794 75.3428L157.174 75.2769L156.842 75.8036L157.688 76.3372ZM151.971 90.6317L150.99 90.4348L150.868 91.0453L151.362 91.4247L151.971 90.6317ZM152.03 90.6768L151.427 91.4747L151.427 91.4747L152.03 90.6768ZM155.185 93.06L155.788 92.2621L155.185 93.06ZM155.34 105.707L154.718 104.924L155.34 105.707ZM152.244 108.166L151.622 107.384L151.622 107.384L152.244 108.166ZM152.183 108.216L151.554 107.438L151.07 107.83L151.208 108.437L152.183 108.216ZM158.248 122.364L157.415 122.917L157.76 123.436L158.377 123.355L158.248 122.364ZM158.325 122.353L158.187 121.363L158.187 121.363L158.325 122.353ZM162.241 121.808L162.103 120.817L162.241 121.808ZM171.294 130.64L172.287 130.754L171.294 130.64ZM170.844 134.569L171.838 134.682L171.838 134.682L170.844 134.569ZM170.836 134.642L169.842 134.536L169.776 135.155L170.303 135.487L170.836 134.642ZM185.132 140.358L184.935 141.338L185.546 141.461L185.925 140.967L185.132 140.358ZM185.176 140.3L184.378 139.697L184.378 139.697L185.176 140.3ZM187.559 137.145L188.357 137.748L187.559 137.145ZM200.205 136.99L199.423 137.612L200.205 136.99ZM202.665 140.086L203.448 139.464L203.448 139.464L202.665 140.086ZM202.712 140.144L201.935 140.773L202.326 141.257L202.933 141.12L202.712 140.144ZM216.862 134.078L217.416 134.911L217.934 134.566L217.853 133.948L216.862 134.078ZM216.852 134.005L217.842 133.867L217.842 133.867L216.852 134.005ZM216.306 130.089L215.316 130.227L216.306 130.089ZM225.139 121.036L225.253 120.043L225.139 121.036ZM229.067 121.486L228.954 122.479L228.954 122.479L229.067 121.486ZM229.136 121.494L229.03 122.488L229.65 122.554L229.982 122.027L229.136 121.494ZM234.854 107.196L235.834 107.393L235.957 106.782L235.462 106.403L234.854 107.196ZM234.799 107.154L234.196 107.952L234.196 107.952L234.799 107.154ZM231.644 104.771L231.041 105.569L231.041 105.569L231.644 104.771ZM231.489 92.1246L232.111 92.9075L231.489 92.1246ZM234.585 89.6647L235.207 90.4476L235.207 90.4476L234.585 89.6647ZM234.641 89.6194L235.269 90.3974L235.754 90.0059L235.616 89.3983L234.641 89.6194ZM228.576 75.4683L229.408 74.9144L229.063 74.3957L228.445 74.4768L228.576 75.4683ZM228.503 75.478L228.641 76.4685L228.641 76.4685L228.503 75.478ZM224.587 76.0236L224.449 75.0332L224.587 76.0236ZM215.535 67.1908L216.529 67.3045L215.535 67.1908ZM215.985 63.2626L214.991 63.1488L214.991 63.1489L215.985 63.2626ZM215.992 63.1933L216.987 63.2994L217.053 62.6799L216.526 62.3475L215.992 63.1933ZM201.696 57.4748L201.893 56.4944L201.282 56.3717L200.903 56.866L201.696 57.4748ZM201.653 57.531L200.855 56.9282L200.855 56.9283L201.653 57.531ZM199.27 60.6859L200.068 61.2887L199.27 60.6859ZM186.623 60.841L185.841 61.4631L186.623 60.841ZM184.164 57.7454L183.381 58.3676L183.381 58.3676L184.164 57.7454ZM184.116 57.6863L184.894 57.0577L184.502 56.5734L183.895 56.711L184.116 57.6863ZM170.967 63.6886C170.964 63.6659 170.961 63.6432 170.958 63.6207L168.975 63.8801C168.979 63.9083 168.983 63.9364 168.986 63.9645L170.967 63.6886ZM171.513 67.6046L170.967 63.6886L168.986 63.9645L169.532 67.8806L171.513 67.6046ZM161.576 77.7882C167.42 78.4569 172.325 73.4309 171.513 67.6046L169.532 67.8806C170.163 72.4122 166.349 76.3213 161.803 75.8012L161.576 77.7882ZM157.648 77.3388L161.576 77.7882L161.803 75.8012L157.875 75.3517L157.648 77.3388ZM157.582 77.3315C157.604 77.3339 157.626 77.3363 157.648 77.3388L157.875 75.3517C157.848 75.3486 157.821 75.3456 157.794 75.3428L157.582 77.3315ZM152.951 90.8286C153.945 85.8781 155.84 81.1414 158.534 76.8707L156.842 75.8036C154.018 80.2805 152.032 85.2453 150.99 90.4348L152.951 90.8286ZM152.633 89.8788C152.615 89.8655 152.597 89.8521 152.58 89.8386L151.362 91.4247C151.383 91.4414 151.405 91.4581 151.427 91.4747L152.633 89.8788ZM155.788 92.2621L152.633 89.8788L151.427 91.4747L154.582 93.8579L155.788 92.2621ZM155.962 106.489C160.567 102.83 160.481 95.8079 155.788 92.2621L154.582 93.8579C158.233 96.6158 158.3 102.077 154.718 104.924L155.962 106.489ZM152.866 108.949L155.962 106.489L154.718 104.924L151.622 107.384L152.866 108.949ZM152.812 108.993C152.83 108.978 152.848 108.964 152.866 108.949L151.622 107.384C151.599 107.402 151.577 107.42 151.554 107.438L152.812 108.993ZM155.492 115.17C154.48 112.811 153.706 110.41 153.158 107.994L151.208 108.437C151.782 110.97 152.594 113.487 153.653 115.958L155.492 115.17ZM159.081 121.81C157.708 119.747 156.503 117.53 155.492 115.17L153.653 115.958C154.713 118.431 155.976 120.754 157.415 122.917L159.081 121.81ZM158.187 121.363C158.164 121.366 158.141 121.369 158.118 121.372L158.377 123.355C158.406 123.351 158.435 123.348 158.463 123.344L158.187 121.363ZM162.103 120.817L158.187 121.363L158.463 123.344L162.379 122.798L162.103 120.817ZM172.287 130.754C172.956 124.91 167.93 120.005 162.103 120.817L162.379 122.798C166.911 122.167 170.82 125.981 170.3 130.527L172.287 130.754ZM171.838 134.682L172.287 130.754L170.3 130.527L169.851 134.455L171.838 134.682ZM171.83 134.747C171.833 134.726 171.835 134.704 171.838 134.682L169.851 134.455C169.847 134.482 169.845 134.509 169.842 134.536L171.83 134.747ZM185.328 139.377C180.378 138.384 175.641 136.489 171.369 133.796L170.303 135.487C174.78 138.311 179.745 140.297 184.935 141.338L185.328 139.377ZM184.378 139.697C184.365 139.715 184.352 139.732 184.339 139.749L185.925 140.967C185.941 140.946 185.957 140.924 185.974 140.903L184.378 139.697ZM186.761 136.543L184.378 139.697L185.974 140.903L188.357 137.748L186.761 136.543ZM200.988 136.368C197.329 131.763 190.307 131.849 186.761 136.543L188.357 137.748C191.115 134.097 196.576 134.03 199.423 137.612L200.988 136.368ZM203.448 139.464L200.988 136.368L199.423 137.612L201.882 140.708L203.448 139.464ZM203.49 139.516C203.476 139.499 203.462 139.481 203.448 139.464L201.882 140.708C201.9 140.73 201.917 140.751 201.935 140.773L203.49 139.516ZM209.666 136.836C207.307 137.847 204.906 138.621 202.491 139.169L202.933 141.12C205.467 140.545 207.983 139.734 210.454 138.674L209.666 136.836ZM216.308 133.246C214.245 134.618 212.027 135.824 209.666 136.836L210.454 138.674C212.927 137.614 215.252 136.35 217.416 134.911L216.308 133.246ZM215.862 134.143C215.865 134.165 215.868 134.186 215.87 134.208L217.853 133.948C217.85 133.921 217.846 133.894 217.842 133.867L215.862 134.143ZM215.316 130.227L215.862 134.143L217.842 133.867L217.297 129.951L215.316 130.227ZM225.253 120.043C219.408 119.374 214.504 124.4 215.316 130.227L217.297 129.951C216.665 125.419 220.48 121.51 225.026 122.03L225.253 120.043ZM229.181 120.492L225.253 120.043L225.026 122.03L228.954 122.479L229.181 120.492ZM229.242 120.499C229.222 120.497 229.202 120.495 229.181 120.492L228.954 122.479C228.979 122.482 229.005 122.485 229.03 122.488L229.242 120.499ZM233.873 106.999C232.879 111.951 230.985 116.688 228.29 120.96L229.982 122.027C232.806 117.549 234.792 112.583 235.834 107.393L233.873 106.999ZM234.196 107.952C234.213 107.965 234.229 107.977 234.245 107.989L235.462 106.403C235.442 106.387 235.422 106.372 235.402 106.356L234.196 107.952ZM231.041 105.569L234.196 107.952L235.402 106.357L232.247 103.973L231.041 105.569ZM230.867 91.3417C226.261 95.0015 226.348 102.023 231.041 105.569L232.247 103.973C228.596 101.215 228.529 95.754 232.111 92.9075L230.867 91.3417ZM233.962 88.8818L230.867 91.3417L232.111 92.9075L235.207 90.4476L233.962 88.8818ZM234.013 88.8414C233.996 88.8549 233.979 88.8684 233.962 88.8819L235.207 90.4476C235.228 90.4309 235.249 90.4142 235.269 90.3974L234.013 88.8414ZM231.332 82.6615C232.344 85.022 233.118 87.4238 233.666 89.8404L235.616 89.3983C235.042 86.8638 234.23 84.3462 233.17 81.8735L231.332 82.6615ZM227.743 76.0221C229.115 78.0848 230.32 80.3014 231.332 82.6615L233.17 81.8735C232.11 79.4013 230.847 77.0778 229.408 74.9144L227.743 76.0221ZM228.641 76.4685C228.663 76.4655 228.684 76.4626 228.706 76.4597L228.445 74.4768C228.419 74.4803 228.392 74.4839 228.365 74.4876L228.641 76.4685ZM224.725 77.0141L228.641 76.4685L228.365 74.4876L224.449 75.0332L224.725 77.0141ZM214.542 67.0771C213.873 72.9216 218.899 77.8259 224.725 77.0141L224.449 75.0332C219.918 75.6646 216.009 71.8501 216.529 67.3045L214.542 67.0771ZM214.991 63.1489L214.542 67.0771L216.529 67.3045L216.978 63.3762L214.991 63.1489ZM214.998 63.0872C214.996 63.1077 214.994 63.1282 214.991 63.1488L216.978 63.3763C216.981 63.3506 216.984 63.325 216.987 63.2994L214.998 63.0872ZM201.499 58.4553C206.45 59.4496 211.188 61.3445 215.459 64.039L216.526 62.3475C212.049 59.5229 207.083 57.5368 201.893 56.4944L201.499 58.4553ZM202.451 58.1338C202.464 58.1171 202.477 58.1003 202.489 58.0837L200.903 56.866C200.887 56.8866 200.871 56.9074 200.855 56.9282L202.451 58.1338ZM200.068 61.2887L202.451 58.1338L200.855 56.9283L198.472 60.0831L200.068 61.2887ZM185.841 61.4631C189.5 66.0686 196.522 65.9825 200.068 61.2887L198.472 60.0831C195.714 63.7339 190.253 63.8009 187.406 60.2188L185.841 61.4631ZM183.381 58.3676L185.841 61.4631L187.406 60.2188L184.946 57.1233L183.381 58.3676ZM183.338 58.3149C183.353 58.3323 183.367 58.3499 183.381 58.3676L184.946 57.1233C184.929 57.1014 184.911 57.0795 184.894 57.0577L183.338 58.3149ZM177.157 60.9957C179.518 59.9838 181.92 59.2094 184.337 58.6616L183.895 56.711C181.36 57.2856 178.842 58.0974 176.369 59.1575L177.157 60.9957ZM170.52 64.5831C172.582 63.2117 174.798 62.007 177.157 60.9957L176.369 59.1575C173.898 60.2168 171.575 61.4794 169.413 62.9177L170.52 64.5831Z" fill="#344E5D" mask="url(#path-4-inside-2_5051_52496)"/>
</g>
<path d="M256.534 124.103C258.394 124.604 259.195 126.026 258.829 128.308" stroke="#3C5460" stroke-width="2" stroke-linecap="round"/>
<path d="M360.064 119.606C357.619 118.143 356.668 116.368 356.048 113.873" stroke="#3C5460" stroke-width="2" stroke-linecap="round"/>
<path d="M185.804 143.618C184.921 143.618 183.523 143.618 183.744 145.122" stroke="#3C5460" stroke-width="2" stroke-linecap="round"/>
<path d="M318.195 149.04C318.195 147.158 318.648 146.507 320.329 145.449" stroke="#3C5460" stroke-width="2" stroke-linecap="round"/>
<defs>
<filter id="filter0_d_5051_52496" x="203.325" y="114.38" width="115.872" height="114.872" filterUnits="userSpaceOnUse" color-interpolation-filters="sRGB">
<feFlood flood-opacity="0" result="BackgroundImageFix"/>
<feColorMatrix in="SourceAlpha" type="matrix" values="0 0 0 0 0 0 0 0 0 0 0 0 0 0 0 0 0 0 127 0" result="hardAlpha"/>
<feOffset dx="4" dy="-3"/>
<feComposite in2="hardAlpha" operator="out"/>
<feColorMatrix type="matrix" values="0 0 0 0 0 0 0 0 0 0 0 0 0 0 0 0 0 0 0.15 0"/>
<feBlend mode="normal" in2="BackgroundImageFix" result="effect1_dropShadow_5051_52496"/>
<feBlend mode="normal" in="SourceGraphic" in2="effect1_dropShadow_5051_52496" result="shape"/>
</filter>
<filter id="filter1_d_5051_52496" x="151.971" y="54.4746" width="86.8828" height="85.8833" filterUnits="userSpaceOnUse" color-interpolation-filters="sRGB">
<feFlood flood-opacity="0" result="BackgroundImageFix"/>
<feColorMatrix in="SourceAlpha" type="matrix" values="0 0 0 0 0 0 0 0 0 0 0 0 0 0 0 0 0 0 127 0" result="hardAlpha"/>
<feOffset dx="4" dy="-3"/>
<feComposite in2="hardAlpha" operator="out"/>
<feColorMatrix type="matrix" values="0 0 0 0 0 0 0 0 0 0 0 0 0 0 0 0 0 0 0.15 0"/>
<feBlend mode="normal" in2="BackgroundImageFix" result="effect1_dropShadow_5051_52496"/>
<feBlend mode="normal" in="SourceGraphic" in2="effect1_dropShadow_5051_52496" result="shape"/>
</filter>
</defs>
</svg>
