<svg width="338" height="289" viewBox="0 0 338 289" fill="none" xmlns="http://www.w3.org/2000/svg">
<circle cx="201.437" cy="157.159" r="131.402" fill="#FFE8CC"/>
<g filter="url(#filter0_d_231_144)">
<mask id="path-2-inside-1_231_144" fill="white">
<path fill-rule="evenodd" clip-rule="evenodd" d="M77.9946 41.6822L70.5606 40.8316C67.1372 46.2587 64.7298 52.2778 63.4664 58.5688L69.4373 63.0794C73.6096 66.2312 73.6862 72.4728 69.5924 75.726L63.7297 80.3848C64.4259 83.4555 65.4097 86.5065 66.6947 89.5041C67.9797 92.5019 69.5111 95.3185 71.255 97.9403L78.6716 96.907C83.8505 96.1854 88.3181 100.545 87.7237 105.74L86.8731 113.174C92.3006 116.597 98.3199 119.004 104.611 120.267L109.121 114.297C112.273 110.125 118.514 110.048 121.768 114.142L126.424 120.002C129.494 119.306 132.545 118.322 135.542 117.038C138.541 115.752 141.359 114.22 143.981 112.475L142.949 105.063C142.227 99.8839 146.586 95.4163 151.781 96.0107L159.211 96.8608C162.635 91.4328 165.042 85.4127 166.305 79.1206L160.339 74.6135C156.166 71.4617 156.09 65.2201 160.184 61.9669L166.041 57.3122C165.345 54.2407 164.361 51.1889 163.076 48.1905C161.79 45.1923 160.259 42.3755 158.515 39.7534L151.104 40.7859C145.925 41.5075 141.458 37.1481 142.052 31.9531L142.902 24.5237C137.475 21.0996 131.455 18.6918 125.163 17.4284L120.655 23.3958C117.503 27.5681 111.262 27.6446 108.008 23.5509L103.352 17.6909C100.28 18.3871 97.2273 19.3713 94.2283 20.6568C91.2314 21.9414 88.4155 23.4723 85.7944 25.2156L86.8275 32.6301C87.549 37.809 83.1897 42.2766 77.9946 41.6822ZM127.804 98.9796C144.445 91.8461 152.153 72.5725 145.02 55.9308C137.886 39.2891 118.613 31.5811 101.971 38.7146C85.3294 45.848 77.6215 65.1216 84.7549 81.7633C91.8884 98.4051 111.162 106.113 127.804 98.9796Z"/>
</mask>
<path fill-rule="evenodd" clip-rule="evenodd" d="M77.9946 41.6822L70.5606 40.8316C67.1372 46.2587 64.7298 52.2778 63.4664 58.5688L69.4373 63.0794C73.6096 66.2312 73.6862 72.4728 69.5924 75.726L63.7297 80.3848C64.4259 83.4555 65.4097 86.5065 66.6947 89.5041C67.9797 92.5019 69.5111 95.3185 71.255 97.9403L78.6716 96.907C83.8505 96.1854 88.3181 100.545 87.7237 105.74L86.8731 113.174C92.3006 116.597 98.3199 119.004 104.611 120.267L109.121 114.297C112.273 110.125 118.514 110.048 121.768 114.142L126.424 120.002C129.494 119.306 132.545 118.322 135.542 117.038C138.541 115.752 141.359 114.22 143.981 112.475L142.949 105.063C142.227 99.8839 146.586 95.4163 151.781 96.0107L159.211 96.8608C162.635 91.4328 165.042 85.4127 166.305 79.1206L160.339 74.6135C156.166 71.4617 156.09 65.2201 160.184 61.9669L166.041 57.3122C165.345 54.2407 164.361 51.1889 163.076 48.1905C161.79 45.1923 160.259 42.3755 158.515 39.7534L151.104 40.7859C145.925 41.5075 141.458 37.1481 142.052 31.9531L142.902 24.5237C137.475 21.0996 131.455 18.6918 125.163 17.4284L120.655 23.3958C117.503 27.5681 111.262 27.6446 108.008 23.5509L103.352 17.6909C100.28 18.3871 97.2273 19.3713 94.2283 20.6568C91.2314 21.9414 88.4155 23.4723 85.7944 25.2156L86.8275 32.6301C87.549 37.809 83.1897 42.2766 77.9946 41.6822ZM127.804 98.9796C144.445 91.8461 152.153 72.5725 145.02 55.9308C137.886 39.2891 118.613 31.5811 101.971 38.7146C85.3294 45.848 77.6215 65.1216 84.7549 81.7633C91.8884 98.4051 111.162 106.113 127.804 98.9796Z" fill="#DCEEF8"/>
<path d="M70.5606 40.8316L70.6743 39.8381L70.0501 39.7667L69.7149 40.2981L70.5606 40.8316ZM77.9946 41.6822L78.1083 40.6887L78.1083 40.6887L77.9946 41.6822ZM63.4664 58.5688L62.4859 58.3719L62.3622 58.988L62.8636 59.3667L63.4664 58.5688ZM69.4373 63.0794L68.8346 63.8773L68.8346 63.8773L69.4373 63.0794ZM69.5924 75.726L70.2145 76.5089L70.2145 76.5089L69.5924 75.726ZM63.7297 80.3848L63.1075 79.6019L62.6154 79.993L62.7544 80.606L63.7297 80.3848ZM71.255 97.9403L70.4224 98.4942L70.7705 99.0175L71.393 98.9308L71.255 97.9403ZM78.6716 96.907L78.8096 97.8974L78.8096 97.8974L78.6716 96.907ZM87.7237 105.74L88.7172 105.854L88.7172 105.854L87.7237 105.74ZM86.8731 113.174L85.8796 113.06L85.8082 113.685L86.3397 114.02L86.8731 113.174ZM104.611 120.267L104.414 121.247L105.03 121.371L105.409 120.87L104.611 120.267ZM109.121 114.297L108.323 113.694L108.323 113.694L109.121 114.297ZM121.768 114.142L120.985 114.764L120.985 114.764L121.768 114.142ZM126.424 120.002L125.642 120.624L126.033 121.117L126.646 120.978L126.424 120.002ZM143.981 112.475L144.535 113.308L145.058 112.96L144.972 112.337L143.981 112.475ZM142.949 105.063L141.958 105.201L141.958 105.201L142.949 105.063ZM151.781 96.0107L151.668 97.0043L151.668 97.0043L151.781 96.0107ZM159.211 96.8608L159.097 97.8543L159.722 97.9258L160.057 97.3943L159.211 96.8608ZM166.305 79.1206L167.285 79.3174L167.409 78.7014L166.908 78.3227L166.305 79.1206ZM160.339 74.6135L160.941 73.8156L160.941 73.8156L160.339 74.6135ZM160.184 61.9669L159.561 61.184L159.561 61.184L160.184 61.9669ZM166.041 57.3122L166.663 58.0951L167.155 57.704L167.016 57.0911L166.041 57.3122ZM158.515 39.7534L159.347 39.1996L158.999 38.6763L158.377 38.763L158.515 39.7534ZM151.104 40.7859L151.242 41.7764L151.242 41.7764L151.104 40.7859ZM142.052 31.9531L143.046 32.0667L143.046 32.0667L142.052 31.9531ZM142.902 24.5237L143.896 24.6374L143.967 24.0132L143.436 23.678L142.902 24.5237ZM125.163 17.4284L125.36 16.4479L124.744 16.3242L124.365 16.8256L125.163 17.4284ZM120.655 23.3958L119.857 22.7931L119.857 22.7931L120.655 23.3958ZM108.008 23.5509L107.226 24.173L107.226 24.173L108.008 23.5509ZM103.352 17.6909L104.135 17.0687L103.744 16.5767L103.131 16.7156L103.352 17.6909ZM85.7944 25.2156L85.2406 24.3829L84.7172 24.731L84.804 25.3536L85.7944 25.2156ZM86.8275 32.6301L87.8179 32.4921L87.8179 32.4921L86.8275 32.6301ZM70.447 41.8251L77.8809 42.6757L78.1083 40.6887L70.6743 39.8381L70.447 41.8251ZM64.4468 58.7657C65.6862 52.5941 68.048 46.6892 71.4064 41.3651L69.7149 40.2981C66.2264 45.8283 63.7733 51.9614 62.4859 58.3719L64.4468 58.7657ZM70.0401 62.2815L64.0691 57.7709L62.8636 59.3667L68.8346 63.8773L70.0401 62.2815ZM70.2145 76.5089C74.82 72.8491 74.7339 65.8273 70.0401 62.2815L68.8346 63.8773C72.4853 66.6352 72.5523 72.0966 68.9702 74.9431L70.2145 76.5089ZM64.3518 81.1677L70.2145 76.5089L68.9702 74.9431L63.1075 79.6019L64.3518 81.1677ZM67.6138 89.1101C66.3529 86.1686 65.3878 83.1754 64.7049 80.1637L62.7544 80.606C63.464 83.7355 64.4666 86.8444 65.7755 89.8981L67.6138 89.1101ZM72.0876 97.3865C70.3771 94.815 68.8748 92.0519 67.6138 89.1101L65.7755 89.8981C67.0846 92.952 68.645 95.8221 70.4224 98.4942L72.0876 97.3865ZM78.5336 95.9166L71.117 96.9499L71.393 98.9308L78.8096 97.8974L78.5336 95.9166ZM88.7172 105.854C89.3859 100.009 84.3599 95.1048 78.5336 95.9166L78.8096 97.8974C83.3412 97.266 87.2503 101.08 86.7302 105.626L88.7172 105.854ZM87.8666 113.288L88.7172 105.854L86.7302 105.626L85.8796 113.06L87.8666 113.288ZM104.808 119.287C98.6362 118.048 92.731 115.686 87.4066 112.328L86.3397 114.02C91.8702 117.508 98.0036 119.961 104.414 121.247L104.808 119.287ZM108.323 113.694L103.813 119.664L105.409 120.87L109.919 114.9L108.323 113.694ZM122.55 113.52C118.891 108.914 111.869 109.001 108.323 113.694L109.919 114.9C112.677 111.249 118.138 111.182 120.985 114.764L122.55 113.52ZM127.207 119.38L122.55 113.52L120.985 114.764L125.642 120.624L127.207 119.38ZM135.148 116.119C132.207 117.379 129.214 118.344 126.203 119.027L126.646 120.978C129.775 120.268 132.883 119.266 135.936 117.957L135.148 116.119ZM143.427 111.643C140.855 113.354 138.091 114.857 135.148 116.119L135.936 117.957C138.991 116.647 141.862 115.086 144.535 113.308L143.427 111.643ZM141.958 105.201L142.991 112.613L144.972 112.337L143.939 104.925L141.958 105.201ZM151.895 95.0172C146.051 94.3485 141.146 99.3745 141.958 105.201L143.939 104.925C143.308 100.393 147.122 96.4841 151.668 97.0043L151.895 95.0172ZM159.325 95.8673L151.895 95.0172L151.668 97.0043L159.097 97.8543L159.325 95.8673ZM165.325 78.9238C164.086 85.0964 161.724 91.0024 158.365 96.3273L160.057 97.3943C163.546 91.8632 165.998 85.729 167.285 79.3174L165.325 78.9238ZM159.736 75.4115L165.702 79.9185L166.908 78.3227L160.941 73.8156L159.736 75.4115ZM159.561 61.184C154.956 64.8438 155.042 71.8657 159.736 75.4115L160.941 73.8156C157.291 71.0578 157.224 65.5963 160.806 62.7498L159.561 61.184ZM165.419 56.5293L159.561 61.184L160.806 62.7498L166.663 58.0951L165.419 56.5293ZM162.157 48.5844C163.418 51.5268 164.383 54.5207 165.066 57.5332L167.016 57.0911C166.307 53.9607 165.304 50.851 163.995 47.7965L162.157 48.5844ZM157.682 40.3073C159.393 42.879 160.895 45.6424 162.157 48.5844L163.995 47.7965C162.686 44.7423 161.125 41.8719 159.347 39.1996L157.682 40.3073ZM151.242 41.7764L158.653 40.7439L158.377 38.763L150.966 39.7955L151.242 41.7764ZM141.059 31.8394C140.39 37.6838 145.416 42.5881 151.242 41.7764L150.966 39.7955C146.435 40.4269 142.526 36.6124 143.046 32.0667L141.059 31.8394ZM141.909 24.4101L141.059 31.8394L143.046 32.0667L143.896 24.6374L141.909 24.4101ZM124.966 18.4088C131.138 19.6483 137.044 22.0104 142.369 25.3695L143.436 23.678C137.905 20.1888 131.771 17.7354 125.36 16.4479L124.966 18.4088ZM121.453 23.9986L125.961 18.0311L124.365 16.8256L119.857 22.7931L121.453 23.9986ZM107.226 24.173C110.885 28.7785 117.907 28.6924 121.453 23.9986L119.857 22.7931C117.099 26.4438 111.638 26.5108 108.791 22.9287L107.226 24.173ZM102.569 18.313L107.226 24.173L108.791 22.9287L104.135 17.0687L102.569 18.313ZM94.6223 21.5759C97.5652 20.3144 100.56 19.349 103.573 18.6661L103.131 16.7156C99.9997 17.4252 96.8894 18.4281 93.8343 19.7377L94.6223 21.5759ZM86.3482 26.0482C88.919 24.3384 91.6814 22.8365 94.6223 21.5759L93.8343 19.7377C90.7813 21.0463 87.9121 22.6062 85.2406 24.3829L86.3482 26.0482ZM87.8179 32.4921L86.7848 25.0776L84.804 25.3536L85.837 32.7681L87.8179 32.4921ZM77.8809 42.6757C83.7254 43.3444 88.6297 38.3184 87.8179 32.4921L85.837 32.7681C86.4684 37.2996 82.654 41.2088 78.1083 40.6887L77.8809 42.6757ZM144.101 56.3248C151.017 72.4589 143.544 91.1446 127.41 98.0604L128.198 99.8987C145.347 92.5476 153.29 72.6861 145.939 55.5368L144.101 56.3248ZM102.365 39.6337C118.499 32.7178 137.185 40.1907 144.101 56.3248L145.939 55.5368C138.588 38.3875 118.726 30.4444 101.577 37.7954L102.365 39.6337ZM85.674 81.3694C78.7582 65.2353 86.231 46.5496 102.365 39.6337L101.577 37.7954C84.4278 45.1465 76.4847 65.008 83.8358 82.1573L85.674 81.3694ZM127.41 98.0604C111.276 104.976 92.5899 97.5035 85.674 81.3694L83.8358 82.1573C91.1868 99.3067 111.048 107.25 128.198 99.8987L127.41 98.0604Z" fill="#344E5D" mask="url(#path-2-inside-1_231_144)"/>
</g>
<path d="M90.9314 82.1334C89.0712 81.6323 88.2711 80.2097 88.637 77.9279" stroke="#3C5460" stroke-width="2" stroke-linecap="round"/>
<path d="M332.448 80.7946C334.893 79.3316 335.844 77.5556 336.465 75.061" stroke="#3C5460" stroke-width="2" stroke-linecap="round"/>
<path d="M1.46753 75.9938C3.91321 77.4567 4.86362 79.2327 5.48439 81.7274" stroke="#3C5460" stroke-width="2" stroke-linecap="round"/>
<path d="M60.323 117.413C60.2142 118.289 60.0411 119.676 58.5767 119.271" stroke="#3C5460" stroke-width="2" stroke-linecap="round"/>
<defs>
<filter id="filter0_d_231_144" x="63.4663" y="14.4283" width="106.839" height="105.839" filterUnits="userSpaceOnUse" color-interpolation-filters="sRGB">
<feFlood flood-opacity="0" result="BackgroundImageFix"/>
<feColorMatrix in="SourceAlpha" type="matrix" values="0 0 0 0 0 0 0 0 0 0 0 0 0 0 0 0 0 0 127 0" result="hardAlpha"/>
<feOffset dx="4" dy="-3"/>
<feComposite in2="hardAlpha" operator="out"/>
<feColorMatrix type="matrix" values="0 0 0 0 0 0 0 0 0 0 0 0 0 0 0 0 0 0 0.15 0"/>
<feBlend mode="normal" in2="BackgroundImageFix" result="effect1_dropShadow_231_144"/>
<feBlend mode="normal" in="SourceGraphic" in2="effect1_dropShadow_231_144" result="shape"/>
</filter>
</defs>
</svg>
