<svg width="104" height="56" viewBox="0 0 104 56" fill="none" xmlns="http://www.w3.org/2000/svg">
<path d="M5.88867 8.5282H5.38867V9.0282V17.4085V17.9085H5.88867H17.4054L16.778 19.1556L17.5857 19.7262L27.5048 9.37412L28.3153 8.5282H27.1437H5.88867Z" fill="#DCEEF8" stroke="#344E5D"/>
<path d="M21.8249 33.6102L21.6316 33.8101L21.6994 34.0797C21.8289 34.5944 21.8969 35.1827 21.967 35.8771C21.9283 37.1073 21.5353 38.1734 20.8707 38.9261C20.2075 39.6773 19.2478 40.1479 18.0041 40.1479C17.3598 40.1479 16.7715 40.02 16.2117 39.881L15.9315 39.8113L15.7311 40.0192L9.28377 46.7094L8.88182 47.1265L9.35315 47.4632C11.7211 49.1549 14.804 50.0211 18.1458 50.0211C27.7415 50.0211 32.8159 42.7856 32.8159 35.7887C32.8159 32.3345 31.9478 28.8806 29.5615 26.3604L29.2022 25.981L28.839 26.3567L21.8249 33.6102Z" fill="#DCEEF8" stroke="#344E5D"/>
<path fill-rule="evenodd" clip-rule="evenodd" d="M25.5143 22.5492L32.8118 9.0985V7.61963H28.5608L18.6418 17.9717L13.6823 27.7605V29.0985C17.7208 28.676 22.3969 28.4647 23.6013 32.6196L30.5446 25.3661C29.3402 24.0985 27.7106 23.1126 25.5143 22.5492ZM14.8867 35.2957H5.74707C5.88877 39.8731 7.87258 43.4647 10.99 45.6478L17.4374 38.9577C15.8786 38.4647 14.8867 37.1971 14.8867 35.2957Z" fill="#344E5D"/>
<path d="M1 36.2817C3.33806 33.6761 5.74696 31.1408 8.15587 28.6056L9.00607 27.6197L9.92712 26.7042L11.6984 24.8028L15.3117 21L18.996 17.1972L20.8381 15.2958L21.7591 14.3803L22.6093 13.4648C25.0891 10.9296 27.5688 8.46479 30.0486 6C27.7105 8.60563 25.3016 11.1408 22.8927 13.6761L22.0425 14.662L21.1215 15.5775L19.2794 17.5493L15.666 21.2817L12.0526 25.0845L10.2105 26.9859L9.28947 27.9014L8.36842 28.8873C5.95951 31.3521 3.47976 33.8169 1 36.2817Z" fill="#85E9FF"/>
<path d="M1 56C3.83401 52.9718 6.66802 49.8732 9.57287 46.8451L10.6356 45.7183L11.6984 44.5916L13.8239 42.338L18.1457 37.831L22.5385 33.3239L24.664 31.0704L25.7976 29.9437L26.8603 28.8873C29.7652 25.8592 32.67 22.9014 35.6457 19.9437C32.8117 23.0423 29.9777 26.0704 27.1437 29.0986L26.0101 30.2254L24.9474 31.3521L22.8219 33.6056L18.5 38.1127L14.1781 42.6197L11.9818 44.8732L10.8482 46L9.78542 47.1268C6.88057 50.0845 3.97571 53.0423 1 56Z" fill="#85E9FF"/>
<path fill-rule="evenodd" clip-rule="evenodd" d="M59.2391 19.8734V29.803L68.8747 19.803V19.6622C68.8747 14.0283 65.9699 9.94384 61.648 7.76074L54.6338 15.0847C57.2553 15.296 59.2391 16.9157 59.2391 19.8734ZM48.8241 33.3241V21.141L39.1885 31.2114V33.5354C39.1885 38.5354 41.4557 42.3382 44.9982 44.5917L51.6581 37.6199C49.9577 36.9861 48.8241 35.5776 48.8241 33.3241Z" fill="#344E5D"/>
<path d="M53.2872 16.9225H53.4992L53.6466 16.7701L60.6608 9.5166L61.1358 9.02538L60.5239 8.72127C58.1805 7.55665 55.5525 6.97888 52.7204 6.97888C48.5131 6.97888 44.6543 8.2587 41.8389 10.6639C39.0153 13.0761 37.271 16.5965 37.271 21V32.6197V33.8652L38.1322 32.9655L47.8387 22.8246L47.9775 22.6796V22.4789V21.2817C47.9775 19.7825 48.4809 18.7145 49.2848 18.0144C50.099 17.3053 51.2804 16.9225 52.7204 16.9225H52.7212H52.7221H52.7229H52.7237H52.7246H52.7254H52.7262H52.7271H52.7279H52.7288H52.7296H52.7305H52.7313H52.7322H52.733H52.7339H52.7347H52.7356H52.7365H52.7373H52.7382H52.739H52.7399H52.7408H52.7416H52.7425H52.7434H52.7443H52.7451H52.746H52.7469H52.7478H52.7487H52.7495H52.7504H52.7513H52.7522H52.7531H52.754H52.7549H52.7558H52.7567H52.7575H52.7584H52.7593H52.7602H52.7611H52.7621H52.763H52.7639H52.7648H52.7657H52.7666H52.7675H52.7684H52.7693H52.7703H52.7712H52.7721H52.773H52.7739H52.7749H52.7758H52.7767H52.7776H52.7786H52.7795H52.7804H52.7814H52.7823H52.7832H52.7842H52.7851H52.7861H52.787H52.7879H52.7889H52.7898H52.7908H52.7917H52.7927H52.7936H52.7946H52.7955H52.7965H52.7975H52.7984H52.7994H52.8003H52.8013H52.8023H52.8032H52.8042H52.8052H52.8061H52.8071H52.8081H52.809H52.81H52.811H52.812H52.813H52.8139H52.8149H52.8159H52.8169H52.8179H52.8189H52.8198H52.8208H52.8218H52.8228H52.8238H52.8248H52.8258H52.8268H52.8278H52.8288H52.8298H52.8308H52.8318H52.8328H52.8338H52.8348H52.8358H52.8368H52.8378H52.8388H52.8399H52.8409H52.8419H52.8429H52.8439H52.8449H52.846H52.847H52.848H52.849H52.85H52.8511H52.8521H52.8531H52.8542H52.8552H52.8562H52.8572H52.8583H52.8593H52.8604H52.8614H52.8624H52.8635H52.8645H52.8656H52.8666H52.8676H52.8687H52.8697H52.8708H52.8718H52.8729H52.8739H52.875H52.876H52.8771H52.8781H52.8792H52.8803H52.8813H52.8824H52.8834H52.8845H52.8856H52.8866H52.8877H52.8888H52.8898H52.8909H52.892H52.893H52.8941H52.8952H52.8962H52.8973H52.8984H52.8995H52.9006H52.9016H52.9027H52.9038H52.9049H52.906H52.907H52.9081H52.9092H52.9103H52.9114H52.9125H52.9136H52.9147H52.9157H52.9168H52.9179H52.919H52.9201H52.9212H52.9223H52.9234H52.9245H52.9256H52.9267H52.9278H52.9289H52.93H52.9311H52.9322H52.9333H52.9345H52.9356H52.9367H52.9378H52.9389H52.94H52.9411H52.9422H52.9434H52.9445H52.9456H52.9467H52.9478H52.9489H52.9501H52.9512H52.9523H52.9534H52.9546H52.9557H52.9568H52.9579H52.9591H52.9602H52.9613H52.9624H52.9636H52.9647H52.9658H52.967H52.9681H52.9692H52.9704H52.9715H52.9727H52.9738H52.9749H52.9761H52.9772H52.9784H52.9795H52.9806H52.9818H52.9829H52.9841H52.9852H52.9864H52.9875H52.9887H52.9898H52.991H52.9921H52.9933H52.9944H52.9956H52.9967H52.9979H52.9991H53.0002H53.0014H53.0025H53.0037H53.0048H53.006H53.0072H53.0083H53.0095H53.0107H53.0118H53.013H53.0141H53.0153H53.0165H53.0177H53.0188H53.02H53.0212H53.0223H53.0235H53.0247H53.0258H53.027H53.0282H53.0294H53.0305H53.0317H53.0329H53.0341H53.0352H53.0364H53.0376H53.0388H53.04H53.0411H53.0423H53.0435H53.0447H53.0459H53.0471H53.0482H53.0494H53.0506H53.0518H53.053H53.0542H53.0554H53.0566H53.0577H53.0589H53.0601H53.0613H53.0625H53.0637H53.0649H53.0661H53.0673H53.0685H53.0697H53.0709H53.0721H53.0733H53.0745H53.0757H53.0769H53.0781H53.0793H53.0805H53.0817H53.0829H53.0841H53.0853H53.0865H53.0877H53.0889H53.0901H53.0913H53.0925H53.0937H53.0949H53.0961H53.0973H53.0985H53.0997H53.1009H53.1022H53.1034H53.1046H53.1058H53.107H53.1082H53.1094H53.1106H53.1119H53.1131H53.1143H53.1155H53.1167H53.1179H53.1191H53.1204H53.1216H53.1228H53.124H53.1252H53.1264H53.1277H53.1289H53.1301H53.1313H53.1325H53.1338H53.135H53.1362H53.1374H53.1387H53.1399H53.1411H53.1423H53.1435H53.1448H53.146H53.1472H53.1484H53.1497H53.1509H53.1521H53.1533H53.1546H53.1558H53.157H53.1583H53.1595H53.1607H53.1619H53.1632H53.1644H53.1656H53.1669H53.1681H53.1693H53.1706H53.1718H53.173H53.1743H53.1755H53.1767H53.178H53.1792H53.1804H53.1817H53.1829H53.1841H53.1854H53.1866H53.1878H53.1891H53.1903H53.1915H53.1928H53.194H53.1952H53.1965H53.1977H53.199H53.2002H53.2014H53.2027H53.2039H53.2051H53.2064H53.2076H53.2089H53.2101H53.2113H53.2126H53.2138H53.2151H53.2163H53.2175H53.2188H53.22H53.2213H53.2225H53.2237H53.225H53.2262H53.2275H53.2287H53.23H53.2312H53.2324H53.2337H53.2349H53.2362H53.2374H53.2386H53.2399H53.2411H53.2424H53.2436H53.2449H53.2461H53.2474H53.2486H53.2498H53.2511H53.2523H53.2536H53.2548H53.2561H53.2573H53.2586H53.2598H53.261H53.2623H53.2635H53.2648H53.266H53.2673H53.2685H53.2698H53.271H53.2722H53.2735H53.2747H53.276H53.2772H53.2785H53.2797H53.281H53.2822H53.2835H53.2847H53.2859H53.2872Z" fill="#DCEEF8" stroke="#344E5D"/>
<path d="M57.4623 30.7939L57.3224 30.9392V31.1409V34.7324C57.3224 36.1496 56.8092 37.1857 56.0085 37.8745C55.1978 38.5718 54.0473 38.9507 52.7212 38.9507C51.8533 38.9507 51.138 38.8184 50.497 38.5636L50.1854 38.4397L49.9525 38.681L43.2926 45.5824L42.8726 46.0175L43.3789 46.3482C45.9476 48.026 49.1619 48.9648 52.7212 48.9648C56.8944 48.9648 60.7018 47.6841 63.4736 45.2678C66.253 42.8447 67.958 39.307 67.958 34.8733V21.1409V19.9014L67.098 20.7939L57.4623 30.7939Z" fill="#DCEEF8" stroke="#344E5D"/>
<path d="M34.5117 36C36.8498 33.3944 39.2587 30.8592 41.5967 28.3944L42.5178 27.4085L43.368 26.493L45.1392 24.5916L48.7526 20.8592L52.366 17.1268L54.1372 15.2254L55.0583 14.3099L55.9793 13.3944C58.3882 10.9296 60.7971 8.46479 63.2769 6C60.9388 8.53521 58.6008 11.0704 56.2627 13.6056L55.3417 14.5915L54.4206 15.507L52.6494 17.4085L49.1069 21.1408L45.4935 24.8732L43.6514 26.7746L42.8012 27.6901L41.8801 28.6056C39.4712 31.0704 36.9915 33.5352 34.5117 36Z" fill="#85E9FF"/>
<path d="M37.6294 52.1972C40.3217 49.2394 43.0849 46.2817 45.848 43.3944L46.9108 42.2676L47.9027 41.2113L49.9573 39.0282L54.1375 34.662L58.3177 30.3662L60.4432 28.1831L61.5059 27.1268L62.5687 26.0704C65.3318 23.1831 68.1658 20.2958 70.9998 17.4789C68.3075 20.4366 65.5444 23.324 62.7812 26.2817L61.7185 27.338L60.7266 28.4648L58.6011 30.6479L54.4917 34.9437L50.3116 39.3099L48.1861 41.4225L47.1233 42.5493L46.0606 43.6056C43.2974 46.493 40.4634 49.3099 37.6294 52.1972Z" fill="#85E9FF"/>
<path fill-rule="evenodd" clip-rule="evenodd" d="M34.9369 44.662C35.2911 44.662 35.6454 44.7324 35.8579 44.8733L33.3073 47.5493C33.0948 47.2676 33.0239 46.9155 33.0239 46.5634C33.0239 45.5071 33.8741 44.662 34.9369 44.662ZM36.6373 45.5775C36.8498 45.8592 36.9207 46.2113 36.9207 46.5634C36.9207 47.6902 36.0705 48.5352 34.9369 48.5352C34.6535 48.5352 34.2992 48.4648 34.0158 48.324L36.6373 45.5775Z" fill="#344E5D"/>
<path d="M31.9614 48.9578C32.174 48.6761 32.3865 48.4648 32.5991 48.2535C33.0242 47.831 33.4493 47.338 33.8744 46.9155L34.5829 46.2113L35.2205 45.507C35.6456 45.0845 36.0707 44.662 36.4958 44.169C36.7792 43.9578 36.9918 43.7465 37.2043 43.5352C37.2752 43.5352 37.2752 43.5352 37.2043 43.5352C36.9918 43.8169 36.7792 44.0282 36.5667 44.2394C36.1416 44.7324 35.7165 45.1549 35.2914 45.6479L34.6537 46.2817L34.0161 46.9859L33.3076 47.6901C33.095 47.9014 32.8825 48.1127 32.6699 48.324C32.4574 48.5352 32.2448 48.7465 32.0323 49.0282H31.9614C31.9614 48.9578 31.9614 48.9578 31.9614 48.9578ZM32.6699 49.5916C32.9533 49.3803 33.1659 49.0986 33.3076 48.8873C33.8035 48.4648 34.2286 47.9718 34.6537 47.5493L35.2914 46.8451L35.929 46.2113C36.3541 45.7183 36.8501 45.2958 37.2752 44.8028C37.4877 44.5916 37.7003 44.3803 37.9128 44.169H37.9837C37.9837 44.169 37.9837 44.169 37.9837 44.2394C37.7711 44.4507 37.5586 44.662 37.346 44.8732C36.9209 45.3662 36.4958 45.7887 35.9999 46.2817L35.3622 46.9859L34.7246 47.6197L34.0869 48.324C33.8744 48.5352 33.6618 48.7465 33.3784 48.9578C33.1659 49.169 32.9533 49.4507 32.7408 49.662C32.7408 49.662 32.7408 49.662 32.6699 49.662V49.5916Z" fill="#85E9FF"/>
<path d="M31.9614 48.9578C32.174 48.6761 32.3865 48.4648 32.5991 48.2535C33.0242 47.831 33.4493 47.338 33.8744 46.9155L34.5829 46.2113L35.2205 45.507C35.6456 45.0845 36.0707 44.662 36.4958 44.169C36.7792 43.9578 36.9918 43.7465 37.2043 43.5352C37.2752 43.5352 37.2752 43.5352 37.2043 43.5352C36.9918 43.8169 36.7792 44.0282 36.5667 44.2394C36.1416 44.7324 35.7165 45.1549 35.2914 45.6479L34.6537 46.2817L34.0161 46.9859L33.3076 47.6901C33.095 47.9014 32.8825 48.1127 32.6699 48.324C32.4574 48.5352 32.2448 48.7465 32.0323 49.0282H31.9614C31.9614 48.9578 31.9614 48.9578 31.9614 48.9578ZM32.6699 49.5916C32.9533 49.3803 33.1659 49.0986 33.3076 48.8873C33.8035 48.4648 34.2286 47.9718 34.6537 47.5493L35.2914 46.8451L35.929 46.2113C36.3541 45.7183 36.8501 45.2958 37.2752 44.8028C37.4877 44.5916 37.7003 44.3803 37.9128 44.169H37.9837C37.9837 44.169 37.9837 44.169 37.9837 44.2394C37.7711 44.4507 37.5586 44.662 37.346 44.8732C36.9209 45.3662 36.4958 45.7887 35.9999 46.2817L35.3622 46.9859L34.7246 47.6197L34.0869 48.324C33.8744 48.5352 33.6618 48.7465 33.3784 48.9578C33.1659 49.169 32.9533 49.4507 32.7408 49.662C32.7408 49.662 32.7408 49.662 32.6699 49.662V49.5916Z" fill="#85E9FF"/>
<path fill-rule="evenodd" clip-rule="evenodd" d="M93.5436 27.9975L89.2936 32.2574C88.9036 32.6483 88.9019 33.2838 89.29 33.6768L89.317 33.7042C89.7051 34.0972 90.3359 34.0988 90.726 33.7078L95.7058 28.7165C95.9258 28.496 96.0223 28.1977 95.9949 27.909C95.9768 27.6784 95.8799 27.4531 95.7044 27.2772L90.731 22.2923C90.3409 21.9013 89.7101 21.9029 89.3221 22.2959L89.295 22.3233C88.907 22.7163 88.9086 23.3518 89.2987 23.7428L93.5436 27.9975Z" fill="#385362"/>
</svg>
