<svg width="353" height="58" viewBox="0 0 353 58" fill="none" xmlns="http://www.w3.org/2000/svg">
<rect x="1" y="-1" width="20" height="20" rx="10" transform="matrix(-1 0 0 1 353 10.3379)" stroke="white" stroke-width="2"/>
<path fill-rule="evenodd" clip-rule="evenodd" d="M340.826 19.3379L343.721 22.2393C343.992 22.5116 343.993 22.9542 343.723 23.2278C343.453 23.5015 343.014 23.5026 342.742 23.2304L339.358 19.8387C339.195 19.6753 339.129 19.4507 339.161 19.238C339.181 19.0907 339.247 18.9484 339.36 18.8354L342.739 15.4481C343.011 15.1759 343.45 15.177 343.72 15.4507C343.991 15.7243 343.99 16.1669 343.718 16.4392L340.826 19.3379Z" fill="white"/>
<path d="M269.425 27.1975L261.052 24.9858L267.154 18.8403L269.425 27.1975Z" fill="white"/>
<circle cx="2.5" cy="2.5" r="3" transform="matrix(-1 0 0 1 206.622 5.36133)" stroke="white"/>
<circle cx="3" cy="3" r="3" transform="matrix(-1 0 0 1 6 3.13086)" fill="white"/>
<g style="mix-blend-mode:soft-light" opacity="0.7">
<rect x="90.9204" y="39.0776" width="52" height="6" transform="rotate(-30 90.9204 39.0776)" fill="white"/>
</g>
<rect opacity="0.2" x="83.8511" y="26.646" width="17" height="35.2529" transform="rotate(-30 83.8511 26.646)" fill="white"/>
<path fill-rule="evenodd" clip-rule="evenodd" d="M116.423 15.0623L102.566 23.0623L101.7 23.5623L86.9778 32.0623L86.1118 32.5623L86.6118 33.4283L89.6118 38.6244L90.1118 39.4905L93.1118 44.6866L93.6118 45.5526L96.6118 50.7488L97.1118 51.6148L100.112 56.811L100.612 57.677L146.511 31.177L146.011 30.311L143.011 25.1148L142.511 24.2488L139.511 19.0526L139.011 18.1866L136.011 12.9905L135.511 12.1244L132.511 6.92828L132.011 6.06226L131.145 6.56226L117.289 14.5623L116.423 15.0623ZM138.645 19.5526L124.789 27.5526L127.789 32.7488L141.645 24.7488L138.645 19.5526ZM123.923 28.0526L110.066 36.0526L113.066 41.2488L126.923 33.2488L123.923 28.0526ZM109.2 36.5526L94.4778 45.0526L97.4778 50.2488L112.2 41.7488L109.2 36.5526ZM93.9778 44.1866L108.7 35.6866L105.7 30.4905L90.9778 38.9905L93.9778 44.1866ZM116.923 15.9283L103.066 23.9283L106.066 29.1244L119.923 21.1244L116.923 15.9283ZM120.423 21.9905L106.566 29.9905L109.566 35.1866L123.423 27.1866L120.423 21.9905ZM124.289 26.6866L138.145 18.6866L135.145 13.4905L121.289 21.4905L124.289 26.6866ZM120.789 20.6244L117.789 15.4283L131.645 7.42828L134.645 12.6244L120.789 20.6244ZM87.4778 32.9283L102.2 24.4283L105.2 29.6244L90.4778 38.1244L87.4778 32.9283ZM127.423 34.1148L113.566 42.1148L116.566 47.311L130.423 39.311L127.423 34.1148ZM131.289 38.811L145.145 30.811L142.145 25.6148L128.289 33.6148L131.289 38.811ZM97.9778 51.1148L112.7 42.6148L115.7 47.811L100.978 56.311L97.9778 51.1148Z" fill="white" fill-opacity="0.6"/>
<path d="M82.6118 26.5L128.511 0L129.011 0.866025L83.1118 27.366L82.6118 26.5Z" fill="white" fill-opacity="0.4"/>
<path d="M82.6118 26.5L128.511 0L129.011 0.866025L83.1118 27.366L82.6118 26.5Z" fill="white" fill-opacity="0.4"/>
<path d="M86.1118 32.5622L132.011 6.06218L132.511 6.9282L86.6118 33.4282L86.1118 32.5622Z" fill="white" fill-opacity="0.4"/>
<path d="M82.6118 26.5L83.4778 26L86.9778 32.0622L86.1118 32.5622L82.6118 26.5Z" fill="white" fill-opacity="0.4"/>
<path d="M127.645 0.5L128.511 0L132.011 6.06218L131.145 6.56218L127.645 0.5Z" fill="white" fill-opacity="0.4"/>
<path d="M127.645 0.5L128.511 0L132.011 6.06218L131.145 6.56218L127.645 0.5Z" fill="white" fill-opacity="0.4"/>
<path d="M98.2003 17.5L99.0663 17L102.566 23.0622L101.7 23.5622L98.2003 17.5Z" fill="white" fill-opacity="0.4"/>
<path d="M112.923 9L113.789 8.5L117.289 14.5622L116.423 15.0622L112.923 9Z" fill="white" fill-opacity="0.4"/>
<path d="M42.702 16.0934C38.3123 21.1231 44.0431 27.1509 45.7974 24.7693C47.5517 22.3878 38.8752 20.0305 37.0623 23.1708C35.2495 26.3111 40.0161 32.5635 41.4345 30.2201C42.8529 27.8766 36.7898 25.1674 34.5319 27.7879C32.274 30.4085 34.8161 33.963 36.4157 34.8184" stroke="white" stroke-linecap="round"/>
<path d="M201.797 23.8379C203.834 26.4133 205.797 27.3379 208.297 28.8379C205.297 29.3379 203.797 30.3379 200.797 31.3379C201.378 28.4675 201.797 28.3379 201.797 26.8379" stroke="white" stroke-linecap="round" stroke-linejoin="round"/>
</svg>
