<svg width="420" height="53" viewBox="0 0 420 53" fill="none" xmlns="http://www.w3.org/2000/svg">
<g clip-path="url(#clip0_100_8625)">
<path d="M34.4933 52.4578C15.9459 52.4578 0.910217 37.133 0.910217 18.2289C0.910217 -0.6752 15.9459 -16 34.4933 -16C53.0408 -16 68.0764 -0.6752 68.0764 18.2289C68.0764 37.133 53.0408 52.4578 34.4933 52.4578Z" fill="#BE664F"/>
<path d="M23.8906 30.9336L29.7106 19.9336C29.8039 19.7469 29.8506 19.5803 29.8506 19.4336C29.8506 19.3269 29.8106 19.2336 29.7306 19.1536C29.6506 19.0736 29.5306 19.0336 29.3706 19.0336H22.9106V16.9336H29.6906C30.1839 16.9336 30.6173 17.0403 30.9906 17.2536C31.3773 17.4669 31.6839 17.7536 31.9106 18.1136C32.1373 18.4736 32.2506 18.8736 32.2506 19.3136C32.2506 19.5536 32.2173 19.8003 32.1506 20.0536C32.0839 20.2936 32.0039 20.5203 31.9106 20.7336L26.6106 30.9336H23.8906ZM32.5687 31.1536C32.1287 31.1536 31.7487 31.0003 31.4287 30.6936C31.1221 30.3736 30.9687 29.9936 30.9687 29.5536C30.9687 29.1269 31.1221 28.7603 31.4287 28.4536C31.7487 28.1336 32.1287 27.9736 32.5687 27.9736C32.9954 27.9736 33.3621 28.1336 33.6687 28.4536C33.9887 28.7603 34.1487 29.1269 34.1487 29.5536C34.1487 29.8469 34.0754 30.1203 33.9287 30.3736C33.7954 30.6136 33.6087 30.8003 33.3687 30.9336C33.1287 31.0803 32.8621 31.1536 32.5687 31.1536ZM36.0348 30.9336V28.8336H40.4348C40.9148 28.8336 41.3348 28.7203 41.6948 28.4936C42.0681 28.2669 42.3548 27.9669 42.5548 27.5936C42.7681 27.2203 42.8748 26.8203 42.8748 26.3936C42.8748 25.9536 42.7681 25.5536 42.5548 25.1936C42.3548 24.8336 42.0748 24.5469 41.7148 24.3336C41.3548 24.1203 40.9415 24.0136 40.4748 24.0136H36.4348V16.9336H44.3348V19.0336H38.7148V21.9536H40.7748C41.6281 21.9536 42.3881 22.1603 43.0548 22.5736C43.7348 22.9736 44.2681 23.5136 44.6548 24.1936C45.0548 24.8736 45.2548 25.6136 45.2548 26.4136C45.2548 27.2269 45.0548 27.9803 44.6548 28.6736C44.2548 29.3536 43.7148 29.9003 43.0348 30.3136C42.3548 30.7269 41.5881 30.9336 40.7348 30.9336H36.0348Z" fill="white"/>
<path d="M93.9099 32.5586C92.5292 32.5586 91.4099 33.6779 91.4099 35.0586C91.4099 36.4393 92.5292 37.5586 93.9099 37.5586C95.2906 37.5586 96.4099 36.4393 96.4099 35.0586C96.4099 33.6779 95.2906 32.5586 93.9099 32.5586Z" fill="#D9F4FF"/>
<path d="M417 38.2285C418.657 38.2285 420 36.8854 420 35.2285C420 33.5717 418.657 32.2285 417 32.2285C415.343 32.2285 414 33.5717 414 35.2285C414 36.8854 415.343 38.2285 417 38.2285Z" fill="#D9F4FF"/>
<path d="M384.335 4.513C381.572 1.53756 377.542 7.4082 381.235 8.9346C384.927 10.461 386.641 6.36203 387.435 4.23231" stroke="white" stroke-linecap="round" stroke-linejoin="round"/>
<path d="M140.16 19.7969C142.197 17.2215 144.16 16.2969 146.66 14.7969C143.66 14.2969 142.16 13.2969 139.16 12.2969C139.741 15.1672 140.16 15.2969 140.16 16.7969" stroke="white" stroke-linecap="round" stroke-linejoin="round"/>
<path d="M180.908 38.5882L182.354 41.5205L180.012 43.8019L183.248 43.3328L184.694 46.2651L185.247 43.0429L188.483 42.5738L185.589 41.0515L186.143 37.8293L183.801 40.1106L180.908 38.5882Z" fill="white"/>
<path d="M308.842 36.6029C302.556 38.8509 299.04 31.3136 301.898 30.551C304.756 29.7883 303.779 38.7263 300.193 39.2661C296.608 39.8058 292.53 33.0839 295.23 32.6201C297.929 32.1562 298.235 38.7901 294.971 39.9341C291.707 41.0781 289.327 37.4128 289.115 35.6112" stroke="white" stroke-linecap="round"/>
<g opacity="0.7">
<path d="M354.877 18.528L346 31.2046C345.774 31.5275 345.754 31.9713 345.804 32.3053C345.853 32.6383 346.004 33.0732 346.352 33.317L355.998 40.0708L356.036 40.4087C356.076 40.756 356.132 41.2364 356.194 41.7687C356.317 42.8281 356.467 44.0956 356.573 44.9283C356.648 45.7804 357.541 46.3544 358.345 46.0578L362.922 44.9192L366.831 47.6564C367.326 48.003 367.805 48.1038 368.24 47.9135C368.592 47.7594 368.811 47.4452 368.92 47.288C368.926 47.2798 368.931 47.272 368.936 47.2647L377.813 34.5879C378.042 34.2598 378.052 33.82 377.994 33.4919C377.934 33.1605 377.771 32.7495 377.434 32.5138L356.955 18.1744C356.68 17.9819 356.399 17.887 356.122 17.8783C355.849 17.8698 355.616 17.9466 355.435 18.0429C355.256 18.1381 355.121 18.2562 355.031 18.3468C354.986 18.3929 354.95 18.4342 354.924 18.4656C354.911 18.4813 354.901 18.4948 354.893 18.5053L354.883 18.519L354.879 18.5241L354.878 18.5262L354.877 18.528ZM354.877 18.528L355.286 18.8147C354.877 18.528 354.877 18.5283 354.877 18.528Z" stroke="white"/>
<path fill-rule="evenodd" clip-rule="evenodd" d="M370.855 36.6793C371.018 36.4467 371.007 36.1579 370.83 36.0343L355.906 25.5839C355.729 25.4603 355.454 25.5487 355.291 25.7814C355.128 26.014 355.139 26.3028 355.316 26.4264L370.24 36.8768C370.417 37.0004 370.692 36.912 370.855 36.6793Z" fill="white"/>
<path fill-rule="evenodd" clip-rule="evenodd" d="M369.165 39.0919C369.328 38.8593 369.318 38.5712 369.143 38.4484L359.128 31.4364C358.953 31.3137 358.679 31.4028 358.516 31.6354C358.353 31.8681 358.363 32.1562 358.538 32.2789L368.553 39.291C368.728 39.4137 369.002 39.3246 369.165 39.0919Z" fill="white"/>
</g>
<path opacity="0.6" d="M235.5 15.9167V7C235.5 6.44772 235.948 6 236.5 6H250.361C250.636 6 250.899 6.11296 251.088 6.31238L257.226 12.7941C257.402 12.9798 257.5 13.2259 257.5 13.4817V31.9167C257.5 32.4689 257.052 32.9167 256.5 32.9167H235.458" stroke="white" stroke-linecap="round"/>
<path opacity="0.6" d="M249.5 8.95801V13.958H254.5" stroke="white" stroke-linecap="round" stroke-linejoin="round"/>
<path opacity="0.7" fill-rule="evenodd" clip-rule="evenodd" d="M238.11 19.458H235V28.8761C235 28.8946 235 28.913 235.001 28.9311C235.001 28.9382 235.002 28.9453 235.002 28.9524C235.002 28.9569 235.003 28.9613 235.003 28.9658C235.022 29.238 235.139 29.4574 235.492 29.4574C235.918 29.4574 236.001 29.2116 236.001 28.9658V25.4476H238.11C239.984 25.4476 241 24.0164 241 22.4543C241 20.8922 240 19.458 238.11 19.458ZM236 24.4476H238.11C238.772 24.4476 239.217 24.2047 239.508 23.875C239.814 23.5287 240 23.0258 240 22.4543C240 21.8789 239.815 21.3754 239.512 21.0301C239.225 20.7025 238.781 20.458 238.11 20.458H236V24.4476ZM255.037 20.4516C255.428 20.451 255.592 20.2344 255.592 19.9486C255.592 19.7352 255.428 19.4586 255.037 19.458H255.036H251.018L250.995 28.946C250.995 28.9517 250.996 29.4457 251.499 29.4457C251.967 29.4457 251.995 29.0163 251.996 28.9538C251.996 28.9486 251.996 28.9437 251.996 28.9385V25.4801H253.982C254.371 25.4801 254.63 25.2596 254.63 24.968C254.63 24.5776 254.373 24.4495 253.982 24.4516L251.996 24.463V20.4516H255.037ZM243.999 20.458V28.458H246.007C247.043 28.458 247.988 27.5194 247.988 26.5326V22.2878C247.988 21.343 247.087 20.458 246.007 20.458H243.999ZM242.999 19.458H246.007C247.572 19.458 248.988 20.725 248.988 22.2878V26.5326C248.988 28.0955 247.572 29.458 246.007 29.458H242.999V19.458Z" fill="white"/>
</g>
<defs>
<clipPath id="clip0_100_8625">
<rect width="420" height="53" fill="white"/>
</clipPath>
</defs>
</svg>
