<svg width="419" height="69" viewBox="0 0 419 69" fill="none" xmlns="http://www.w3.org/2000/svg">
<g clip-path="url(#clip0_103_8661)">
<path d="M327 48.5586C328.381 48.5586 329.5 49.6779 329.5 51.0586C329.5 52.4393 328.381 53.5586 327 53.5586C325.619 53.5586 324.5 52.4393 324.5 51.0586C324.5 49.6779 325.619 48.5586 327 48.5586Z" fill="#D9F4FF"/>
<path d="M3.90991 54.2285C2.25306 54.2285 0.909912 52.8854 0.909912 51.2285C0.909912 49.5717 2.25306 48.2285 3.90991 48.2285C5.56677 48.2285 6.90991 49.5717 6.90991 51.2285C6.90991 52.8854 5.56677 54.2285 3.90991 54.2285Z" fill="#D9F4FF"/>
<path d="M36.5751 20.513C39.3379 17.5376 43.3674 23.4082 39.675 24.9346C35.9826 26.461 34.269 22.362 33.4751 20.2323" stroke="white" stroke-linecap="round" stroke-linejoin="round"/>
<path d="M280.75 35.7969C278.713 33.2215 276.75 32.2969 274.25 30.7969C277.25 30.2969 278.75 29.2969 281.75 28.2969C281.169 31.1672 280.75 31.2969 280.75 32.7969" stroke="white" stroke-linecap="round" stroke-linejoin="round"/>
<path d="M240.002 54.5882L238.556 57.5205L240.898 59.8019L237.662 59.3328L236.216 62.2651L235.663 59.0429L232.427 58.5738L235.32 57.0515L234.767 53.8293L237.109 56.1106L240.002 54.5882Z" fill="white"/>
<path d="M112.068 52.6029C118.354 54.8509 121.87 47.3136 119.012 46.551C116.154 45.7883 117.131 54.7263 120.717 55.2661C124.302 55.8058 128.38 49.0839 125.68 48.6201C122.981 48.1562 122.675 54.7901 125.939 55.9341C129.204 57.0781 131.583 53.4128 131.795 51.6112" stroke="white" stroke-linecap="round"/>
<path d="M385.417 68.4578C403.965 68.4578 419 53.133 419 34.2289C419 15.3248 403.965 0 385.417 0C366.87 0 351.834 15.3248 351.834 34.2289C351.834 53.133 366.87 68.4578 385.417 68.4578Z" fill="#BE664F"/>
<path d="M374.981 46.9336L380.801 35.9336C380.894 35.7469 380.941 35.5803 380.941 35.4336C380.941 35.3269 380.901 35.2336 380.821 35.1536C380.741 35.0736 380.621 35.0336 380.461 35.0336H374.001V32.9336H380.781C381.274 32.9336 381.707 33.0403 382.081 33.2536C382.467 33.4669 382.774 33.7536 383.001 34.1136C383.227 34.4736 383.341 34.8736 383.341 35.3136C383.341 35.5536 383.307 35.8003 383.241 36.0536C383.174 36.2936 383.094 36.5203 383.001 36.7336L377.701 46.9336H374.981ZM383.659 47.1536C383.219 47.1536 382.839 47.0003 382.519 46.6936C382.212 46.3736 382.059 45.9936 382.059 45.5536C382.059 45.1269 382.212 44.7603 382.519 44.4536C382.839 44.1336 383.219 43.9736 383.659 43.9736C384.086 43.9736 384.452 44.1336 384.759 44.4536C385.079 44.7603 385.239 45.1269 385.239 45.5536C385.239 45.8469 385.166 46.1203 385.019 46.3736C384.886 46.6136 384.699 46.8003 384.459 46.9336C384.219 47.0803 383.952 47.1536 383.659 47.1536ZM387.125 46.9336V44.8336H391.525C392.005 44.8336 392.425 44.7203 392.785 44.4936C393.158 44.2669 393.445 43.9669 393.645 43.5936C393.858 43.2203 393.965 42.8203 393.965 42.3936C393.965 41.9536 393.858 41.5536 393.645 41.1936C393.445 40.8336 393.165 40.5469 392.805 40.3336C392.445 40.1203 392.032 40.0136 391.565 40.0136H387.525V32.9336H395.425V35.0336H389.805V37.9536H391.865C392.718 37.9536 393.478 38.1603 394.145 38.5736C394.825 38.9736 395.358 39.5136 395.745 40.1936C396.145 40.8736 396.345 41.6136 396.345 42.4136C396.345 43.2269 396.145 43.9803 395.745 44.6736C395.345 45.3536 394.805 45.9003 394.125 46.3136C393.445 46.7269 392.678 46.9336 391.825 46.9336H387.125Z" fill="white"/>
<g opacity="0.7">
<path d="M66.0333 34.528L74.9095 47.2046C75.1356 47.5275 75.1559 47.9713 75.1063 48.3053C75.0567 48.6383 74.9059 49.0732 74.5577 49.317L64.9123 56.0708L64.8736 56.4087C64.8337 56.756 64.7783 57.2364 64.7163 57.7687C64.5929 58.8281 64.4431 60.0956 64.3373 60.9283C64.2614 61.7804 63.369 62.3544 62.5644 62.0578L57.9881 60.9192L54.0789 63.6564C53.5839 64.003 53.1044 64.1038 52.6695 63.9135C52.3175 63.7594 52.099 63.4452 51.9897 63.288C51.984 63.2798 51.9785 63.272 51.9734 63.2647L43.0973 50.5879C42.8675 50.2598 42.8576 49.82 42.9163 49.4919C42.9756 49.1605 43.1393 48.7495 43.4759 48.5138L63.9547 34.1744C64.2296 33.9819 64.5112 33.887 64.7874 33.8783C65.0604 33.8698 65.2935 33.9466 65.4746 34.0429C65.6535 34.1381 65.7893 34.2562 65.8787 34.3468C65.9242 34.3929 65.96 34.4342 65.9856 34.4656C65.9984 34.4813 66.0088 34.4948 66.0168 34.5053L66.0268 34.519L66.0305 34.5241L66.032 34.5262L66.0327 34.5271L66.0333 34.528ZM66.0333 34.528L65.6237 34.8147C66.0333 34.528 66.0334 34.5283 66.0333 34.528Z" stroke="white"/>
<path fill-rule="evenodd" clip-rule="evenodd" d="M50.055 52.6794C49.8921 52.4467 49.9031 52.1579 50.0796 52.0343L65.0043 41.5839C65.1808 41.4603 65.456 41.5487 65.6189 41.7814C65.7818 42.0141 65.7708 42.3029 65.5943 42.4265L50.6696 52.8769C50.4931 53.0004 50.2179 52.912 50.055 52.6794Z" fill="white"/>
<path fill-rule="evenodd" clip-rule="evenodd" d="M51.7448 55.0918C51.5819 54.8591 51.5919 54.571 51.7672 54.4483L61.7814 47.4362C61.9567 47.3135 62.2308 47.4026 62.3938 47.6353C62.5567 47.8679 62.5466 48.1561 62.3714 48.2788L52.3571 55.2908C52.1819 55.4136 51.9077 55.3244 51.7448 55.0918Z" fill="white"/>
</g>
<path opacity="0.6" d="M170.5 32.9167V24C170.5 23.4477 170.948 23 171.5 23H185.361C185.636 23 185.899 23.113 186.088 23.3124L192.226 29.7941C192.402 29.9798 192.5 30.2259 192.5 30.4817V48.9167C192.5 49.4689 192.052 49.9167 191.5 49.9167H170.458" stroke="white" stroke-linecap="round"/>
<path opacity="0.6" d="M184.5 25.958V30.958H189.5" stroke="white" stroke-linecap="round" stroke-linejoin="round"/>
<path opacity="0.7" fill-rule="evenodd" clip-rule="evenodd" d="M173.11 36.458H170V45.8761C170 45.8946 170 45.913 170.001 45.9311C170.001 45.9382 170.002 45.9453 170.002 45.9524C170.002 45.9569 170.003 45.9613 170.003 45.9658C170.022 46.238 170.139 46.4574 170.492 46.4574C170.918 46.4574 171.001 46.2116 171.001 45.9658V42.4476H173.11C174.984 42.4476 176 41.0164 176 39.4543C176 37.8922 175 36.458 173.11 36.458ZM171 41.4476H173.11C173.772 41.4476 174.217 41.2047 174.508 40.875C174.814 40.5287 175 40.0258 175 39.4543C175 38.8789 174.815 38.3754 174.512 38.0301C174.225 37.7025 173.781 37.458 173.11 37.458H171V41.4476ZM190.037 37.4516C190.428 37.451 190.592 37.2344 190.592 36.9486C190.592 36.7352 190.428 36.4586 190.037 36.458H190.036H186.018L185.995 45.946C185.995 45.9517 185.996 46.4457 186.499 46.4457C186.967 46.4457 186.995 46.0163 186.996 45.9538C186.996 45.9486 186.996 45.9437 186.996 45.9385V42.4801H188.982C189.371 42.4801 189.63 42.2596 189.63 41.968C189.63 41.5776 189.373 41.4495 188.982 41.4516L186.996 41.463V37.4516H190.037ZM178.999 37.458V45.458H181.007C182.043 45.458 182.988 44.5194 182.988 43.5326V39.2878C182.988 38.343 182.087 37.458 181.007 37.458H178.999ZM177.999 36.458H181.007C182.572 36.458 183.988 37.725 183.988 39.2878V43.5326C183.988 45.0955 182.572 46.458 181.007 46.458H177.999V36.458Z" fill="white"/>
</g>
<defs>
<clipPath id="clip0_103_8661">
<rect width="419" height="69" fill="white"/>
</clipPath>
</defs>
</svg>
