<svg width="24" height="28" viewBox="0 0 24 28" fill="none" xmlns="http://www.w3.org/2000/svg">
<path opacity="0.6" d="M1.50002 10.4587V1.54199C1.50002 0.989712 1.94802 0.541992 2.50002 0.541992H16.361C16.636 0.541992 16.899 0.654952 17.088 0.854373L23.226 7.3361C23.402 7.5218 23.5 7.7679 23.5 8.0237V26.4587C23.5 27.0109 23.052 27.4587 22.5 27.4587H1.45801" stroke="white" stroke-linecap="round"/>
<path opacity="0.6" d="M15.5 3.5V8.5H20.5" stroke="white" stroke-linecap="round" stroke-linejoin="round"/>
<path opacity="0.7" fill-rule="evenodd" clip-rule="evenodd" d="M4.11 14H1V23.4181C1 23.4366 1.00001 23.455 1.00101 23.4731C1.00101 23.4802 1.002 23.4873 1.002 23.4944C1.002 23.4989 1.00301 23.5033 1.00301 23.5078C1.02201 23.78 1.139 23.9994 1.492 23.9994C1.918 23.9994 2.00101 23.7536 2.00101 23.5078V19.9896H4.11C5.984 19.9896 7 18.5584 7 16.9963C7 15.4342 6 14 4.11 14ZM2 18.9896H4.11C4.772 18.9896 5.217 18.7467 5.508 18.417C5.814 18.0707 6 17.5678 6 16.9963C6 16.4209 5.81499 15.9174 5.51199 15.5721C5.22499 15.2445 4.781 15 4.11 15H2V18.9896ZM21.037 14.9936C21.428 14.993 21.592 14.7764 21.592 14.4906C21.592 14.2772 21.428 14.0006 21.037 14H21.036H17.018L16.995 23.488C16.995 23.4937 16.996 23.9877 17.499 23.9877C17.967 23.9877 17.995 23.5583 17.996 23.4958C17.996 23.4906 17.996 23.4857 17.996 23.4805V20.0221H19.982C20.371 20.0221 20.63 19.8016 20.63 19.51C20.63 19.1196 20.373 18.9915 19.982 18.9936L17.996 19.005V14.9936H21.037ZM9.99899 15V23H12.007C13.043 23 13.988 22.0614 13.988 21.0746V16.8298C13.988 15.885 13.087 15 12.007 15H9.99899ZM8.99899 14H12.007C13.572 14 14.988 15.267 14.988 16.8298V21.0746C14.988 22.6375 13.572 24 12.007 24H8.99899V14Z" fill="white"/>
</svg>
