<svg width="22" height="11" viewBox="0 0 22 11" fill="none" xmlns="http://www.w3.org/2000/svg">
<path opacity="0.7" d="M17.4062 10.4213C17.4062 10.4212 17.4062 10.4212 17.4062 10.4212C17.4062 10.4211 17.4062 10.4211 17.4062 10.421L17.4033 10.4347C17.4035 10.4337 17.4037 10.4328 17.4039 10.4318C17.4047 10.4278 17.4053 10.4242 17.4057 10.4212C17.4059 10.4213 17.406 10.4213 17.4062 10.4213ZM17.4062 10.4213C17.4069 10.4248 17.4077 10.4284 17.4086 10.432C17.409 10.4335 17.4094 10.435 17.4099 10.4364C17.4099 10.4366 17.41 10.4368 17.41 10.4369C17.4146 10.4326 17.42 10.4284 17.426 10.4248C17.4332 10.4205 17.4381 10.4189 17.4386 10.4188C17.4386 10.4188 17.4386 10.4188 17.4386 10.4188C17.4379 10.419 17.4289 10.4213 17.4086 10.4213C17.4078 10.4213 17.407 10.4213 17.4062 10.4213ZM1.40991 1.4336L4.02004 1.43361C4.82778 1.43361 5.41097 1.7351 5.79795 2.17586C6.19261 2.62537 6.40991 3.25166 6.40991 3.9299C6.40991 4.60617 6.18987 5.2318 5.79296 5.68147C5.40334 6.12287 4.81935 6.42324 4.02003 6.42324H1.91103H1.41103L1.41103 6.92324L1.41102 10.395C1.41031 10.382 1.40991 10.3675 1.40991 10.3517V1.4336ZM17.4142 6.45573L17.4143 6.44137L17.909 6.43855L19.8942 6.42722C19.8943 6.42722 19.8944 6.42722 19.8944 6.42722C19.9483 6.42694 19.9896 6.43016 20.0204 6.43482C19.996 6.44481 19.9548 6.45573 19.8916 6.45573H17.9062H17.4142ZM17.4047 10.4117L17.4062 9.81448V10.4141L17.4062 10.4169C17.4062 10.4171 17.4061 10.4174 17.4061 10.4178C17.406 10.4183 17.406 10.4189 17.4059 10.4195C17.4058 10.4193 17.4058 10.419 17.4058 10.4187C17.4053 10.4158 17.4049 10.4135 17.4047 10.4117ZM9.4092 10.4336V1.43359H11.9167C13.2394 1.43359 14.3983 2.50956 14.3983 3.76343V8.00822C14.3983 9.28303 13.2174 10.4336 11.9167 10.4336H9.4092Z" stroke="white"/>
</svg>
