<svg width="96" height="30" viewBox="0 0 96 30" fill="none" xmlns="http://www.w3.org/2000/svg">
<path d="M30.1465 21.2314C31.3791 21.2314 32.5133 21.5261 33.4795 22.1572H33.4805C34.6991 22.9424 35.124 24.2081 35.124 25.5469C35.124 26.8614 34.6846 28.0772 33.5176 28.874L33.5195 28.875C32.5501 29.5453 31.401 29.8633 30.1465 29.8633C28.8743 29.8632 27.7086 29.5506 26.7236 28.8828L26.7129 28.875C25.5567 28.0755 25.1279 26.8571 25.1279 25.5469C25.128 24.2162 25.5405 22.9523 26.7402 22.1641L26.751 22.1572L27.1279 21.9365C28.0255 21.4558 29.0474 21.2315 30.1465 21.2314ZM11.6143 0.108398C13.3147 0.10841 14.9251 0.370256 16.4316 0.904297H16.4307C17.9587 1.43372 19.2954 2.24791 20.4316 3.33203H20.4297C21.5994 4.43475 22.4795 5.80092 23.0928 7.39648C23.7152 9.01597 24.0088 10.8778 24.0088 12.957C24.0088 14.541 23.8736 16.1132 23.6025 17.6729C23.3396 19.2643 22.8717 20.775 22.1953 22.2012L22.1924 22.2051C21.4939 23.6643 20.5135 24.966 19.2549 26.1025L19.248 26.1084C17.9478 27.2685 16.3214 28.1555 14.4082 28.7881C12.4549 29.4339 10.1545 29.7363 7.5459 29.7363C6.922 29.7363 6.20484 29.7098 5.39844 29.6611V29.6621C5.39492 29.6619 5.39121 29.6613 5.3877 29.6611C5.38363 29.6609 5.37907 29.6614 5.375 29.6611V29.6602C4.55644 29.6222 3.83976 29.5588 3.24316 29.4619L2.0957 29.2764V22.1689L3.83789 22.5547C4.32271 22.6616 4.84541 22.7469 5.40527 22.8135C5.96757 22.8684 6.53704 22.8975 7.11426 22.8975C9.5057 22.8975 11.1501 22.5575 12.1992 22.0156L12.2041 22.0137L12.6035 21.792C13.4926 21.2541 14.103 20.5667 14.4766 19.7188L14.4824 19.709L14.6582 19.291C14.6674 19.2673 14.6736 19.2426 14.6826 19.2188C14.3199 19.399 13.9339 19.5579 13.5264 19.6934L13.5166 19.6973L13.5068 19.6992C12.4668 20.0298 11.2297 20.1719 9.84668 20.1719C7.9281 20.1718 6.18422 19.8045 4.66406 19.0264L4.64941 19.0186C3.23557 18.2733 2.12849 17.2251 1.3291 15.9102L1.17285 15.6426L1.16602 15.6309C0.368564 14.1684 2.4179e-05 12.4593 0 10.5479C0 8.47375 0.445043 6.62251 1.39746 5.04102L1.39844 5.03711L1.58301 4.74316C2.53426 3.2977 3.85206 2.16457 5.51855 1.36426C7.29463 0.511401 9.34273 0.108398 11.6143 0.108398ZM48.124 0C50.7692 0 53.0706 0.603539 54.916 1.89941H54.9141C56.7357 3.15654 58.0282 4.93939 58.8467 7.15527L58.9951 7.57129C59.7069 9.66902 60.0469 12.1183 60.0469 14.8955C60.0469 17.0955 59.85 19.0875 59.4443 20.8633C59.0496 22.6508 58.3944 24.2213 57.4521 25.5449L57.4541 25.5459C56.504 26.9 55.2357 27.9498 53.6621 28.6719C52.0735 29.4008 50.2083 29.7363 48.124 29.7363C45.4711 29.7363 43.1648 29.1405 41.3184 27.8584L41.3125 27.8545C39.5047 26.585 38.2253 24.8008 37.4199 22.5918V22.5908C36.6245 20.3961 36.2432 17.8223 36.2432 14.8955C36.2432 11.9547 36.5868 9.38506 37.3057 7.21191L37.3076 7.20703L37.4541 6.7959C38.2132 4.75838 39.4133 3.1008 41.1035 1.90332C42.9531 0.593123 45.3408 5.50267e-05 48.124 0ZM30.1465 22.4678C29.1467 22.4678 28.2903 22.6974 27.5781 23.1562C26.8798 23.6152 26.5303 24.412 26.5303 25.5469C26.5303 26.6337 26.8796 27.4193 27.5781 27.9023C28.2903 28.3854 29.1467 28.6269 30.1465 28.627C31.1189 28.627 31.9548 28.3853 32.6533 27.9023C33.3656 27.4193 33.7217 26.6338 33.7217 25.5469C33.7216 24.4119 33.3655 23.6151 32.6533 23.1562C31.9547 22.6973 31.119 22.4678 30.1465 22.4678ZM11.6143 1.3457C9.53223 1.3457 7.72358 1.71352 6.18945 2.4502C4.65563 3.1868 3.47122 4.24366 2.63574 5.62012C1.81389 6.98477 1.40234 8.62767 1.40234 10.5479C1.40237 12.323 1.74483 13.8388 2.42969 15.0947C3.12826 16.3386 4.10801 17.2928 5.36816 17.957C6.64187 18.609 8.13479 18.9345 9.84668 18.9346C11.1342 18.9346 12.1967 18.8018 13.0322 18.5361C13.8676 18.2584 14.5528 17.8905 15.0869 17.4316C15.6347 16.9607 16.1067 16.435 16.5039 15.8555H16.751C16.6688 17.4858 16.3467 18.9231 15.7852 20.167C15.2372 21.4108 14.2779 22.3826 12.9082 23.083C11.5522 23.7834 9.62078 24.1338 7.11426 24.1338C6.48436 24.1338 5.86133 24.1033 5.24512 24.043C4.62873 23.9705 4.04595 23.8747 3.49805 23.7539V28.2461C4.01853 28.3306 4.67629 28.3905 5.4707 28.4268C6.26513 28.4751 6.95692 28.5 7.5459 28.5C10.0387 28.5 12.1618 28.2095 13.915 27.6299C15.6683 27.0502 17.1141 26.2537 18.251 25.2393C19.3879 24.2127 20.2713 23.041 20.9014 21.7246C21.5314 20.3962 21.9693 18.9828 22.2158 17.4854C22.476 15.988 22.6064 14.4786 22.6064 12.957C22.6064 10.9765 22.3253 9.25521 21.7637 7.79395C21.2021 6.33283 20.4149 5.12488 19.4014 4.1709C18.4015 3.21688 17.2368 2.51066 15.9082 2.05176C14.5796 1.58081 13.1483 1.34571 11.6143 1.3457ZM48.124 1.23633C45.5629 1.23638 43.5155 1.78042 41.9814 2.86719C40.4473 3.95407 39.3372 5.51768 38.6523 7.55859C37.9812 9.58746 37.6455 12.0334 37.6455 14.8955C37.6455 17.7334 38.0152 20.173 38.7549 22.2139C39.4946 24.2427 40.6387 25.8008 42.1865 26.8877C43.7342 27.9624 45.7135 28.4999 48.124 28.5C50.0417 28.5 51.6723 28.1921 53.0146 27.5762C54.357 26.9603 55.4389 26.066 56.2607 24.8945C57.0962 23.7231 57.6985 22.2977 58.0684 20.6191C58.4518 18.9406 58.6445 17.0328 58.6445 14.8955C58.6445 12.0214 58.267 9.56985 57.5137 7.54102C56.7603 5.50018 55.6034 3.942 54.042 2.86719C52.4942 1.78029 50.5211 1.23633 48.124 1.23633ZM48.124 5.76562C49.1787 5.76562 50.0077 6.10957 50.6104 6.79785C51.2267 7.47409 51.6655 8.48841 51.9258 9.84082C52.186 11.1934 52.3154 12.8787 52.3154 14.8955C52.3154 16.9243 52.186 18.6152 51.9258 19.9678C51.6655 21.308 51.2266 22.3159 50.6104 22.9922C50.0077 23.6564 49.1787 23.9893 48.124 23.9893C47.0559 23.9892 46.2208 23.6507 45.6182 22.9746C45.0155 22.2983 44.5835 21.2897 44.3232 19.9492C44.0767 18.5967 43.9531 16.9121 43.9531 14.8955C43.9531 12.8787 44.0767 11.1934 44.3232 9.84082C44.5835 8.48843 45.0155 7.47408 45.6182 6.79785C46.2208 6.10973 47.0559 5.76571 48.124 5.76562ZM48.124 7.00195C47.4488 7.00203 47.0411 7.19678 46.7285 7.55371L46.7207 7.5625C46.3242 8.00763 45.949 8.79046 45.707 10.0479C45.4776 11.3115 45.3564 12.9222 45.3564 14.8955C45.3565 16.8673 45.476 18.4771 45.7051 19.7402L45.8027 20.1865C46.0417 21.1743 46.3724 21.819 46.7207 22.21C47.0297 22.5566 47.4393 22.7519 48.124 22.752C48.798 22.752 49.2053 22.5607 49.5146 22.2197L49.5176 22.2188L49.668 22.0352C50.0151 21.5723 50.3314 20.844 50.542 19.7607L50.6279 19.2715C50.8149 18.0907 50.9131 16.636 50.9131 14.8955C50.9131 12.919 50.7845 11.3084 50.542 10.0479C50.3008 8.79436 49.9212 8.01523 49.5176 7.57227L49.5088 7.56348L49.5 7.55371C49.1835 7.19224 48.779 7.00195 48.124 7.00195ZM11.7373 5.83789C12.4907 5.83789 13.1484 5.9891 13.71 6.29102C14.2852 6.59292 14.765 6.99125 15.1484 7.48633C15.5319 7.98141 15.819 8.53103 16.0107 9.13477C16.2025 9.73845 16.2988 10.3481 16.2988 10.9639C16.2988 11.5555 16.1002 12.1356 15.7031 12.7031C15.3196 13.2586 14.7786 13.7243 14.0801 14.0986C13.3815 14.4609 12.5593 14.6416 11.6143 14.6416C10.2445 14.6416 9.22391 14.2673 8.55273 13.5186C7.88162 12.7699 7.54597 11.7555 7.5459 10.4756C7.5459 8.8816 7.93616 7.70969 8.7168 6.96094C9.49753 6.21221 10.5046 5.83791 11.7373 5.83789ZM11.7373 7.07422C10.8669 7.07424 10.2453 7.32293 9.75 7.79785C9.31096 8.21889 8.94824 9.02286 8.94824 10.4756C8.94831 11.5717 9.23465 12.2858 9.65234 12.752C9.9888 13.1273 10.5489 13.4053 11.6143 13.4053C12.3481 13.4053 12.9138 13.2655 13.3623 13.0342C13.8836 12.7529 14.2512 12.4264 14.5039 12.0605L14.5098 12.0537L14.6055 11.9062C14.8127 11.5668 14.8965 11.2562 14.8965 10.9639C14.8964 10.4629 14.818 9.9649 14.6602 9.46777C14.5077 8.98787 14.2826 8.56135 13.9893 8.18262C13.7191 7.83409 13.3889 7.56174 12.9922 7.35352L12.9795 7.3457C12.6684 7.17858 12.271 7.07422 11.7373 7.07422Z" fill="url(#paint0_linear_295_380)"/>
<path d="M81.2898 20.6769C80.9018 20.284 80.9037 19.649 81.2937 19.258L85.5427 14.9982L81.2986 10.7433C80.9085 10.3524 80.9066 9.71638 81.2947 9.32341L81.322 9.29606C81.7101 8.90319 82.3412 8.90122 82.7312 9.29216L87.7039 14.2775C87.8777 14.4517 87.9735 14.6743 87.9929 14.9025C88.0225 15.1933 87.9276 15.4947 87.7058 15.717L82.7254 20.7082C82.3353 21.0988 81.7051 21.097 81.3172 20.7043L81.2898 20.6769Z" fill="white"/>
<defs>
<linearGradient id="paint0_linear_295_380" x1="22.1538" y1="-7.78999" x2="56.7448" y2="30.8761" gradientUnits="userSpaceOnUse">
<stop stop-color="#5BEFF6"/>
<stop offset="0.56951" stop-color="#488BFA"/>
<stop offset="1" stop-color="#001BB5"/>
</linearGradient>
</defs>
</svg>
