<svg width="79" height="84" viewBox="0 0 79 84" fill="none" xmlns="http://www.w3.org/2000/svg">
<path d="M37.6363 64.2474L35.4074 65.5343C33.9725 66.3627 32.1377 65.8711 31.3093 64.4362L14.2116 34.8222C13.3869 33.3938 13.8701 31.5675 15.2933 30.7337L31.8382 21.0411M31.8382 21.0411L42.9771 24.1702M31.8382 21.0411L34.4779 25.6131C35.3063 27.048 37.1411 27.5396 38.576 26.7112L42.9771 24.1702M42.9771 24.1702L43.8243 25.6377" stroke="#2B71FF" stroke-width="1.6" stroke-linecap="round"/>
<path d="M45.677 28.8463L50.808 38.9583" stroke="#2B71FF" stroke-width="1.6" stroke-linecap="round"/>
<path d="M23.8548 41.4453L41.3125 31.3661" stroke="#2B71FF" stroke-width="1.6" stroke-linecap="round"/>
<path d="M26.3744 45.8093L43.8321 35.7301" stroke="#2B71FF" stroke-width="1.6" stroke-linecap="round"/>
<path d="M28.8944 50.1738L46.3521 40.0946" stroke="#2B71FF" stroke-width="1.6" stroke-linecap="round"/>
<path d="M31.4144 54.5383L36.049 51.9169" stroke="#2B71FF" stroke-width="1.6" stroke-linecap="round"/>
<circle cx="22.9774" cy="34.8858" r="2.43974" transform="rotate(-30 22.9774 34.8858)" stroke="#2B71FF" stroke-width="1.6"/>
<path fill-rule="evenodd" clip-rule="evenodd" d="M58.8053 51.4607C61.1959 50.0806 62.015 47.0238 60.6348 44.6332C59.2546 42.2426 56.1978 41.4236 53.8072 42.8038C51.4167 44.184 50.5976 47.2407 51.9778 49.6313C53.358 52.0219 56.4148 52.8409 58.8053 51.4607ZM59.4301 52.5429C62.4183 50.8176 63.4421 46.9966 61.7169 44.0084C59.9917 41.0202 56.1707 39.9964 53.1825 41.7216C50.1943 43.4469 49.1704 47.2679 50.8957 50.2561C52.6209 53.2443 56.4419 54.2681 59.4301 52.5429Z" fill="#2B71FF"/>
<path fill-rule="evenodd" clip-rule="evenodd" d="M55.0568 44.968C54.4591 45.3131 54.2544 46.0773 54.5994 46.6749C54.9444 47.2725 55.7086 47.4773 56.3063 47.1323C56.9039 46.7872 57.1087 46.023 56.7636 45.4254C56.4186 44.8277 55.6544 44.623 55.0568 44.968ZM53.5173 47.2997C52.8272 46.1044 53.2367 44.576 54.432 43.8859C55.6273 43.1958 57.1557 43.6053 57.8458 44.8006C58.5359 45.9959 58.1263 47.5243 56.9311 48.2144C55.7358 48.9045 54.2074 48.4949 53.5173 47.2997Z" fill="#2B71FF"/>
<path fill-rule="evenodd" clip-rule="evenodd" d="M55.3872 50.0875C55.1952 50.8041 55.2985 51.6343 55.7877 52.4816L54.7055 53.1064C54.0733 52.0113 53.8914 50.8419 54.1803 49.7641C54.4691 48.6863 55.2112 47.7645 56.3063 47.1323C57.4014 46.5 58.5707 46.3182 59.6485 46.607C60.7264 46.8958 61.6481 47.6379 62.2804 48.733L61.1983 49.3578C60.7091 48.5105 60.0417 48.0059 59.3251 47.8139C58.6086 47.6219 57.7783 47.7252 56.9311 48.2144C56.0838 48.7035 55.5792 49.3709 55.3872 50.0875Z" fill="#2B71FF"/>
<path fill-rule="evenodd" clip-rule="evenodd" d="M44.8459 48.694C44.0282 48.7092 43.2027 48.9257 42.4443 49.3636C40.0538 50.7438 39.2347 53.8006 40.6149 56.1911C41.1366 57.0947 41.8978 57.7737 42.772 58.1944C42.6415 57.5616 42.6554 56.9284 42.8174 56.3239C42.9485 55.8345 43.1731 55.3773 43.4818 54.9648C42.9412 54.773 42.4636 54.3951 42.1544 53.8595C41.4643 52.6642 41.8738 51.1358 43.0691 50.4457C43.5658 50.1589 44.1201 50.062 44.6478 50.1325C44.6388 50.5678 44.6752 51.0063 44.7591 51.4406C44.4211 51.3135 44.031 51.3332 43.6939 51.5278C43.0962 51.8729 42.8915 52.6371 43.2365 53.2347C43.5816 53.8323 44.3458 54.0371 44.9434 53.6921C45.1413 53.5778 45.2961 53.4176 45.4022 53.2326C45.4289 53.2819 45.4563 53.3309 45.4845 53.3797C45.7113 53.7725 45.9743 54.1313 46.2668 54.4544C46.0366 54.5326 45.803 54.6386 45.5682 54.7742C44.7209 55.2634 44.2163 55.9308 44.0243 56.6473C43.8629 57.2496 43.9102 57.9322 44.2198 58.6377C45.2947 58.7957 46.4285 58.606 47.4425 58.0206C48.2008 57.5827 48.801 56.9761 49.2231 56.2756C49.6484 56.3938 50.0862 56.4671 50.5285 56.4935C50 57.5496 49.1666 58.468 48.0672 59.1027C45.079 60.8279 41.258 59.8041 39.5328 56.8159C37.8075 53.8277 38.8314 50.0067 41.8196 48.2815C42.9189 47.6467 44.131 47.3841 45.31 47.4545C45.1117 47.8508 44.9563 48.2665 44.8459 48.694Z" fill="#2B71FF"/>
<path fill-rule="evenodd" clip-rule="evenodd" d="M56.3068 53.3808C55.7767 54.3008 55.0048 55.0978 54.0192 55.6669C51.031 57.3921 47.21 56.3683 45.4848 53.3801C43.7595 50.3919 44.7833 46.5709 47.7715 44.8457C48.7571 44.2766 49.8333 44.0067 50.895 44.0076C50.6611 44.4135 50.4743 44.8434 50.337 45.2882C49.6726 45.3625 49.0123 45.5721 48.3963 45.9278C46.0058 47.308 45.1867 50.3648 46.5669 52.7553C47.0885 53.6589 47.8497 54.3379 48.7239 54.7586C48.5934 54.1258 48.6074 53.4926 48.7693 52.8881C48.9005 52.3987 49.1251 51.9415 49.4337 51.529C48.8932 51.3372 48.4156 50.9593 48.1064 50.4237C47.4163 49.2284 47.8258 47.7 49.0211 47.0099C49.3547 46.8173 49.7143 46.7103 50.0743 46.6822C50.044 47.0973 50.0549 47.517 50.1089 47.9348C49.9503 47.9554 49.793 48.0071 49.6458 48.092C49.0482 48.4371 48.8434 49.2013 49.1885 49.7989C49.5335 50.3966 50.2977 50.6013 50.8954 50.2563C50.8955 50.2562 50.8957 50.2561 50.8958 50.256C51.1101 50.6272 51.3567 50.968 51.6301 51.277C51.5935 51.2968 51.5568 51.3172 51.5201 51.3384C50.6729 51.8276 50.1683 52.495 49.9763 53.2115C49.8149 53.8138 49.8621 54.4964 50.1718 55.2019C51.2467 55.3599 52.3805 55.1702 53.3944 54.5848C54.0105 54.2291 54.5222 53.762 54.9188 53.2237C55.3726 53.3272 55.8383 53.3804 56.3068 53.3808Z" fill="#2B71FF"/>
<path d="M56 68V66" stroke="#FF8E3D" stroke-linecap="round"/>
<path d="M56 74V72" stroke="#FF8E3D" stroke-linecap="round"/>
<path d="M60 70L58 70" stroke="#FF8E3D" stroke-linecap="round"/>
<path d="M54 70L52 70" stroke="#FF8E3D" stroke-linecap="round"/>
<path fill-rule="evenodd" clip-rule="evenodd" d="M38.5436 56.9975L34.2936 61.2574C33.9035 61.6483 33.9019 62.2838 34.2899 62.6768L34.317 62.7042C34.705 63.0972 35.3359 63.0988 35.7259 62.7078L40.7058 57.7165C40.9258 57.496 41.0222 57.1977 40.9949 56.909C40.9767 56.6784 40.8799 56.4531 40.7044 56.2772L35.731 51.2923C35.3409 50.9013 34.7101 50.9029 34.322 51.2959L34.295 51.3233C33.9069 51.7163 33.9085 52.3518 34.2986 52.7428L38.5436 56.9975Z" fill="white"/>
</svg>
