<svg width="374" height="70" viewBox="0 0 374 70" fill="none" xmlns="http://www.w3.org/2000/svg">
<path fill-rule="evenodd" clip-rule="evenodd" d="M293 16.1577C293.552 16.1577 294 16.6054 294 17.1577V19.1577C294 19.71 293.552 20.1577 293 20.1577C292.448 20.1577 292 19.71 292 19.1577V17.1577C292 16.6054 292.448 16.1577 293 16.1577Z" fill="#FF8E3D"/>
<path fill-rule="evenodd" clip-rule="evenodd" d="M293 24.1577C293.552 24.1577 294 24.6054 294 25.1577V27.1577C294 27.71 293.552 28.1577 293 28.1577C292.448 28.1577 292 27.71 292 27.1577V25.1577C292 24.6054 292.448 24.1577 293 24.1577Z" fill="#FF8E3D"/>
<path fill-rule="evenodd" clip-rule="evenodd" d="M295 22.1577C295 21.6054 295.448 21.1577 296 21.1577H298C298.552 21.1577 299 21.6054 299 22.1577C299 22.71 298.552 23.1577 298 23.1577H296C295.448 23.1577 295 22.71 295 22.1577Z" fill="#FF8E3D"/>
<path fill-rule="evenodd" clip-rule="evenodd" d="M287 22.1577C287 21.6054 287.448 21.1577 288 21.1577H290C290.552 21.1577 291 21.6054 291 22.1577C291 22.71 290.552 23.1577 290 23.1577H288C287.448 23.1577 287 22.71 287 22.1577Z" fill="#FF8E3D"/>
<path fill-rule="evenodd" clip-rule="evenodd" d="M60.5285 40.3137C60.7239 40.5089 60.7241 40.8255 60.5289 41.0208L59.6202 41.9305C59.4251 42.1259 59.1085 42.126 58.9131 41.9309C58.7177 41.7357 58.7176 41.4191 58.9127 41.2238L59.8214 40.3141C60.0166 40.1187 60.3332 40.1186 60.5285 40.3137Z" fill="#FF8E3D"/>
<path fill-rule="evenodd" clip-rule="evenodd" d="M57.2068 43.6409C57.4021 43.836 57.4023 44.1526 57.2071 44.348L56.2984 45.2576C56.1033 45.453 55.7867 45.4532 55.5913 45.258C55.396 45.0629 55.3958 44.7463 55.591 44.5509L56.4997 43.6412C56.6948 43.4459 57.0114 43.4457 57.2068 43.6409Z" fill="#FF8E3D"/>
<path fill-rule="evenodd" clip-rule="evenodd" d="M58.9139 43.6395C59.1091 43.4442 59.4257 43.444 59.621 43.6392L60.5307 44.5479C60.7261 44.743 60.7262 45.0596 60.5311 45.255C60.3359 45.4503 60.0193 45.4505 59.824 45.2553L58.9143 44.3466C58.7189 44.1515 58.7188 43.8349 58.9139 43.6395Z" fill="#FF8E3D"/>
<path fill-rule="evenodd" clip-rule="evenodd" d="M55.5887 40.3161C55.7839 40.1207 56.1005 40.1205 56.2958 40.3157L57.2055 41.2244C57.4009 41.4196 57.401 41.7362 57.2059 41.9315C57.0107 42.1269 56.6941 42.1271 56.4988 41.9319L55.5891 41.0232C55.3937 40.828 55.3936 40.5114 55.5887 40.3161Z" fill="#FF8E3D"/>
<path d="M227.032 47.1572C227.032 48.2618 227.928 49.1572 229.032 49.1572C230.137 49.1572 231.032 48.2618 231.032 47.1572C231.032 46.0527 230.137 45.1572 229.032 45.1572C227.928 45.1572 227.032 46.0527 227.032 47.1572Z" fill="#9ADAF3"/>
<path d="M31 47.1577C31 48.2623 31.8954 49.1577 33 49.1577C34.1046 49.1577 35 48.2623 35 47.1577C35 46.0531 34.1046 45.1577 33 45.1577C31.8954 45.1577 31 46.0531 31 47.1577Z" fill="#9ADAF3"/>
<path d="M355.033 47.1577C355.033 48.2623 355.928 49.1577 357.033 49.1577C358.137 49.1577 359.033 48.2623 359.033 47.1577C359.033 46.0531 358.137 45.1577 357.033 45.1577C355.928 45.1577 355.033 46.0531 355.033 47.1577Z" fill="#9ADAF3"/>
<path fill-rule="evenodd" clip-rule="evenodd" d="M151.351 13.9847C142.576 11.6292 133.791 9.31204 125.015 6.96051C122.711 6.34322 122.107 6.65092 121.557 8.70379C119.99 14.555 118.417 20.405 116.854 26.2574C115.56 31.1055 118.362 35.501 123.696 36.9391C129.479 38.4984 134.549 39.8461 139.767 41.2335C143.196 42.1451 146.689 43.0738 150.491 44.0909C152.549 44.6422 153.307 44.2451 153.813 42.3564L153.814 42.3518L158.57 24.5649C159.677 19.5807 157.374 15.6015 151.351 13.9847ZM156.357 25.4365C157.905 19.6216 154.866 16.9989 150.832 15.9164C141.95 13.5322 123.647 8.7023 123.647 8.7023C123.647 8.7023 122.327 13.5921 120.956 18.688C120.17 21.6095 119.367 24.5987 118.786 26.7732M156.357 25.4365C154.809 31.2514 151.731 42.3087 151.731 42.3087C151.731 42.3087 133.087 37.3997 124.216 35.008C122.248 34.4774 120.556 33.3333 119.547 31.7885C118.635 30.3918 118.281 28.6676 118.786 26.7732M160.362 25.6417C159.995 25.9017 159.676 26.3126 159.565 26.6839C158.723 29.5339 158.022 32.4265 157.2 35.2821C157.029 35.8801 157.093 36.3488 157.374 36.8113C157.468 36.9663 157.587 37.1206 157.729 37.2789C158.815 38.49 159.889 39.7112 160.962 40.932C163.066 43.3257 165.169 45.7184 167.365 48.033C168.301 49.0194 169.201 48.8295 169.632 47.6271L176.371 22.5732C176.507 22.0386 176.479 21.1918 176.126 20.8783C175.795 20.5842 174.864 20.6506 174.312 20.83C169.77 22.3186 165.244 23.8478 160.747 25.4365C160.617 25.4825 160.487 25.5534 160.362 25.6417ZM174.192 22.9744C174.192 22.9744 161.459 27.3323 161.479 27.3102C161.479 27.3102 161.465 27.3258 161.459 27.3323C160.629 30.1507 159.936 33.007 159.123 35.8304C159.145 35.8586 159.175 35.8954 159.216 35.9414L159.218 35.9437C160.333 37.1868 161.42 38.4235 162.499 39.6514C164.338 41.7428 166.153 43.8082 168.043 45.8344L174.192 22.9744Z" fill="#4784FF"/>
<path fill-rule="evenodd" clip-rule="evenodd" d="M13.5436 39.9975L9.29356 44.2574C8.90349 44.6483 8.90186 45.2838 9.28992 45.6768L9.31698 45.7042C9.70505 46.0972 10.3359 46.0988 10.7259 45.7078L15.7058 40.7165C15.9258 40.496 16.0222 40.1977 15.9949 39.909C15.9767 39.6784 15.8799 39.4531 15.7044 39.2772L10.731 34.2923C10.3409 33.9013 9.71008 33.9029 9.32202 34.2959L9.29496 34.3233C8.90689 34.7163 8.90853 35.3518 9.2986 35.7428L13.5436 39.9975Z" fill="white"/>
</svg>
